G04 (created by PCBNEW-RS274X (2011-07-08 BZR 3044)-stable) date 5/7/2013 10:27:45 AM*
G01*
G70*
G90*
%MOIN*%
G04 Gerber Fmt 3.4, Leading zero omitted, Abs format*
%FSLAX34Y34*%
G04 APERTURE LIST*
%ADD10C,0.006000*%
%ADD11C,0.015000*%
%ADD12R,0.055000X0.055000*%
%ADD13C,0.055000*%
%ADD14R,0.060000X0.060000*%
%ADD15C,0.060000*%
%ADD16C,0.236200*%
%ADD17C,0.023600*%
%ADD18C,0.035000*%
%ADD19C,0.010000*%
G04 APERTURE END LIST*
G54D10*
G54D11*
X33980Y-28089D02*
X33972Y-28082D01*
X28661Y-37298D02*
X33980Y-28089D01*
X33965Y-46589D02*
X28661Y-37298D01*
X44697Y-46589D02*
X33965Y-46589D01*
X49996Y-37302D02*
X44697Y-46589D01*
X44646Y-28070D02*
X49996Y-37302D01*
X33972Y-28082D02*
X44646Y-28070D01*
G54D12*
X38831Y-32789D03*
G54D13*
X39831Y-32789D03*
G54D10*
G36*
X40297Y-42718D02*
X40022Y-43195D01*
X39545Y-42920D01*
X39820Y-42443D01*
X40297Y-42718D01*
X40297Y-42718D01*
G37*
G54D13*
X39055Y-42319D03*
X38189Y-41819D03*
X37323Y-41319D03*
X36457Y-40819D03*
X35591Y-40319D03*
G54D10*
G36*
X40927Y-41706D02*
X40652Y-42183D01*
X40175Y-41908D01*
X40450Y-41431D01*
X40927Y-41706D01*
X40927Y-41706D01*
G37*
G54D13*
X39685Y-41307D03*
X38819Y-40807D03*
X37953Y-40307D03*
G54D14*
X41791Y-34958D03*
G54D15*
X41791Y-33958D03*
X42791Y-34958D03*
X42791Y-33958D03*
X43791Y-34958D03*
X43791Y-33958D03*
G54D16*
X43803Y-39797D03*
G54D17*
X43803Y-38911D03*
X43803Y-40683D03*
X44571Y-39354D03*
X44571Y-40240D03*
X43035Y-39354D03*
X43035Y-40240D03*
G54D16*
X34937Y-34679D03*
G54D17*
X34937Y-33793D03*
X34937Y-35565D03*
X35705Y-34236D03*
X35705Y-35122D03*
X34169Y-34236D03*
X34169Y-35122D03*
G54D18*
X37374Y-29073D03*
X43846Y-44423D03*
X34850Y-30037D03*
X47823Y-36943D03*
X35441Y-44699D03*
X43343Y-29742D03*
X30913Y-37533D03*
X46882Y-32525D03*
X39043Y-28360D03*
X31543Y-33077D03*
X31839Y-41919D03*
X47193Y-41403D03*
X39669Y-46049D03*
X37394Y-33293D03*
X40713Y-34592D03*
X39906Y-36175D03*
X34551Y-37919D03*
X39587Y-43655D03*
X42177Y-41226D03*
X40409Y-38317D03*
X41252Y-35695D03*
X44205Y-36514D03*
X35126Y-31777D03*
X36827Y-43639D03*
X46205Y-36269D03*
X43630Y-42659D03*
X37386Y-30683D03*
X32531Y-38210D03*
X41949Y-30828D03*
X39059Y-29962D03*
X45449Y-33218D03*
X45823Y-40620D03*
X33220Y-41147D03*
X32898Y-33860D03*
X39669Y-44510D03*
X47067Y-36974D03*
X43406Y-43730D03*
X32850Y-33226D03*
X35819Y-43966D03*
X35268Y-30706D03*
X42992Y-30431D03*
X31681Y-37517D03*
X39650Y-45254D03*
X39059Y-29136D03*
X46220Y-32927D03*
X32543Y-41525D03*
X32220Y-33458D03*
X46488Y-41010D03*
X40732Y-40065D03*
X42043Y-36289D03*
X39193Y-38250D03*
X36961Y-39250D03*
X36575Y-32520D03*
X36654Y-42008D03*
X34488Y-40669D03*
X34764Y-36772D03*
X41732Y-41614D03*
X43819Y-37795D03*
X38346Y-37041D03*
X38346Y-37828D03*
X35945Y-37953D03*
X40469Y-31116D03*
X38937Y-37395D03*
X40441Y-36931D03*
G54D19*
X42728Y-45017D02*
X43846Y-44423D01*
X47181Y-33868D02*
X46161Y-32139D01*
X38409Y-45659D02*
X40358Y-45659D01*
X47819Y-38242D02*
X47823Y-36943D01*
X32579Y-42317D02*
X34331Y-44037D01*
X30913Y-37533D02*
X30913Y-38238D01*
X32567Y-32088D02*
X31575Y-33856D01*
X37374Y-29074D02*
X36020Y-29439D01*
X40358Y-28789D02*
X38429Y-28789D01*
X46161Y-32139D02*
X44441Y-30439D01*
X34850Y-30037D02*
X34291Y-30391D01*
X43846Y-44423D02*
X44421Y-44053D01*
X36020Y-29439D02*
X34850Y-30037D01*
X34331Y-44037D02*
X35441Y-44699D01*
X35441Y-44699D02*
X36012Y-44998D01*
X40358Y-45659D02*
X42728Y-45017D01*
X47138Y-40584D02*
X47819Y-38242D01*
X42752Y-29407D02*
X40358Y-28789D01*
X43343Y-29742D02*
X42752Y-29407D01*
X36012Y-44998D02*
X38409Y-45659D01*
X44441Y-30439D02*
X43343Y-29742D01*
X44421Y-44053D02*
X46157Y-42265D01*
X31575Y-33856D02*
X30913Y-36258D01*
X38429Y-28789D02*
X37374Y-29074D01*
X47823Y-36943D02*
X47799Y-36242D01*
X31559Y-40565D02*
X32579Y-42317D01*
X30913Y-36258D02*
X30913Y-37533D01*
X37374Y-29073D02*
X37374Y-29074D01*
X46157Y-42265D02*
X47138Y-40584D01*
X47799Y-36242D02*
X47181Y-33868D01*
X30913Y-38238D02*
X31559Y-40565D01*
X34291Y-30391D02*
X32567Y-32088D01*
X39669Y-46049D02*
X40382Y-46049D01*
X47484Y-40726D02*
X48209Y-38250D01*
X30551Y-38250D02*
X31240Y-40769D01*
X31220Y-33636D02*
X30547Y-36246D01*
X30547Y-36246D02*
X30551Y-38250D01*
X35831Y-29096D02*
X34071Y-30037D01*
X38323Y-28399D02*
X35831Y-29096D01*
X40382Y-28388D02*
X39043Y-28360D01*
X46882Y-32525D02*
X46512Y-31958D01*
X46512Y-31958D02*
X44661Y-30077D01*
X44661Y-30077D02*
X42929Y-29077D01*
X42929Y-29077D02*
X40382Y-28388D01*
X32240Y-42498D02*
X34126Y-44388D01*
X47520Y-33710D02*
X46882Y-32525D01*
X32220Y-31947D02*
X31543Y-33077D01*
X39043Y-28360D02*
X38323Y-28399D01*
X47193Y-41403D02*
X47484Y-40726D01*
X48201Y-36226D02*
X47520Y-33710D01*
X34071Y-30037D02*
X32220Y-31947D01*
X31240Y-40769D02*
X31839Y-41919D01*
X38370Y-46053D02*
X39669Y-46049D01*
X35882Y-45380D02*
X38370Y-46053D01*
X34126Y-44388D02*
X35882Y-45380D01*
X40382Y-46049D02*
X42941Y-45317D01*
X31839Y-41919D02*
X32240Y-42498D01*
X46559Y-42478D02*
X47193Y-41403D01*
X44630Y-44399D02*
X46559Y-42478D01*
X42941Y-45317D02*
X44630Y-44399D01*
X48209Y-38250D02*
X48201Y-36226D01*
X31543Y-33077D02*
X31220Y-33636D01*
X37394Y-33293D02*
X40713Y-34592D01*
X39906Y-36175D02*
X36465Y-36517D01*
X36465Y-36517D02*
X34551Y-37919D01*
X44591Y-35805D02*
X43244Y-35533D01*
X43244Y-35533D02*
X42791Y-34958D01*
X41559Y-43238D02*
X43559Y-42017D01*
X43559Y-42017D02*
X44650Y-41077D01*
X45594Y-39313D02*
X44591Y-35805D01*
X45071Y-40521D02*
X45594Y-39313D01*
X39587Y-43655D02*
X41559Y-43238D01*
X44650Y-41077D02*
X45071Y-40521D01*
X40409Y-38317D02*
X42177Y-41226D01*
X41252Y-35695D02*
X44205Y-36514D01*
X32531Y-38210D02*
X32969Y-39813D01*
X41945Y-43636D02*
X43630Y-42659D01*
X35126Y-31777D02*
X33949Y-32978D01*
X44783Y-32970D02*
X43638Y-31797D01*
X46205Y-36269D02*
X45760Y-34643D01*
X32969Y-39813D02*
X33937Y-41502D01*
X38378Y-44049D02*
X40374Y-44061D01*
X32512Y-36242D02*
X32531Y-38210D01*
X35114Y-42659D02*
X36827Y-43639D01*
X33937Y-41502D02*
X35114Y-42659D01*
X40374Y-44061D02*
X41945Y-43636D01*
X37373Y-30677D02*
X37374Y-30677D01*
X37386Y-30683D02*
X37373Y-30677D01*
X46189Y-38210D02*
X46205Y-36269D01*
X33949Y-32978D02*
X32945Y-34624D01*
X36827Y-43639D02*
X38378Y-44049D01*
X32945Y-34624D02*
X32512Y-36242D01*
X40346Y-30360D02*
X38406Y-30403D01*
X37374Y-30677D02*
X36791Y-30832D01*
X45776Y-39758D02*
X46189Y-38210D01*
X43630Y-42659D02*
X44831Y-41454D01*
X43638Y-31797D02*
X41949Y-30828D01*
X45760Y-34643D02*
X44783Y-32970D01*
X38406Y-30403D02*
X37374Y-30677D01*
X44831Y-41454D02*
X45776Y-39758D01*
X41949Y-30828D02*
X40346Y-30360D01*
X36791Y-30832D02*
X35126Y-31777D01*
X45122Y-32765D02*
X43843Y-31443D01*
X34894Y-31431D02*
X33602Y-32754D01*
X46142Y-34439D02*
X45449Y-33218D01*
X32134Y-36242D02*
X32122Y-38206D01*
X43839Y-42990D02*
X45161Y-41699D01*
X33602Y-41691D02*
X34898Y-42994D01*
X32614Y-34443D02*
X32134Y-36242D01*
X46650Y-36199D02*
X46142Y-34439D01*
X46130Y-39978D02*
X46630Y-38206D01*
X38362Y-44466D02*
X39669Y-44510D01*
X36598Y-43986D02*
X38362Y-44466D01*
X43843Y-31443D02*
X42134Y-30462D01*
X45823Y-40620D02*
X46130Y-39978D01*
X45161Y-41699D02*
X45823Y-40620D01*
X39669Y-44510D02*
X40362Y-44478D01*
X33602Y-32754D02*
X32898Y-33860D01*
X36618Y-30470D02*
X34894Y-31431D01*
X32614Y-39986D02*
X33220Y-41147D01*
X46630Y-38206D02*
X46650Y-36199D01*
X32122Y-38206D02*
X32614Y-39986D01*
X39059Y-29962D02*
X38398Y-29990D01*
X45449Y-33218D02*
X45122Y-32765D01*
X40362Y-44478D02*
X42138Y-43978D01*
X42134Y-30462D02*
X40362Y-29966D01*
X38398Y-29990D02*
X36618Y-30470D01*
X32898Y-33860D02*
X32614Y-34443D01*
X40362Y-29966D02*
X39059Y-29962D01*
X34898Y-42994D02*
X36598Y-43986D01*
X33220Y-41147D02*
X33602Y-41691D01*
X42138Y-43978D02*
X43839Y-42990D01*
X43406Y-43730D02*
X42323Y-44325D01*
X31717Y-38199D02*
X31681Y-37517D01*
X36413Y-30128D02*
X38402Y-29588D01*
X38394Y-44836D02*
X36402Y-44317D01*
X40370Y-44836D02*
X38394Y-44836D01*
X42323Y-44325D02*
X40370Y-44836D01*
X44051Y-43336D02*
X43406Y-43730D01*
X45461Y-41880D02*
X44051Y-43336D01*
X46480Y-40214D02*
X45461Y-41880D01*
X46976Y-38222D02*
X46480Y-40214D01*
X42362Y-30120D02*
X42992Y-30431D01*
X35819Y-43966D02*
X35817Y-43970D01*
X32236Y-34250D02*
X32858Y-33227D01*
X32850Y-33226D02*
X32858Y-33228D01*
X32858Y-33228D02*
X32858Y-33227D01*
X33256Y-32573D02*
X34701Y-31104D01*
X42992Y-30431D02*
X44067Y-31108D01*
X46480Y-34273D02*
X47020Y-36262D01*
X33209Y-41899D02*
X32264Y-40187D01*
X31681Y-37517D02*
X31732Y-36258D01*
X34701Y-31104D02*
X35268Y-30706D01*
X45508Y-32565D02*
X46480Y-34273D01*
X38402Y-29588D02*
X40362Y-29569D01*
X40362Y-29569D02*
X42362Y-30120D01*
X35268Y-30706D02*
X36413Y-30128D01*
X44067Y-31108D02*
X45508Y-32565D01*
X47067Y-36974D02*
X46976Y-38222D01*
X31732Y-36258D02*
X32236Y-34250D01*
X35817Y-43970D02*
X34701Y-43309D01*
X34701Y-43309D02*
X33209Y-41899D01*
X32264Y-40187D02*
X31717Y-38199D01*
X36402Y-44317D02*
X35817Y-43970D01*
X47020Y-36262D02*
X47067Y-36974D01*
X32858Y-33227D02*
X33256Y-32573D01*
X31350Y-38195D02*
X31941Y-40407D01*
X34539Y-43702D02*
X36181Y-44683D01*
X47398Y-36210D02*
X46795Y-34069D01*
X36181Y-44683D02*
X38382Y-45262D01*
X38382Y-45262D02*
X39650Y-45254D01*
X32543Y-41525D02*
X32886Y-42041D01*
X45807Y-42069D02*
X46488Y-41010D01*
X44224Y-43659D02*
X45807Y-42069D01*
X42520Y-44683D02*
X44224Y-43659D01*
X40343Y-45218D02*
X42520Y-44683D01*
X31941Y-40407D02*
X32543Y-41525D01*
X32929Y-32368D02*
X32220Y-33458D01*
X31335Y-36214D02*
X31350Y-38195D01*
X32220Y-33458D02*
X31913Y-34061D01*
X46220Y-32927D02*
X45831Y-32368D01*
X34520Y-30738D02*
X32929Y-32368D01*
X32886Y-42041D02*
X34539Y-43702D01*
X46783Y-40376D02*
X47402Y-38250D01*
X47402Y-38250D02*
X47398Y-36210D01*
X39650Y-45254D02*
X40343Y-45218D01*
X45831Y-32368D02*
X44252Y-30769D01*
X44252Y-30769D02*
X42539Y-29750D01*
X42539Y-29750D02*
X40382Y-29167D01*
X40382Y-29167D02*
X39059Y-29136D01*
X36228Y-29765D02*
X34520Y-30738D01*
X38386Y-29155D02*
X36228Y-29765D01*
X46795Y-34069D02*
X46220Y-32927D01*
X46488Y-41010D02*
X46783Y-40376D01*
X39059Y-29136D02*
X38386Y-29155D01*
X31913Y-34061D02*
X31335Y-36214D01*
X39193Y-38250D02*
X40732Y-40065D01*
X39193Y-38250D02*
X36961Y-39250D01*
X39193Y-38250D02*
X42043Y-36289D01*
X39831Y-32789D02*
X39831Y-31130D01*
X39831Y-31130D02*
X39449Y-30748D01*
X36575Y-32520D02*
X37677Y-32520D01*
X37677Y-32520D02*
X39449Y-30748D01*
X43791Y-33791D02*
X43791Y-33958D01*
X39449Y-30748D02*
X40748Y-30748D01*
X40748Y-30748D02*
X43791Y-33791D01*
X36437Y-34679D02*
X36437Y-33721D01*
X36575Y-33583D02*
X36575Y-32520D01*
X36437Y-33721D02*
X36575Y-33583D01*
X34937Y-34679D02*
X36437Y-34679D01*
X36437Y-34679D02*
X36411Y-34679D01*
X36411Y-34679D02*
X36496Y-34764D01*
X36654Y-42008D02*
X37047Y-42008D01*
X39512Y-43228D02*
X39921Y-42819D01*
X38267Y-43228D02*
X39512Y-43228D01*
X37047Y-42008D02*
X38267Y-43228D01*
X35827Y-42008D02*
X36654Y-42008D01*
X34488Y-40669D02*
X35827Y-42008D01*
X36496Y-34764D02*
X36496Y-34882D01*
X36496Y-34882D02*
X36496Y-35237D01*
X36496Y-35237D02*
X34961Y-36772D01*
X34764Y-36772D02*
X34961Y-36772D01*
X40980Y-41378D02*
X40551Y-41807D01*
X41496Y-41378D02*
X40980Y-41378D01*
X41732Y-41614D02*
X41496Y-41378D01*
X42835Y-38569D02*
X43819Y-37809D01*
X42835Y-38569D02*
X43803Y-39797D01*
X43819Y-37795D02*
X43819Y-37809D01*
X38346Y-37828D02*
X38346Y-37041D01*
X43803Y-39797D02*
X42551Y-42179D01*
X40551Y-41807D02*
X41228Y-42848D01*
X42551Y-42179D02*
X41228Y-42848D01*
X38189Y-41819D02*
X38189Y-41339D01*
X35945Y-39095D02*
X35945Y-37953D01*
X38189Y-41339D02*
X35945Y-39095D01*
X40441Y-36202D02*
X40441Y-36931D01*
X40902Y-35687D02*
X40441Y-36202D01*
X41201Y-34419D02*
X40902Y-35687D01*
X41791Y-33958D02*
X41201Y-34419D01*
X38937Y-37395D02*
X40441Y-36931D01*
X41791Y-33958D02*
X40469Y-31116D01*
G54D10*
G36*
X35349Y-34337D02*
X35008Y-34679D01*
X35348Y-35019D01*
X35337Y-35049D01*
X35337Y-35150D01*
X34937Y-34750D01*
X34537Y-35150D01*
X34537Y-35049D01*
X34524Y-35020D01*
X34866Y-34679D01*
X34525Y-34338D01*
X34537Y-34309D01*
X34537Y-34208D01*
X34937Y-34608D01*
X35337Y-34208D01*
X35337Y-34309D01*
X35349Y-34337D01*
X35349Y-34337D01*
G37*
G54D19*
X35349Y-34337D02*
X35008Y-34679D01*
X35348Y-35019D01*
X35337Y-35049D01*
X35337Y-35150D01*
X34937Y-34750D01*
X34537Y-35150D01*
X34537Y-35049D01*
X34524Y-35020D01*
X34866Y-34679D01*
X34525Y-34338D01*
X34537Y-34309D01*
X34537Y-34208D01*
X34937Y-34608D01*
X35337Y-34208D01*
X35337Y-34309D01*
X35349Y-34337D01*
G54D10*
G36*
X41319Y-33662D02*
X41242Y-33849D01*
X41242Y-34006D01*
X41016Y-34183D01*
X40985Y-34218D01*
X40962Y-34240D01*
X40954Y-34232D01*
X40798Y-34167D01*
X40629Y-34167D01*
X40539Y-34203D01*
X40350Y-34128D01*
X40350Y-32863D01*
X40339Y-32659D01*
X40283Y-32522D01*
X40192Y-32499D01*
X40121Y-32570D01*
X40121Y-32428D01*
X40098Y-32337D01*
X39905Y-32270D01*
X39701Y-32281D01*
X39564Y-32337D01*
X39541Y-32428D01*
X39831Y-32718D01*
X40121Y-32428D01*
X40121Y-32570D01*
X39902Y-32789D01*
X40192Y-33079D01*
X40283Y-33056D01*
X40350Y-32863D01*
X40350Y-34128D01*
X40121Y-34039D01*
X40121Y-33150D01*
X39831Y-32860D01*
X39760Y-32931D01*
X39760Y-32789D01*
X39470Y-32499D01*
X39379Y-32522D01*
X39355Y-32591D01*
X39355Y-32465D01*
X39317Y-32373D01*
X39247Y-32303D01*
X39156Y-32265D01*
X39057Y-32265D01*
X38507Y-32265D01*
X38415Y-32303D01*
X38345Y-32373D01*
X38307Y-32464D01*
X38307Y-32563D01*
X38307Y-33113D01*
X38345Y-33205D01*
X38415Y-33275D01*
X38506Y-33313D01*
X38605Y-33313D01*
X39155Y-33313D01*
X39247Y-33275D01*
X39317Y-33205D01*
X39355Y-33114D01*
X39355Y-33015D01*
X39355Y-32997D01*
X39379Y-33056D01*
X39470Y-33079D01*
X39760Y-32789D01*
X39760Y-32931D01*
X39541Y-33150D01*
X39564Y-33241D01*
X39757Y-33308D01*
X39961Y-33297D01*
X40098Y-33241D01*
X40121Y-33150D01*
X40121Y-34039D01*
X37784Y-33124D01*
X37755Y-33053D01*
X37635Y-32933D01*
X37479Y-32868D01*
X37310Y-32868D01*
X37154Y-32932D01*
X37034Y-33052D01*
X36969Y-33208D01*
X36969Y-33377D01*
X37033Y-33533D01*
X37153Y-33653D01*
X37309Y-33718D01*
X37478Y-33718D01*
X37565Y-33682D01*
X40323Y-34763D01*
X40352Y-34832D01*
X40472Y-34952D01*
X40628Y-35017D01*
X40752Y-35017D01*
X40627Y-35543D01*
X40270Y-35942D01*
X40267Y-35935D01*
X40147Y-35815D01*
X39991Y-35750D01*
X39822Y-35750D01*
X39666Y-35814D01*
X39575Y-35904D01*
X36435Y-36218D01*
X36408Y-36226D01*
X36394Y-36227D01*
X36368Y-36238D01*
X36323Y-36253D01*
X36304Y-36268D01*
X36288Y-36276D01*
X34624Y-37494D01*
X34467Y-37494D01*
X34311Y-37558D01*
X34191Y-37678D01*
X34126Y-37834D01*
X34126Y-38003D01*
X34190Y-38159D01*
X34310Y-38279D01*
X34466Y-38344D01*
X34635Y-38344D01*
X34791Y-38280D01*
X34911Y-38160D01*
X34976Y-38004D01*
X34976Y-37979D01*
X36576Y-36807D01*
X39632Y-36502D01*
X39665Y-36535D01*
X39821Y-36600D01*
X39990Y-36600D01*
X40141Y-36538D01*
X40141Y-36630D01*
X40081Y-36690D01*
X40062Y-36735D01*
X39139Y-37018D01*
X39022Y-36970D01*
X38853Y-36970D01*
X38697Y-37034D01*
X38577Y-37154D01*
X38512Y-37310D01*
X38512Y-37479D01*
X38576Y-37635D01*
X38696Y-37755D01*
X38852Y-37820D01*
X39021Y-37820D01*
X39177Y-37756D01*
X39297Y-37636D01*
X39315Y-37592D01*
X39867Y-37422D01*
X39280Y-37826D01*
X39278Y-37825D01*
X39109Y-37825D01*
X38953Y-37889D01*
X38833Y-38009D01*
X38794Y-38101D01*
X37113Y-38853D01*
X37046Y-38825D01*
X36877Y-38825D01*
X36721Y-38889D01*
X36601Y-39009D01*
X36536Y-39165D01*
X36536Y-39262D01*
X36245Y-38971D01*
X36245Y-38254D01*
X36305Y-38194D01*
X36370Y-38038D01*
X36370Y-37869D01*
X36306Y-37713D01*
X36186Y-37593D01*
X36030Y-37528D01*
X35861Y-37528D01*
X35705Y-37592D01*
X35585Y-37712D01*
X35520Y-37868D01*
X35520Y-38037D01*
X35584Y-38193D01*
X35645Y-38254D01*
X35645Y-39095D01*
X35668Y-39210D01*
X35733Y-39307D01*
X37220Y-40794D01*
X37219Y-40794D01*
X37026Y-40874D01*
X36982Y-40917D01*
X36982Y-40715D01*
X36902Y-40522D01*
X36755Y-40374D01*
X36562Y-40294D01*
X36353Y-40294D01*
X36160Y-40374D01*
X36116Y-40417D01*
X36116Y-40215D01*
X36036Y-40022D01*
X35889Y-39874D01*
X35696Y-39794D01*
X35487Y-39794D01*
X35294Y-39874D01*
X35146Y-40021D01*
X35066Y-40214D01*
X35066Y-40423D01*
X35146Y-40616D01*
X35293Y-40764D01*
X35486Y-40844D01*
X35695Y-40844D01*
X35888Y-40764D01*
X35932Y-40720D01*
X35932Y-40923D01*
X36012Y-41116D01*
X36159Y-41264D01*
X36352Y-41344D01*
X36561Y-41344D01*
X36754Y-41264D01*
X36798Y-41220D01*
X36798Y-41423D01*
X36878Y-41616D01*
X37025Y-41764D01*
X37218Y-41844D01*
X37427Y-41844D01*
X37620Y-41764D01*
X37664Y-41720D01*
X37664Y-41923D01*
X37744Y-42116D01*
X37891Y-42264D01*
X38084Y-42344D01*
X38293Y-42344D01*
X38486Y-42264D01*
X38530Y-42220D01*
X38530Y-42423D01*
X38610Y-42616D01*
X38757Y-42764D01*
X38950Y-42844D01*
X39159Y-42844D01*
X39346Y-42766D01*
X39305Y-42838D01*
X39292Y-42936D01*
X39318Y-43032D01*
X39378Y-43111D01*
X39562Y-43218D01*
X39577Y-43213D01*
X39572Y-43224D01*
X39582Y-43230D01*
X39503Y-43230D01*
X39347Y-43294D01*
X39227Y-43414D01*
X39162Y-43570D01*
X39162Y-43739D01*
X39167Y-43752D01*
X38416Y-43749D01*
X37199Y-43427D01*
X37188Y-43399D01*
X37068Y-43279D01*
X36912Y-43214D01*
X36743Y-43214D01*
X36710Y-43227D01*
X35297Y-42418D01*
X34173Y-41314D01*
X33250Y-39701D01*
X32901Y-38426D01*
X32956Y-38295D01*
X32956Y-38126D01*
X32892Y-37970D01*
X32829Y-37907D01*
X32812Y-36280D01*
X33224Y-34741D01*
X33746Y-33886D01*
X33534Y-34393D01*
X33531Y-34952D01*
X33743Y-35469D01*
X33750Y-35479D01*
X33934Y-35611D01*
X34066Y-35478D01*
X34096Y-35490D01*
X34197Y-35490D01*
X34005Y-35682D01*
X34137Y-35866D01*
X34651Y-36082D01*
X35210Y-36085D01*
X35727Y-35873D01*
X35737Y-35866D01*
X35869Y-35682D01*
X35677Y-35490D01*
X35778Y-35490D01*
X35806Y-35477D01*
X35940Y-35611D01*
X36124Y-35479D01*
X36340Y-34965D01*
X36343Y-34406D01*
X36131Y-33889D01*
X36124Y-33879D01*
X35940Y-33747D01*
X35807Y-33879D01*
X35778Y-33868D01*
X35677Y-33868D01*
X35869Y-33676D01*
X35737Y-33492D01*
X35223Y-33276D01*
X34664Y-33273D01*
X34147Y-33485D01*
X34137Y-33492D01*
X34005Y-33676D01*
X34197Y-33868D01*
X34096Y-33868D01*
X34067Y-33880D01*
X33934Y-33747D01*
X33752Y-33877D01*
X34191Y-33159D01*
X35128Y-32202D01*
X35210Y-32202D01*
X35366Y-32138D01*
X35486Y-32018D01*
X35540Y-31886D01*
X36900Y-31113D01*
X37152Y-31046D01*
X37301Y-31108D01*
X37470Y-31108D01*
X37626Y-31044D01*
X37746Y-30924D01*
X37762Y-30884D01*
X38447Y-30702D01*
X40303Y-30660D01*
X40409Y-30691D01*
X40385Y-30691D01*
X40229Y-30755D01*
X40109Y-30875D01*
X40044Y-31031D01*
X40044Y-31200D01*
X40108Y-31356D01*
X40228Y-31476D01*
X40324Y-31516D01*
X41319Y-33662D01*
X41319Y-33662D01*
G37*
G54D19*
X41319Y-33662D02*
X41242Y-33849D01*
X41242Y-34006D01*
X41016Y-34183D01*
X40985Y-34218D01*
X40962Y-34240D01*
X40954Y-34232D01*
X40798Y-34167D01*
X40629Y-34167D01*
X40539Y-34203D01*
X40350Y-34128D01*
X40350Y-32863D01*
X40339Y-32659D01*
X40283Y-32522D01*
X40192Y-32499D01*
X40121Y-32570D01*
X40121Y-32428D01*
X40098Y-32337D01*
X39905Y-32270D01*
X39701Y-32281D01*
X39564Y-32337D01*
X39541Y-32428D01*
X39831Y-32718D01*
X40121Y-32428D01*
X40121Y-32570D01*
X39902Y-32789D01*
X40192Y-33079D01*
X40283Y-33056D01*
X40350Y-32863D01*
X40350Y-34128D01*
X40121Y-34039D01*
X40121Y-33150D01*
X39831Y-32860D01*
X39760Y-32931D01*
X39760Y-32789D01*
X39470Y-32499D01*
X39379Y-32522D01*
X39355Y-32591D01*
X39355Y-32465D01*
X39317Y-32373D01*
X39247Y-32303D01*
X39156Y-32265D01*
X39057Y-32265D01*
X38507Y-32265D01*
X38415Y-32303D01*
X38345Y-32373D01*
X38307Y-32464D01*
X38307Y-32563D01*
X38307Y-33113D01*
X38345Y-33205D01*
X38415Y-33275D01*
X38506Y-33313D01*
X38605Y-33313D01*
X39155Y-33313D01*
X39247Y-33275D01*
X39317Y-33205D01*
X39355Y-33114D01*
X39355Y-33015D01*
X39355Y-32997D01*
X39379Y-33056D01*
X39470Y-33079D01*
X39760Y-32789D01*
X39760Y-32931D01*
X39541Y-33150D01*
X39564Y-33241D01*
X39757Y-33308D01*
X39961Y-33297D01*
X40098Y-33241D01*
X40121Y-33150D01*
X40121Y-34039D01*
X37784Y-33124D01*
X37755Y-33053D01*
X37635Y-32933D01*
X37479Y-32868D01*
X37310Y-32868D01*
X37154Y-32932D01*
X37034Y-33052D01*
X36969Y-33208D01*
X36969Y-33377D01*
X37033Y-33533D01*
X37153Y-33653D01*
X37309Y-33718D01*
X37478Y-33718D01*
X37565Y-33682D01*
X40323Y-34763D01*
X40352Y-34832D01*
X40472Y-34952D01*
X40628Y-35017D01*
X40752Y-35017D01*
X40627Y-35543D01*
X40270Y-35942D01*
X40267Y-35935D01*
X40147Y-35815D01*
X39991Y-35750D01*
X39822Y-35750D01*
X39666Y-35814D01*
X39575Y-35904D01*
X36435Y-36218D01*
X36408Y-36226D01*
X36394Y-36227D01*
X36368Y-36238D01*
X36323Y-36253D01*
X36304Y-36268D01*
X36288Y-36276D01*
X34624Y-37494D01*
X34467Y-37494D01*
X34311Y-37558D01*
X34191Y-37678D01*
X34126Y-37834D01*
X34126Y-38003D01*
X34190Y-38159D01*
X34310Y-38279D01*
X34466Y-38344D01*
X34635Y-38344D01*
X34791Y-38280D01*
X34911Y-38160D01*
X34976Y-38004D01*
X34976Y-37979D01*
X36576Y-36807D01*
X39632Y-36502D01*
X39665Y-36535D01*
X39821Y-36600D01*
X39990Y-36600D01*
X40141Y-36538D01*
X40141Y-36630D01*
X40081Y-36690D01*
X40062Y-36735D01*
X39139Y-37018D01*
X39022Y-36970D01*
X38853Y-36970D01*
X38697Y-37034D01*
X38577Y-37154D01*
X38512Y-37310D01*
X38512Y-37479D01*
X38576Y-37635D01*
X38696Y-37755D01*
X38852Y-37820D01*
X39021Y-37820D01*
X39177Y-37756D01*
X39297Y-37636D01*
X39315Y-37592D01*
X39867Y-37422D01*
X39280Y-37826D01*
X39278Y-37825D01*
X39109Y-37825D01*
X38953Y-37889D01*
X38833Y-38009D01*
X38794Y-38101D01*
X37113Y-38853D01*
X37046Y-38825D01*
X36877Y-38825D01*
X36721Y-38889D01*
X36601Y-39009D01*
X36536Y-39165D01*
X36536Y-39262D01*
X36245Y-38971D01*
X36245Y-38254D01*
X36305Y-38194D01*
X36370Y-38038D01*
X36370Y-37869D01*
X36306Y-37713D01*
X36186Y-37593D01*
X36030Y-37528D01*
X35861Y-37528D01*
X35705Y-37592D01*
X35585Y-37712D01*
X35520Y-37868D01*
X35520Y-38037D01*
X35584Y-38193D01*
X35645Y-38254D01*
X35645Y-39095D01*
X35668Y-39210D01*
X35733Y-39307D01*
X37220Y-40794D01*
X37219Y-40794D01*
X37026Y-40874D01*
X36982Y-40917D01*
X36982Y-40715D01*
X36902Y-40522D01*
X36755Y-40374D01*
X36562Y-40294D01*
X36353Y-40294D01*
X36160Y-40374D01*
X36116Y-40417D01*
X36116Y-40215D01*
X36036Y-40022D01*
X35889Y-39874D01*
X35696Y-39794D01*
X35487Y-39794D01*
X35294Y-39874D01*
X35146Y-40021D01*
X35066Y-40214D01*
X35066Y-40423D01*
X35146Y-40616D01*
X35293Y-40764D01*
X35486Y-40844D01*
X35695Y-40844D01*
X35888Y-40764D01*
X35932Y-40720D01*
X35932Y-40923D01*
X36012Y-41116D01*
X36159Y-41264D01*
X36352Y-41344D01*
X36561Y-41344D01*
X36754Y-41264D01*
X36798Y-41220D01*
X36798Y-41423D01*
X36878Y-41616D01*
X37025Y-41764D01*
X37218Y-41844D01*
X37427Y-41844D01*
X37620Y-41764D01*
X37664Y-41720D01*
X37664Y-41923D01*
X37744Y-42116D01*
X37891Y-42264D01*
X38084Y-42344D01*
X38293Y-42344D01*
X38486Y-42264D01*
X38530Y-42220D01*
X38530Y-42423D01*
X38610Y-42616D01*
X38757Y-42764D01*
X38950Y-42844D01*
X39159Y-42844D01*
X39346Y-42766D01*
X39305Y-42838D01*
X39292Y-42936D01*
X39318Y-43032D01*
X39378Y-43111D01*
X39562Y-43218D01*
X39577Y-43213D01*
X39572Y-43224D01*
X39582Y-43230D01*
X39503Y-43230D01*
X39347Y-43294D01*
X39227Y-43414D01*
X39162Y-43570D01*
X39162Y-43739D01*
X39167Y-43752D01*
X38416Y-43749D01*
X37199Y-43427D01*
X37188Y-43399D01*
X37068Y-43279D01*
X36912Y-43214D01*
X36743Y-43214D01*
X36710Y-43227D01*
X35297Y-42418D01*
X34173Y-41314D01*
X33250Y-39701D01*
X32901Y-38426D01*
X32956Y-38295D01*
X32956Y-38126D01*
X32892Y-37970D01*
X32829Y-37907D01*
X32812Y-36280D01*
X33224Y-34741D01*
X33746Y-33886D01*
X33534Y-34393D01*
X33531Y-34952D01*
X33743Y-35469D01*
X33750Y-35479D01*
X33934Y-35611D01*
X34066Y-35478D01*
X34096Y-35490D01*
X34197Y-35490D01*
X34005Y-35682D01*
X34137Y-35866D01*
X34651Y-36082D01*
X35210Y-36085D01*
X35727Y-35873D01*
X35737Y-35866D01*
X35869Y-35682D01*
X35677Y-35490D01*
X35778Y-35490D01*
X35806Y-35477D01*
X35940Y-35611D01*
X36124Y-35479D01*
X36340Y-34965D01*
X36343Y-34406D01*
X36131Y-33889D01*
X36124Y-33879D01*
X35940Y-33747D01*
X35807Y-33879D01*
X35778Y-33868D01*
X35677Y-33868D01*
X35869Y-33676D01*
X35737Y-33492D01*
X35223Y-33276D01*
X34664Y-33273D01*
X34147Y-33485D01*
X34137Y-33492D01*
X34005Y-33676D01*
X34197Y-33868D01*
X34096Y-33868D01*
X34067Y-33880D01*
X33934Y-33747D01*
X33752Y-33877D01*
X34191Y-33159D01*
X35128Y-32202D01*
X35210Y-32202D01*
X35366Y-32138D01*
X35486Y-32018D01*
X35540Y-31886D01*
X36900Y-31113D01*
X37152Y-31046D01*
X37301Y-31108D01*
X37470Y-31108D01*
X37626Y-31044D01*
X37746Y-30924D01*
X37762Y-30884D01*
X38447Y-30702D01*
X40303Y-30660D01*
X40409Y-30691D01*
X40385Y-30691D01*
X40229Y-30755D01*
X40109Y-30875D01*
X40044Y-31031D01*
X40044Y-31200D01*
X40108Y-31356D01*
X40228Y-31476D01*
X40324Y-31516D01*
X41319Y-33662D01*
G54D10*
G36*
X44215Y-39455D02*
X43874Y-39797D01*
X43803Y-39868D01*
X43768Y-39903D01*
X43403Y-40268D01*
X43403Y-40167D01*
X43390Y-40138D01*
X43732Y-39797D01*
X43391Y-39456D01*
X43403Y-39427D01*
X43403Y-39326D01*
X43803Y-39726D01*
X44203Y-39326D01*
X44203Y-39427D01*
X44215Y-39455D01*
X44215Y-39455D01*
G37*
G54D19*
X44215Y-39455D02*
X43874Y-39797D01*
X43803Y-39868D01*
X43768Y-39903D01*
X43403Y-40268D01*
X43403Y-40167D01*
X43390Y-40138D01*
X43732Y-39797D01*
X43391Y-39456D01*
X43403Y-39427D01*
X43403Y-39326D01*
X43803Y-39726D01*
X44203Y-39326D01*
X44203Y-39427D01*
X44215Y-39455D01*
G54D10*
G36*
X45277Y-39287D02*
X45192Y-39484D01*
X44997Y-39007D01*
X44990Y-38997D01*
X44806Y-38865D01*
X44673Y-38997D01*
X44644Y-38986D01*
X44543Y-38986D01*
X44735Y-38794D01*
X44603Y-38610D01*
X44089Y-38394D01*
X43530Y-38391D01*
X43013Y-38603D01*
X43003Y-38610D01*
X42871Y-38794D01*
X43063Y-38986D01*
X42962Y-38986D01*
X42933Y-38998D01*
X42800Y-38865D01*
X42616Y-38997D01*
X42400Y-39511D01*
X42397Y-40070D01*
X42609Y-40587D01*
X42616Y-40597D01*
X42800Y-40729D01*
X42932Y-40596D01*
X42962Y-40608D01*
X43063Y-40608D01*
X42871Y-40800D01*
X43003Y-40984D01*
X43517Y-41200D01*
X44045Y-41202D01*
X43381Y-41774D01*
X41443Y-42957D01*
X41180Y-43012D01*
X41180Y-41690D01*
X41154Y-41594D01*
X41094Y-41515D01*
X40910Y-41408D01*
X40826Y-41431D01*
X40619Y-41789D01*
X40977Y-41995D01*
X41062Y-41973D01*
X41118Y-41873D01*
X41167Y-41788D01*
X41180Y-41690D01*
X41180Y-43012D01*
X40950Y-43060D01*
X40950Y-42166D01*
X40927Y-42082D01*
X40569Y-41875D01*
X40363Y-42233D01*
X40385Y-42318D01*
X40570Y-42423D01*
X40668Y-42436D01*
X40764Y-42410D01*
X40842Y-42350D01*
X40892Y-42265D01*
X40950Y-42166D01*
X40950Y-43060D01*
X40550Y-43144D01*
X40550Y-42702D01*
X40524Y-42606D01*
X40464Y-42527D01*
X40280Y-42420D01*
X40196Y-42443D01*
X39989Y-42801D01*
X40347Y-43007D01*
X40432Y-42985D01*
X40488Y-42885D01*
X40537Y-42800D01*
X40550Y-42702D01*
X40550Y-43144D01*
X40309Y-43195D01*
X40320Y-43178D01*
X40297Y-43094D01*
X39983Y-42912D01*
X39939Y-42887D01*
X39853Y-42837D01*
X39902Y-42750D01*
X39903Y-42751D01*
X39928Y-42707D01*
X40109Y-42393D01*
X40087Y-42308D01*
X39902Y-42203D01*
X39804Y-42190D01*
X39708Y-42216D01*
X39630Y-42276D01*
X39580Y-42361D01*
X39580Y-42215D01*
X39500Y-42022D01*
X39353Y-41874D01*
X39160Y-41794D01*
X38951Y-41794D01*
X38758Y-41874D01*
X38714Y-41917D01*
X38714Y-41715D01*
X38634Y-41522D01*
X38489Y-41376D01*
X38489Y-41339D01*
X38466Y-41224D01*
X38409Y-41139D01*
X38521Y-41252D01*
X38714Y-41332D01*
X38923Y-41332D01*
X39116Y-41252D01*
X39160Y-41208D01*
X39160Y-41411D01*
X39240Y-41604D01*
X39387Y-41752D01*
X39580Y-41832D01*
X39789Y-41832D01*
X39976Y-41754D01*
X39935Y-41826D01*
X39922Y-41924D01*
X39948Y-42020D01*
X40008Y-42099D01*
X40192Y-42206D01*
X40276Y-42183D01*
X40457Y-41868D01*
X40458Y-41869D01*
X40483Y-41825D01*
X40532Y-41738D01*
X40533Y-41739D01*
X40558Y-41695D01*
X40739Y-41381D01*
X40717Y-41296D01*
X40532Y-41191D01*
X40434Y-41178D01*
X40338Y-41204D01*
X40260Y-41264D01*
X40210Y-41349D01*
X40210Y-41203D01*
X40130Y-41010D01*
X39983Y-40862D01*
X39790Y-40782D01*
X39581Y-40782D01*
X39388Y-40862D01*
X39344Y-40905D01*
X39344Y-40703D01*
X39264Y-40510D01*
X39117Y-40362D01*
X38924Y-40282D01*
X38715Y-40282D01*
X38522Y-40362D01*
X38478Y-40405D01*
X38478Y-40203D01*
X38398Y-40010D01*
X38251Y-39862D01*
X38058Y-39782D01*
X37849Y-39782D01*
X37656Y-39862D01*
X37508Y-40009D01*
X37442Y-40168D01*
X36949Y-39675D01*
X37045Y-39675D01*
X37201Y-39611D01*
X37321Y-39491D01*
X37358Y-39400D01*
X39041Y-38647D01*
X39108Y-38675D01*
X39159Y-38675D01*
X40307Y-40026D01*
X40307Y-40149D01*
X40371Y-40305D01*
X40491Y-40425D01*
X40647Y-40490D01*
X40816Y-40490D01*
X40972Y-40426D01*
X41092Y-40306D01*
X41157Y-40150D01*
X41157Y-40124D01*
X41761Y-41118D01*
X41752Y-41141D01*
X41752Y-41310D01*
X41816Y-41466D01*
X41936Y-41586D01*
X42092Y-41651D01*
X42261Y-41651D01*
X42417Y-41587D01*
X42537Y-41467D01*
X42602Y-41311D01*
X42602Y-41142D01*
X42538Y-40986D01*
X42418Y-40866D01*
X42273Y-40805D01*
X40824Y-38423D01*
X40834Y-38402D01*
X40834Y-38233D01*
X40770Y-38077D01*
X40650Y-37957D01*
X40494Y-37892D01*
X40325Y-37892D01*
X40169Y-37956D01*
X40049Y-38076D01*
X39984Y-38232D01*
X39984Y-38401D01*
X40048Y-38557D01*
X40168Y-38677D01*
X40314Y-38737D01*
X40877Y-39665D01*
X40817Y-39640D01*
X40765Y-39640D01*
X39636Y-38308D01*
X41957Y-36713D01*
X41958Y-36714D01*
X42127Y-36714D01*
X42283Y-36650D01*
X42403Y-36530D01*
X42468Y-36374D01*
X42468Y-36343D01*
X43830Y-36721D01*
X43844Y-36754D01*
X43964Y-36874D01*
X44120Y-36939D01*
X44289Y-36939D01*
X44445Y-36875D01*
X44554Y-36765D01*
X45277Y-39287D01*
X45277Y-39287D01*
G37*
G54D19*
X45277Y-39287D02*
X45192Y-39484D01*
X44997Y-39007D01*
X44990Y-38997D01*
X44806Y-38865D01*
X44673Y-38997D01*
X44644Y-38986D01*
X44543Y-38986D01*
X44735Y-38794D01*
X44603Y-38610D01*
X44089Y-38394D01*
X43530Y-38391D01*
X43013Y-38603D01*
X43003Y-38610D01*
X42871Y-38794D01*
X43063Y-38986D01*
X42962Y-38986D01*
X42933Y-38998D01*
X42800Y-38865D01*
X42616Y-38997D01*
X42400Y-39511D01*
X42397Y-40070D01*
X42609Y-40587D01*
X42616Y-40597D01*
X42800Y-40729D01*
X42932Y-40596D01*
X42962Y-40608D01*
X43063Y-40608D01*
X42871Y-40800D01*
X43003Y-40984D01*
X43517Y-41200D01*
X44045Y-41202D01*
X43381Y-41774D01*
X41443Y-42957D01*
X41180Y-43012D01*
X41180Y-41690D01*
X41154Y-41594D01*
X41094Y-41515D01*
X40910Y-41408D01*
X40826Y-41431D01*
X40619Y-41789D01*
X40977Y-41995D01*
X41062Y-41973D01*
X41118Y-41873D01*
X41167Y-41788D01*
X41180Y-41690D01*
X41180Y-43012D01*
X40950Y-43060D01*
X40950Y-42166D01*
X40927Y-42082D01*
X40569Y-41875D01*
X40363Y-42233D01*
X40385Y-42318D01*
X40570Y-42423D01*
X40668Y-42436D01*
X40764Y-42410D01*
X40842Y-42350D01*
X40892Y-42265D01*
X40950Y-42166D01*
X40950Y-43060D01*
X40550Y-43144D01*
X40550Y-42702D01*
X40524Y-42606D01*
X40464Y-42527D01*
X40280Y-42420D01*
X40196Y-42443D01*
X39989Y-42801D01*
X40347Y-43007D01*
X40432Y-42985D01*
X40488Y-42885D01*
X40537Y-42800D01*
X40550Y-42702D01*
X40550Y-43144D01*
X40309Y-43195D01*
X40320Y-43178D01*
X40297Y-43094D01*
X39983Y-42912D01*
X39939Y-42887D01*
X39853Y-42837D01*
X39902Y-42750D01*
X39903Y-42751D01*
X39928Y-42707D01*
X40109Y-42393D01*
X40087Y-42308D01*
X39902Y-42203D01*
X39804Y-42190D01*
X39708Y-42216D01*
X39630Y-42276D01*
X39580Y-42361D01*
X39580Y-42215D01*
X39500Y-42022D01*
X39353Y-41874D01*
X39160Y-41794D01*
X38951Y-41794D01*
X38758Y-41874D01*
X38714Y-41917D01*
X38714Y-41715D01*
X38634Y-41522D01*
X38489Y-41376D01*
X38489Y-41339D01*
X38466Y-41224D01*
X38409Y-41139D01*
X38521Y-41252D01*
X38714Y-41332D01*
X38923Y-41332D01*
X39116Y-41252D01*
X39160Y-41208D01*
X39160Y-41411D01*
X39240Y-41604D01*
X39387Y-41752D01*
X39580Y-41832D01*
X39789Y-41832D01*
X39976Y-41754D01*
X39935Y-41826D01*
X39922Y-41924D01*
X39948Y-42020D01*
X40008Y-42099D01*
X40192Y-42206D01*
X40276Y-42183D01*
X40457Y-41868D01*
X40458Y-41869D01*
X40483Y-41825D01*
X40532Y-41738D01*
X40533Y-41739D01*
X40558Y-41695D01*
X40739Y-41381D01*
X40717Y-41296D01*
X40532Y-41191D01*
X40434Y-41178D01*
X40338Y-41204D01*
X40260Y-41264D01*
X40210Y-41349D01*
X40210Y-41203D01*
X40130Y-41010D01*
X39983Y-40862D01*
X39790Y-40782D01*
X39581Y-40782D01*
X39388Y-40862D01*
X39344Y-40905D01*
X39344Y-40703D01*
X39264Y-40510D01*
X39117Y-40362D01*
X38924Y-40282D01*
X38715Y-40282D01*
X38522Y-40362D01*
X38478Y-40405D01*
X38478Y-40203D01*
X38398Y-40010D01*
X38251Y-39862D01*
X38058Y-39782D01*
X37849Y-39782D01*
X37656Y-39862D01*
X37508Y-40009D01*
X37442Y-40168D01*
X36949Y-39675D01*
X37045Y-39675D01*
X37201Y-39611D01*
X37321Y-39491D01*
X37358Y-39400D01*
X39041Y-38647D01*
X39108Y-38675D01*
X39159Y-38675D01*
X40307Y-40026D01*
X40307Y-40149D01*
X40371Y-40305D01*
X40491Y-40425D01*
X40647Y-40490D01*
X40816Y-40490D01*
X40972Y-40426D01*
X41092Y-40306D01*
X41157Y-40150D01*
X41157Y-40124D01*
X41761Y-41118D01*
X41752Y-41141D01*
X41752Y-41310D01*
X41816Y-41466D01*
X41936Y-41586D01*
X42092Y-41651D01*
X42261Y-41651D01*
X42417Y-41587D01*
X42537Y-41467D01*
X42602Y-41311D01*
X42602Y-41142D01*
X42538Y-40986D01*
X42418Y-40866D01*
X42273Y-40805D01*
X40824Y-38423D01*
X40834Y-38402D01*
X40834Y-38233D01*
X40770Y-38077D01*
X40650Y-37957D01*
X40494Y-37892D01*
X40325Y-37892D01*
X40169Y-37956D01*
X40049Y-38076D01*
X39984Y-38232D01*
X39984Y-38401D01*
X40048Y-38557D01*
X40168Y-38677D01*
X40314Y-38737D01*
X40877Y-39665D01*
X40817Y-39640D01*
X40765Y-39640D01*
X39636Y-38308D01*
X41957Y-36713D01*
X41958Y-36714D01*
X42127Y-36714D01*
X42283Y-36650D01*
X42403Y-36530D01*
X42468Y-36374D01*
X42468Y-36343D01*
X43830Y-36721D01*
X43844Y-36754D01*
X43964Y-36874D01*
X44120Y-36939D01*
X44289Y-36939D01*
X44445Y-36875D01*
X44554Y-36765D01*
X45277Y-39287D01*
G54D10*
G36*
X45903Y-36568D02*
X45889Y-38165D01*
X45740Y-38725D01*
X44879Y-35722D01*
X44858Y-35681D01*
X44841Y-35639D01*
X44832Y-35630D01*
X44826Y-35618D01*
X44790Y-35588D01*
X44758Y-35556D01*
X44744Y-35550D01*
X44736Y-35543D01*
X44700Y-35531D01*
X44650Y-35510D01*
X44121Y-35403D01*
X44256Y-35269D01*
X44340Y-35067D01*
X44340Y-34849D01*
X44334Y-34834D01*
X44334Y-34037D01*
X44323Y-33824D01*
X44263Y-33677D01*
X44169Y-33650D01*
X44099Y-33720D01*
X44099Y-33580D01*
X44072Y-33486D01*
X43870Y-33415D01*
X43657Y-33426D01*
X43510Y-33486D01*
X43483Y-33580D01*
X43791Y-33887D01*
X44099Y-33580D01*
X44099Y-33720D01*
X43862Y-33958D01*
X44169Y-34266D01*
X44263Y-34239D01*
X44334Y-34037D01*
X44334Y-34834D01*
X44256Y-34647D01*
X44102Y-34493D01*
X44010Y-34455D01*
X44072Y-34430D01*
X44099Y-34336D01*
X43791Y-34029D01*
X43483Y-34336D01*
X43510Y-34430D01*
X43575Y-34453D01*
X43480Y-34493D01*
X43326Y-34647D01*
X43291Y-34731D01*
X43256Y-34647D01*
X43102Y-34493D01*
X43017Y-34458D01*
X43102Y-34423D01*
X43256Y-34269D01*
X43293Y-34177D01*
X43319Y-34239D01*
X43413Y-34266D01*
X43720Y-33958D01*
X43413Y-33650D01*
X43319Y-33677D01*
X43295Y-33742D01*
X43256Y-33647D01*
X43102Y-33493D01*
X42900Y-33409D01*
X42682Y-33409D01*
X42480Y-33493D01*
X42326Y-33647D01*
X42291Y-33731D01*
X42256Y-33647D01*
X42102Y-33493D01*
X41900Y-33409D01*
X41864Y-33409D01*
X40867Y-31263D01*
X40894Y-31201D01*
X40894Y-31032D01*
X40830Y-30876D01*
X40742Y-30788D01*
X41572Y-31030D01*
X41588Y-31068D01*
X41708Y-31188D01*
X41864Y-31253D01*
X42033Y-31253D01*
X42064Y-31239D01*
X43447Y-32032D01*
X44544Y-33155D01*
X45481Y-34760D01*
X45834Y-36052D01*
X45780Y-36184D01*
X45780Y-36353D01*
X45844Y-36509D01*
X45903Y-36568D01*
X45903Y-36568D01*
G37*
G54D19*
X45903Y-36568D02*
X45889Y-38165D01*
X45740Y-38725D01*
X44879Y-35722D01*
X44858Y-35681D01*
X44841Y-35639D01*
X44832Y-35630D01*
X44826Y-35618D01*
X44790Y-35588D01*
X44758Y-35556D01*
X44744Y-35550D01*
X44736Y-35543D01*
X44700Y-35531D01*
X44650Y-35510D01*
X44121Y-35403D01*
X44256Y-35269D01*
X44340Y-35067D01*
X44340Y-34849D01*
X44334Y-34834D01*
X44334Y-34037D01*
X44323Y-33824D01*
X44263Y-33677D01*
X44169Y-33650D01*
X44099Y-33720D01*
X44099Y-33580D01*
X44072Y-33486D01*
X43870Y-33415D01*
X43657Y-33426D01*
X43510Y-33486D01*
X43483Y-33580D01*
X43791Y-33887D01*
X44099Y-33580D01*
X44099Y-33720D01*
X43862Y-33958D01*
X44169Y-34266D01*
X44263Y-34239D01*
X44334Y-34037D01*
X44334Y-34834D01*
X44256Y-34647D01*
X44102Y-34493D01*
X44010Y-34455D01*
X44072Y-34430D01*
X44099Y-34336D01*
X43791Y-34029D01*
X43483Y-34336D01*
X43510Y-34430D01*
X43575Y-34453D01*
X43480Y-34493D01*
X43326Y-34647D01*
X43291Y-34731D01*
X43256Y-34647D01*
X43102Y-34493D01*
X43017Y-34458D01*
X43102Y-34423D01*
X43256Y-34269D01*
X43293Y-34177D01*
X43319Y-34239D01*
X43413Y-34266D01*
X43720Y-33958D01*
X43413Y-33650D01*
X43319Y-33677D01*
X43295Y-33742D01*
X43256Y-33647D01*
X43102Y-33493D01*
X42900Y-33409D01*
X42682Y-33409D01*
X42480Y-33493D01*
X42326Y-33647D01*
X42291Y-33731D01*
X42256Y-33647D01*
X42102Y-33493D01*
X41900Y-33409D01*
X41864Y-33409D01*
X40867Y-31263D01*
X40894Y-31201D01*
X40894Y-31032D01*
X40830Y-30876D01*
X40742Y-30788D01*
X41572Y-31030D01*
X41588Y-31068D01*
X41708Y-31188D01*
X41864Y-31253D01*
X42033Y-31253D01*
X42064Y-31239D01*
X43447Y-32032D01*
X44544Y-33155D01*
X45481Y-34760D01*
X45834Y-36052D01*
X45780Y-36184D01*
X45780Y-36353D01*
X45844Y-36509D01*
X45903Y-36568D01*
M02*
