G04 (created by PCBNEW-RS274X (2011-07-08 BZR 3044)-stable) date 5/7/2013 10:27:45 AM*
G01*
G70*
G90*
%MOIN*%
G04 Gerber Fmt 3.4, Leading zero omitted, Abs format*
%FSLAX34Y34*%
G04 APERTURE LIST*
%ADD10C,0.006000*%
%ADD11C,0.015000*%
%ADD12R,0.078700X0.017700*%
%ADD13R,0.017700X0.078700*%
%ADD14R,0.039400X0.027600*%
%ADD15R,0.045000X0.025000*%
%ADD16R,0.025000X0.045000*%
%ADD17R,0.035400X0.059100*%
%ADD18R,0.059100X0.035400*%
%ADD19R,0.055000X0.035000*%
%ADD20R,0.063000X0.019700*%
%ADD21R,0.063000X0.011800*%
G04 APERTURE END LIST*
G54D10*
G54D11*
X33980Y-28089D02*
X33972Y-28082D01*
X28661Y-37298D02*
X33980Y-28089D01*
X33965Y-46589D02*
X28661Y-37298D01*
X44697Y-46589D02*
X33965Y-46589D01*
X49996Y-37302D02*
X44697Y-46589D01*
X44646Y-28070D02*
X49996Y-37302D01*
X33972Y-28082D02*
X44646Y-28070D01*
G54D12*
X37474Y-36145D03*
X37474Y-36460D03*
X37474Y-36775D03*
X37474Y-37090D03*
X37474Y-37405D03*
X37474Y-37720D03*
X37474Y-38035D03*
X37474Y-38350D03*
X41240Y-38348D03*
X41240Y-36138D03*
X41240Y-36458D03*
X41240Y-36778D03*
X41240Y-37088D03*
X41240Y-37408D03*
X41240Y-37718D03*
X41240Y-38038D03*
G54D13*
X38258Y-39138D03*
X38572Y-39138D03*
X38888Y-39138D03*
X39202Y-39138D03*
X39518Y-39138D03*
X39832Y-39138D03*
X40148Y-39138D03*
X40462Y-39138D03*
X38260Y-35358D03*
X38570Y-35358D03*
X38890Y-35358D03*
X39200Y-35358D03*
X39510Y-35358D03*
X39830Y-35358D03*
X40150Y-35358D03*
X40470Y-35358D03*
G54D10*
G36*
X35585Y-42783D02*
X35782Y-42441D01*
X36021Y-42579D01*
X35824Y-42921D01*
X35585Y-42783D01*
X35585Y-42783D01*
G37*
G36*
X36410Y-42104D02*
X36607Y-41762D01*
X36846Y-41900D01*
X36649Y-42242D01*
X36410Y-42104D01*
X36410Y-42104D01*
G37*
G36*
X35760Y-41729D02*
X35957Y-41387D01*
X36196Y-41525D01*
X35999Y-41867D01*
X35760Y-41729D01*
X35760Y-41729D01*
G37*
G54D14*
X32886Y-36874D03*
X33886Y-37249D03*
X33886Y-36499D03*
G54D10*
G36*
X36415Y-31191D02*
X36612Y-31533D01*
X36373Y-31671D01*
X36176Y-31329D01*
X36415Y-31191D01*
X36415Y-31191D01*
G37*
G36*
X36590Y-32245D02*
X36787Y-32587D01*
X36548Y-32725D01*
X36351Y-32383D01*
X36590Y-32245D01*
X36590Y-32245D01*
G37*
G36*
X37240Y-31870D02*
X37437Y-32212D01*
X37198Y-32350D01*
X37001Y-32008D01*
X37240Y-31870D01*
X37240Y-31870D01*
G37*
G36*
X43204Y-31693D02*
X43007Y-32035D01*
X42768Y-31897D01*
X42965Y-31555D01*
X43204Y-31693D01*
X43204Y-31693D01*
G37*
G36*
X42379Y-32372D02*
X42182Y-32714D01*
X41943Y-32576D01*
X42140Y-32234D01*
X42379Y-32372D01*
X42379Y-32372D01*
G37*
G36*
X43029Y-32747D02*
X42832Y-33089D01*
X42593Y-32951D01*
X42790Y-32609D01*
X43029Y-32747D01*
X43029Y-32747D01*
G37*
G54D14*
X45864Y-37661D03*
X44864Y-37286D03*
X44864Y-38036D03*
G54D10*
G36*
X42296Y-43305D02*
X42099Y-42963D01*
X42338Y-42825D01*
X42535Y-43167D01*
X42296Y-43305D01*
X42296Y-43305D01*
G37*
G36*
X42121Y-42251D02*
X41924Y-41909D01*
X42163Y-41771D01*
X42360Y-42113D01*
X42121Y-42251D01*
X42121Y-42251D01*
G37*
G36*
X41471Y-42626D02*
X41274Y-42284D01*
X41513Y-42146D01*
X41710Y-42488D01*
X41471Y-42626D01*
X41471Y-42626D01*
G37*
G36*
X36820Y-39618D02*
X36595Y-40007D01*
X36378Y-39882D01*
X36603Y-39493D01*
X36820Y-39618D01*
X36820Y-39618D01*
G37*
G36*
X36300Y-39318D02*
X36075Y-39707D01*
X35858Y-39582D01*
X36083Y-39193D01*
X36300Y-39318D01*
X36300Y-39318D01*
G37*
G54D15*
X35512Y-37928D03*
X35512Y-38528D03*
X42244Y-36820D03*
X42244Y-37420D03*
G54D10*
G36*
X41672Y-31560D02*
X42061Y-31785D01*
X41936Y-32002D01*
X41547Y-31777D01*
X41672Y-31560D01*
X41672Y-31560D01*
G37*
G36*
X41372Y-32080D02*
X41761Y-32305D01*
X41636Y-32522D01*
X41247Y-32297D01*
X41372Y-32080D01*
X41372Y-32080D01*
G37*
G54D15*
X36535Y-36599D03*
X36535Y-35999D03*
G54D10*
G36*
X40835Y-40563D02*
X40610Y-40952D01*
X40393Y-40827D01*
X40618Y-40438D01*
X40835Y-40563D01*
X40835Y-40563D01*
G37*
G36*
X40315Y-40263D02*
X40090Y-40652D01*
X39873Y-40527D01*
X40098Y-40138D01*
X40315Y-40263D01*
X40315Y-40263D01*
G37*
G54D15*
X39094Y-34467D03*
X39094Y-33867D03*
X38150Y-34467D03*
X38150Y-33867D03*
X37205Y-34467D03*
X37205Y-33867D03*
G54D10*
G36*
X35538Y-32454D02*
X35927Y-32229D01*
X36052Y-32446D01*
X35663Y-32671D01*
X35538Y-32454D01*
X35538Y-32454D01*
G37*
G36*
X35838Y-32974D02*
X36227Y-32749D01*
X36352Y-32966D01*
X35963Y-33191D01*
X35838Y-32974D01*
X35838Y-32974D01*
G37*
G36*
X43202Y-42061D02*
X42813Y-42286D01*
X42688Y-42069D01*
X43077Y-41844D01*
X43202Y-42061D01*
X43202Y-42061D01*
G37*
G36*
X42902Y-41541D02*
X42513Y-41766D01*
X42388Y-41549D01*
X42777Y-41324D01*
X42902Y-41541D01*
X42902Y-41541D01*
G37*
G54D16*
X45300Y-36608D03*
X44700Y-36608D03*
X41235Y-39718D03*
X41835Y-39718D03*
X41235Y-38931D03*
X41835Y-38931D03*
X42141Y-38065D03*
X42741Y-38065D03*
G54D10*
G36*
X37069Y-42995D02*
X36680Y-42770D01*
X36805Y-42553D01*
X37194Y-42778D01*
X37069Y-42995D01*
X37069Y-42995D01*
G37*
G36*
X37369Y-42475D02*
X36980Y-42250D01*
X37105Y-42033D01*
X37494Y-42258D01*
X37369Y-42475D01*
X37369Y-42475D01*
G37*
G54D16*
X33440Y-37947D03*
X34040Y-37947D03*
G54D10*
G36*
X42426Y-45089D02*
X42937Y-44794D01*
X43114Y-45101D01*
X42603Y-45396D01*
X42426Y-45089D01*
X42426Y-45089D01*
G37*
G36*
X42111Y-44543D02*
X42622Y-44248D01*
X42799Y-44555D01*
X42288Y-44850D01*
X42111Y-44543D01*
X42111Y-44543D01*
G37*
G36*
X41796Y-43997D02*
X42307Y-43702D01*
X42484Y-44009D01*
X41973Y-44304D01*
X41796Y-43997D01*
X41796Y-43997D01*
G37*
G36*
X43500Y-43013D02*
X44011Y-42718D01*
X44188Y-43025D01*
X43677Y-43320D01*
X43500Y-43013D01*
X43500Y-43013D01*
G37*
G36*
X43815Y-43559D02*
X44326Y-43264D01*
X44503Y-43571D01*
X43992Y-43866D01*
X43815Y-43559D01*
X43815Y-43559D01*
G37*
G36*
X44130Y-44105D02*
X44641Y-43810D01*
X44818Y-44117D01*
X44307Y-44412D01*
X44130Y-44105D01*
X44130Y-44105D01*
G37*
G36*
X45942Y-42509D02*
X46237Y-41998D01*
X46544Y-42175D01*
X46249Y-42686D01*
X45942Y-42509D01*
X45942Y-42509D01*
G37*
G36*
X45396Y-42194D02*
X45691Y-41683D01*
X45998Y-41860D01*
X45703Y-42371D01*
X45396Y-42194D01*
X45396Y-42194D01*
G37*
G36*
X44850Y-41879D02*
X45145Y-41368D01*
X45452Y-41545D01*
X45157Y-42056D01*
X44850Y-41879D01*
X44850Y-41879D01*
G37*
G36*
X45834Y-40175D02*
X46129Y-39664D01*
X46436Y-39841D01*
X46141Y-40352D01*
X45834Y-40175D01*
X45834Y-40175D01*
G37*
G36*
X46380Y-40490D02*
X46675Y-39979D01*
X46982Y-40156D01*
X46687Y-40667D01*
X46380Y-40490D01*
X46380Y-40490D01*
G37*
G36*
X46926Y-40805D02*
X47221Y-40294D01*
X47528Y-40471D01*
X47233Y-40982D01*
X46926Y-40805D01*
X46926Y-40805D01*
G37*
G54D17*
X47874Y-38222D03*
X47244Y-38222D03*
X46614Y-38222D03*
X46614Y-36254D03*
X47244Y-36254D03*
X47874Y-36254D03*
G54D10*
G36*
X47221Y-34182D02*
X46926Y-33671D01*
X47233Y-33494D01*
X47528Y-34005D01*
X47221Y-34182D01*
X47221Y-34182D01*
G37*
G36*
X46675Y-34497D02*
X46380Y-33986D01*
X46687Y-33809D01*
X46982Y-34320D01*
X46675Y-34497D01*
X46675Y-34497D01*
G37*
G36*
X46129Y-34812D02*
X45834Y-34301D01*
X46141Y-34124D01*
X46436Y-34635D01*
X46129Y-34812D01*
X46129Y-34812D01*
G37*
G36*
X45145Y-33108D02*
X44850Y-32597D01*
X45157Y-32420D01*
X45452Y-32931D01*
X45145Y-33108D01*
X45145Y-33108D01*
G37*
G36*
X45691Y-32793D02*
X45396Y-32282D01*
X45703Y-32105D01*
X45998Y-32616D01*
X45691Y-32793D01*
X45691Y-32793D01*
G37*
G36*
X46237Y-32478D02*
X45942Y-31967D01*
X46249Y-31790D01*
X46544Y-32301D01*
X46237Y-32478D01*
X46237Y-32478D01*
G37*
G36*
X44641Y-30666D02*
X44130Y-30371D01*
X44307Y-30064D01*
X44818Y-30359D01*
X44641Y-30666D01*
X44641Y-30666D01*
G37*
G36*
X44326Y-31212D02*
X43815Y-30917D01*
X43992Y-30610D01*
X44503Y-30905D01*
X44326Y-31212D01*
X44326Y-31212D01*
G37*
G36*
X44011Y-31758D02*
X43500Y-31463D01*
X43677Y-31156D01*
X44188Y-31451D01*
X44011Y-31758D01*
X44011Y-31758D01*
G37*
G36*
X42307Y-30774D02*
X41796Y-30479D01*
X41973Y-30172D01*
X42484Y-30467D01*
X42307Y-30774D01*
X42307Y-30774D01*
G37*
G36*
X42622Y-30228D02*
X42111Y-29933D01*
X42288Y-29626D01*
X42799Y-29921D01*
X42622Y-30228D01*
X42622Y-30228D01*
G37*
G36*
X42937Y-29682D02*
X42426Y-29387D01*
X42603Y-29080D01*
X43114Y-29375D01*
X42937Y-29682D01*
X42937Y-29682D01*
G37*
G54D18*
X40354Y-28734D03*
X40354Y-29364D03*
X40354Y-29994D03*
X38386Y-29994D03*
X38386Y-29364D03*
X38386Y-28734D03*
G54D10*
G36*
X36314Y-29387D02*
X35803Y-29682D01*
X35626Y-29375D01*
X36137Y-29080D01*
X36314Y-29387D01*
X36314Y-29387D01*
G37*
G36*
X36629Y-29933D02*
X36118Y-30228D01*
X35941Y-29921D01*
X36452Y-29626D01*
X36629Y-29933D01*
X36629Y-29933D01*
G37*
G36*
X36944Y-30479D02*
X36433Y-30774D01*
X36256Y-30467D01*
X36767Y-30172D01*
X36944Y-30479D01*
X36944Y-30479D01*
G37*
G36*
X35240Y-31463D02*
X34729Y-31758D01*
X34552Y-31451D01*
X35063Y-31156D01*
X35240Y-31463D01*
X35240Y-31463D01*
G37*
G36*
X34925Y-30917D02*
X34414Y-31212D01*
X34237Y-30905D01*
X34748Y-30610D01*
X34925Y-30917D01*
X34925Y-30917D01*
G37*
G36*
X34610Y-30371D02*
X34099Y-30666D01*
X33922Y-30359D01*
X34433Y-30064D01*
X34610Y-30371D01*
X34610Y-30371D01*
G37*
G36*
X32798Y-31967D02*
X32503Y-32478D01*
X32196Y-32301D01*
X32491Y-31790D01*
X32798Y-31967D01*
X32798Y-31967D01*
G37*
G36*
X33344Y-32282D02*
X33049Y-32793D01*
X32742Y-32616D01*
X33037Y-32105D01*
X33344Y-32282D01*
X33344Y-32282D01*
G37*
G36*
X33890Y-32597D02*
X33595Y-33108D01*
X33288Y-32931D01*
X33583Y-32420D01*
X33890Y-32597D01*
X33890Y-32597D01*
G37*
G36*
X32906Y-34301D02*
X32611Y-34812D01*
X32304Y-34635D01*
X32599Y-34124D01*
X32906Y-34301D01*
X32906Y-34301D01*
G37*
G36*
X32360Y-33986D02*
X32065Y-34497D01*
X31758Y-34320D01*
X32053Y-33809D01*
X32360Y-33986D01*
X32360Y-33986D01*
G37*
G36*
X31814Y-33671D02*
X31519Y-34182D01*
X31212Y-34005D01*
X31507Y-33494D01*
X31814Y-33671D01*
X31814Y-33671D01*
G37*
G54D17*
X30866Y-36254D03*
X31496Y-36254D03*
X32126Y-36254D03*
X32126Y-38222D03*
X31496Y-38222D03*
X30866Y-38222D03*
G54D10*
G36*
X31519Y-40294D02*
X31814Y-40805D01*
X31507Y-40982D01*
X31212Y-40471D01*
X31519Y-40294D01*
X31519Y-40294D01*
G37*
G36*
X32065Y-39979D02*
X32360Y-40490D01*
X32053Y-40667D01*
X31758Y-40156D01*
X32065Y-39979D01*
X32065Y-39979D01*
G37*
G36*
X32611Y-39664D02*
X32906Y-40175D01*
X32599Y-40352D01*
X32304Y-39841D01*
X32611Y-39664D01*
X32611Y-39664D01*
G37*
G36*
X33595Y-41368D02*
X33890Y-41879D01*
X33583Y-42056D01*
X33288Y-41545D01*
X33595Y-41368D01*
X33595Y-41368D01*
G37*
G36*
X33049Y-41683D02*
X33344Y-42194D01*
X33037Y-42371D01*
X32742Y-41860D01*
X33049Y-41683D01*
X33049Y-41683D01*
G37*
G36*
X32503Y-41998D02*
X32798Y-42509D01*
X32491Y-42686D01*
X32196Y-42175D01*
X32503Y-41998D01*
X32503Y-41998D01*
G37*
G36*
X34099Y-43810D02*
X34610Y-44105D01*
X34433Y-44412D01*
X33922Y-44117D01*
X34099Y-43810D01*
X34099Y-43810D01*
G37*
G36*
X34414Y-43264D02*
X34925Y-43559D01*
X34748Y-43866D01*
X34237Y-43571D01*
X34414Y-43264D01*
X34414Y-43264D01*
G37*
G36*
X34729Y-42718D02*
X35240Y-43013D01*
X35063Y-43320D01*
X34552Y-43025D01*
X34729Y-42718D01*
X34729Y-42718D01*
G37*
G36*
X36433Y-43702D02*
X36944Y-43997D01*
X36767Y-44304D01*
X36256Y-44009D01*
X36433Y-43702D01*
X36433Y-43702D01*
G37*
G36*
X36118Y-44248D02*
X36629Y-44543D01*
X36452Y-44850D01*
X35941Y-44555D01*
X36118Y-44248D01*
X36118Y-44248D01*
G37*
G36*
X35803Y-44794D02*
X36314Y-45089D01*
X36137Y-45396D01*
X35626Y-45101D01*
X35803Y-44794D01*
X35803Y-44794D01*
G37*
G54D18*
X38386Y-45742D03*
X38386Y-45112D03*
X38386Y-44482D03*
X40354Y-44482D03*
X40354Y-45112D03*
X40354Y-45742D03*
G54D19*
X38819Y-30997D03*
X38819Y-31747D03*
G54D15*
X36378Y-37928D03*
X36378Y-38528D03*
X39843Y-31711D03*
X39843Y-31111D03*
G54D20*
X35591Y-37146D03*
X35591Y-36398D03*
G54D21*
X35591Y-36772D03*
M02*
