M48
;DRILL file {PCBnew (2011-07-08 BZR 3044)-stable} date 5/7/2013 10:27:50 AM
;FORMAT={3:3/ absolute / metric / keep zeros}
FMAT,2
METRIC,TZ
T1C0.599
T2C0.635
T3C0.813
T4C1.016
T5C3.000
%
G90
G05
M71
T1
X086789Y-086959
X086789Y-089210
X088740Y-085834
X088740Y-090335
X090691Y-086959
X090691Y-089210
X109309Y-099959
X109309Y-102210
X111260Y-098834
X111260Y-103335
X113210Y-099959
X113210Y-102210
T2
X078519Y-095334
X080119Y-084016
X080470Y-095293
X080871Y-106474
X081839Y-084983
X082629Y-097053
X082659Y-105474
X083439Y-084394
X083561Y-086004
X084379Y-104513
X087600Y-103299
X087760Y-096314
X088301Y-093401
X088519Y-076294
X089220Y-080714
X089581Y-077993
X090020Y-113535
X090980Y-111674
X091300Y-096401
X092901Y-082601
X093101Y-106700
X093541Y-110843
X093881Y-099695
X094930Y-073845
X094960Y-077935
X094981Y-084564
X097399Y-094084
X097399Y-096083
X098900Y-094983
X099169Y-072034
X099210Y-074005
X099210Y-076103
X099550Y-097155
X100551Y-110884
X100711Y-114945
X100759Y-113055
X100759Y-116964
X101361Y-091885
X102639Y-097325
X102720Y-093805
X102791Y-079035
X103411Y-087864
X103459Y-101765
X104780Y-090665
X105999Y-105700
X106550Y-078303
X106789Y-092174
X107130Y-104714
X109200Y-077295
X110091Y-075545
X110251Y-111074
X110820Y-108354
X111300Y-095999
X111369Y-112834
X112281Y-092746
X115440Y-084374
X116390Y-103175
X117361Y-092123
X117399Y-083635
X118080Y-104165
X119080Y-082614
X119550Y-093914
X119870Y-105164
X121470Y-093835
T3
X090401Y-102410
X092601Y-103680
X094800Y-104950
X096401Y-102380
X097000Y-106220
X098600Y-103650
X098631Y-083284
X099200Y-107490
X100800Y-104920
X101171Y-083284
X101399Y-108760
X103000Y-106190
T4
X106149Y-086253
X106149Y-088793
X108689Y-086253
X108689Y-088793
X111229Y-086253
X111229Y-088793
T5
X088740Y-088085
X111260Y-101084
T0
M30
