G04 (created by PCBNEW-RS274X (2011-07-08 BZR 3044)-stable) date 5/7/2013 10:27:45 AM*
G01*
G70*
G90*
%MOIN*%
G04 Gerber Fmt 3.4, Leading zero omitted, Abs format*
%FSLAX34Y34*%
G04 APERTURE LIST*
%ADD10C,0.006000*%
%ADD11C,0.015000*%
%ADD12R,0.075000X0.075000*%
%ADD13C,0.075000*%
%ADD14R,0.080000X0.080000*%
%ADD15C,0.080000*%
%ADD16R,0.098700X0.037700*%
%ADD17R,0.037700X0.098700*%
%ADD18R,0.059400X0.047600*%
%ADD19R,0.065000X0.045000*%
%ADD20R,0.045000X0.065000*%
%ADD21R,0.055400X0.079100*%
%ADD22R,0.079100X0.055400*%
%ADD23R,0.075000X0.055000*%
%ADD24C,0.256200*%
%ADD25C,0.043600*%
%ADD26R,0.083000X0.039700*%
%ADD27R,0.083000X0.031800*%
G04 APERTURE END LIST*
G54D10*
G54D11*
X33980Y-28089D02*
X33972Y-28082D01*
X28661Y-37298D02*
X33980Y-28089D01*
X33965Y-46589D02*
X28661Y-37298D01*
X44697Y-46589D02*
X33965Y-46589D01*
X49996Y-37302D02*
X44697Y-46589D01*
X44646Y-28070D02*
X49996Y-37302D01*
X33972Y-28082D02*
X44646Y-28070D01*
G54D12*
X38831Y-32789D03*
G54D13*
X39831Y-32789D03*
G54D10*
G36*
X40433Y-42682D02*
X40058Y-43331D01*
X39409Y-42956D01*
X39784Y-42307D01*
X40433Y-42682D01*
X40433Y-42682D01*
G37*
G54D13*
X39055Y-42319D03*
X38189Y-41819D03*
X37323Y-41319D03*
X36457Y-40819D03*
X35591Y-40319D03*
G54D10*
G36*
X41063Y-41670D02*
X40688Y-42319D01*
X40039Y-41944D01*
X40414Y-41295D01*
X41063Y-41670D01*
X41063Y-41670D01*
G37*
G54D13*
X39685Y-41307D03*
X38819Y-40807D03*
X37953Y-40307D03*
G54D14*
X41791Y-34958D03*
G54D15*
X41791Y-33958D03*
X42791Y-34958D03*
X42791Y-33958D03*
X43791Y-34958D03*
X43791Y-33958D03*
G54D16*
X37474Y-36145D03*
X37474Y-36460D03*
X37474Y-36775D03*
X37474Y-37090D03*
X37474Y-37405D03*
X37474Y-37720D03*
X37474Y-38035D03*
X37474Y-38350D03*
X41240Y-38348D03*
X41240Y-36138D03*
X41240Y-36458D03*
X41240Y-36778D03*
X41240Y-37088D03*
X41240Y-37408D03*
X41240Y-37718D03*
X41240Y-38038D03*
G54D17*
X38258Y-39138D03*
X38572Y-39138D03*
X38888Y-39138D03*
X39202Y-39138D03*
X39518Y-39138D03*
X39832Y-39138D03*
X40148Y-39138D03*
X40462Y-39138D03*
X38260Y-35358D03*
X38570Y-35358D03*
X38890Y-35358D03*
X39200Y-35358D03*
X39510Y-35358D03*
X39830Y-35358D03*
X40150Y-35358D03*
X40470Y-35358D03*
G54D10*
G36*
X35448Y-42819D02*
X35745Y-42305D01*
X36158Y-42543D01*
X35861Y-43057D01*
X35448Y-42819D01*
X35448Y-42819D01*
G37*
G36*
X36273Y-42140D02*
X36570Y-41626D01*
X36983Y-41864D01*
X36686Y-42378D01*
X36273Y-42140D01*
X36273Y-42140D01*
G37*
G36*
X35623Y-41765D02*
X35920Y-41251D01*
X36333Y-41489D01*
X36036Y-42003D01*
X35623Y-41765D01*
X35623Y-41765D01*
G37*
G54D18*
X32886Y-36874D03*
X33886Y-37249D03*
X33886Y-36499D03*
G54D10*
G36*
X36452Y-31055D02*
X36749Y-31569D01*
X36336Y-31807D01*
X36039Y-31293D01*
X36452Y-31055D01*
X36452Y-31055D01*
G37*
G36*
X36627Y-32109D02*
X36924Y-32623D01*
X36511Y-32861D01*
X36214Y-32347D01*
X36627Y-32109D01*
X36627Y-32109D01*
G37*
G36*
X37277Y-31734D02*
X37574Y-32248D01*
X37161Y-32486D01*
X36864Y-31972D01*
X37277Y-31734D01*
X37277Y-31734D01*
G37*
G36*
X43341Y-31657D02*
X43044Y-32171D01*
X42631Y-31933D01*
X42928Y-31419D01*
X43341Y-31657D01*
X43341Y-31657D01*
G37*
G36*
X42516Y-32336D02*
X42219Y-32850D01*
X41806Y-32612D01*
X42103Y-32098D01*
X42516Y-32336D01*
X42516Y-32336D01*
G37*
G36*
X43166Y-32711D02*
X42869Y-33225D01*
X42456Y-32987D01*
X42753Y-32473D01*
X43166Y-32711D01*
X43166Y-32711D01*
G37*
G54D18*
X45864Y-37661D03*
X44864Y-37286D03*
X44864Y-38036D03*
G54D10*
G36*
X42259Y-43441D02*
X41962Y-42927D01*
X42375Y-42689D01*
X42672Y-43203D01*
X42259Y-43441D01*
X42259Y-43441D01*
G37*
G36*
X42084Y-42387D02*
X41787Y-41873D01*
X42200Y-41635D01*
X42497Y-42149D01*
X42084Y-42387D01*
X42084Y-42387D01*
G37*
G36*
X41434Y-42762D02*
X41137Y-42248D01*
X41550Y-42010D01*
X41847Y-42524D01*
X41434Y-42762D01*
X41434Y-42762D01*
G37*
G36*
X36956Y-39581D02*
X36631Y-40144D01*
X36242Y-39919D01*
X36567Y-39356D01*
X36956Y-39581D01*
X36956Y-39581D01*
G37*
G36*
X36436Y-39281D02*
X36111Y-39844D01*
X35722Y-39619D01*
X36047Y-39056D01*
X36436Y-39281D01*
X36436Y-39281D01*
G37*
G54D19*
X35512Y-37928D03*
X35512Y-38528D03*
X42244Y-36820D03*
X42244Y-37420D03*
G54D10*
G36*
X41635Y-31424D02*
X42198Y-31749D01*
X41973Y-32138D01*
X41410Y-31813D01*
X41635Y-31424D01*
X41635Y-31424D01*
G37*
G36*
X41335Y-31944D02*
X41898Y-32269D01*
X41673Y-32658D01*
X41110Y-32333D01*
X41335Y-31944D01*
X41335Y-31944D01*
G37*
G54D19*
X36535Y-36599D03*
X36535Y-35999D03*
G54D10*
G36*
X40971Y-40526D02*
X40646Y-41089D01*
X40257Y-40864D01*
X40582Y-40301D01*
X40971Y-40526D01*
X40971Y-40526D01*
G37*
G36*
X40451Y-40226D02*
X40126Y-40789D01*
X39737Y-40564D01*
X40062Y-40001D01*
X40451Y-40226D01*
X40451Y-40226D01*
G37*
G54D19*
X39094Y-34467D03*
X39094Y-33867D03*
X38150Y-34467D03*
X38150Y-33867D03*
X37205Y-34467D03*
X37205Y-33867D03*
G54D10*
G36*
X35401Y-32418D02*
X35964Y-32093D01*
X36189Y-32482D01*
X35626Y-32807D01*
X35401Y-32418D01*
X35401Y-32418D01*
G37*
G36*
X35701Y-32938D02*
X36264Y-32613D01*
X36489Y-33002D01*
X35926Y-33327D01*
X35701Y-32938D01*
X35701Y-32938D01*
G37*
G36*
X43339Y-42097D02*
X42776Y-42422D01*
X42551Y-42033D01*
X43114Y-41708D01*
X43339Y-42097D01*
X43339Y-42097D01*
G37*
G36*
X43039Y-41577D02*
X42476Y-41902D01*
X42251Y-41513D01*
X42814Y-41188D01*
X43039Y-41577D01*
X43039Y-41577D01*
G37*
G54D20*
X45300Y-36608D03*
X44700Y-36608D03*
X41235Y-39718D03*
X41835Y-39718D03*
X41235Y-38931D03*
X41835Y-38931D03*
X42141Y-38065D03*
X42741Y-38065D03*
G54D10*
G36*
X37106Y-43131D02*
X36543Y-42806D01*
X36768Y-42417D01*
X37331Y-42742D01*
X37106Y-43131D01*
X37106Y-43131D01*
G37*
G36*
X37406Y-42611D02*
X36843Y-42286D01*
X37068Y-41897D01*
X37631Y-42222D01*
X37406Y-42611D01*
X37406Y-42611D01*
G37*
G54D20*
X33440Y-37947D03*
X34040Y-37947D03*
G54D10*
G36*
X42289Y-45053D02*
X42974Y-44658D01*
X43251Y-45137D01*
X42566Y-45532D01*
X42289Y-45053D01*
X42289Y-45053D01*
G37*
G36*
X41974Y-44507D02*
X42659Y-44112D01*
X42936Y-44591D01*
X42251Y-44986D01*
X41974Y-44507D01*
X41974Y-44507D01*
G37*
G36*
X41659Y-43961D02*
X42344Y-43566D01*
X42621Y-44045D01*
X41936Y-44440D01*
X41659Y-43961D01*
X41659Y-43961D01*
G37*
G36*
X43363Y-42977D02*
X44048Y-42582D01*
X44325Y-43061D01*
X43640Y-43456D01*
X43363Y-42977D01*
X43363Y-42977D01*
G37*
G36*
X43678Y-43523D02*
X44363Y-43128D01*
X44640Y-43607D01*
X43955Y-44002D01*
X43678Y-43523D01*
X43678Y-43523D01*
G37*
G36*
X43993Y-44069D02*
X44678Y-43674D01*
X44955Y-44153D01*
X44270Y-44548D01*
X43993Y-44069D01*
X43993Y-44069D01*
G37*
G36*
X45806Y-42546D02*
X46201Y-41861D01*
X46680Y-42138D01*
X46285Y-42823D01*
X45806Y-42546D01*
X45806Y-42546D01*
G37*
G36*
X45260Y-42231D02*
X45655Y-41546D01*
X46134Y-41823D01*
X45739Y-42508D01*
X45260Y-42231D01*
X45260Y-42231D01*
G37*
G36*
X44714Y-41916D02*
X45109Y-41231D01*
X45588Y-41508D01*
X45193Y-42193D01*
X44714Y-41916D01*
X44714Y-41916D01*
G37*
G36*
X45698Y-40212D02*
X46093Y-39527D01*
X46572Y-39804D01*
X46177Y-40489D01*
X45698Y-40212D01*
X45698Y-40212D01*
G37*
G36*
X46244Y-40527D02*
X46639Y-39842D01*
X47118Y-40119D01*
X46723Y-40804D01*
X46244Y-40527D01*
X46244Y-40527D01*
G37*
G36*
X46790Y-40842D02*
X47185Y-40157D01*
X47664Y-40434D01*
X47269Y-41119D01*
X46790Y-40842D01*
X46790Y-40842D01*
G37*
G54D21*
X47874Y-38222D03*
X47244Y-38222D03*
X46614Y-38222D03*
X46614Y-36254D03*
X47244Y-36254D03*
X47874Y-36254D03*
G54D10*
G36*
X47185Y-34319D02*
X46790Y-33634D01*
X47269Y-33357D01*
X47664Y-34042D01*
X47185Y-34319D01*
X47185Y-34319D01*
G37*
G36*
X46639Y-34634D02*
X46244Y-33949D01*
X46723Y-33672D01*
X47118Y-34357D01*
X46639Y-34634D01*
X46639Y-34634D01*
G37*
G36*
X46093Y-34949D02*
X45698Y-34264D01*
X46177Y-33987D01*
X46572Y-34672D01*
X46093Y-34949D01*
X46093Y-34949D01*
G37*
G36*
X45109Y-33245D02*
X44714Y-32560D01*
X45193Y-32283D01*
X45588Y-32968D01*
X45109Y-33245D01*
X45109Y-33245D01*
G37*
G36*
X45655Y-32930D02*
X45260Y-32245D01*
X45739Y-31968D01*
X46134Y-32653D01*
X45655Y-32930D01*
X45655Y-32930D01*
G37*
G36*
X46201Y-32615D02*
X45806Y-31930D01*
X46285Y-31653D01*
X46680Y-32338D01*
X46201Y-32615D01*
X46201Y-32615D01*
G37*
G36*
X44678Y-30802D02*
X43993Y-30407D01*
X44270Y-29928D01*
X44955Y-30323D01*
X44678Y-30802D01*
X44678Y-30802D01*
G37*
G36*
X44363Y-31348D02*
X43678Y-30953D01*
X43955Y-30474D01*
X44640Y-30869D01*
X44363Y-31348D01*
X44363Y-31348D01*
G37*
G36*
X44048Y-31894D02*
X43363Y-31499D01*
X43640Y-31020D01*
X44325Y-31415D01*
X44048Y-31894D01*
X44048Y-31894D01*
G37*
G36*
X42344Y-30910D02*
X41659Y-30515D01*
X41936Y-30036D01*
X42621Y-30431D01*
X42344Y-30910D01*
X42344Y-30910D01*
G37*
G36*
X42659Y-30364D02*
X41974Y-29969D01*
X42251Y-29490D01*
X42936Y-29885D01*
X42659Y-30364D01*
X42659Y-30364D01*
G37*
G36*
X42974Y-29818D02*
X42289Y-29423D01*
X42566Y-28944D01*
X43251Y-29339D01*
X42974Y-29818D01*
X42974Y-29818D01*
G37*
G54D22*
X40354Y-28734D03*
X40354Y-29364D03*
X40354Y-29994D03*
X38386Y-29994D03*
X38386Y-29364D03*
X38386Y-28734D03*
G54D10*
G36*
X36451Y-29423D02*
X35766Y-29818D01*
X35489Y-29339D01*
X36174Y-28944D01*
X36451Y-29423D01*
X36451Y-29423D01*
G37*
G36*
X36766Y-29969D02*
X36081Y-30364D01*
X35804Y-29885D01*
X36489Y-29490D01*
X36766Y-29969D01*
X36766Y-29969D01*
G37*
G36*
X37081Y-30515D02*
X36396Y-30910D01*
X36119Y-30431D01*
X36804Y-30036D01*
X37081Y-30515D01*
X37081Y-30515D01*
G37*
G36*
X35377Y-31499D02*
X34692Y-31894D01*
X34415Y-31415D01*
X35100Y-31020D01*
X35377Y-31499D01*
X35377Y-31499D01*
G37*
G36*
X35062Y-30953D02*
X34377Y-31348D01*
X34100Y-30869D01*
X34785Y-30474D01*
X35062Y-30953D01*
X35062Y-30953D01*
G37*
G36*
X34747Y-30407D02*
X34062Y-30802D01*
X33785Y-30323D01*
X34470Y-29928D01*
X34747Y-30407D01*
X34747Y-30407D01*
G37*
G36*
X32934Y-31930D02*
X32539Y-32615D01*
X32060Y-32338D01*
X32455Y-31653D01*
X32934Y-31930D01*
X32934Y-31930D01*
G37*
G36*
X33480Y-32245D02*
X33085Y-32930D01*
X32606Y-32653D01*
X33001Y-31968D01*
X33480Y-32245D01*
X33480Y-32245D01*
G37*
G36*
X34026Y-32560D02*
X33631Y-33245D01*
X33152Y-32968D01*
X33547Y-32283D01*
X34026Y-32560D01*
X34026Y-32560D01*
G37*
G36*
X33042Y-34264D02*
X32647Y-34949D01*
X32168Y-34672D01*
X32563Y-33987D01*
X33042Y-34264D01*
X33042Y-34264D01*
G37*
G36*
X32496Y-33949D02*
X32101Y-34634D01*
X31622Y-34357D01*
X32017Y-33672D01*
X32496Y-33949D01*
X32496Y-33949D01*
G37*
G36*
X31950Y-33634D02*
X31555Y-34319D01*
X31076Y-34042D01*
X31471Y-33357D01*
X31950Y-33634D01*
X31950Y-33634D01*
G37*
G54D21*
X30866Y-36254D03*
X31496Y-36254D03*
X32126Y-36254D03*
X32126Y-38222D03*
X31496Y-38222D03*
X30866Y-38222D03*
G54D10*
G36*
X31555Y-40157D02*
X31950Y-40842D01*
X31471Y-41119D01*
X31076Y-40434D01*
X31555Y-40157D01*
X31555Y-40157D01*
G37*
G36*
X32101Y-39842D02*
X32496Y-40527D01*
X32017Y-40804D01*
X31622Y-40119D01*
X32101Y-39842D01*
X32101Y-39842D01*
G37*
G36*
X32647Y-39527D02*
X33042Y-40212D01*
X32563Y-40489D01*
X32168Y-39804D01*
X32647Y-39527D01*
X32647Y-39527D01*
G37*
G36*
X33631Y-41231D02*
X34026Y-41916D01*
X33547Y-42193D01*
X33152Y-41508D01*
X33631Y-41231D01*
X33631Y-41231D01*
G37*
G36*
X33085Y-41546D02*
X33480Y-42231D01*
X33001Y-42508D01*
X32606Y-41823D01*
X33085Y-41546D01*
X33085Y-41546D01*
G37*
G36*
X32539Y-41861D02*
X32934Y-42546D01*
X32455Y-42823D01*
X32060Y-42138D01*
X32539Y-41861D01*
X32539Y-41861D01*
G37*
G36*
X34062Y-43674D02*
X34747Y-44069D01*
X34470Y-44548D01*
X33785Y-44153D01*
X34062Y-43674D01*
X34062Y-43674D01*
G37*
G36*
X34377Y-43128D02*
X35062Y-43523D01*
X34785Y-44002D01*
X34100Y-43607D01*
X34377Y-43128D01*
X34377Y-43128D01*
G37*
G36*
X34692Y-42582D02*
X35377Y-42977D01*
X35100Y-43456D01*
X34415Y-43061D01*
X34692Y-42582D01*
X34692Y-42582D01*
G37*
G36*
X36396Y-43566D02*
X37081Y-43961D01*
X36804Y-44440D01*
X36119Y-44045D01*
X36396Y-43566D01*
X36396Y-43566D01*
G37*
G36*
X36081Y-44112D02*
X36766Y-44507D01*
X36489Y-44986D01*
X35804Y-44591D01*
X36081Y-44112D01*
X36081Y-44112D01*
G37*
G36*
X35766Y-44658D02*
X36451Y-45053D01*
X36174Y-45532D01*
X35489Y-45137D01*
X35766Y-44658D01*
X35766Y-44658D01*
G37*
G54D22*
X38386Y-45742D03*
X38386Y-45112D03*
X38386Y-44482D03*
X40354Y-44482D03*
X40354Y-45112D03*
X40354Y-45742D03*
G54D23*
X38819Y-30997D03*
X38819Y-31747D03*
G54D19*
X36378Y-37928D03*
X36378Y-38528D03*
G54D24*
X43803Y-39797D03*
G54D25*
X43803Y-38911D03*
X43803Y-40683D03*
X44571Y-39354D03*
X44571Y-40240D03*
X43035Y-39354D03*
X43035Y-40240D03*
G54D24*
X34937Y-34679D03*
G54D25*
X34937Y-33793D03*
X34937Y-35565D03*
X35705Y-34236D03*
X35705Y-35122D03*
X34169Y-34236D03*
X34169Y-35122D03*
G54D19*
X39843Y-31711D03*
X39843Y-31111D03*
G54D26*
X35591Y-37146D03*
X35591Y-36398D03*
G54D27*
X35591Y-36772D03*
M02*
