G04 (created by PCBNEW-RS274X (2011-07-08 BZR 3044)-stable) date 5/7/2013 10:27:45 AM*
G01*
G70*
G90*
%MOIN*%
G04 Gerber Fmt 3.4, Leading zero omitted, Abs format*
%FSLAX34Y34*%
G04 APERTURE LIST*
%ADD10C,0.006000*%
%ADD11C,0.015000*%
%ADD12R,0.075000X0.075000*%
%ADD13C,0.075000*%
%ADD14R,0.080000X0.080000*%
%ADD15C,0.080000*%
%ADD16C,0.256200*%
%ADD17C,0.043600*%
G04 APERTURE END LIST*
G54D10*
G54D11*
X33980Y-28089D02*
X33972Y-28082D01*
X28661Y-37298D02*
X33980Y-28089D01*
X33965Y-46589D02*
X28661Y-37298D01*
X44697Y-46589D02*
X33965Y-46589D01*
X49996Y-37302D02*
X44697Y-46589D01*
X44646Y-28070D02*
X49996Y-37302D01*
X33972Y-28082D02*
X44646Y-28070D01*
G54D12*
X38831Y-32789D03*
G54D13*
X39831Y-32789D03*
G54D10*
G36*
X40433Y-42682D02*
X40058Y-43331D01*
X39409Y-42956D01*
X39784Y-42307D01*
X40433Y-42682D01*
X40433Y-42682D01*
G37*
G54D13*
X39055Y-42319D03*
X38189Y-41819D03*
X37323Y-41319D03*
X36457Y-40819D03*
X35591Y-40319D03*
G54D10*
G36*
X41063Y-41670D02*
X40688Y-42319D01*
X40039Y-41944D01*
X40414Y-41295D01*
X41063Y-41670D01*
X41063Y-41670D01*
G37*
G54D13*
X39685Y-41307D03*
X38819Y-40807D03*
X37953Y-40307D03*
G54D14*
X41791Y-34958D03*
G54D15*
X41791Y-33958D03*
X42791Y-34958D03*
X42791Y-33958D03*
X43791Y-34958D03*
X43791Y-33958D03*
G54D16*
X43803Y-39797D03*
G54D17*
X43803Y-38911D03*
X43803Y-40683D03*
X44571Y-39354D03*
X44571Y-40240D03*
X43035Y-39354D03*
X43035Y-40240D03*
G54D16*
X34937Y-34679D03*
G54D17*
X34937Y-33793D03*
X34937Y-35565D03*
X35705Y-34236D03*
X35705Y-35122D03*
X34169Y-34236D03*
X34169Y-35122D03*
M02*
