G04 (created by PCBNEW-RS274X (2011-07-08 BZR 3044)-stable) date 5/7/2013 10:27:45 AM*
G01*
G70*
G90*
%MOIN*%
G04 Gerber Fmt 3.4, Leading zero omitted, Abs format*
%FSLAX34Y34*%
G04 APERTURE LIST*
%ADD10C,0.006000*%
%ADD11C,0.005900*%
%ADD12C,0.009900*%
%ADD13C,0.007400*%
%ADD14C,0.012000*%
%ADD15C,0.007900*%
%ADD16C,0.015000*%
%ADD17C,0.000100*%
%ADD18C,0.010700*%
%ADD19C,0.010000*%
%ADD20C,0.008000*%
G04 APERTURE END LIST*
G54D10*
G54D11*
X35052Y-29261D02*
X35052Y-28461D01*
X35142Y-28461D01*
X35165Y-28499D01*
X35176Y-28537D01*
X35187Y-28613D01*
X35187Y-28727D01*
X35176Y-28804D01*
X35165Y-28842D01*
X35142Y-28880D01*
X35052Y-28880D01*
X35266Y-28727D02*
X35322Y-29261D01*
X35378Y-28727D02*
X35322Y-29261D01*
X35299Y-29451D01*
X35288Y-29489D01*
X35266Y-29527D01*
X35468Y-29261D02*
X35468Y-28727D01*
X35468Y-28880D02*
X35479Y-28804D01*
X35491Y-28766D01*
X35513Y-28727D01*
X35536Y-28727D01*
X35715Y-29261D02*
X35715Y-28842D01*
X35704Y-28766D01*
X35682Y-28727D01*
X35637Y-28727D01*
X35614Y-28766D01*
X35715Y-29223D02*
X35693Y-29261D01*
X35637Y-29261D01*
X35614Y-29223D01*
X35603Y-29147D01*
X35603Y-29070D01*
X35614Y-28994D01*
X35637Y-28956D01*
X35693Y-28956D01*
X35715Y-28918D01*
X35828Y-29261D02*
X35828Y-28727D01*
X35828Y-28804D02*
X35839Y-28766D01*
X35862Y-28727D01*
X35896Y-28727D01*
X35918Y-28766D01*
X35929Y-28842D01*
X35929Y-29261D01*
X35929Y-28842D02*
X35941Y-28766D01*
X35963Y-28727D01*
X35997Y-28727D01*
X36019Y-28766D01*
X36030Y-28842D01*
X36030Y-29261D01*
X36143Y-29261D02*
X36143Y-28727D01*
X36143Y-28461D02*
X36132Y-28499D01*
X36143Y-28537D01*
X36154Y-28499D01*
X36143Y-28461D01*
X36143Y-28537D01*
X36356Y-29261D02*
X36356Y-28461D01*
X36356Y-29223D02*
X36334Y-29261D01*
X36289Y-29261D01*
X36266Y-29223D01*
X36255Y-29185D01*
X36244Y-29108D01*
X36244Y-28880D01*
X36255Y-28804D01*
X36266Y-28766D01*
X36289Y-28727D01*
X36334Y-28727D01*
X36356Y-28766D01*
X36784Y-29261D02*
X36705Y-28880D01*
X36649Y-29261D02*
X36649Y-28461D01*
X36739Y-28461D01*
X36762Y-28499D01*
X36773Y-28537D01*
X36784Y-28613D01*
X36784Y-28727D01*
X36773Y-28804D01*
X36762Y-28842D01*
X36739Y-28880D01*
X36649Y-28880D01*
X37009Y-28499D02*
X36986Y-28461D01*
X36953Y-28461D01*
X36919Y-28499D01*
X36896Y-28575D01*
X36885Y-28651D01*
X36874Y-28804D01*
X36874Y-28918D01*
X36885Y-29070D01*
X36896Y-29147D01*
X36919Y-29223D01*
X36953Y-29261D01*
X36975Y-29261D01*
X37009Y-29223D01*
X37020Y-29185D01*
X37020Y-28918D01*
X36975Y-28918D01*
X37200Y-28842D02*
X37234Y-28880D01*
X37245Y-28918D01*
X37256Y-28994D01*
X37256Y-29108D01*
X37245Y-29185D01*
X37234Y-29223D01*
X37211Y-29261D01*
X37121Y-29261D01*
X37121Y-28461D01*
X37200Y-28461D01*
X37222Y-28499D01*
X37234Y-28537D01*
X37245Y-28613D01*
X37245Y-28689D01*
X37234Y-28766D01*
X37222Y-28804D01*
X37200Y-28842D01*
X37121Y-28842D01*
X37537Y-29261D02*
X37537Y-28461D01*
X37627Y-28461D01*
X37650Y-28499D01*
X37661Y-28537D01*
X37672Y-28613D01*
X37672Y-28727D01*
X37661Y-28804D01*
X37650Y-28842D01*
X37627Y-28880D01*
X37537Y-28880D01*
X37874Y-29261D02*
X37874Y-28842D01*
X37863Y-28766D01*
X37841Y-28727D01*
X37796Y-28727D01*
X37773Y-28766D01*
X37874Y-29223D02*
X37852Y-29261D01*
X37796Y-29261D01*
X37773Y-29223D01*
X37762Y-29147D01*
X37762Y-29070D01*
X37773Y-28994D01*
X37796Y-28956D01*
X37852Y-28956D01*
X37874Y-28918D01*
X37987Y-28727D02*
X37987Y-29261D01*
X37987Y-28804D02*
X37998Y-28766D01*
X38021Y-28727D01*
X38055Y-28727D01*
X38077Y-28766D01*
X38088Y-28842D01*
X38088Y-29261D01*
X38291Y-29223D02*
X38269Y-29261D01*
X38224Y-29261D01*
X38201Y-29223D01*
X38190Y-29147D01*
X38190Y-28842D01*
X38201Y-28766D01*
X38224Y-28727D01*
X38269Y-28727D01*
X38291Y-28766D01*
X38302Y-28842D01*
X38302Y-28918D01*
X38190Y-28994D01*
X38437Y-29261D02*
X38414Y-29223D01*
X38403Y-29147D01*
X38403Y-28461D01*
X38673Y-28461D02*
X38752Y-29261D01*
X38831Y-28461D01*
X39033Y-29261D02*
X38898Y-29261D01*
X38965Y-29261D02*
X38965Y-28461D01*
X38943Y-28575D01*
X38920Y-28651D01*
X38898Y-28689D01*
X39134Y-29185D02*
X39145Y-29223D01*
X39134Y-29261D01*
X39123Y-29223D01*
X39134Y-29185D01*
X39134Y-29261D01*
X39235Y-28537D02*
X39246Y-28499D01*
X39269Y-28461D01*
X39325Y-28461D01*
X39347Y-28499D01*
X39359Y-28537D01*
X39370Y-28613D01*
X39370Y-28689D01*
X39359Y-28804D01*
X39224Y-29261D01*
X39370Y-29261D01*
G54D12*
X41084Y-29039D02*
X41140Y-29077D01*
X41159Y-29115D01*
X41178Y-29191D01*
X41178Y-29305D01*
X41159Y-29382D01*
X41140Y-29420D01*
X41103Y-29458D01*
X40953Y-29458D01*
X40953Y-28658D01*
X41084Y-28658D01*
X41122Y-28696D01*
X41140Y-28734D01*
X41159Y-28810D01*
X41159Y-28886D01*
X41140Y-28963D01*
X41122Y-29001D01*
X41084Y-29039D01*
X40953Y-29039D01*
X41309Y-28924D02*
X41403Y-29458D01*
X41497Y-28924D02*
X41403Y-29458D01*
X41366Y-29648D01*
X41347Y-29686D01*
X41309Y-29724D01*
X41647Y-29382D02*
X41666Y-29420D01*
X41647Y-29458D01*
X41628Y-29420D01*
X41647Y-29382D01*
X41647Y-29458D01*
X41647Y-28963D02*
X41666Y-29001D01*
X41647Y-29039D01*
X41628Y-29001D01*
X41647Y-28963D01*
X41647Y-29039D01*
X41816Y-29229D02*
X42004Y-29229D01*
X41779Y-29458D02*
X41910Y-28658D01*
X42041Y-29458D01*
X42135Y-28924D02*
X42342Y-28924D01*
X42135Y-29458D01*
X42342Y-29458D01*
X42661Y-28924D02*
X42661Y-29458D01*
X42492Y-28924D02*
X42492Y-29344D01*
X42511Y-29420D01*
X42548Y-29458D01*
X42604Y-29458D01*
X42642Y-29420D01*
X42661Y-29382D01*
X42848Y-29458D02*
X42848Y-28924D01*
X42848Y-29077D02*
X42867Y-29001D01*
X42885Y-28963D01*
X42923Y-28924D01*
X42960Y-28924D01*
X43242Y-29420D02*
X43204Y-29458D01*
X43129Y-29458D01*
X43092Y-29420D01*
X43073Y-29344D01*
X43073Y-29039D01*
X43092Y-28963D01*
X43129Y-28924D01*
X43204Y-28924D01*
X43242Y-28963D01*
X43261Y-29039D01*
X43261Y-29115D01*
X43073Y-29191D01*
X43374Y-28658D02*
X43505Y-29458D01*
X43636Y-28658D01*
X43768Y-29458D02*
X43768Y-28924D01*
X43768Y-28658D02*
X43749Y-28696D01*
X43768Y-28734D01*
X43787Y-28696D01*
X43768Y-28658D01*
X43768Y-28734D01*
X44012Y-29458D02*
X43975Y-29420D01*
X43956Y-29382D01*
X43937Y-29305D01*
X43937Y-29077D01*
X43956Y-29001D01*
X43975Y-28963D01*
X44012Y-28924D01*
X44068Y-28924D01*
X44106Y-28963D01*
X44125Y-29001D01*
X44143Y-29077D01*
X44143Y-29305D01*
X44125Y-29382D01*
X44106Y-29420D01*
X44068Y-29458D01*
X44012Y-29458D01*
X44368Y-29458D02*
X44331Y-29420D01*
X44312Y-29344D01*
X44312Y-28658D01*
X44518Y-29458D02*
X44518Y-28924D01*
X44518Y-28658D02*
X44499Y-28696D01*
X44518Y-28734D01*
X44537Y-28696D01*
X44518Y-28658D01*
X44518Y-28734D01*
X44706Y-28924D02*
X44706Y-29458D01*
X44706Y-29001D02*
X44725Y-28963D01*
X44762Y-28924D01*
X44818Y-28924D01*
X44856Y-28963D01*
X44875Y-29039D01*
X44875Y-29458D01*
X41111Y-30677D02*
X40924Y-30677D01*
X40924Y-29877D01*
X41243Y-30677D02*
X41243Y-30143D01*
X41243Y-29877D02*
X41224Y-29915D01*
X41243Y-29953D01*
X41262Y-29915D01*
X41243Y-29877D01*
X41243Y-29953D01*
X41600Y-30639D02*
X41562Y-30677D01*
X41487Y-30677D01*
X41450Y-30639D01*
X41431Y-30601D01*
X41412Y-30524D01*
X41412Y-30296D01*
X41431Y-30220D01*
X41450Y-30182D01*
X41487Y-30143D01*
X41562Y-30143D01*
X41600Y-30182D01*
X41919Y-30639D02*
X41881Y-30677D01*
X41806Y-30677D01*
X41769Y-30639D01*
X41750Y-30563D01*
X41750Y-30258D01*
X41769Y-30182D01*
X41806Y-30143D01*
X41881Y-30143D01*
X41919Y-30182D01*
X41938Y-30258D01*
X41938Y-30334D01*
X41750Y-30410D01*
X42107Y-30143D02*
X42107Y-30677D01*
X42107Y-30220D02*
X42126Y-30182D01*
X42163Y-30143D01*
X42219Y-30143D01*
X42257Y-30182D01*
X42276Y-30258D01*
X42276Y-30677D01*
X42444Y-30639D02*
X42482Y-30677D01*
X42557Y-30677D01*
X42594Y-30639D01*
X42613Y-30563D01*
X42613Y-30524D01*
X42594Y-30448D01*
X42557Y-30410D01*
X42500Y-30410D01*
X42463Y-30372D01*
X42444Y-30296D01*
X42444Y-30258D01*
X42463Y-30182D01*
X42500Y-30143D01*
X42557Y-30143D01*
X42594Y-30182D01*
X42932Y-30639D02*
X42894Y-30677D01*
X42819Y-30677D01*
X42782Y-30639D01*
X42763Y-30563D01*
X42763Y-30258D01*
X42782Y-30182D01*
X42819Y-30143D01*
X42894Y-30143D01*
X42932Y-30182D01*
X42951Y-30258D01*
X42951Y-30334D01*
X42763Y-30410D01*
X43120Y-30601D02*
X43139Y-30639D01*
X43120Y-30677D01*
X43101Y-30639D01*
X43120Y-30601D01*
X43120Y-30677D01*
X43120Y-30182D02*
X43139Y-30220D01*
X43120Y-30258D01*
X43101Y-30220D01*
X43120Y-30182D01*
X43120Y-30258D01*
X43514Y-29915D02*
X43477Y-29877D01*
X43420Y-29877D01*
X43364Y-29915D01*
X43327Y-29991D01*
X43308Y-30067D01*
X43289Y-30220D01*
X43289Y-30334D01*
X43308Y-30486D01*
X43327Y-30563D01*
X43364Y-30639D01*
X43420Y-30677D01*
X43458Y-30677D01*
X43514Y-30639D01*
X43533Y-30601D01*
X43533Y-30334D01*
X43458Y-30334D01*
X43702Y-30677D02*
X43702Y-29877D01*
X43852Y-29877D01*
X43889Y-29915D01*
X43908Y-29953D01*
X43927Y-30029D01*
X43927Y-30143D01*
X43908Y-30220D01*
X43889Y-30258D01*
X43852Y-30296D01*
X43702Y-30296D01*
X44283Y-30677D02*
X44096Y-30677D01*
X44096Y-29877D01*
X44377Y-30143D02*
X44471Y-30677D01*
X44565Y-30143D01*
X44677Y-29877D02*
X44921Y-29877D01*
X44790Y-30182D01*
X44846Y-30182D01*
X44884Y-30220D01*
X44902Y-30258D01*
X44921Y-30334D01*
X44921Y-30524D01*
X44902Y-30601D01*
X44884Y-30639D01*
X44846Y-30677D01*
X44734Y-30677D01*
X44696Y-30639D01*
X44677Y-30601D01*
X45743Y-35515D02*
X45518Y-35515D01*
X45631Y-35515D02*
X45631Y-34924D01*
X45593Y-35008D01*
X45556Y-35064D01*
X45518Y-35093D01*
G54D13*
X45018Y-34804D02*
X45018Y-34410D01*
X45117Y-34692D01*
X45215Y-34410D01*
X45215Y-34804D01*
X45355Y-34804D02*
X45355Y-34410D01*
X45481Y-34786D02*
X45523Y-34804D01*
X45594Y-34804D01*
X45622Y-34786D01*
X45636Y-34767D01*
X45650Y-34729D01*
X45650Y-34692D01*
X45636Y-34654D01*
X45622Y-34636D01*
X45594Y-34617D01*
X45537Y-34598D01*
X45509Y-34579D01*
X45495Y-34561D01*
X45481Y-34523D01*
X45481Y-34486D01*
X45495Y-34448D01*
X45509Y-34429D01*
X45537Y-34410D01*
X45608Y-34410D01*
X45650Y-34429D01*
X45832Y-34410D02*
X45889Y-34410D01*
X45917Y-34429D01*
X45945Y-34467D01*
X45959Y-34542D01*
X45959Y-34673D01*
X45945Y-34748D01*
X45917Y-34786D01*
X45889Y-34804D01*
X45832Y-34804D01*
X45804Y-34786D01*
X45776Y-34748D01*
X45762Y-34673D01*
X45762Y-34542D01*
X45776Y-34467D01*
X45804Y-34429D01*
X45832Y-34410D01*
X46296Y-34786D02*
X46338Y-34804D01*
X46409Y-34804D01*
X46437Y-34786D01*
X46451Y-34767D01*
X46465Y-34729D01*
X46465Y-34692D01*
X46451Y-34654D01*
X46437Y-34636D01*
X46409Y-34617D01*
X46352Y-34598D01*
X46324Y-34579D01*
X46310Y-34561D01*
X46296Y-34523D01*
X46296Y-34486D01*
X46310Y-34448D01*
X46324Y-34429D01*
X46352Y-34410D01*
X46423Y-34410D01*
X46465Y-34429D01*
X46760Y-34767D02*
X46746Y-34786D01*
X46704Y-34804D01*
X46676Y-34804D01*
X46633Y-34786D01*
X46605Y-34748D01*
X46591Y-34711D01*
X46577Y-34636D01*
X46577Y-34579D01*
X46591Y-34504D01*
X46605Y-34467D01*
X46633Y-34429D01*
X46676Y-34410D01*
X46704Y-34410D01*
X46746Y-34429D01*
X46760Y-34448D01*
X46886Y-34804D02*
X46886Y-34410D01*
X47055Y-34804D02*
X46928Y-34579D01*
X47055Y-34410D02*
X46886Y-34636D01*
X47575Y-34804D02*
X47476Y-34617D01*
X47406Y-34804D02*
X47406Y-34410D01*
X47519Y-34410D01*
X47547Y-34429D01*
X47561Y-34448D01*
X47575Y-34486D01*
X47575Y-34542D01*
X47561Y-34579D01*
X47547Y-34598D01*
X47519Y-34617D01*
X47406Y-34617D01*
X47701Y-34598D02*
X47800Y-34598D01*
X47842Y-34804D02*
X47701Y-34804D01*
X47701Y-34410D01*
X47842Y-34410D01*
X47954Y-34786D02*
X47996Y-34804D01*
X48067Y-34804D01*
X48095Y-34786D01*
X48109Y-34767D01*
X48123Y-34729D01*
X48123Y-34692D01*
X48109Y-34654D01*
X48095Y-34636D01*
X48067Y-34617D01*
X48010Y-34598D01*
X47982Y-34579D01*
X47968Y-34561D01*
X47954Y-34523D01*
X47954Y-34486D01*
X47968Y-34448D01*
X47982Y-34429D01*
X48010Y-34410D01*
X48081Y-34410D01*
X48123Y-34429D01*
X44474Y-33772D02*
X44572Y-34166D01*
X44671Y-33772D01*
X44938Y-34129D02*
X44924Y-34148D01*
X44882Y-34166D01*
X44854Y-34166D01*
X44811Y-34148D01*
X44783Y-34110D01*
X44769Y-34073D01*
X44755Y-33998D01*
X44755Y-33941D01*
X44769Y-33866D01*
X44783Y-33829D01*
X44811Y-33791D01*
X44854Y-33772D01*
X44882Y-33772D01*
X44924Y-33791D01*
X44938Y-33810D01*
X45233Y-34129D02*
X45219Y-34148D01*
X45177Y-34166D01*
X45149Y-34166D01*
X45106Y-34148D01*
X45078Y-34110D01*
X45064Y-34073D01*
X45050Y-33998D01*
X45050Y-33941D01*
X45064Y-33866D01*
X45078Y-33829D01*
X45106Y-33791D01*
X45149Y-33772D01*
X45177Y-33772D01*
X45219Y-33791D01*
X45233Y-33810D01*
X45584Y-34166D02*
X45584Y-33772D01*
X45683Y-34054D01*
X45781Y-33772D01*
X45781Y-34166D01*
X45977Y-33772D02*
X46034Y-33772D01*
X46062Y-33791D01*
X46090Y-33829D01*
X46104Y-33904D01*
X46104Y-34035D01*
X46090Y-34110D01*
X46062Y-34148D01*
X46034Y-34166D01*
X45977Y-34166D01*
X45949Y-34148D01*
X45921Y-34110D01*
X45907Y-34035D01*
X45907Y-33904D01*
X45921Y-33829D01*
X45949Y-33791D01*
X45977Y-33772D01*
X46216Y-34148D02*
X46258Y-34166D01*
X46329Y-34166D01*
X46357Y-34148D01*
X46371Y-34129D01*
X46385Y-34091D01*
X46385Y-34054D01*
X46371Y-34016D01*
X46357Y-33998D01*
X46329Y-33979D01*
X46272Y-33960D01*
X46244Y-33941D01*
X46230Y-33923D01*
X46216Y-33885D01*
X46216Y-33848D01*
X46230Y-33810D01*
X46244Y-33791D01*
X46272Y-33772D01*
X46343Y-33772D01*
X46385Y-33791D01*
X46511Y-34166D02*
X46511Y-33772D01*
X47031Y-33791D02*
X47003Y-33772D01*
X46961Y-33772D01*
X46918Y-33791D01*
X46890Y-33829D01*
X46876Y-33866D01*
X46862Y-33941D01*
X46862Y-33998D01*
X46876Y-34073D01*
X46890Y-34110D01*
X46918Y-34148D01*
X46961Y-34166D01*
X46989Y-34166D01*
X47031Y-34148D01*
X47045Y-34129D01*
X47045Y-33998D01*
X46989Y-33998D01*
X47171Y-34166D02*
X47171Y-33772D01*
X47340Y-34166D01*
X47340Y-33772D01*
X47480Y-34166D02*
X47480Y-33772D01*
X47550Y-33772D01*
X47593Y-33791D01*
X47621Y-33829D01*
X47635Y-33866D01*
X47649Y-33941D01*
X47649Y-33998D01*
X47635Y-34073D01*
X47621Y-34110D01*
X47593Y-34148D01*
X47550Y-34166D01*
X47480Y-34166D01*
G54D14*
X39678Y-31703D02*
X40135Y-31703D01*
X38528Y-31679D02*
X38985Y-31679D01*
X38756Y-31984D02*
X38756Y-31374D01*
G54D15*
X45209Y-43745D02*
X45179Y-43726D01*
X45134Y-43726D01*
X45089Y-43745D01*
X45059Y-43783D01*
X45044Y-43820D01*
X45029Y-43895D01*
X45029Y-43952D01*
X45044Y-44027D01*
X45059Y-44064D01*
X45089Y-44102D01*
X45134Y-44120D01*
X45164Y-44120D01*
X45209Y-44102D01*
X45224Y-44083D01*
X45224Y-43952D01*
X45164Y-43952D01*
X45359Y-44120D02*
X45359Y-43726D01*
X45539Y-44120D01*
X45539Y-43726D01*
X45689Y-44120D02*
X45689Y-43726D01*
X45764Y-43726D01*
X45809Y-43745D01*
X45839Y-43783D01*
X45854Y-43820D01*
X45869Y-43895D01*
X45869Y-43952D01*
X45854Y-44027D01*
X45839Y-44064D01*
X45809Y-44102D01*
X45764Y-44120D01*
X45689Y-44120D01*
X43930Y-43395D02*
X44035Y-43789D01*
X44140Y-43395D01*
X44425Y-43752D02*
X44410Y-43771D01*
X44365Y-43789D01*
X44335Y-43789D01*
X44290Y-43771D01*
X44260Y-43733D01*
X44245Y-43696D01*
X44230Y-43621D01*
X44230Y-43564D01*
X44245Y-43489D01*
X44260Y-43452D01*
X44290Y-43414D01*
X44335Y-43395D01*
X44365Y-43395D01*
X44410Y-43414D01*
X44425Y-43433D01*
X44740Y-43752D02*
X44725Y-43771D01*
X44680Y-43789D01*
X44650Y-43789D01*
X44605Y-43771D01*
X44575Y-43733D01*
X44560Y-43696D01*
X44545Y-43621D01*
X44545Y-43564D01*
X44560Y-43489D01*
X44575Y-43452D01*
X44605Y-43414D01*
X44650Y-43395D01*
X44680Y-43395D01*
X44725Y-43414D01*
X44740Y-43433D01*
X42748Y-43342D02*
X42793Y-43360D01*
X42868Y-43360D01*
X42898Y-43342D01*
X42913Y-43323D01*
X42928Y-43285D01*
X42928Y-43248D01*
X42913Y-43210D01*
X42898Y-43192D01*
X42868Y-43173D01*
X42808Y-43154D01*
X42778Y-43135D01*
X42763Y-43117D01*
X42748Y-43079D01*
X42748Y-43042D01*
X42763Y-43004D01*
X42778Y-42985D01*
X42808Y-42966D01*
X42883Y-42966D01*
X42928Y-42985D01*
X43063Y-43360D02*
X43063Y-42966D01*
X43138Y-42966D01*
X43183Y-42985D01*
X43213Y-43023D01*
X43228Y-43060D01*
X43243Y-43135D01*
X43243Y-43192D01*
X43228Y-43267D01*
X43213Y-43304D01*
X43183Y-43342D01*
X43138Y-43360D01*
X43063Y-43360D01*
X43363Y-43248D02*
X43513Y-43248D01*
X43333Y-43360D02*
X43438Y-42966D01*
X43543Y-43360D01*
X41779Y-42904D02*
X41824Y-42922D01*
X41899Y-42922D01*
X41929Y-42904D01*
X41944Y-42885D01*
X41959Y-42847D01*
X41959Y-42810D01*
X41944Y-42772D01*
X41929Y-42754D01*
X41899Y-42735D01*
X41839Y-42716D01*
X41809Y-42697D01*
X41794Y-42679D01*
X41779Y-42641D01*
X41779Y-42604D01*
X41794Y-42566D01*
X41809Y-42547D01*
X41839Y-42528D01*
X41914Y-42528D01*
X41959Y-42547D01*
X42274Y-42885D02*
X42259Y-42904D01*
X42214Y-42922D01*
X42184Y-42922D01*
X42139Y-42904D01*
X42109Y-42866D01*
X42094Y-42829D01*
X42079Y-42754D01*
X42079Y-42697D01*
X42094Y-42622D01*
X42109Y-42585D01*
X42139Y-42547D01*
X42184Y-42528D01*
X42214Y-42528D01*
X42259Y-42547D01*
X42274Y-42566D01*
X42559Y-42922D02*
X42409Y-42922D01*
X42409Y-42528D01*
X37784Y-44108D02*
X37784Y-43714D01*
X37964Y-44108D01*
X37964Y-43714D01*
X38294Y-44071D02*
X38279Y-44090D01*
X38234Y-44108D01*
X38204Y-44108D01*
X38159Y-44090D01*
X38129Y-44052D01*
X38114Y-44015D01*
X38099Y-43940D01*
X38099Y-43883D01*
X38114Y-43808D01*
X38129Y-43771D01*
X38159Y-43733D01*
X38204Y-43714D01*
X38234Y-43714D01*
X38279Y-43733D01*
X38294Y-43752D01*
X38780Y-44142D02*
X38750Y-44123D01*
X38705Y-44123D01*
X38660Y-44142D01*
X38630Y-44180D01*
X38615Y-44217D01*
X38600Y-44292D01*
X38600Y-44349D01*
X38615Y-44424D01*
X38630Y-44461D01*
X38660Y-44499D01*
X38705Y-44517D01*
X38735Y-44517D01*
X38780Y-44499D01*
X38795Y-44480D01*
X38795Y-44349D01*
X38735Y-44349D01*
X38930Y-44517D02*
X38930Y-44123D01*
X39110Y-44517D01*
X39110Y-44123D01*
X39260Y-44517D02*
X39260Y-44123D01*
X39335Y-44123D01*
X39380Y-44142D01*
X39410Y-44180D01*
X39425Y-44217D01*
X39440Y-44292D01*
X39440Y-44349D01*
X39425Y-44424D01*
X39410Y-44461D01*
X39380Y-44499D01*
X39335Y-44517D01*
X39260Y-44517D01*
X36840Y-43167D02*
X36945Y-43561D01*
X37050Y-43167D01*
X37335Y-43524D02*
X37320Y-43543D01*
X37275Y-43561D01*
X37245Y-43561D01*
X37200Y-43543D01*
X37170Y-43505D01*
X37155Y-43468D01*
X37140Y-43393D01*
X37140Y-43336D01*
X37155Y-43261D01*
X37170Y-43224D01*
X37200Y-43186D01*
X37245Y-43167D01*
X37275Y-43167D01*
X37320Y-43186D01*
X37335Y-43205D01*
X37650Y-43524D02*
X37635Y-43543D01*
X37590Y-43561D01*
X37560Y-43561D01*
X37515Y-43543D01*
X37485Y-43505D01*
X37470Y-43468D01*
X37455Y-43393D01*
X37455Y-43336D01*
X37470Y-43261D01*
X37485Y-43224D01*
X37515Y-43186D01*
X37560Y-43167D01*
X37590Y-43167D01*
X37635Y-43186D01*
X37650Y-43205D01*
X35578Y-42840D02*
X35473Y-42653D01*
X35398Y-42840D02*
X35398Y-42446D01*
X35518Y-42446D01*
X35548Y-42465D01*
X35563Y-42484D01*
X35578Y-42522D01*
X35578Y-42578D01*
X35563Y-42615D01*
X35548Y-42634D01*
X35518Y-42653D01*
X35398Y-42653D01*
X35683Y-42446D02*
X35893Y-42840D01*
X35893Y-42446D02*
X35683Y-42840D01*
X34729Y-41985D02*
X34909Y-41985D01*
X34819Y-42379D02*
X34819Y-41985D01*
X34984Y-41985D02*
X35194Y-42379D01*
X35194Y-41985D02*
X34984Y-42379D01*
X33801Y-42041D02*
X33801Y-41647D01*
X33876Y-41647D01*
X33921Y-41666D01*
X33951Y-41704D01*
X33966Y-41741D01*
X33981Y-41816D01*
X33981Y-41873D01*
X33966Y-41948D01*
X33951Y-41985D01*
X33921Y-42023D01*
X33876Y-42041D01*
X33801Y-42041D01*
X34071Y-41647D02*
X34251Y-41647D01*
X34161Y-42041D02*
X34161Y-41647D01*
X34536Y-42041D02*
X34431Y-41854D01*
X34356Y-42041D02*
X34356Y-41647D01*
X34476Y-41647D01*
X34506Y-41666D01*
X34521Y-41685D01*
X34536Y-41723D01*
X34536Y-41779D01*
X34521Y-41816D01*
X34506Y-41835D01*
X34476Y-41854D01*
X34356Y-41854D01*
G54D16*
X33980Y-28089D02*
X33972Y-28082D01*
X28661Y-37298D02*
X33980Y-28089D01*
X33965Y-46589D02*
X28661Y-37298D01*
X44697Y-46589D02*
X33965Y-46589D01*
X49996Y-37302D02*
X44697Y-46589D01*
X44646Y-28070D02*
X49996Y-37302D01*
X33972Y-28082D02*
X44646Y-28070D01*
G54D14*
X35043Y-46142D02*
X34979Y-46104D01*
X34947Y-46066D01*
X34915Y-45989D01*
X34915Y-45761D01*
X34947Y-45685D01*
X34979Y-45647D01*
X35043Y-45608D01*
X35138Y-45608D01*
X35202Y-45647D01*
X35234Y-45685D01*
X35266Y-45761D01*
X35266Y-45989D01*
X35234Y-46066D01*
X35202Y-46104D01*
X35138Y-46142D01*
X35043Y-46142D01*
X35552Y-46142D02*
X35552Y-45608D01*
X35552Y-45761D02*
X35584Y-45685D01*
X35616Y-45647D01*
X35680Y-45608D01*
X35743Y-45608D01*
X35966Y-46142D02*
X35966Y-45342D01*
X35966Y-45647D02*
X36030Y-45608D01*
X36157Y-45608D01*
X36221Y-45647D01*
X36253Y-45685D01*
X36285Y-45761D01*
X36285Y-45989D01*
X36253Y-46066D01*
X36221Y-46104D01*
X36157Y-46142D01*
X36030Y-46142D01*
X35966Y-46104D01*
X36571Y-46142D02*
X36571Y-45608D01*
X36571Y-45342D02*
X36539Y-45380D01*
X36571Y-45418D01*
X36603Y-45380D01*
X36571Y-45342D01*
X36571Y-45418D01*
X36795Y-45608D02*
X37050Y-45608D01*
X36890Y-45342D02*
X36890Y-46028D01*
X36922Y-46104D01*
X36986Y-46142D01*
X37050Y-46142D01*
X37272Y-46066D02*
X37304Y-46104D01*
X37272Y-46142D01*
X37240Y-46104D01*
X37272Y-46066D01*
X37272Y-46142D01*
X37591Y-45608D02*
X37591Y-46408D01*
X37591Y-45647D02*
X37655Y-45608D01*
X37782Y-45608D01*
X37846Y-45647D01*
X37878Y-45685D01*
X37910Y-45761D01*
X37910Y-45989D01*
X37878Y-46066D01*
X37846Y-46104D01*
X37782Y-46142D01*
X37655Y-46142D01*
X37591Y-46104D01*
X38483Y-45608D02*
X38483Y-46142D01*
X38196Y-45608D02*
X38196Y-46028D01*
X38228Y-46104D01*
X38292Y-46142D01*
X38387Y-46142D01*
X38451Y-46104D01*
X38483Y-46066D01*
X38738Y-45608D02*
X39088Y-45608D01*
X38738Y-46142D01*
X39088Y-46142D01*
X39280Y-45608D02*
X39630Y-45608D01*
X39280Y-46142D01*
X39630Y-46142D01*
X39981Y-46142D02*
X39917Y-46104D01*
X39885Y-46028D01*
X39885Y-45342D01*
X40490Y-46104D02*
X40426Y-46142D01*
X40299Y-46142D01*
X40235Y-46104D01*
X40203Y-46028D01*
X40203Y-45723D01*
X40235Y-45647D01*
X40299Y-45608D01*
X40426Y-45608D01*
X40490Y-45647D01*
X40522Y-45723D01*
X40522Y-45799D01*
X40203Y-45875D01*
X40808Y-46142D02*
X40808Y-45342D01*
X40808Y-45647D02*
X40872Y-45608D01*
X40999Y-45608D01*
X41063Y-45647D01*
X41095Y-45685D01*
X41127Y-45761D01*
X41127Y-45989D01*
X41095Y-46066D01*
X41063Y-46104D01*
X40999Y-46142D01*
X40872Y-46142D01*
X40808Y-46104D01*
X41509Y-46142D02*
X41445Y-46104D01*
X41413Y-46066D01*
X41381Y-45989D01*
X41381Y-45761D01*
X41413Y-45685D01*
X41445Y-45647D01*
X41509Y-45608D01*
X41604Y-45608D01*
X41668Y-45647D01*
X41700Y-45685D01*
X41732Y-45761D01*
X41732Y-45989D01*
X41700Y-46066D01*
X41668Y-46104D01*
X41604Y-46142D01*
X41509Y-46142D01*
X41955Y-46142D02*
X42305Y-45608D01*
X41955Y-45608D02*
X42305Y-46142D01*
X42560Y-46066D02*
X42592Y-46104D01*
X42560Y-46142D01*
X42528Y-46104D01*
X42560Y-46066D01*
X42560Y-46142D01*
X42879Y-46142D02*
X42879Y-45608D01*
X42879Y-45342D02*
X42847Y-45380D01*
X42879Y-45418D01*
X42911Y-45380D01*
X42879Y-45342D01*
X42879Y-45418D01*
X43198Y-45608D02*
X43198Y-46142D01*
X43198Y-45685D02*
X43230Y-45647D01*
X43294Y-45608D01*
X43389Y-45608D01*
X43453Y-45647D01*
X43485Y-45723D01*
X43485Y-46142D01*
X43708Y-45608D02*
X43963Y-45608D01*
X43803Y-46142D02*
X43803Y-45456D01*
X43835Y-45380D01*
X43899Y-45342D01*
X43963Y-45342D01*
X44281Y-46142D02*
X44217Y-46104D01*
X44185Y-46066D01*
X44153Y-45989D01*
X44153Y-45761D01*
X44185Y-45685D01*
X44217Y-45647D01*
X44281Y-45608D01*
X44376Y-45608D01*
X44440Y-45647D01*
X44472Y-45685D01*
X44504Y-45761D01*
X44504Y-45989D01*
X44472Y-46066D01*
X44440Y-46104D01*
X44376Y-46142D01*
X44281Y-46142D01*
G54D17*
G36*
X50159Y-37198D02*
X50150Y-37223D01*
X50132Y-37297D01*
X50128Y-37390D01*
X50122Y-37467D01*
X50090Y-37496D01*
X50070Y-37498D01*
X50045Y-37514D01*
X50003Y-37563D01*
X49942Y-37651D01*
X49860Y-37779D01*
X49755Y-37953D01*
X49732Y-37991D01*
X49732Y-37448D01*
X49700Y-37447D01*
X49700Y-37198D01*
X49205Y-36340D01*
X48909Y-35826D01*
X48644Y-35367D01*
X48409Y-34960D01*
X48201Y-34602D01*
X48020Y-34289D01*
X47863Y-34020D01*
X47729Y-33790D01*
X47615Y-33597D01*
X47520Y-33438D01*
X47442Y-33310D01*
X47380Y-33210D01*
X47331Y-33134D01*
X47294Y-33081D01*
X47267Y-33046D01*
X47249Y-33027D01*
X47237Y-33021D01*
X47235Y-33021D01*
X47183Y-33029D01*
X47134Y-33036D01*
X47134Y-32748D01*
X45836Y-30498D01*
X44539Y-28248D01*
X42153Y-28257D01*
X39768Y-28265D01*
X40105Y-28640D01*
X40357Y-28927D01*
X40559Y-29174D01*
X40713Y-29384D01*
X40820Y-29561D01*
X40882Y-29707D01*
X40899Y-29825D01*
X40874Y-29919D01*
X40808Y-29991D01*
X40764Y-30017D01*
X40606Y-30064D01*
X40404Y-30066D01*
X40164Y-30023D01*
X39979Y-29968D01*
X39773Y-29905D01*
X39599Y-29873D01*
X39455Y-29865D01*
X39330Y-29867D01*
X39250Y-29880D01*
X39191Y-29911D01*
X39129Y-29966D01*
X39065Y-30041D01*
X39040Y-30111D01*
X39044Y-30210D01*
X39044Y-30212D01*
X39094Y-30381D01*
X39198Y-30551D01*
X39344Y-30708D01*
X39523Y-30843D01*
X39722Y-30942D01*
X39753Y-30953D01*
X39920Y-30991D01*
X40129Y-31008D01*
X40192Y-31009D01*
X40334Y-31006D01*
X40434Y-30994D01*
X40513Y-30969D01*
X40596Y-30923D01*
X40628Y-30903D01*
X40734Y-30842D01*
X40828Y-30810D01*
X40942Y-30799D01*
X41006Y-30799D01*
X41177Y-30810D01*
X41328Y-30847D01*
X41462Y-30914D01*
X41583Y-31017D01*
X41695Y-31161D01*
X41804Y-31351D01*
X41913Y-31592D01*
X42026Y-31890D01*
X42117Y-32155D01*
X42291Y-32680D01*
X42722Y-32771D01*
X43073Y-32841D01*
X43363Y-32886D01*
X43591Y-32908D01*
X43759Y-32906D01*
X43867Y-32881D01*
X43878Y-32875D01*
X43887Y-32835D01*
X43846Y-32760D01*
X43759Y-32653D01*
X43630Y-32520D01*
X43531Y-32427D01*
X43318Y-32211D01*
X43166Y-32005D01*
X43074Y-31811D01*
X43044Y-31632D01*
X43076Y-31468D01*
X43093Y-31433D01*
X43169Y-31328D01*
X43274Y-31253D01*
X43419Y-31207D01*
X43612Y-31185D01*
X43755Y-31181D01*
X43912Y-31183D01*
X44025Y-31190D01*
X44116Y-31208D01*
X44208Y-31242D01*
X44324Y-31297D01*
X44346Y-31308D01*
X44617Y-31476D01*
X44860Y-31696D01*
X45062Y-31953D01*
X45147Y-32099D01*
X45219Y-32252D01*
X45258Y-32367D01*
X45265Y-32464D01*
X45244Y-32558D01*
X45235Y-32584D01*
X45219Y-32663D01*
X45249Y-32728D01*
X45260Y-32741D01*
X45373Y-32827D01*
X45526Y-32893D01*
X45694Y-32927D01*
X45754Y-32930D01*
X45870Y-32925D01*
X46034Y-32911D01*
X46231Y-32889D01*
X46443Y-32862D01*
X46655Y-32832D01*
X46849Y-32801D01*
X46916Y-32789D01*
X47134Y-32748D01*
X47134Y-33036D01*
X47082Y-33044D01*
X46946Y-33065D01*
X46836Y-33081D01*
X46652Y-33105D01*
X46433Y-33128D01*
X46211Y-33145D01*
X46070Y-33153D01*
X45889Y-33160D01*
X45757Y-33161D01*
X45658Y-33153D01*
X45575Y-33137D01*
X45490Y-33110D01*
X45459Y-33098D01*
X45327Y-33034D01*
X45193Y-32945D01*
X45071Y-32843D01*
X44973Y-32739D01*
X44913Y-32647D01*
X44900Y-32598D01*
X44904Y-32512D01*
X44916Y-32400D01*
X44921Y-32365D01*
X44928Y-32279D01*
X44918Y-32208D01*
X44883Y-32130D01*
X44816Y-32021D01*
X44812Y-32015D01*
X44661Y-31815D01*
X44492Y-31647D01*
X44318Y-31520D01*
X44160Y-31448D01*
X44024Y-31413D01*
X43912Y-31400D01*
X43793Y-31410D01*
X43675Y-31433D01*
X43520Y-31483D01*
X43422Y-31557D01*
X43376Y-31661D01*
X43370Y-31734D01*
X43392Y-31885D01*
X43463Y-32034D01*
X43587Y-32188D01*
X43726Y-32319D01*
X43864Y-32440D01*
X43962Y-32532D01*
X44031Y-32608D01*
X44084Y-32680D01*
X44131Y-32761D01*
X44139Y-32775D01*
X44190Y-32913D01*
X44187Y-33025D01*
X44130Y-33105D01*
X44103Y-33122D01*
X43989Y-33152D01*
X43817Y-33161D01*
X43591Y-33147D01*
X43314Y-33113D01*
X42992Y-33058D01*
X42627Y-32982D01*
X42614Y-32979D01*
X42464Y-32947D01*
X42339Y-32922D01*
X42252Y-32907D01*
X42218Y-32905D01*
X42220Y-32940D01*
X42234Y-33027D01*
X42258Y-33152D01*
X42286Y-33292D01*
X42367Y-33638D01*
X42452Y-33922D01*
X42545Y-34150D01*
X42649Y-34328D01*
X42769Y-34462D01*
X42909Y-34557D01*
X43072Y-34618D01*
X43239Y-34648D01*
X43341Y-34657D01*
X43422Y-34650D01*
X43506Y-34622D01*
X43617Y-34568D01*
X43650Y-34550D01*
X43785Y-34484D01*
X43893Y-34448D01*
X44003Y-34433D01*
X44084Y-34431D01*
X44363Y-34464D01*
X44637Y-34558D01*
X44897Y-34710D01*
X45134Y-34914D01*
X45152Y-34933D01*
X45285Y-35096D01*
X45365Y-35248D01*
X45400Y-35408D01*
X45403Y-35482D01*
X45393Y-35594D01*
X45356Y-35672D01*
X45319Y-35712D01*
X45198Y-35784D01*
X45029Y-35826D01*
X44825Y-35837D01*
X44597Y-35818D01*
X44359Y-35769D01*
X44231Y-35730D01*
X44053Y-35674D01*
X43910Y-35644D01*
X43782Y-35637D01*
X43744Y-35638D01*
X43636Y-35645D01*
X43578Y-35660D01*
X43553Y-35690D01*
X43543Y-35747D01*
X43543Y-35750D01*
X43547Y-35810D01*
X43571Y-35884D01*
X43621Y-35977D01*
X43699Y-36096D01*
X43810Y-36246D01*
X43956Y-36432D01*
X44143Y-36661D01*
X44188Y-36715D01*
X44586Y-37195D01*
X47143Y-37197D01*
X49700Y-37198D01*
X49700Y-37447D01*
X47120Y-37439D01*
X44507Y-37431D01*
X44513Y-37289D01*
X44520Y-37148D01*
X43286Y-37127D01*
X42936Y-37122D01*
X42539Y-37117D01*
X42117Y-37112D01*
X42003Y-37110D01*
X42003Y-32707D01*
X41992Y-32662D01*
X41963Y-32567D01*
X41920Y-32432D01*
X41865Y-32268D01*
X41804Y-32087D01*
X41740Y-31902D01*
X41678Y-31722D01*
X41620Y-31560D01*
X41572Y-31428D01*
X41537Y-31336D01*
X41522Y-31302D01*
X41418Y-31159D01*
X41290Y-31069D01*
X41147Y-31035D01*
X41001Y-31060D01*
X40902Y-31115D01*
X40757Y-31199D01*
X40588Y-31247D01*
X40378Y-31264D01*
X40349Y-31264D01*
X40000Y-31234D01*
X39679Y-31144D01*
X39385Y-30992D01*
X39118Y-30780D01*
X39086Y-30749D01*
X38929Y-30577D01*
X38824Y-30423D01*
X38762Y-30271D01*
X38738Y-30107D01*
X38737Y-30059D01*
X38741Y-29943D01*
X38761Y-29866D01*
X38806Y-29801D01*
X38836Y-29769D01*
X38977Y-29675D01*
X39163Y-29623D01*
X39388Y-29614D01*
X39647Y-29649D01*
X39934Y-29726D01*
X40007Y-29751D01*
X40208Y-29808D01*
X40377Y-29822D01*
X40505Y-29792D01*
X40561Y-29754D01*
X40585Y-29719D01*
X40584Y-29674D01*
X40554Y-29602D01*
X40517Y-29532D01*
X40443Y-29415D01*
X40329Y-29260D01*
X40186Y-29078D01*
X40020Y-28881D01*
X39841Y-28677D01*
X39682Y-28505D01*
X39453Y-28262D01*
X36862Y-28271D01*
X34270Y-28281D01*
X35569Y-30531D01*
X35813Y-30953D01*
X36037Y-31337D01*
X36238Y-31681D01*
X36416Y-31982D01*
X36569Y-32238D01*
X36696Y-32447D01*
X36795Y-32606D01*
X36864Y-32712D01*
X36903Y-32764D01*
X36910Y-32769D01*
X37190Y-32693D01*
X37419Y-32637D01*
X37608Y-32599D01*
X37770Y-32577D01*
X37915Y-32570D01*
X38003Y-32571D01*
X38179Y-32584D01*
X38306Y-32614D01*
X38403Y-32669D01*
X38488Y-32759D01*
X38538Y-32831D01*
X38585Y-32921D01*
X38614Y-33034D01*
X38633Y-33192D01*
X38634Y-33215D01*
X38655Y-33391D01*
X38696Y-33533D01*
X38766Y-33658D01*
X38877Y-33787D01*
X38988Y-33893D01*
X39217Y-34072D01*
X39458Y-34195D01*
X39725Y-34267D01*
X40031Y-34294D01*
X40047Y-34294D01*
X40181Y-34294D01*
X40267Y-34287D01*
X40326Y-34266D01*
X40377Y-34228D01*
X40405Y-34200D01*
X40474Y-34109D01*
X40500Y-34006D01*
X40483Y-33879D01*
X40422Y-33719D01*
X40388Y-33647D01*
X40309Y-33493D01*
X40238Y-33378D01*
X40158Y-33284D01*
X40055Y-33192D01*
X39916Y-33085D01*
X39787Y-32981D01*
X39708Y-32896D01*
X39673Y-32815D01*
X39673Y-32727D01*
X39683Y-32683D01*
X39735Y-32604D01*
X39846Y-32554D01*
X40016Y-32532D01*
X40072Y-32531D01*
X40156Y-32535D01*
X40294Y-32545D01*
X40473Y-32561D01*
X40682Y-32581D01*
X40907Y-32603D01*
X41137Y-32627D01*
X41359Y-32651D01*
X41561Y-32674D01*
X41730Y-32695D01*
X41855Y-32712D01*
X41895Y-32719D01*
X41968Y-32724D01*
X42002Y-32709D01*
X42003Y-32707D01*
X42003Y-37110D01*
X41690Y-37108D01*
X41278Y-37105D01*
X40902Y-37103D01*
X40783Y-37102D01*
X40457Y-37101D01*
X40191Y-37099D01*
X39978Y-37097D01*
X39814Y-37093D01*
X39690Y-37089D01*
X39600Y-37082D01*
X39539Y-37074D01*
X39499Y-37064D01*
X39475Y-37051D01*
X39463Y-37040D01*
X39438Y-37002D01*
X39382Y-36911D01*
X39298Y-36773D01*
X39189Y-36591D01*
X39057Y-36370D01*
X38905Y-36116D01*
X38737Y-35833D01*
X38555Y-35525D01*
X38361Y-35198D01*
X38204Y-34931D01*
X38004Y-34593D01*
X37814Y-34271D01*
X37636Y-33971D01*
X37474Y-33696D01*
X37329Y-33452D01*
X37205Y-33244D01*
X37104Y-33075D01*
X37029Y-32950D01*
X36983Y-32875D01*
X36969Y-32853D01*
X36930Y-32854D01*
X36859Y-32879D01*
X36776Y-32920D01*
X36706Y-32963D01*
X36671Y-32997D01*
X36670Y-33002D01*
X36686Y-33033D01*
X36734Y-33117D01*
X36811Y-33250D01*
X36913Y-33425D01*
X37039Y-33640D01*
X37185Y-33890D01*
X37349Y-34169D01*
X37528Y-34473D01*
X37720Y-34798D01*
X37889Y-35085D01*
X38091Y-35425D01*
X38282Y-35749D01*
X38461Y-36053D01*
X38626Y-36331D01*
X38772Y-36579D01*
X38898Y-36793D01*
X39001Y-36967D01*
X39077Y-37097D01*
X39124Y-37178D01*
X39140Y-37205D01*
X39139Y-37228D01*
X39121Y-37277D01*
X39086Y-37355D01*
X39030Y-37464D01*
X38954Y-37609D01*
X38854Y-37791D01*
X38730Y-38014D01*
X38579Y-38282D01*
X38399Y-38598D01*
X38190Y-38964D01*
X37949Y-39383D01*
X37898Y-39471D01*
X37694Y-39824D01*
X37500Y-40161D01*
X37317Y-40477D01*
X37149Y-40768D01*
X36997Y-41028D01*
X36866Y-41254D01*
X36756Y-41441D01*
X36671Y-41585D01*
X36640Y-41636D01*
X36640Y-32868D01*
X35351Y-30633D01*
X35147Y-30279D01*
X34952Y-29942D01*
X34769Y-29628D01*
X34600Y-29339D01*
X34449Y-29080D01*
X34317Y-28857D01*
X34207Y-28672D01*
X34123Y-28532D01*
X34066Y-28439D01*
X34038Y-28399D01*
X34037Y-28398D01*
X34016Y-28426D01*
X33965Y-28507D01*
X33886Y-28638D01*
X33781Y-28813D01*
X33653Y-29028D01*
X33505Y-29279D01*
X33339Y-29562D01*
X33157Y-29872D01*
X32963Y-30204D01*
X32759Y-30555D01*
X32704Y-30649D01*
X31397Y-32901D01*
X31603Y-33513D01*
X31722Y-33852D01*
X31827Y-34127D01*
X31919Y-34338D01*
X31998Y-34485D01*
X32064Y-34568D01*
X32078Y-34578D01*
X32158Y-34595D01*
X32235Y-34549D01*
X32308Y-34442D01*
X32373Y-34277D01*
X32430Y-34059D01*
X32435Y-34037D01*
X32516Y-33724D01*
X32618Y-33474D01*
X32741Y-33288D01*
X32885Y-33164D01*
X33049Y-33104D01*
X33130Y-33098D01*
X33282Y-33130D01*
X33423Y-33220D01*
X33548Y-33361D01*
X33653Y-33545D01*
X33734Y-33764D01*
X33785Y-34011D01*
X33802Y-34267D01*
X33781Y-34526D01*
X33719Y-34784D01*
X33624Y-35027D01*
X33501Y-35245D01*
X33357Y-35423D01*
X33197Y-35550D01*
X33167Y-35566D01*
X33035Y-35659D01*
X32943Y-35778D01*
X32904Y-35906D01*
X32903Y-35925D01*
X32924Y-36017D01*
X32983Y-36138D01*
X33028Y-36209D01*
X33096Y-36302D01*
X33190Y-36421D01*
X33303Y-36558D01*
X33427Y-36704D01*
X33556Y-36851D01*
X33681Y-36991D01*
X33795Y-37115D01*
X33891Y-37215D01*
X33962Y-37282D01*
X33999Y-37309D01*
X34002Y-37308D01*
X34022Y-37269D01*
X34063Y-37180D01*
X34120Y-37052D01*
X34187Y-36895D01*
X34235Y-36781D01*
X34372Y-36462D01*
X34500Y-36173D01*
X34617Y-35919D01*
X34720Y-35707D01*
X34806Y-35542D01*
X34872Y-35431D01*
X34888Y-35409D01*
X34962Y-35331D01*
X35040Y-35301D01*
X35085Y-35298D01*
X35186Y-35316D01*
X35259Y-35375D01*
X35309Y-35481D01*
X35340Y-35644D01*
X35348Y-35721D01*
X35402Y-36008D01*
X35514Y-36273D01*
X35676Y-36503D01*
X35724Y-36554D01*
X35857Y-36659D01*
X35984Y-36700D01*
X36106Y-36676D01*
X36183Y-36628D01*
X36285Y-36515D01*
X36377Y-36350D01*
X36454Y-36151D01*
X36510Y-35931D01*
X36540Y-35706D01*
X36543Y-35623D01*
X36521Y-35325D01*
X36450Y-35068D01*
X36329Y-34854D01*
X36161Y-34685D01*
X36083Y-34631D01*
X35921Y-34504D01*
X35806Y-34352D01*
X35745Y-34188D01*
X35737Y-34111D01*
X35765Y-33962D01*
X35851Y-33783D01*
X35994Y-33574D01*
X36192Y-33338D01*
X36291Y-33232D01*
X36640Y-32868D01*
X36640Y-41636D01*
X36614Y-41680D01*
X36587Y-41723D01*
X36586Y-41725D01*
X36564Y-41732D01*
X36537Y-41701D01*
X36502Y-41626D01*
X36453Y-41498D01*
X36421Y-41408D01*
X36291Y-41047D01*
X36174Y-40748D01*
X36071Y-40511D01*
X35979Y-40333D01*
X35898Y-40212D01*
X35827Y-40146D01*
X35779Y-40131D01*
X35733Y-40159D01*
X35674Y-40232D01*
X35612Y-40331D01*
X35558Y-40439D01*
X35523Y-40538D01*
X35518Y-40562D01*
X35441Y-40917D01*
X35332Y-41220D01*
X35193Y-41468D01*
X35094Y-41590D01*
X34977Y-41680D01*
X34855Y-41710D01*
X34732Y-41686D01*
X34615Y-41615D01*
X34506Y-41503D01*
X34410Y-41357D01*
X34333Y-41182D01*
X34278Y-40986D01*
X34250Y-40773D01*
X34254Y-40552D01*
X34268Y-40440D01*
X34341Y-40165D01*
X34453Y-39940D01*
X34609Y-39764D01*
X34761Y-39657D01*
X34875Y-39584D01*
X34952Y-39509D01*
X35013Y-39405D01*
X35031Y-39367D01*
X35100Y-39175D01*
X35123Y-38988D01*
X35098Y-38802D01*
X35021Y-38612D01*
X34891Y-38412D01*
X34706Y-38198D01*
X34463Y-37963D01*
X34356Y-37869D01*
X34234Y-37765D01*
X34132Y-37681D01*
X34059Y-37624D01*
X34024Y-37602D01*
X34023Y-37602D01*
X34010Y-37637D01*
X33983Y-37722D01*
X33948Y-37843D01*
X33924Y-37925D01*
X33862Y-38126D01*
X33809Y-38278D01*
X33809Y-37562D01*
X33614Y-37344D01*
X33382Y-37081D01*
X33193Y-36859D01*
X33042Y-36672D01*
X32925Y-36512D01*
X32838Y-36374D01*
X32777Y-36250D01*
X32738Y-36135D01*
X32715Y-36022D01*
X32709Y-35958D01*
X32705Y-35841D01*
X32719Y-35744D01*
X32757Y-35639D01*
X32800Y-35548D01*
X32866Y-35425D01*
X32929Y-35344D01*
X33008Y-35282D01*
X33079Y-35241D01*
X33243Y-35119D01*
X33389Y-34945D01*
X33506Y-34733D01*
X33555Y-34603D01*
X33594Y-34404D01*
X33597Y-34193D01*
X33566Y-33984D01*
X33506Y-33792D01*
X33420Y-33630D01*
X33311Y-33513D01*
X33267Y-33484D01*
X33130Y-33441D01*
X33004Y-33463D01*
X32888Y-33547D01*
X32785Y-33694D01*
X32696Y-33901D01*
X32622Y-34167D01*
X32605Y-34247D01*
X32543Y-34482D01*
X32463Y-34675D01*
X32369Y-34820D01*
X32266Y-34913D01*
X32156Y-34950D01*
X32045Y-34928D01*
X31982Y-34886D01*
X31911Y-34815D01*
X31842Y-34717D01*
X31770Y-34587D01*
X31693Y-34416D01*
X31608Y-34198D01*
X31510Y-33925D01*
X31468Y-33803D01*
X31248Y-33158D01*
X30056Y-35212D01*
X29797Y-35659D01*
X29572Y-36050D01*
X29380Y-36386D01*
X29221Y-36669D01*
X29093Y-36899D01*
X28996Y-37079D01*
X28930Y-37209D01*
X28893Y-37290D01*
X28885Y-37324D01*
X28905Y-37361D01*
X28954Y-37450D01*
X29031Y-37585D01*
X29131Y-37761D01*
X29251Y-37972D01*
X29389Y-38213D01*
X29541Y-38478D01*
X29705Y-38763D01*
X29877Y-39062D01*
X30054Y-39369D01*
X30233Y-39680D01*
X30411Y-39989D01*
X30584Y-40289D01*
X30751Y-40578D01*
X30907Y-40847D01*
X31050Y-41094D01*
X31176Y-41311D01*
X31283Y-41494D01*
X31367Y-41637D01*
X31425Y-41736D01*
X31455Y-41784D01*
X31458Y-41787D01*
X31480Y-41761D01*
X31535Y-41692D01*
X31616Y-41592D01*
X31714Y-41471D01*
X31719Y-41465D01*
X31934Y-41189D01*
X32111Y-40944D01*
X32246Y-40735D01*
X32338Y-40564D01*
X32384Y-40434D01*
X32387Y-40418D01*
X32395Y-40255D01*
X32361Y-40142D01*
X32283Y-40073D01*
X32234Y-40055D01*
X32096Y-39988D01*
X31964Y-39865D01*
X31844Y-39696D01*
X31741Y-39493D01*
X31661Y-39265D01*
X31609Y-39024D01*
X31590Y-38781D01*
X31612Y-38490D01*
X31681Y-38235D01*
X31801Y-38003D01*
X31827Y-37965D01*
X31963Y-37797D01*
X32098Y-37690D01*
X32240Y-37638D01*
X32324Y-37631D01*
X32424Y-37640D01*
X32507Y-37675D01*
X32600Y-37749D01*
X32605Y-37753D01*
X32739Y-37896D01*
X32839Y-38056D01*
X32913Y-38251D01*
X32966Y-38471D01*
X33014Y-38686D01*
X33066Y-38854D01*
X33120Y-38970D01*
X33172Y-39026D01*
X33191Y-39031D01*
X33232Y-39001D01*
X33288Y-38915D01*
X33357Y-38782D01*
X33435Y-38609D01*
X33518Y-38406D01*
X33602Y-38179D01*
X33654Y-38027D01*
X33809Y-37562D01*
X33809Y-38278D01*
X33786Y-38345D01*
X33702Y-38568D01*
X33616Y-38781D01*
X33532Y-38971D01*
X33458Y-39122D01*
X33405Y-39211D01*
X33335Y-39299D01*
X33269Y-39363D01*
X33237Y-39381D01*
X33140Y-39379D01*
X33047Y-39316D01*
X32960Y-39194D01*
X32883Y-39018D01*
X32818Y-38792D01*
X32801Y-38713D01*
X32754Y-38504D01*
X32707Y-38347D01*
X32652Y-38229D01*
X32584Y-38134D01*
X32511Y-38061D01*
X32387Y-37984D01*
X32264Y-37973D01*
X32142Y-38028D01*
X32041Y-38121D01*
X31895Y-38330D01*
X31811Y-38552D01*
X31790Y-38790D01*
X31832Y-39048D01*
X31937Y-39326D01*
X31937Y-39327D01*
X32010Y-39474D01*
X32072Y-39573D01*
X32138Y-39638D01*
X32220Y-39684D01*
X32304Y-39715D01*
X32422Y-39773D01*
X32505Y-39861D01*
X32559Y-39991D01*
X32590Y-40173D01*
X32595Y-40232D01*
X32597Y-40389D01*
X32579Y-40541D01*
X32535Y-40695D01*
X32462Y-40861D01*
X32356Y-41045D01*
X32214Y-41255D01*
X32031Y-41500D01*
X31891Y-41679D01*
X31787Y-41812D01*
X31701Y-41926D01*
X31640Y-42012D01*
X31612Y-42060D01*
X31610Y-42065D01*
X31633Y-42109D01*
X31686Y-42204D01*
X31765Y-42343D01*
X31867Y-42522D01*
X31990Y-42735D01*
X32129Y-42976D01*
X32282Y-43240D01*
X32445Y-43522D01*
X32615Y-43815D01*
X32789Y-44114D01*
X32963Y-44414D01*
X33135Y-44708D01*
X33302Y-44993D01*
X33459Y-45261D01*
X33604Y-45508D01*
X33733Y-45727D01*
X33844Y-45914D01*
X33932Y-46063D01*
X33996Y-46168D01*
X34031Y-46224D01*
X34036Y-46231D01*
X34057Y-46203D01*
X34108Y-46122D01*
X34187Y-45992D01*
X34292Y-45817D01*
X34419Y-45603D01*
X34567Y-45354D01*
X34732Y-45073D01*
X34911Y-44767D01*
X35103Y-44438D01*
X35304Y-44093D01*
X35305Y-44090D01*
X35507Y-43742D01*
X35699Y-43410D01*
X35878Y-43098D01*
X36042Y-42811D01*
X36189Y-42553D01*
X36315Y-42330D01*
X36418Y-42145D01*
X36496Y-42005D01*
X36545Y-41912D01*
X36563Y-41873D01*
X36575Y-41822D01*
X36595Y-41804D01*
X36640Y-41819D01*
X36725Y-41866D01*
X36736Y-41872D01*
X36816Y-41914D01*
X36869Y-41932D01*
X36879Y-41931D01*
X36897Y-41900D01*
X36946Y-41816D01*
X37023Y-41683D01*
X37126Y-41505D01*
X37252Y-41288D01*
X37398Y-41035D01*
X37561Y-40751D01*
X37740Y-40441D01*
X37932Y-40108D01*
X38133Y-39758D01*
X38168Y-39698D01*
X38371Y-39345D01*
X38565Y-39008D01*
X38747Y-38693D01*
X38915Y-38403D01*
X39065Y-38144D01*
X39195Y-37919D01*
X39303Y-37733D01*
X39387Y-37591D01*
X39442Y-37497D01*
X39468Y-37455D01*
X39469Y-37454D01*
X39505Y-37451D01*
X39601Y-37448D01*
X39751Y-37447D01*
X39949Y-37446D01*
X40189Y-37447D01*
X40463Y-37448D01*
X40766Y-37449D01*
X41092Y-37452D01*
X41434Y-37455D01*
X41785Y-37458D01*
X42140Y-37462D01*
X42492Y-37466D01*
X42835Y-37470D01*
X43163Y-37475D01*
X43468Y-37480D01*
X43746Y-37485D01*
X43989Y-37489D01*
X44191Y-37494D01*
X44346Y-37499D01*
X44448Y-37503D01*
X44490Y-37508D01*
X44491Y-37508D01*
X44491Y-37548D01*
X44475Y-37637D01*
X44444Y-37761D01*
X44404Y-37908D01*
X44357Y-38061D01*
X44329Y-38148D01*
X44254Y-38342D01*
X44170Y-38520D01*
X44086Y-38663D01*
X44043Y-38719D01*
X43906Y-38830D01*
X43740Y-38888D01*
X43560Y-38893D01*
X43379Y-38842D01*
X43306Y-38803D01*
X43154Y-38726D01*
X43004Y-38689D01*
X42830Y-38689D01*
X42720Y-38702D01*
X42447Y-38775D01*
X42182Y-38904D01*
X41943Y-39082D01*
X41846Y-39176D01*
X41706Y-39343D01*
X41597Y-39508D01*
X41527Y-39658D01*
X41503Y-39776D01*
X41533Y-39883D01*
X41613Y-39982D01*
X41726Y-40054D01*
X41754Y-40065D01*
X41844Y-40083D01*
X41975Y-40097D01*
X42121Y-40103D01*
X42147Y-40103D01*
X42296Y-40099D01*
X42413Y-40084D01*
X42526Y-40052D01*
X42664Y-39996D01*
X42693Y-39983D01*
X42849Y-39918D01*
X42960Y-39880D01*
X43040Y-39869D01*
X43104Y-39883D01*
X43162Y-39916D01*
X43211Y-39962D01*
X43238Y-40020D01*
X43240Y-40093D01*
X43215Y-40187D01*
X43161Y-40307D01*
X43075Y-40457D01*
X42955Y-40642D01*
X42798Y-40867D01*
X42603Y-41136D01*
X42485Y-41296D01*
X42352Y-41476D01*
X42235Y-41639D01*
X42137Y-41775D01*
X42066Y-41879D01*
X42025Y-41942D01*
X42018Y-41958D01*
X42063Y-41977D01*
X42163Y-42003D01*
X42305Y-42036D01*
X42477Y-42073D01*
X42669Y-42110D01*
X42868Y-42148D01*
X43063Y-42182D01*
X43241Y-42211D01*
X43392Y-42233D01*
X43504Y-42245D01*
X43564Y-42246D01*
X43639Y-42231D01*
X43709Y-42216D01*
X43787Y-42177D01*
X43864Y-42105D01*
X43874Y-42092D01*
X43919Y-42014D01*
X43940Y-41927D01*
X43943Y-41805D01*
X43942Y-41781D01*
X43966Y-41563D01*
X44051Y-41334D01*
X44194Y-41101D01*
X44391Y-40870D01*
X44401Y-40861D01*
X44660Y-40641D01*
X44938Y-40486D01*
X45236Y-40394D01*
X45543Y-40365D01*
X45745Y-40378D01*
X45900Y-40422D01*
X46022Y-40503D01*
X46079Y-40563D01*
X46154Y-40699D01*
X46167Y-40855D01*
X46118Y-41033D01*
X46006Y-41232D01*
X45832Y-41453D01*
X45595Y-41695D01*
X45514Y-41770D01*
X45392Y-41900D01*
X45313Y-42023D01*
X45282Y-42131D01*
X45303Y-42214D01*
X45308Y-42220D01*
X45340Y-42246D01*
X45394Y-42259D01*
X45483Y-42262D01*
X45622Y-42256D01*
X45652Y-42255D01*
X45753Y-42244D01*
X45895Y-42225D01*
X46068Y-42198D01*
X46258Y-42166D01*
X46454Y-42131D01*
X46645Y-42096D01*
X46820Y-42061D01*
X46965Y-42030D01*
X47071Y-42005D01*
X47124Y-41987D01*
X47127Y-41985D01*
X47145Y-41954D01*
X47194Y-41871D01*
X47271Y-41738D01*
X47374Y-41560D01*
X47499Y-41343D01*
X47645Y-41089D01*
X47808Y-40804D01*
X47987Y-40493D01*
X48179Y-40158D01*
X48381Y-39806D01*
X48436Y-39710D01*
X49732Y-37448D01*
X49732Y-37991D01*
X49623Y-38175D01*
X49464Y-38449D01*
X49326Y-38690D01*
X48824Y-39565D01*
X48351Y-40392D01*
X47905Y-41169D01*
X47488Y-41897D01*
X47100Y-42574D01*
X46952Y-42831D01*
X46952Y-42270D01*
X46918Y-42273D01*
X46830Y-42287D01*
X46699Y-42311D01*
X46538Y-42342D01*
X46447Y-42360D01*
X46085Y-42431D01*
X45781Y-42481D01*
X45533Y-42510D01*
X45336Y-42517D01*
X45186Y-42504D01*
X45078Y-42469D01*
X45010Y-42412D01*
X44975Y-42332D01*
X44970Y-42270D01*
X45001Y-42094D01*
X45095Y-41911D01*
X45246Y-41725D01*
X45361Y-41618D01*
X45484Y-41503D01*
X45604Y-41375D01*
X45699Y-41259D01*
X45711Y-41241D01*
X45805Y-41066D01*
X45836Y-40912D01*
X45810Y-40783D01*
X45728Y-40686D01*
X45594Y-40624D01*
X45412Y-40603D01*
X45309Y-40608D01*
X45069Y-40663D01*
X44845Y-40769D01*
X44646Y-40918D01*
X44480Y-41100D01*
X44356Y-41306D01*
X44284Y-41527D01*
X44270Y-41680D01*
X44240Y-41893D01*
X44157Y-42091D01*
X44030Y-42259D01*
X43868Y-42381D01*
X43863Y-42384D01*
X43752Y-42433D01*
X43630Y-42465D01*
X43491Y-42481D01*
X43324Y-42480D01*
X43123Y-42461D01*
X42879Y-42425D01*
X42584Y-42371D01*
X42379Y-42330D01*
X41905Y-42233D01*
X41741Y-42407D01*
X41529Y-42639D01*
X41343Y-42855D01*
X41186Y-43049D01*
X41064Y-43215D01*
X40981Y-43348D01*
X40940Y-43443D01*
X40936Y-43468D01*
X40965Y-43515D01*
X41047Y-43531D01*
X41178Y-43518D01*
X41351Y-43477D01*
X41497Y-43429D01*
X41755Y-43356D01*
X41994Y-43326D01*
X42206Y-43336D01*
X42383Y-43386D01*
X42518Y-43476D01*
X42590Y-43571D01*
X42631Y-43720D01*
X42622Y-43895D01*
X42566Y-44085D01*
X42467Y-44279D01*
X42330Y-44464D01*
X42259Y-44539D01*
X42099Y-44669D01*
X41896Y-44790D01*
X41676Y-44890D01*
X41462Y-44957D01*
X41443Y-44961D01*
X41276Y-44986D01*
X41095Y-44996D01*
X40920Y-44992D01*
X40774Y-44975D01*
X40693Y-44952D01*
X40599Y-44899D01*
X40523Y-44836D01*
X40461Y-44783D01*
X40413Y-44765D01*
X40325Y-44787D01*
X40216Y-44845D01*
X40107Y-44924D01*
X40021Y-45009D01*
X40017Y-45014D01*
X39948Y-45091D01*
X39879Y-45125D01*
X39799Y-45131D01*
X39717Y-45123D01*
X39672Y-45102D01*
X39670Y-45095D01*
X39692Y-45056D01*
X39752Y-44985D01*
X39837Y-44893D01*
X39878Y-44852D01*
X40007Y-44734D01*
X40120Y-44653D01*
X40242Y-44594D01*
X40303Y-44572D01*
X40445Y-44526D01*
X40544Y-44505D01*
X40616Y-44510D01*
X40682Y-44544D01*
X40750Y-44600D01*
X40887Y-44695D01*
X41038Y-44744D01*
X41220Y-44752D01*
X41286Y-44747D01*
X41576Y-44697D01*
X41814Y-44610D01*
X42004Y-44483D01*
X42151Y-44314D01*
X42200Y-44232D01*
X42285Y-44035D01*
X42314Y-43872D01*
X42287Y-43744D01*
X42203Y-43651D01*
X42063Y-43593D01*
X41949Y-43575D01*
X41837Y-43571D01*
X41732Y-43582D01*
X41611Y-43612D01*
X41463Y-43662D01*
X41234Y-43736D01*
X41051Y-43779D01*
X40904Y-43790D01*
X40781Y-43773D01*
X40757Y-43766D01*
X40653Y-43705D01*
X40607Y-43612D01*
X40618Y-43504D01*
X40673Y-43383D01*
X40776Y-43221D01*
X40924Y-43019D01*
X41116Y-42780D01*
X41349Y-42507D01*
X41516Y-42319D01*
X41610Y-42212D01*
X41683Y-42125D01*
X41725Y-42068D01*
X41733Y-42053D01*
X41694Y-42036D01*
X41606Y-42004D01*
X41484Y-41961D01*
X41343Y-41913D01*
X41196Y-41864D01*
X41058Y-41819D01*
X40944Y-41784D01*
X40920Y-41777D01*
X40760Y-41743D01*
X40568Y-41723D01*
X40436Y-41718D01*
X40251Y-41724D01*
X40110Y-41751D01*
X39994Y-41804D01*
X39882Y-41892D01*
X39834Y-41938D01*
X39715Y-42072D01*
X39643Y-42196D01*
X39609Y-42330D01*
X39603Y-42451D01*
X39571Y-42677D01*
X39480Y-42895D01*
X39337Y-43099D01*
X39151Y-43279D01*
X38929Y-43429D01*
X38678Y-43542D01*
X38433Y-43604D01*
X38203Y-43619D01*
X38010Y-43579D01*
X37853Y-43485D01*
X37827Y-43460D01*
X37764Y-43387D01*
X37742Y-43321D01*
X37750Y-43227D01*
X37810Y-43020D01*
X37923Y-42803D01*
X38075Y-42593D01*
X38259Y-42405D01*
X38348Y-42332D01*
X38501Y-42197D01*
X38606Y-42053D01*
X38667Y-41921D01*
X38680Y-41833D01*
X38640Y-41774D01*
X38543Y-41741D01*
X38401Y-41731D01*
X38329Y-41736D01*
X38208Y-41750D01*
X38051Y-41770D01*
X37868Y-41796D01*
X37670Y-41825D01*
X37470Y-41855D01*
X37278Y-41886D01*
X37105Y-41915D01*
X36963Y-41941D01*
X36863Y-41961D01*
X36816Y-41974D01*
X36815Y-41975D01*
X36795Y-42007D01*
X36745Y-42091D01*
X36668Y-42221D01*
X36567Y-42394D01*
X36446Y-42602D01*
X36307Y-42840D01*
X36154Y-43103D01*
X35990Y-43386D01*
X35817Y-43683D01*
X35640Y-43989D01*
X35462Y-44297D01*
X35284Y-44604D01*
X35112Y-44902D01*
X34947Y-45187D01*
X34794Y-45453D01*
X34654Y-45696D01*
X34532Y-45908D01*
X34430Y-46085D01*
X34352Y-46222D01*
X34301Y-46312D01*
X34280Y-46351D01*
X34280Y-46352D01*
X34285Y-46358D01*
X34308Y-46364D01*
X34351Y-46369D01*
X34417Y-46373D01*
X34510Y-46377D01*
X34631Y-46381D01*
X34784Y-46384D01*
X34972Y-46386D01*
X35198Y-46388D01*
X35464Y-46390D01*
X35774Y-46391D01*
X36130Y-46392D01*
X36535Y-46392D01*
X36992Y-46392D01*
X37505Y-46392D01*
X38075Y-46392D01*
X38706Y-46391D01*
X39400Y-46390D01*
X39437Y-46390D01*
X44613Y-46381D01*
X45788Y-44331D01*
X45982Y-43992D01*
X46165Y-43671D01*
X46336Y-43371D01*
X46491Y-43098D01*
X46629Y-42855D01*
X46745Y-42649D01*
X46838Y-42482D01*
X46905Y-42361D01*
X46944Y-42289D01*
X46952Y-42270D01*
X46952Y-42831D01*
X46741Y-43199D01*
X46411Y-43774D01*
X46112Y-44295D01*
X45842Y-44764D01*
X45603Y-45180D01*
X45395Y-45541D01*
X45218Y-45848D01*
X45073Y-46100D01*
X44960Y-46296D01*
X44879Y-46435D01*
X44830Y-46518D01*
X44816Y-46540D01*
X44735Y-46665D01*
X39418Y-46665D01*
X38715Y-46665D01*
X38076Y-46665D01*
X37497Y-46665D01*
X36976Y-46666D01*
X36510Y-46666D01*
X36096Y-46667D01*
X35731Y-46668D01*
X35411Y-46670D01*
X35135Y-46672D01*
X34899Y-46674D01*
X34699Y-46676D01*
X34534Y-46679D01*
X34400Y-46683D01*
X34294Y-46687D01*
X34213Y-46691D01*
X34154Y-46696D01*
X34115Y-46701D01*
X34092Y-46707D01*
X34082Y-46714D01*
X34082Y-46715D01*
X34051Y-46759D01*
X34036Y-46765D01*
X34003Y-46738D01*
X33991Y-46715D01*
X33946Y-46676D01*
X33887Y-46665D01*
X33821Y-46658D01*
X33808Y-46628D01*
X33836Y-46565D01*
X33836Y-46548D01*
X33824Y-46514D01*
X33800Y-46459D01*
X33763Y-46382D01*
X33710Y-46279D01*
X33640Y-46150D01*
X33553Y-45990D01*
X33446Y-45798D01*
X33319Y-45571D01*
X33170Y-45307D01*
X32998Y-45004D01*
X32800Y-44658D01*
X32577Y-44268D01*
X32326Y-43831D01*
X32046Y-43345D01*
X31736Y-42806D01*
X31395Y-42214D01*
X31249Y-41961D01*
X30955Y-41452D01*
X30671Y-40958D01*
X30397Y-40483D01*
X30136Y-40029D01*
X29888Y-39599D01*
X29657Y-39198D01*
X29444Y-38827D01*
X29250Y-38490D01*
X29078Y-38190D01*
X28929Y-37930D01*
X28805Y-37714D01*
X28708Y-37545D01*
X28640Y-37425D01*
X28602Y-37358D01*
X28595Y-37345D01*
X28592Y-37335D01*
X28591Y-37323D01*
X28594Y-37306D01*
X28602Y-37281D01*
X28615Y-37247D01*
X28636Y-37202D01*
X28665Y-37142D01*
X28704Y-37067D01*
X28754Y-36974D01*
X28816Y-36861D01*
X28891Y-36726D01*
X28981Y-36566D01*
X29086Y-36379D01*
X29209Y-36164D01*
X29350Y-35918D01*
X29511Y-35639D01*
X29692Y-35325D01*
X29895Y-34973D01*
X30122Y-34582D01*
X30372Y-34149D01*
X30649Y-33672D01*
X30952Y-33149D01*
X31283Y-32578D01*
X31644Y-31957D01*
X32035Y-31284D01*
X32458Y-30555D01*
X32646Y-30232D01*
X32838Y-29901D01*
X33021Y-29584D01*
X33192Y-29289D01*
X33349Y-29019D01*
X33487Y-28779D01*
X33604Y-28574D01*
X33698Y-28410D01*
X33766Y-28291D01*
X33804Y-28223D01*
X33812Y-28208D01*
X33828Y-28130D01*
X33804Y-28082D01*
X33782Y-28045D01*
X33813Y-28032D01*
X33843Y-28031D01*
X33928Y-28000D01*
X33970Y-27948D01*
X34015Y-27880D01*
X34052Y-27875D01*
X34094Y-27931D01*
X34098Y-27940D01*
X34139Y-28015D01*
X39415Y-28004D01*
X44691Y-27993D01*
X47336Y-32579D01*
X47683Y-33181D01*
X47999Y-33728D01*
X48284Y-34222D01*
X48541Y-34667D01*
X48771Y-35065D01*
X48976Y-35418D01*
X49157Y-35729D01*
X49315Y-36001D01*
X49453Y-36236D01*
X49572Y-36437D01*
X49674Y-36607D01*
X49759Y-36748D01*
X49831Y-36864D01*
X49889Y-36955D01*
X49937Y-37026D01*
X49975Y-37079D01*
X50004Y-37117D01*
X50028Y-37141D01*
X50047Y-37156D01*
X50062Y-37163D01*
X50076Y-37164D01*
X50078Y-37165D01*
X50145Y-37171D01*
X50159Y-37198D01*
X50159Y-37198D01*
X50159Y-37198D01*
G37*
G54D18*
X37475Y-32346D02*
X37475Y-31665D01*
X37638Y-31665D01*
X37679Y-31698D01*
X37699Y-31730D01*
X37719Y-31795D01*
X37719Y-31892D01*
X37699Y-31957D01*
X37679Y-31989D01*
X37638Y-32022D01*
X37475Y-32022D01*
X38086Y-31892D02*
X38086Y-32346D01*
X37984Y-31633D02*
X37883Y-32119D01*
X38147Y-32119D01*
G54D19*
X36478Y-31463D02*
X36478Y-30863D01*
X36631Y-30863D01*
X36669Y-30891D01*
X36688Y-30920D01*
X36707Y-30977D01*
X36707Y-31063D01*
X36688Y-31120D01*
X36669Y-31149D01*
X36631Y-31177D01*
X36478Y-31177D01*
X36954Y-30863D02*
X37031Y-30863D01*
X37069Y-30891D01*
X37107Y-30949D01*
X37126Y-31063D01*
X37126Y-31263D01*
X37107Y-31377D01*
X37069Y-31434D01*
X37031Y-31463D01*
X36954Y-31463D01*
X36916Y-31434D01*
X36878Y-31377D01*
X36859Y-31263D01*
X36859Y-31063D01*
X36878Y-30949D01*
X36916Y-30891D01*
X36954Y-30863D01*
X37259Y-30863D02*
X37354Y-31463D01*
X37431Y-31034D01*
X37507Y-31463D01*
X37602Y-30863D01*
X37754Y-31149D02*
X37888Y-31149D01*
X37945Y-31463D02*
X37754Y-31463D01*
X37754Y-30863D01*
X37945Y-30863D01*
X38345Y-31463D02*
X38211Y-31177D01*
X38116Y-31463D02*
X38116Y-30863D01*
X38269Y-30863D01*
X38307Y-30891D01*
X38326Y-30920D01*
X38345Y-30977D01*
X38345Y-31063D01*
X38326Y-31120D01*
X38307Y-31149D01*
X38269Y-31177D01*
X38116Y-31177D01*
G54D18*
X33644Y-39489D02*
X33984Y-38899D01*
X34125Y-38981D01*
X34145Y-39030D01*
X34146Y-39068D01*
X34131Y-39134D01*
X34082Y-39218D01*
X34032Y-39264D01*
X33999Y-39282D01*
X33947Y-39290D01*
X33806Y-39209D01*
X34305Y-39160D02*
X34338Y-39142D01*
X34391Y-39134D01*
X34479Y-39185D01*
X34497Y-39233D01*
X34499Y-39272D01*
X34484Y-39338D01*
X34451Y-39394D01*
X34386Y-39468D01*
X33979Y-39683D01*
X34208Y-39815D01*
G54D19*
X33202Y-39941D02*
X33086Y-39874D01*
X32929Y-40145D02*
X33229Y-39626D01*
X33394Y-39721D01*
X33476Y-39769D02*
X33675Y-39883D01*
X33275Y-40345D02*
X33575Y-39826D01*
X33490Y-40469D02*
X33790Y-39950D01*
X33872Y-39997D01*
X33908Y-40051D01*
X33912Y-40120D01*
X33900Y-40179D01*
X33860Y-40287D01*
X33817Y-40361D01*
X33743Y-40451D01*
X33698Y-40490D01*
X33637Y-40521D01*
X33572Y-40517D01*
X33490Y-40469D01*
X33836Y-40669D02*
X34136Y-40150D01*
G54D18*
X44116Y-42798D02*
X44458Y-42207D01*
X44599Y-42288D01*
X44619Y-42336D01*
X44619Y-42375D01*
X44604Y-42441D01*
X44555Y-42526D01*
X44505Y-42572D01*
X44472Y-42590D01*
X44420Y-42598D01*
X44279Y-42517D01*
X44793Y-42400D02*
X45022Y-42533D01*
X44769Y-42686D01*
X44822Y-42717D01*
X44840Y-42766D01*
X44843Y-42804D01*
X44827Y-42870D01*
X44746Y-43011D01*
X44696Y-43058D01*
X44662Y-43075D01*
X44611Y-43084D01*
X44504Y-43022D01*
X44486Y-42973D01*
X44484Y-42935D01*
G54D19*
X45092Y-43204D02*
X45392Y-42685D01*
X45511Y-42820D02*
X45542Y-42804D01*
X45589Y-42799D01*
X45672Y-42847D01*
X45691Y-42890D01*
X45693Y-42925D01*
X45681Y-42984D01*
X45653Y-43033D01*
X45593Y-43098D01*
X45223Y-43280D01*
X45438Y-43404D01*
X45813Y-43555D02*
X45783Y-43570D01*
X45719Y-43566D01*
X45686Y-43547D01*
X45650Y-43493D01*
X45646Y-43425D01*
X45658Y-43366D01*
X45698Y-43258D01*
X45741Y-43183D01*
X45815Y-43094D01*
X45860Y-43054D01*
X45922Y-43023D01*
X45986Y-43028D01*
X46019Y-43047D01*
X46054Y-43100D01*
X46056Y-43134D01*
G54D20*
X44233Y-33508D02*
X44233Y-33108D01*
X44386Y-33108D01*
X44424Y-33127D01*
X44443Y-33146D01*
X44462Y-33184D01*
X44462Y-33241D01*
X44443Y-33279D01*
X44424Y-33298D01*
X44386Y-33317D01*
X44233Y-33317D01*
X44843Y-33508D02*
X44614Y-33508D01*
X44728Y-33508D02*
X44728Y-33108D01*
X44690Y-33165D01*
X44652Y-33203D01*
X44614Y-33222D01*
X45752Y-33627D02*
X45752Y-33227D01*
X45923Y-33608D02*
X45980Y-33627D01*
X46076Y-33627D01*
X46114Y-33608D01*
X46133Y-33589D01*
X46152Y-33551D01*
X46152Y-33513D01*
X46133Y-33475D01*
X46114Y-33455D01*
X46076Y-33436D01*
X45999Y-33417D01*
X45961Y-33398D01*
X45942Y-33379D01*
X45923Y-33341D01*
X45923Y-33303D01*
X45942Y-33265D01*
X45961Y-33246D01*
X45999Y-33227D01*
X46095Y-33227D01*
X46152Y-33246D01*
X46323Y-33627D02*
X46323Y-33227D01*
X46476Y-33227D01*
X46514Y-33246D01*
X46533Y-33265D01*
X46552Y-33303D01*
X46552Y-33360D01*
X46533Y-33398D01*
X46514Y-33417D01*
X46476Y-33436D01*
X46323Y-33436D01*
M02*
