G04 (created by PCBNEW (2013-05-16 BZR 4016)-stable) date 7/1/2013 01:26:53*
%MOIN*%
G04 Gerber Fmt 3.4, Leading zero omitted, Abs format*
%FSLAX34Y34*%
G01*
G70*
G90*
G04 APERTURE LIST*
%ADD10C,0.00590551*%
%ADD11R,0.055X0.055*%
%ADD12C,0.055*%
%ADD13R,0.06X0.06*%
%ADD14C,0.06*%
%ADD15C,0.137795*%
%ADD16C,0.052*%
%ADD17R,0.052X0.052*%
%ADD18C,0.0137795*%
%ADD19C,0.01*%
G04 APERTURE END LIST*
G54D10*
G54D11*
X-2440Y-2657D03*
G54D12*
X-1440Y-2657D03*
X-440Y-2657D03*
X559Y-2657D03*
X1559Y-2657D03*
X2559Y-2657D03*
G54D13*
X-2496Y-3830D03*
G54D14*
X-2496Y-4830D03*
X-1496Y-3830D03*
X-1496Y-4830D03*
X-496Y-3830D03*
X-496Y-4830D03*
G54D15*
X-4330Y0D03*
X4330Y0D03*
G54D16*
X-1200Y2352D03*
X-400Y2352D03*
X400Y2352D03*
G54D17*
X1200Y2352D03*
G54D18*
X-2881Y544D03*
X-1645Y1410D03*
X-2190Y1170D03*
X-735Y-4345D03*
X1395Y-500D03*
X1390Y805D03*
X-1730Y115D03*
X-1720Y-310D03*
X-1015Y-3600D03*
X1230Y-1175D03*
X-3375Y190D03*
X-3180Y-3010D03*
X-3180Y-1805D03*
X-925Y-1755D03*
X1020Y-990D03*
X1680Y3270D03*
X1400Y-2140D03*
X2725Y-2135D03*
X1730Y-760D03*
X-770Y995D03*
X980Y980D03*
X1490Y1315D03*
X2585Y1330D03*
X2585Y-1665D03*
X-1535Y610D03*
X520Y-1500D03*
X-530Y-1685D03*
X-305Y-1870D03*
X125Y-2130D03*
X-7600Y845D03*
X-4545Y-6140D03*
X3065Y-7010D03*
X7585Y-850D03*
X-3679Y6698D03*
X4540Y6145D03*
X7350Y3230D03*
X880Y7980D03*
X-6470Y4740D03*
X-7340Y-3250D03*
X6140Y-5170D03*
X-880Y-7980D03*
X1640Y-4295D03*
X-25Y-3450D03*
X-2445Y5965D03*
X-6415Y895D03*
X-3960Y-5115D03*
X2445Y-5990D03*
X3490Y5430D03*
X6405Y-835D03*
X-4745Y3760D03*
X-5615Y-2290D03*
X-850Y-6015D03*
X4465Y-3955D03*
X1110Y5970D03*
X5735Y1880D03*
X-3620Y-5800D03*
X3230Y-6040D03*
X6830Y-145D03*
X3590Y5825D03*
X-6859Y85D03*
X-1805Y6615D03*
X880Y7190D03*
X-5785Y4370D03*
X-6655Y-2860D03*
X-845Y-7205D03*
X6415Y3375D03*
X5780Y-4355D03*
X3125Y-1445D03*
X3125Y-2485D03*
X1645Y-3675D03*
X-265Y1845D03*
X520Y1620D03*
X1470Y1905D03*
X2370Y1895D03*
X2370Y-75D03*
X2730Y-435D03*
X-1230Y1105D03*
X535Y1845D03*
X50Y1855D03*
X-990Y890D03*
X-4255Y-2350D03*
X-320Y4805D03*
X1640Y465D03*
X2590Y620D03*
X3425Y950D03*
X4095Y2475D03*
X-3690Y2605D03*
X4130Y-2365D03*
X-1715Y375D03*
X-2245Y-85D03*
G54D19*
X-2975Y-4351D02*
X-2496Y-4830D01*
X-2975Y450D02*
X-2975Y-4351D01*
X-2881Y544D02*
X-2975Y450D01*
X-1950Y1410D02*
X-1645Y1410D01*
X-2190Y1170D02*
X-1950Y1410D01*
X-735Y-4345D02*
X-1995Y-4345D01*
X-1995Y-4345D02*
X-2480Y-4830D01*
X-2480Y-4830D02*
X-2496Y-4830D01*
X1395Y-500D02*
X1390Y-495D01*
X1390Y-495D02*
X1390Y805D01*
X-1730Y-300D02*
X-1730Y115D01*
X-1720Y-310D02*
X-1730Y-300D01*
X-870Y-3515D02*
X-1015Y-3600D01*
X-120Y-3220D02*
X-870Y-3515D01*
X1715Y-3270D02*
X-120Y-3220D01*
X2045Y-2995D02*
X1715Y-3270D01*
X2045Y-1990D02*
X2045Y-2995D01*
X1230Y-1175D02*
X2045Y-1990D01*
X-3180Y-1805D02*
X-3180Y-5D01*
X-3180Y-5D02*
X-3375Y190D01*
X-3180Y-1805D02*
X-3180Y-3010D01*
X-435Y-1265D02*
X-925Y-1755D01*
X745Y-1265D02*
X-435Y-1265D01*
X1020Y-990D02*
X745Y-1265D01*
X1730Y-760D02*
X1730Y-660D01*
X2910Y2040D02*
X1680Y3270D01*
X2910Y525D02*
X2910Y2040D01*
X2720Y335D02*
X2910Y525D01*
X2330Y335D02*
X2720Y335D01*
X2115Y120D02*
X2330Y335D01*
X2115Y-275D02*
X2115Y120D01*
X1730Y-660D02*
X2115Y-275D01*
X-1496Y-3830D02*
X-1205Y-3395D01*
X440Y-2120D02*
X1400Y-2140D01*
X80Y-2460D02*
X440Y-2120D01*
X35Y-2960D02*
X80Y-2460D01*
X-1205Y-3395D02*
X35Y-2960D01*
X1730Y-760D02*
X2050Y-760D01*
X1400Y-2140D02*
X1410Y-2140D01*
X2800Y-2060D02*
X2725Y-2135D01*
X2800Y-1510D02*
X2800Y-2060D01*
X2050Y-760D02*
X2800Y-1510D01*
X965Y995D02*
X-770Y995D01*
X980Y980D02*
X965Y995D01*
X2570Y1315D02*
X1490Y1315D01*
X2585Y1330D02*
X2570Y1315D01*
X2085Y-1665D02*
X2585Y-1665D01*
X1115Y-695D02*
X2085Y-1665D01*
X-230Y-695D02*
X1115Y-695D01*
X-1535Y610D02*
X-230Y-695D01*
X-345Y-1500D02*
X520Y-1500D01*
X-530Y-1685D02*
X-345Y-1500D01*
X-135Y-1870D02*
X-305Y-1870D01*
X125Y-2130D02*
X-135Y-1870D01*
X-7600Y845D02*
X-7000Y3055D01*
X-4545Y6145D02*
X-3679Y6698D01*
X-6120Y4555D02*
X-4545Y6145D01*
X-7000Y3055D02*
X-6120Y4555D01*
X-4545Y-6140D02*
X-6155Y-4545D01*
X-7595Y-860D02*
X-7600Y845D01*
X-7005Y-3050D02*
X-7595Y-860D01*
X-6155Y-4545D02*
X-7005Y-3050D01*
X3065Y-7010D02*
X885Y-7590D01*
X-3050Y-7015D02*
X-4545Y-6140D01*
X-835Y-7600D02*
X-3050Y-7015D01*
X885Y-7590D02*
X-835Y-7600D01*
X7585Y-850D02*
X7000Y-3055D01*
X4555Y-6135D02*
X3065Y-7010D01*
X6160Y-4525D02*
X4555Y-6135D01*
X7000Y-3055D02*
X6160Y-4525D01*
X4540Y6145D02*
X6175Y4500D01*
X7590Y815D02*
X7585Y-850D01*
X7015Y3025D02*
X7590Y815D01*
X6175Y4500D02*
X7015Y3025D01*
X3085Y6995D02*
X4540Y6145D01*
X-3679Y6698D02*
X-3050Y7005D01*
X-3050Y7005D02*
X-840Y7600D01*
X-840Y7600D02*
X880Y7600D01*
X880Y7600D02*
X3085Y6995D01*
X7350Y3230D02*
X7980Y870D01*
X6480Y-4730D02*
X6140Y-5170D01*
X7370Y-3180D02*
X6480Y-4730D01*
X7980Y-860D02*
X7370Y-3180D01*
X7980Y870D02*
X7980Y-860D01*
X880Y7980D02*
X3250Y7350D01*
X6490Y4720D02*
X7350Y3230D01*
X4760Y6460D02*
X6490Y4720D01*
X3250Y7350D02*
X4760Y6460D01*
X-6470Y4740D02*
X-4750Y6480D01*
X-870Y7980D02*
X880Y7980D01*
X-3240Y7350D02*
X-870Y7980D01*
X-4750Y6480D02*
X-3240Y7350D01*
X-7340Y-3250D02*
X-7990Y-890D01*
X-7360Y3220D02*
X-6470Y4740D01*
X-7990Y870D02*
X-7360Y3220D01*
X-7990Y-890D02*
X-7990Y870D01*
X-880Y-7980D02*
X-3230Y-7350D01*
X-6460Y-4750D02*
X-7340Y-3250D01*
X-4750Y-6490D02*
X-6460Y-4750D01*
X-3230Y-7350D02*
X-4750Y-6490D01*
X870Y-7970D02*
X-880Y-7980D01*
X6140Y-5170D02*
X4740Y-6500D01*
X4740Y-6500D02*
X3210Y-7350D01*
X3210Y-7350D02*
X870Y-7970D01*
X1640Y-4070D02*
X1640Y-4295D01*
X1875Y-3835D02*
X1640Y-4070D01*
X1875Y-3555D02*
X1875Y-3835D01*
X1790Y-3470D02*
X1875Y-3555D01*
X1150Y-3470D02*
X1790Y-3470D01*
X-25Y-3450D02*
X1150Y-3470D01*
X-2445Y5965D02*
X-865Y6395D01*
X2450Y5975D02*
X3490Y5430D01*
X880Y6395D02*
X2450Y5975D01*
X-865Y6395D02*
X880Y6395D01*
X-6415Y895D02*
X-5975Y2455D01*
X-3930Y5120D02*
X-2445Y5965D01*
X-5100Y3940D02*
X-3930Y5120D01*
X-5975Y2455D02*
X-5100Y3940D01*
X-3960Y-5115D02*
X-5120Y-3940D01*
X-6405Y-850D02*
X-6415Y895D01*
X-5980Y-2450D02*
X-6405Y-850D01*
X-5120Y-3940D02*
X-5980Y-2450D01*
X2445Y-5990D02*
X865Y-6400D01*
X-2450Y-5980D02*
X-3960Y-5115D01*
X-885Y-6400D02*
X-2450Y-5980D01*
X865Y-6400D02*
X-885Y-6400D01*
X6405Y-835D02*
X5985Y-2435D01*
X3965Y-5115D02*
X2445Y-5990D01*
X5125Y-3950D02*
X3965Y-5115D01*
X5985Y-2435D02*
X5125Y-3950D01*
X6410Y845D02*
X6405Y-835D01*
X3490Y5430D02*
X3950Y5110D01*
X3950Y5110D02*
X5130Y3925D01*
X5130Y3925D02*
X5995Y2415D01*
X5995Y2415D02*
X6410Y845D01*
X-4745Y3760D02*
X-3680Y4810D01*
X875Y5975D02*
X1110Y5970D01*
X-830Y6000D02*
X875Y5975D01*
X-2200Y5640D02*
X-830Y6000D01*
X-3680Y4810D02*
X-2200Y5640D01*
X-5615Y-2290D02*
X-6005Y-830D01*
X-5625Y2290D02*
X-4745Y3760D01*
X-5995Y885D02*
X-5625Y2290D01*
X-6005Y-830D02*
X-5995Y885D01*
X-850Y-6015D02*
X-2315Y-5610D01*
X-4770Y-3740D02*
X-5615Y-2290D01*
X-3750Y-4760D02*
X-4770Y-3740D01*
X-2315Y-5610D02*
X-3750Y-4760D01*
X4797Y-3675D02*
X4540Y-4020D01*
X815Y-6040D02*
X-850Y-6015D01*
X2255Y-5650D02*
X815Y-6040D01*
X3745Y-4765D02*
X2255Y-5650D01*
X4540Y-4020D02*
X3745Y-4765D01*
X5735Y1880D02*
X6000Y820D01*
X4810Y-3665D02*
X4797Y-3675D01*
X4797Y-3675D02*
X4465Y-3955D01*
X5625Y-2260D02*
X4810Y-3665D01*
X6005Y-845D02*
X5625Y-2260D01*
X6000Y820D02*
X6005Y-845D01*
X5565Y2340D02*
X5735Y1880D01*
X1110Y5970D02*
X2250Y5625D01*
X2250Y5625D02*
X3665Y4810D01*
X3665Y4810D02*
X4760Y3750D01*
X4760Y3750D02*
X5565Y2340D01*
X-3620Y-5800D02*
X-4105Y-5485D01*
X-6800Y-875D02*
X-6859Y85D01*
X-6310Y-2650D02*
X-6800Y-875D01*
X-5455Y-4135D02*
X-6310Y-2650D01*
X-4105Y-5485D02*
X-5455Y-4135D01*
X3230Y-6040D02*
X2695Y-6305D01*
X-2615Y-6330D02*
X-3620Y-5800D01*
X-870Y-6800D02*
X-2615Y-6330D01*
X890Y-6790D02*
X-870Y-6800D01*
X2695Y-6305D02*
X890Y-6790D01*
X6830Y-145D02*
X6805Y-840D01*
X4100Y-5485D02*
X3230Y-6040D01*
X5450Y-4150D02*
X4100Y-5485D01*
X6325Y-2635D02*
X5450Y-4150D01*
X6805Y-840D02*
X6325Y-2635D01*
X3590Y5825D02*
X4135Y5460D01*
X6795Y845D02*
X6830Y-145D01*
X6315Y2680D02*
X6795Y845D01*
X5495Y4100D02*
X6315Y2680D01*
X4135Y5460D02*
X5495Y4100D01*
X-1805Y6615D02*
X-875Y6785D01*
X2660Y6295D02*
X3590Y5825D01*
X895Y6800D02*
X2660Y6295D01*
X-875Y6785D02*
X895Y6800D01*
X-1805Y6610D02*
X-1805Y6615D01*
X-6859Y85D02*
X-6820Y780D01*
X-6820Y780D02*
X-6320Y2620D01*
X-6320Y2620D02*
X-5450Y4160D01*
X-5450Y4160D02*
X-4145Y5450D01*
X-4145Y5450D02*
X-2665Y6320D01*
X-2665Y6320D02*
X-1805Y6610D01*
X880Y7190D02*
X2825Y6660D01*
X5795Y4335D02*
X6415Y3375D01*
X4350Y5790D02*
X5795Y4335D01*
X2825Y6660D02*
X4350Y5790D01*
X-5785Y4370D02*
X-4330Y5805D01*
X-860Y7190D02*
X880Y7190D01*
X-2855Y6640D02*
X-860Y7190D01*
X-4330Y5805D02*
X-2855Y6640D01*
X-6655Y-2860D02*
X-7185Y-885D01*
X-6660Y2845D02*
X-5785Y4370D01*
X-7195Y885D02*
X-6660Y2845D01*
X-7185Y-885D02*
X-7195Y885D01*
X-845Y-7205D02*
X-2845Y-6665D01*
X-5780Y-4365D02*
X-6655Y-2860D01*
X-4335Y-5800D02*
X-5780Y-4365D01*
X-2845Y-6665D02*
X-4335Y-5800D01*
X5780Y-4355D02*
X4375Y-5785D01*
X875Y-7190D02*
X-845Y-7205D01*
X2855Y-6665D02*
X875Y-7190D01*
X4375Y-5785D02*
X2855Y-6665D01*
X6670Y-2815D02*
X5780Y-4355D01*
X6415Y3375D02*
X6650Y2855D01*
X6650Y2855D02*
X7180Y855D01*
X7180Y855D02*
X7195Y-820D01*
X7195Y-820D02*
X6670Y-2815D01*
X3125Y-2485D02*
X3125Y-1445D01*
X-496Y-3830D02*
X44Y-3830D01*
X200Y-3675D02*
X1645Y-3675D01*
X44Y-3830D02*
X200Y-3675D01*
X-265Y1845D02*
X-40Y1620D01*
X-40Y1620D02*
X520Y1620D01*
X1470Y1905D02*
X1480Y1895D01*
X1480Y1895D02*
X2370Y1895D01*
X2370Y-75D02*
X2730Y-435D01*
X-440Y-2657D02*
X-702Y-2657D01*
X-1845Y1105D02*
X-1230Y1105D01*
X-2665Y285D02*
X-1845Y1105D01*
X-2665Y-300D02*
X-2665Y285D01*
X-1935Y-1030D02*
X-2665Y-300D01*
X-1935Y-2860D02*
X-1935Y-1030D01*
X-1660Y-3135D02*
X-1935Y-2860D01*
X-1180Y-3135D02*
X-1660Y-3135D01*
X-702Y-2657D02*
X-1180Y-3135D01*
X60Y1845D02*
X535Y1845D01*
X50Y1855D02*
X60Y1845D01*
X-1440Y-1219D02*
X-1440Y-2657D01*
X-2475Y-185D02*
X-1440Y-1219D01*
X-2475Y200D02*
X-2475Y-185D01*
X-1790Y885D02*
X-2475Y200D01*
X-995Y885D02*
X-1790Y885D01*
X-990Y890D02*
X-995Y885D01*
X4095Y2475D02*
X3785Y2475D01*
X1455Y4805D02*
X-320Y4805D01*
X3785Y2475D02*
X1455Y4805D01*
X-4330Y0D02*
X-4330Y144D01*
X-2122Y2352D02*
X-1200Y2352D01*
X-4330Y144D02*
X-2122Y2352D01*
X2559Y-2657D02*
X2559Y-4250D01*
X1979Y-4830D02*
X-496Y-4830D01*
X2559Y-4250D02*
X1979Y-4830D01*
X4330Y0D02*
X4330Y-2164D01*
X4330Y-2164D02*
X4130Y-2365D01*
X-4330Y0D02*
X-4330Y-2274D01*
X-4330Y-2274D02*
X-4255Y-2350D01*
X-1200Y2352D02*
X-1200Y2545D01*
X-320Y3425D02*
X-320Y4805D01*
X-1200Y2545D02*
X-320Y3425D01*
X4330Y0D02*
X4330Y44D01*
X1800Y625D02*
X1640Y465D01*
X2585Y625D02*
X1800Y625D01*
X2590Y620D02*
X2585Y625D01*
X4330Y44D02*
X3425Y950D01*
X4330Y0D02*
X4330Y2239D01*
X4330Y2239D02*
X4095Y2475D01*
X-3690Y2605D02*
X-1200Y2352D01*
X2559Y-2657D02*
X2632Y-2657D01*
X2632Y-2657D02*
X2815Y-2840D01*
X2815Y-2840D02*
X3655Y-2840D01*
X3655Y-2840D02*
X4130Y-2365D01*
X-1715Y375D02*
X-1720Y370D01*
X-1720Y370D02*
X-1955Y370D01*
X-1955Y370D02*
X-2245Y80D01*
X-2245Y80D02*
X-2245Y-85D01*
G54D10*
G36*
X2610Y649D02*
X2595Y635D01*
X2330Y635D01*
X2215Y612D01*
X2117Y547D01*
X1902Y332D01*
X1837Y234D01*
X1815Y120D01*
X1815Y-150D01*
X1690Y-275D01*
X1690Y695D01*
X1708Y741D01*
X1708Y868D01*
X1660Y985D01*
X1630Y1015D01*
X2512Y1015D01*
X2521Y1011D01*
X2610Y1011D01*
X2610Y649D01*
X2610Y649D01*
G37*
G54D19*
X2610Y649D02*
X2595Y635D01*
X2330Y635D01*
X2215Y612D01*
X2117Y547D01*
X1902Y332D01*
X1837Y234D01*
X1815Y120D01*
X1815Y-150D01*
X1690Y-275D01*
X1690Y695D01*
X1708Y741D01*
X1708Y868D01*
X1660Y985D01*
X1630Y1015D01*
X2512Y1015D01*
X2521Y1011D01*
X2610Y1011D01*
X2610Y649D01*
G54D10*
G36*
X5705Y-799D02*
X5345Y-2142D01*
X5272Y-2269D01*
X5272Y-174D01*
X5267Y198D01*
X5133Y521D01*
X4997Y596D01*
X4927Y525D01*
X4927Y667D01*
X4852Y802D01*
X4505Y941D01*
X4131Y936D01*
X3809Y802D01*
X3734Y667D01*
X4330Y70D01*
X4927Y667D01*
X4927Y525D01*
X4401Y0D01*
X4997Y-596D01*
X5133Y-521D01*
X5272Y-174D01*
X5272Y-2269D01*
X4927Y-2864D01*
X4927Y-667D01*
X4330Y-70D01*
X4259Y-141D01*
X4259Y0D01*
X3663Y596D01*
X3527Y521D01*
X3389Y174D01*
X3394Y-198D01*
X3527Y-521D01*
X3663Y-596D01*
X4259Y0D01*
X4259Y-141D01*
X3734Y-667D01*
X3809Y-802D01*
X4156Y-941D01*
X4529Y-936D01*
X4852Y-802D01*
X4927Y-667D01*
X4927Y-2864D01*
X4576Y-3470D01*
X4355Y-3655D01*
X4284Y-3684D01*
X4194Y-3774D01*
X4146Y-3891D01*
X4146Y-3978D01*
X3562Y-4524D01*
X2140Y-5368D01*
X773Y-5740D01*
X58Y-5729D01*
X58Y-4912D01*
X47Y-4693D01*
X-14Y-4542D01*
X-110Y-4515D01*
X-425Y-4830D01*
X-110Y-5145D01*
X-14Y-5118D01*
X58Y-4912D01*
X58Y-5729D01*
X-180Y-5725D01*
X-180Y-5216D01*
X-496Y-4901D01*
X-811Y-5216D01*
X-783Y-5311D01*
X-577Y-5385D01*
X-359Y-5374D01*
X-208Y-5311D01*
X-180Y-5216D01*
X-180Y-5725D01*
X-736Y-5716D01*
X-786Y-5696D01*
X-882Y-5696D01*
X-2192Y-5332D01*
X-2224Y-5313D01*
X-2184Y-5297D01*
X-2030Y-5142D01*
X-1996Y-5060D01*
X-1962Y-5141D01*
X-1808Y-5296D01*
X-1605Y-5380D01*
X-1387Y-5380D01*
X-1184Y-5297D01*
X-1030Y-5142D01*
X-998Y-5067D01*
X-977Y-5118D01*
X-881Y-5145D01*
X-566Y-4830D01*
X-572Y-4825D01*
X-501Y-4754D01*
X-496Y-4759D01*
X-180Y-4444D01*
X-208Y-4349D01*
X-263Y-4329D01*
X-184Y-4297D01*
X-30Y-4142D01*
X-25Y-4130D01*
X44Y-4130D01*
X44Y-4130D01*
X159Y-4107D01*
X159Y-4107D01*
X256Y-4042D01*
X324Y-3975D01*
X1358Y-3975D01*
X1340Y-4070D01*
X1340Y-4185D01*
X1321Y-4231D01*
X1321Y-4358D01*
X1369Y-4475D01*
X1459Y-4565D01*
X1576Y-4613D01*
X1703Y-4613D01*
X1820Y-4565D01*
X1910Y-4475D01*
X1958Y-4358D01*
X1958Y-4231D01*
X1942Y-4191D01*
X2087Y-4047D01*
X2152Y-3949D01*
X2174Y-3835D01*
X2175Y-3835D01*
X2175Y-3555D01*
X2174Y-3554D01*
X2152Y-3440D01*
X2090Y-3347D01*
X2237Y-3225D01*
X2245Y-3214D01*
X2257Y-3207D01*
X2281Y-3169D01*
X2310Y-3134D01*
X2312Y-3127D01*
X2483Y-3187D01*
X2691Y-3176D01*
X2831Y-3118D01*
X2856Y-3025D01*
X2559Y-2728D01*
X2553Y-2733D01*
X2482Y-2663D01*
X2488Y-2657D01*
X2482Y-2651D01*
X2553Y-2581D01*
X2559Y-2586D01*
X2564Y-2581D01*
X2635Y-2651D01*
X2629Y-2657D01*
X2926Y-2954D01*
X3019Y-2930D01*
X3064Y-2803D01*
X3188Y-2803D01*
X3305Y-2755D01*
X3395Y-2665D01*
X3443Y-2548D01*
X3443Y-2421D01*
X3425Y-2375D01*
X3425Y-1554D01*
X3443Y-1508D01*
X3443Y-1381D01*
X3395Y-1264D01*
X3305Y-1174D01*
X3188Y-1126D01*
X3061Y-1126D01*
X2944Y-1174D01*
X2916Y-1202D01*
X2264Y-550D01*
X2327Y-487D01*
X2327Y-487D01*
X2339Y-468D01*
X2440Y-569D01*
X2459Y-615D01*
X2549Y-705D01*
X2666Y-753D01*
X2793Y-753D01*
X2910Y-705D01*
X3000Y-615D01*
X3048Y-498D01*
X3048Y-371D01*
X3000Y-254D01*
X2910Y-164D01*
X2865Y-145D01*
X2684Y35D01*
X2720Y35D01*
X2720Y35D01*
X2834Y57D01*
X2834Y57D01*
X2932Y122D01*
X3122Y312D01*
X3122Y312D01*
X3187Y410D01*
X3209Y525D01*
X3210Y525D01*
X3210Y2040D01*
X3187Y2154D01*
X3187Y2154D01*
X3122Y2252D01*
X1969Y3404D01*
X1950Y3450D01*
X1860Y3540D01*
X1743Y3588D01*
X1616Y3588D01*
X1499Y3540D01*
X1409Y3450D01*
X1361Y3333D01*
X1361Y3206D01*
X1409Y3089D01*
X1499Y2999D01*
X1544Y2980D01*
X2311Y2213D01*
X2306Y2213D01*
X2260Y2195D01*
X1710Y2195D01*
X1710Y2661D01*
X1672Y2753D01*
X1601Y2824D01*
X1509Y2862D01*
X1410Y2862D01*
X890Y2862D01*
X798Y2824D01*
X728Y2754D01*
X725Y2747D01*
X689Y2784D01*
X501Y2862D01*
X299Y2862D01*
X111Y2784D01*
X0Y2673D01*
X-110Y2784D01*
X-298Y2862D01*
X-501Y2862D01*
X-688Y2784D01*
X-832Y2641D01*
X-834Y2636D01*
X-843Y2638D01*
X-913Y2567D01*
X-913Y2709D01*
X-936Y2800D01*
X-1127Y2867D01*
X-1330Y2855D01*
X-1463Y2800D01*
X-1486Y2709D01*
X-1200Y2422D01*
X-913Y2709D01*
X-913Y2567D01*
X-1129Y2352D01*
X-843Y2066D01*
X-834Y2068D01*
X-832Y2063D01*
X-689Y1920D01*
X-583Y1876D01*
X-583Y1781D01*
X-535Y1664D01*
X-445Y1574D01*
X-400Y1555D01*
X-252Y1407D01*
X-154Y1342D01*
X-40Y1320D01*
X410Y1320D01*
X456Y1301D01*
X583Y1301D01*
X700Y1349D01*
X790Y1439D01*
X838Y1556D01*
X838Y1683D01*
X826Y1714D01*
X853Y1781D01*
X853Y1857D01*
X890Y1842D01*
X989Y1842D01*
X1151Y1842D01*
X1151Y1841D01*
X1199Y1724D01*
X1289Y1634D01*
X1358Y1605D01*
X1309Y1585D01*
X1219Y1495D01*
X1171Y1378D01*
X1171Y1251D01*
X1179Y1231D01*
X1160Y1250D01*
X1043Y1298D01*
X916Y1298D01*
X907Y1295D01*
X-660Y1295D01*
X-706Y1313D01*
X-833Y1313D01*
X-913Y1280D01*
X-913Y1995D01*
X-1200Y2281D01*
X-1270Y2210D01*
X-1270Y2352D01*
X-1556Y2638D01*
X-1648Y2615D01*
X-1714Y2424D01*
X-1703Y2221D01*
X-1648Y2088D01*
X-1556Y2066D01*
X-1270Y2352D01*
X-1270Y2210D01*
X-1486Y1995D01*
X-1463Y1904D01*
X-1272Y1837D01*
X-1069Y1848D01*
X-936Y1904D01*
X-913Y1995D01*
X-913Y1280D01*
X-950Y1265D01*
X-951Y1264D01*
X-959Y1285D01*
X-1049Y1375D01*
X-1166Y1423D01*
X-1293Y1423D01*
X-1326Y1410D01*
X-1326Y1473D01*
X-1374Y1590D01*
X-1464Y1680D01*
X-1581Y1728D01*
X-1708Y1728D01*
X-1754Y1710D01*
X-1950Y1710D01*
X-2064Y1687D01*
X-2162Y1622D01*
X-2324Y1459D01*
X-2370Y1440D01*
X-2460Y1350D01*
X-2508Y1233D01*
X-2508Y1106D01*
X-2460Y989D01*
X-2422Y951D01*
X-2630Y744D01*
X-2700Y814D01*
X-2817Y863D01*
X-2944Y863D01*
X-3061Y814D01*
X-3151Y725D01*
X-3170Y679D01*
X-3187Y662D01*
X-3252Y565D01*
X-3267Y490D01*
X-3267Y490D01*
X-3311Y508D01*
X-3438Y508D01*
X-3510Y479D01*
X-3527Y521D01*
X-3663Y596D01*
X-3734Y525D01*
X-3734Y667D01*
X-3809Y802D01*
X-4156Y941D01*
X-4529Y936D01*
X-4852Y802D01*
X-4927Y667D01*
X-4330Y70D01*
X-3734Y667D01*
X-3734Y525D01*
X-4259Y0D01*
X-3663Y-596D01*
X-3527Y-521D01*
X-3480Y-401D01*
X-3480Y-1695D01*
X-3498Y-1741D01*
X-3498Y-1868D01*
X-3480Y-1914D01*
X-3480Y-2900D01*
X-3498Y-2946D01*
X-3498Y-3073D01*
X-3450Y-3190D01*
X-3360Y-3280D01*
X-3275Y-3315D01*
X-3275Y-4351D01*
X-3252Y-4466D01*
X-3187Y-4563D01*
X-3041Y-4709D01*
X-3045Y-4720D01*
X-3046Y-4827D01*
X-3564Y-4521D01*
X-3734Y-4351D01*
X-3734Y-667D01*
X-4330Y-70D01*
X-4401Y-141D01*
X-4401Y0D01*
X-4997Y596D01*
X-5133Y521D01*
X-5272Y174D01*
X-5267Y-198D01*
X-5133Y-521D01*
X-4997Y-596D01*
X-4401Y0D01*
X-4401Y-141D01*
X-4927Y-667D01*
X-4852Y-802D01*
X-4505Y-941D01*
X-4131Y-936D01*
X-3809Y-802D01*
X-3734Y-667D01*
X-3734Y-4351D01*
X-4532Y-3552D01*
X-5296Y-2241D01*
X-5296Y-2226D01*
X-5344Y-2109D01*
X-5354Y-2099D01*
X-5704Y-791D01*
X-5696Y841D01*
X-5343Y2175D01*
X-4546Y3507D01*
X-4474Y3579D01*
X-4456Y3623D01*
X-3498Y4567D01*
X-2088Y5359D01*
X-791Y5699D01*
X862Y5676D01*
X868Y5675D01*
X995Y5672D01*
X1046Y5651D01*
X1128Y5651D01*
X2127Y5349D01*
X3479Y4571D01*
X4522Y3561D01*
X5293Y2209D01*
X5416Y1877D01*
X5416Y1816D01*
X5464Y1699D01*
X5472Y1691D01*
X5700Y779D01*
X5705Y-799D01*
X5705Y-799D01*
G37*
G54D19*
X5705Y-799D02*
X5345Y-2142D01*
X5272Y-2269D01*
X5272Y-174D01*
X5267Y198D01*
X5133Y521D01*
X4997Y596D01*
X4927Y525D01*
X4927Y667D01*
X4852Y802D01*
X4505Y941D01*
X4131Y936D01*
X3809Y802D01*
X3734Y667D01*
X4330Y70D01*
X4927Y667D01*
X4927Y525D01*
X4401Y0D01*
X4997Y-596D01*
X5133Y-521D01*
X5272Y-174D01*
X5272Y-2269D01*
X4927Y-2864D01*
X4927Y-667D01*
X4330Y-70D01*
X4259Y-141D01*
X4259Y0D01*
X3663Y596D01*
X3527Y521D01*
X3389Y174D01*
X3394Y-198D01*
X3527Y-521D01*
X3663Y-596D01*
X4259Y0D01*
X4259Y-141D01*
X3734Y-667D01*
X3809Y-802D01*
X4156Y-941D01*
X4529Y-936D01*
X4852Y-802D01*
X4927Y-667D01*
X4927Y-2864D01*
X4576Y-3470D01*
X4355Y-3655D01*
X4284Y-3684D01*
X4194Y-3774D01*
X4146Y-3891D01*
X4146Y-3978D01*
X3562Y-4524D01*
X2140Y-5368D01*
X773Y-5740D01*
X58Y-5729D01*
X58Y-4912D01*
X47Y-4693D01*
X-14Y-4542D01*
X-110Y-4515D01*
X-425Y-4830D01*
X-110Y-5145D01*
X-14Y-5118D01*
X58Y-4912D01*
X58Y-5729D01*
X-180Y-5725D01*
X-180Y-5216D01*
X-496Y-4901D01*
X-811Y-5216D01*
X-783Y-5311D01*
X-577Y-5385D01*
X-359Y-5374D01*
X-208Y-5311D01*
X-180Y-5216D01*
X-180Y-5725D01*
X-736Y-5716D01*
X-786Y-5696D01*
X-882Y-5696D01*
X-2192Y-5332D01*
X-2224Y-5313D01*
X-2184Y-5297D01*
X-2030Y-5142D01*
X-1996Y-5060D01*
X-1962Y-5141D01*
X-1808Y-5296D01*
X-1605Y-5380D01*
X-1387Y-5380D01*
X-1184Y-5297D01*
X-1030Y-5142D01*
X-998Y-5067D01*
X-977Y-5118D01*
X-881Y-5145D01*
X-566Y-4830D01*
X-572Y-4825D01*
X-501Y-4754D01*
X-496Y-4759D01*
X-180Y-4444D01*
X-208Y-4349D01*
X-263Y-4329D01*
X-184Y-4297D01*
X-30Y-4142D01*
X-25Y-4130D01*
X44Y-4130D01*
X44Y-4130D01*
X159Y-4107D01*
X159Y-4107D01*
X256Y-4042D01*
X324Y-3975D01*
X1358Y-3975D01*
X1340Y-4070D01*
X1340Y-4185D01*
X1321Y-4231D01*
X1321Y-4358D01*
X1369Y-4475D01*
X1459Y-4565D01*
X1576Y-4613D01*
X1703Y-4613D01*
X1820Y-4565D01*
X1910Y-4475D01*
X1958Y-4358D01*
X1958Y-4231D01*
X1942Y-4191D01*
X2087Y-4047D01*
X2152Y-3949D01*
X2174Y-3835D01*
X2175Y-3835D01*
X2175Y-3555D01*
X2174Y-3554D01*
X2152Y-3440D01*
X2090Y-3347D01*
X2237Y-3225D01*
X2245Y-3214D01*
X2257Y-3207D01*
X2281Y-3169D01*
X2310Y-3134D01*
X2312Y-3127D01*
X2483Y-3187D01*
X2691Y-3176D01*
X2831Y-3118D01*
X2856Y-3025D01*
X2559Y-2728D01*
X2553Y-2733D01*
X2482Y-2663D01*
X2488Y-2657D01*
X2482Y-2651D01*
X2553Y-2581D01*
X2559Y-2586D01*
X2564Y-2581D01*
X2635Y-2651D01*
X2629Y-2657D01*
X2926Y-2954D01*
X3019Y-2930D01*
X3064Y-2803D01*
X3188Y-2803D01*
X3305Y-2755D01*
X3395Y-2665D01*
X3443Y-2548D01*
X3443Y-2421D01*
X3425Y-2375D01*
X3425Y-1554D01*
X3443Y-1508D01*
X3443Y-1381D01*
X3395Y-1264D01*
X3305Y-1174D01*
X3188Y-1126D01*
X3061Y-1126D01*
X2944Y-1174D01*
X2916Y-1202D01*
X2264Y-550D01*
X2327Y-487D01*
X2327Y-487D01*
X2339Y-468D01*
X2440Y-569D01*
X2459Y-615D01*
X2549Y-705D01*
X2666Y-753D01*
X2793Y-753D01*
X2910Y-705D01*
X3000Y-615D01*
X3048Y-498D01*
X3048Y-371D01*
X3000Y-254D01*
X2910Y-164D01*
X2865Y-145D01*
X2684Y35D01*
X2720Y35D01*
X2720Y35D01*
X2834Y57D01*
X2834Y57D01*
X2932Y122D01*
X3122Y312D01*
X3122Y312D01*
X3187Y410D01*
X3209Y525D01*
X3210Y525D01*
X3210Y2040D01*
X3187Y2154D01*
X3187Y2154D01*
X3122Y2252D01*
X1969Y3404D01*
X1950Y3450D01*
X1860Y3540D01*
X1743Y3588D01*
X1616Y3588D01*
X1499Y3540D01*
X1409Y3450D01*
X1361Y3333D01*
X1361Y3206D01*
X1409Y3089D01*
X1499Y2999D01*
X1544Y2980D01*
X2311Y2213D01*
X2306Y2213D01*
X2260Y2195D01*
X1710Y2195D01*
X1710Y2661D01*
X1672Y2753D01*
X1601Y2824D01*
X1509Y2862D01*
X1410Y2862D01*
X890Y2862D01*
X798Y2824D01*
X728Y2754D01*
X725Y2747D01*
X689Y2784D01*
X501Y2862D01*
X299Y2862D01*
X111Y2784D01*
X0Y2673D01*
X-110Y2784D01*
X-298Y2862D01*
X-501Y2862D01*
X-688Y2784D01*
X-832Y2641D01*
X-834Y2636D01*
X-843Y2638D01*
X-913Y2567D01*
X-913Y2709D01*
X-936Y2800D01*
X-1127Y2867D01*
X-1330Y2855D01*
X-1463Y2800D01*
X-1486Y2709D01*
X-1200Y2422D01*
X-913Y2709D01*
X-913Y2567D01*
X-1129Y2352D01*
X-843Y2066D01*
X-834Y2068D01*
X-832Y2063D01*
X-689Y1920D01*
X-583Y1876D01*
X-583Y1781D01*
X-535Y1664D01*
X-445Y1574D01*
X-400Y1555D01*
X-252Y1407D01*
X-154Y1342D01*
X-40Y1320D01*
X410Y1320D01*
X456Y1301D01*
X583Y1301D01*
X700Y1349D01*
X790Y1439D01*
X838Y1556D01*
X838Y1683D01*
X826Y1714D01*
X853Y1781D01*
X853Y1857D01*
X890Y1842D01*
X989Y1842D01*
X1151Y1842D01*
X1151Y1841D01*
X1199Y1724D01*
X1289Y1634D01*
X1358Y1605D01*
X1309Y1585D01*
X1219Y1495D01*
X1171Y1378D01*
X1171Y1251D01*
X1179Y1231D01*
X1160Y1250D01*
X1043Y1298D01*
X916Y1298D01*
X907Y1295D01*
X-660Y1295D01*
X-706Y1313D01*
X-833Y1313D01*
X-913Y1280D01*
X-913Y1995D01*
X-1200Y2281D01*
X-1270Y2210D01*
X-1270Y2352D01*
X-1556Y2638D01*
X-1648Y2615D01*
X-1714Y2424D01*
X-1703Y2221D01*
X-1648Y2088D01*
X-1556Y2066D01*
X-1270Y2352D01*
X-1270Y2210D01*
X-1486Y1995D01*
X-1463Y1904D01*
X-1272Y1837D01*
X-1069Y1848D01*
X-936Y1904D01*
X-913Y1995D01*
X-913Y1280D01*
X-950Y1265D01*
X-951Y1264D01*
X-959Y1285D01*
X-1049Y1375D01*
X-1166Y1423D01*
X-1293Y1423D01*
X-1326Y1410D01*
X-1326Y1473D01*
X-1374Y1590D01*
X-1464Y1680D01*
X-1581Y1728D01*
X-1708Y1728D01*
X-1754Y1710D01*
X-1950Y1710D01*
X-2064Y1687D01*
X-2162Y1622D01*
X-2324Y1459D01*
X-2370Y1440D01*
X-2460Y1350D01*
X-2508Y1233D01*
X-2508Y1106D01*
X-2460Y989D01*
X-2422Y951D01*
X-2630Y744D01*
X-2700Y814D01*
X-2817Y863D01*
X-2944Y863D01*
X-3061Y814D01*
X-3151Y725D01*
X-3170Y679D01*
X-3187Y662D01*
X-3252Y565D01*
X-3267Y490D01*
X-3267Y490D01*
X-3311Y508D01*
X-3438Y508D01*
X-3510Y479D01*
X-3527Y521D01*
X-3663Y596D01*
X-3734Y525D01*
X-3734Y667D01*
X-3809Y802D01*
X-4156Y941D01*
X-4529Y936D01*
X-4852Y802D01*
X-4927Y667D01*
X-4330Y70D01*
X-3734Y667D01*
X-3734Y525D01*
X-4259Y0D01*
X-3663Y-596D01*
X-3527Y-521D01*
X-3480Y-401D01*
X-3480Y-1695D01*
X-3498Y-1741D01*
X-3498Y-1868D01*
X-3480Y-1914D01*
X-3480Y-2900D01*
X-3498Y-2946D01*
X-3498Y-3073D01*
X-3450Y-3190D01*
X-3360Y-3280D01*
X-3275Y-3315D01*
X-3275Y-4351D01*
X-3252Y-4466D01*
X-3187Y-4563D01*
X-3041Y-4709D01*
X-3045Y-4720D01*
X-3046Y-4827D01*
X-3564Y-4521D01*
X-3734Y-4351D01*
X-3734Y-667D01*
X-4330Y-70D01*
X-4401Y-141D01*
X-4401Y0D01*
X-4997Y596D01*
X-5133Y521D01*
X-5272Y174D01*
X-5267Y-198D01*
X-5133Y-521D01*
X-4997Y-596D01*
X-4401Y0D01*
X-4401Y-141D01*
X-4927Y-667D01*
X-4852Y-802D01*
X-4505Y-941D01*
X-4131Y-936D01*
X-3809Y-802D01*
X-3734Y-667D01*
X-3734Y-4351D01*
X-4532Y-3552D01*
X-5296Y-2241D01*
X-5296Y-2226D01*
X-5344Y-2109D01*
X-5354Y-2099D01*
X-5704Y-791D01*
X-5696Y841D01*
X-5343Y2175D01*
X-4546Y3507D01*
X-4474Y3579D01*
X-4456Y3623D01*
X-3498Y4567D01*
X-2088Y5359D01*
X-791Y5699D01*
X862Y5676D01*
X868Y5675D01*
X995Y5672D01*
X1046Y5651D01*
X1128Y5651D01*
X2127Y5349D01*
X3479Y4571D01*
X4522Y3561D01*
X5293Y2209D01*
X5416Y1877D01*
X5416Y1816D01*
X5464Y1699D01*
X5472Y1691D01*
X5700Y779D01*
X5705Y-799D01*
M02*
