G04 (created by PCBNEW (2013-05-16 BZR 4016)-stable) date 7/1/2013 10:46:10*
%MOIN*%
G04 Gerber Fmt 3.4, Leading zero omitted, Abs format*
%FSLAX34Y34*%
G01*
G70*
G90*
G04 APERTURE LIST*
%ADD10C,0.00590551*%
%ADD11C,0.00787402*%
%ADD12C,0.011811*%
%ADD13C,0.005*%
%ADD14C,0.006*%
%ADD15C,0.0031*%
%ADD16C,0.0047*%
%ADD17C,0.0001*%
G04 APERTURE END LIST*
G54D10*
G54D11*
X-3187Y-1973D02*
X-3187Y-1421D01*
X-3067Y-1421D01*
X-3037Y-1448D01*
X-3022Y-1474D01*
X-3007Y-1526D01*
X-3007Y-1605D01*
X-3022Y-1658D01*
X-3037Y-1684D01*
X-3067Y-1710D01*
X-3187Y-1710D01*
X-2737Y-1605D02*
X-2737Y-1973D01*
X-2872Y-1605D02*
X-2872Y-1894D01*
X-2857Y-1946D01*
X-2827Y-1973D01*
X-2782Y-1973D01*
X-2752Y-1946D01*
X-2737Y-1920D01*
X-2617Y-1605D02*
X-2452Y-1605D01*
X-2617Y-1973D01*
X-2452Y-1973D01*
X-2362Y-1605D02*
X-2197Y-1605D01*
X-2362Y-1973D01*
X-2197Y-1973D01*
X-2032Y-1973D02*
X-2062Y-1946D01*
X-2077Y-1894D01*
X-2077Y-1421D01*
X-1792Y-1946D02*
X-1822Y-1973D01*
X-1882Y-1973D01*
X-1912Y-1946D01*
X-1927Y-1894D01*
X-1927Y-1684D01*
X-1912Y-1631D01*
X-1882Y-1605D01*
X-1822Y-1605D01*
X-1792Y-1631D01*
X-1777Y-1684D01*
X-1777Y-1736D01*
X-1927Y-1789D01*
X-1642Y-1973D02*
X-1642Y-1421D01*
X-1642Y-1631D02*
X-1612Y-1605D01*
X-1552Y-1605D01*
X-1522Y-1631D01*
X-1507Y-1658D01*
X-1492Y-1710D01*
X-1492Y-1868D01*
X-1507Y-1920D01*
X-1522Y-1946D01*
X-1552Y-1973D01*
X-1612Y-1973D01*
X-1642Y-1946D01*
X-1312Y-1973D02*
X-1342Y-1946D01*
X-1357Y-1920D01*
X-1372Y-1868D01*
X-1372Y-1710D01*
X-1357Y-1658D01*
X-1342Y-1631D01*
X-1312Y-1605D01*
X-1267Y-1605D01*
X-1237Y-1631D01*
X-1222Y-1658D01*
X-1207Y-1710D01*
X-1207Y-1868D01*
X-1222Y-1920D01*
X-1237Y-1946D01*
X-1267Y-1973D01*
X-1312Y-1973D01*
X-1102Y-1973D02*
X-937Y-1605D01*
X-1102Y-1605D02*
X-937Y-1973D01*
X-577Y-1973D02*
X-577Y-1421D01*
X-457Y-1421D01*
X-427Y-1448D01*
X-412Y-1474D01*
X-397Y-1526D01*
X-397Y-1605D01*
X-412Y-1658D01*
X-427Y-1684D01*
X-457Y-1710D01*
X-577Y-1710D01*
X-262Y-1973D02*
X-262Y-1605D01*
X-262Y-1710D02*
X-247Y-1658D01*
X-232Y-1631D01*
X-202Y-1605D01*
X-172Y-1605D01*
X-22Y-1973D02*
X-52Y-1946D01*
X-67Y-1920D01*
X-82Y-1868D01*
X-82Y-1710D01*
X-67Y-1658D01*
X-52Y-1631D01*
X-22Y-1605D01*
X22Y-1605D01*
X52Y-1631D01*
X67Y-1658D01*
X82Y-1710D01*
X82Y-1868D01*
X67Y-1920D01*
X52Y-1946D01*
X22Y-1973D01*
X-22Y-1973D01*
X352Y-1973D02*
X352Y-1421D01*
X352Y-1946D02*
X322Y-1973D01*
X262Y-1973D01*
X232Y-1946D01*
X217Y-1920D01*
X202Y-1868D01*
X202Y-1710D01*
X217Y-1658D01*
X232Y-1631D01*
X262Y-1605D01*
X322Y-1605D01*
X352Y-1631D01*
X637Y-1605D02*
X637Y-1973D01*
X502Y-1605D02*
X502Y-1894D01*
X517Y-1946D01*
X547Y-1973D01*
X592Y-1973D01*
X622Y-1946D01*
X637Y-1920D01*
X922Y-1946D02*
X892Y-1973D01*
X832Y-1973D01*
X802Y-1946D01*
X787Y-1920D01*
X772Y-1868D01*
X772Y-1710D01*
X787Y-1658D01*
X802Y-1631D01*
X832Y-1605D01*
X892Y-1605D01*
X922Y-1631D01*
X1012Y-1605D02*
X1132Y-1605D01*
X1057Y-1421D02*
X1057Y-1894D01*
X1072Y-1946D01*
X1102Y-1973D01*
X1132Y-1973D01*
X1237Y-1973D02*
X1237Y-1605D01*
X1237Y-1421D02*
X1222Y-1448D01*
X1237Y-1474D01*
X1252Y-1448D01*
X1237Y-1421D01*
X1237Y-1474D01*
X1432Y-1973D02*
X1402Y-1946D01*
X1387Y-1920D01*
X1372Y-1868D01*
X1372Y-1710D01*
X1387Y-1658D01*
X1402Y-1631D01*
X1432Y-1605D01*
X1477Y-1605D01*
X1507Y-1631D01*
X1522Y-1658D01*
X1537Y-1710D01*
X1537Y-1868D01*
X1522Y-1920D01*
X1507Y-1946D01*
X1477Y-1973D01*
X1432Y-1973D01*
X1672Y-1605D02*
X1672Y-1973D01*
X1672Y-1658D02*
X1687Y-1631D01*
X1717Y-1605D01*
X1762Y-1605D01*
X1792Y-1631D01*
X1807Y-1684D01*
X1807Y-1973D01*
X1942Y-1946D02*
X1972Y-1973D01*
X2032Y-1973D01*
X2062Y-1946D01*
X2077Y-1894D01*
X2077Y-1868D01*
X2062Y-1815D01*
X2032Y-1789D01*
X1987Y-1789D01*
X1957Y-1763D01*
X1942Y-1710D01*
X1942Y-1684D01*
X1957Y-1631D01*
X1987Y-1605D01*
X2032Y-1605D01*
X2062Y-1631D01*
X2602Y-1973D02*
X2452Y-1973D01*
X2452Y-1421D01*
X2857Y-1973D02*
X2707Y-1973D01*
X2707Y-1421D01*
X3142Y-1920D02*
X3127Y-1946D01*
X3082Y-1973D01*
X3052Y-1973D01*
X3007Y-1946D01*
X2977Y-1894D01*
X2962Y-1841D01*
X2947Y-1736D01*
X2947Y-1658D01*
X2962Y-1553D01*
X2977Y-1500D01*
X3007Y-1448D01*
X3052Y-1421D01*
X3082Y-1421D01*
X3127Y-1448D01*
X3142Y-1474D01*
G54D12*
X3274Y1403D02*
X3217Y1431D01*
X3133Y1431D01*
X3049Y1403D01*
X2992Y1347D01*
X2964Y1290D01*
X2936Y1178D01*
X2936Y1094D01*
X2964Y981D01*
X2992Y925D01*
X3049Y869D01*
X3133Y840D01*
X3189Y840D01*
X3274Y869D01*
X3302Y897D01*
X3302Y1094D01*
X3189Y1094D01*
X3555Y840D02*
X3555Y1431D01*
X3780Y1431D01*
X3836Y1403D01*
X3864Y1375D01*
X3892Y1319D01*
X3892Y1234D01*
X3864Y1178D01*
X3836Y1150D01*
X3780Y1122D01*
X3555Y1122D01*
X4427Y840D02*
X4145Y840D01*
X4145Y1431D01*
X4567Y1234D02*
X4708Y840D01*
X4848Y1234D01*
X5045Y1375D02*
X5073Y1403D01*
X5130Y1431D01*
X5270Y1431D01*
X5327Y1403D01*
X5355Y1375D01*
X5383Y1319D01*
X5383Y1262D01*
X5355Y1178D01*
X5017Y840D01*
X5383Y840D01*
G54D13*
X3008Y4386D02*
X2869Y4146D01*
X2869Y4146D02*
X3345Y3871D01*
X3345Y3871D02*
X3484Y4111D01*
X3344Y4968D02*
X3205Y4728D01*
X3344Y4968D02*
X3820Y4693D01*
X3820Y4693D02*
X3681Y4453D01*
G54D10*
X-1647Y3215D02*
X-2049Y3438D01*
X-1460Y3323D02*
X-1835Y3107D01*
X-2032Y3448D02*
X-1700Y3503D01*
X-1691Y3645D02*
X-1670Y3293D01*
X-1670Y3293D02*
X-1963Y3487D01*
X-1963Y3487D02*
X-1720Y3537D01*
X-1720Y3537D02*
X-1763Y3376D01*
X-1763Y3376D02*
X-1842Y3512D01*
X-1842Y3512D02*
X-1768Y3464D01*
X-1705Y3591D02*
X-1944Y3453D01*
X-1944Y3453D02*
X-1748Y3430D01*
X-1748Y3430D02*
X-1705Y3591D01*
X-1637Y3630D02*
X-1650Y3259D01*
X-1650Y3259D02*
X-2012Y3414D01*
X-1657Y3664D02*
X-2066Y3428D01*
X-2066Y3428D02*
X-1709Y3361D01*
X-1709Y3361D02*
X-1623Y3684D01*
X-2145Y3565D02*
X-1810Y2985D01*
X-1810Y2985D02*
X-1367Y3241D01*
X-1367Y3241D02*
X-1701Y3820D01*
X-1701Y3820D02*
X-2145Y3565D01*
G54D13*
X-2434Y2038D02*
X-1655Y2488D01*
X-1655Y2488D02*
X-1980Y3051D01*
X-3109Y3208D02*
X-3434Y3771D01*
X-3434Y3771D02*
X-2655Y4221D01*
X-2655Y4221D02*
X-2330Y3658D01*
X-2759Y2601D02*
X-2434Y2038D01*
G54D14*
X-825Y1200D02*
X825Y1200D01*
X825Y1200D02*
X1200Y1200D01*
X1200Y1200D02*
X1200Y-1200D01*
X1200Y-1200D02*
X-1200Y-1200D01*
X-1200Y-1200D02*
X-1200Y825D01*
X-1200Y825D02*
X-825Y1200D01*
G54D10*
X-1692Y8070D02*
X-1692Y7677D01*
X-1692Y7677D02*
X-1299Y8070D01*
X-1299Y8070D02*
X-1692Y8070D01*
X984Y6850D02*
X984Y6692D01*
X984Y7480D02*
X984Y7322D01*
X-984Y6062D02*
X984Y6062D01*
X-984Y8110D02*
X984Y8110D01*
X395Y7086D02*
G75*
G03X395Y7086I-395J0D01*
G74*
G01*
X-5501Y6147D02*
X-5304Y5806D01*
X-5304Y5806D02*
X-5160Y6344D01*
X-5160Y6344D02*
X-5501Y6147D01*
X-2572Y6429D02*
X-2494Y6292D01*
X-2887Y6974D02*
X-2809Y6838D01*
X-3883Y4763D02*
X-2179Y5747D01*
X-4907Y6536D02*
X-3202Y7520D01*
X-3147Y6141D02*
G75*
G03X-3147Y6141I-395J0D01*
G74*
G01*
X-7840Y2569D02*
X-7499Y2372D01*
X-7499Y2372D02*
X-7643Y2910D01*
X-7643Y2910D02*
X-7840Y2569D01*
X-5445Y4277D02*
X-5308Y4198D01*
X-5990Y4592D02*
X-5854Y4513D01*
X-5747Y2179D02*
X-4763Y3883D01*
X-7520Y3202D02*
X-6536Y4907D01*
X-5746Y3543D02*
G75*
G03X-5746Y3543I-395J0D01*
G74*
G01*
X-8070Y-1692D02*
X-7677Y-1692D01*
X-7677Y-1692D02*
X-8070Y-1299D01*
X-8070Y-1299D02*
X-8070Y-1692D01*
X-6850Y984D02*
X-6692Y984D01*
X-7480Y984D02*
X-7322Y984D01*
X-6062Y-984D02*
X-6062Y984D01*
X-8110Y-984D02*
X-8110Y984D01*
X-6690Y0D02*
G75*
G03X-6690Y0I-395J0D01*
G74*
G01*
X-6147Y-5501D02*
X-5806Y-5304D01*
X-5806Y-5304D02*
X-6344Y-5160D01*
X-6344Y-5160D02*
X-6147Y-5501D01*
X-6429Y-2572D02*
X-6292Y-2494D01*
X-6974Y-2887D02*
X-6838Y-2809D01*
X-4763Y-3883D02*
X-5747Y-2179D01*
X-6536Y-4907D02*
X-7520Y-3202D01*
X-5746Y-3543D02*
G75*
G03X-5746Y-3543I-395J0D01*
G74*
G01*
X-2569Y-7840D02*
X-2372Y-7499D01*
X-2372Y-7499D02*
X-2910Y-7643D01*
X-2910Y-7643D02*
X-2569Y-7840D01*
X-4277Y-5445D02*
X-4198Y-5308D01*
X-4592Y-5990D02*
X-4513Y-5854D01*
X-2179Y-5747D02*
X-3883Y-4763D01*
X-3202Y-7520D02*
X-4907Y-6536D01*
X-3147Y-6141D02*
G75*
G03X-3147Y-6141I-395J0D01*
G74*
G01*
X1692Y-8070D02*
X1692Y-7677D01*
X1692Y-7677D02*
X1299Y-8070D01*
X1299Y-8070D02*
X1692Y-8070D01*
X-984Y-6850D02*
X-984Y-6692D01*
X-984Y-7480D02*
X-984Y-7322D01*
X984Y-6062D02*
X-984Y-6062D01*
X984Y-8110D02*
X-984Y-8110D01*
X395Y-7086D02*
G75*
G03X395Y-7086I-395J0D01*
G74*
G01*
X5501Y-6147D02*
X5304Y-5806D01*
X5304Y-5806D02*
X5160Y-6344D01*
X5160Y-6344D02*
X5501Y-6147D01*
X2572Y-6429D02*
X2494Y-6292D01*
X2887Y-6974D02*
X2809Y-6838D01*
X3883Y-4763D02*
X2179Y-5747D01*
X4907Y-6536D02*
X3202Y-7520D01*
X3938Y-6141D02*
G75*
G03X3938Y-6141I-395J0D01*
G74*
G01*
X7840Y-2569D02*
X7499Y-2372D01*
X7499Y-2372D02*
X7643Y-2910D01*
X7643Y-2910D02*
X7840Y-2569D01*
X5445Y-4277D02*
X5308Y-4198D01*
X5990Y-4592D02*
X5854Y-4513D01*
X5747Y-2179D02*
X4763Y-3883D01*
X7520Y-3202D02*
X6536Y-4907D01*
X6537Y-3543D02*
G75*
G03X6537Y-3543I-395J0D01*
G74*
G01*
X8070Y1692D02*
X7677Y1692D01*
X7677Y1692D02*
X8070Y1299D01*
X8070Y1299D02*
X8070Y1692D01*
X6850Y-984D02*
X6692Y-984D01*
X7480Y-984D02*
X7322Y-984D01*
X6062Y984D02*
X6062Y-984D01*
X8110Y984D02*
X8110Y-984D01*
X7482Y0D02*
G75*
G03X7482Y0I-395J0D01*
G74*
G01*
X6147Y5501D02*
X5806Y5304D01*
X5806Y5304D02*
X6344Y5160D01*
X6344Y5160D02*
X6147Y5501D01*
X6429Y2572D02*
X6292Y2494D01*
X6974Y2887D02*
X6838Y2809D01*
X4763Y3883D02*
X5747Y2179D01*
X6536Y4907D02*
X7520Y3202D01*
X6537Y3543D02*
G75*
G03X6537Y3543I-395J0D01*
G74*
G01*
X2569Y7840D02*
X2372Y7499D01*
X2372Y7499D02*
X2910Y7643D01*
X2910Y7643D02*
X2569Y7840D01*
X4277Y5445D02*
X4198Y5308D01*
X4592Y5990D02*
X4513Y5854D01*
X2179Y5747D02*
X3883Y4763D01*
X3202Y7520D02*
X4907Y6536D01*
X3938Y6141D02*
G75*
G03X3938Y6141I-395J0D01*
G74*
G01*
G54D15*
X4002Y3363D02*
G75*
G03X4002Y3363I-62J0D01*
G74*
G01*
X4714Y2698D02*
X4368Y2498D01*
X4202Y3586D02*
X3855Y3386D01*
X4368Y2498D02*
X3855Y3386D01*
X4202Y3586D02*
X4714Y2698D01*
X4899Y-1774D02*
G75*
G03X4899Y-1774I-62J0D01*
G74*
G01*
X4647Y-2777D02*
X4301Y-2577D01*
X5160Y-1889D02*
X4813Y-1689D01*
X4301Y-2577D02*
X4813Y-1689D01*
X5160Y-1889D02*
X4647Y-2777D01*
X1352Y-5098D02*
G75*
G03X1352Y-5098I-62J0D01*
G74*
G01*
X326Y-5436D02*
X326Y-5036D01*
X1351Y-5436D02*
X1351Y-5036D01*
X326Y-5036D02*
X1351Y-5036D01*
X1351Y-5436D02*
X326Y-5436D01*
X-4015Y-3205D02*
G75*
G03X-4015Y-3205I-62J0D01*
G74*
G01*
X-4852Y-2541D02*
X-4505Y-2341D01*
X-4339Y-3428D02*
X-3993Y-3228D01*
X-4505Y-2341D02*
X-3993Y-3228D01*
X-4339Y-3428D02*
X-4852Y-2541D01*
X-4813Y1774D02*
G75*
G03X-4813Y1774I-62J0D01*
G74*
G01*
X-4686Y2777D02*
X-4340Y2577D01*
X-5199Y1889D02*
X-4853Y1689D01*
X-4340Y2577D02*
X-4853Y1689D01*
X-5199Y1889D02*
X-4686Y2777D01*
X-1109Y5098D02*
G75*
G03X-1109Y5098I-62J0D01*
G74*
G01*
X-208Y5436D02*
X-208Y5036D01*
X-1233Y5436D02*
X-1233Y5036D01*
X-208Y5036D02*
X-1233Y5036D01*
X-1233Y5436D02*
X-208Y5436D01*
G54D13*
X2555Y-3778D02*
X2555Y-3500D01*
X2555Y-3500D02*
X2005Y-3500D01*
X2005Y-3500D02*
X2005Y-3778D01*
X2555Y-4450D02*
X2555Y-4172D01*
X2555Y-4450D02*
X2005Y-4450D01*
X2005Y-4450D02*
X2005Y-4172D01*
X-5275Y433D02*
X-4997Y433D01*
X-4997Y433D02*
X-4997Y983D01*
X-4997Y983D02*
X-5275Y983D01*
X-5947Y433D02*
X-5669Y433D01*
X-5947Y433D02*
X-5947Y983D01*
X-5947Y983D02*
X-5669Y983D01*
X-2265Y4790D02*
X-2126Y4549D01*
X-2126Y4549D02*
X-1650Y4824D01*
X-1650Y4824D02*
X-1789Y5065D01*
X-2601Y5372D02*
X-2462Y5131D01*
X-2601Y5372D02*
X-2125Y5647D01*
X-2125Y5647D02*
X-1986Y5406D01*
X4790Y2285D02*
X4549Y2146D01*
X4549Y2146D02*
X4824Y1670D01*
X4824Y1670D02*
X5065Y1809D01*
X5372Y2621D02*
X5131Y2482D01*
X5372Y2621D02*
X5647Y2145D01*
X5647Y2145D02*
X5406Y2006D01*
X4376Y-2990D02*
X4135Y-2851D01*
X4135Y-2851D02*
X3860Y-3327D01*
X3860Y-3327D02*
X4101Y-3466D01*
X4958Y-3326D02*
X4717Y-3187D01*
X4958Y-3326D02*
X4683Y-3802D01*
X4683Y-3802D02*
X4442Y-3663D01*
X-551Y3858D02*
X-273Y3858D01*
X-273Y3858D02*
X-273Y4408D01*
X-273Y4408D02*
X-551Y4408D01*
X-1223Y3858D02*
X-945Y3858D01*
X-1223Y3858D02*
X-1223Y4408D01*
X-1223Y4408D02*
X-945Y4408D01*
X-3521Y1726D02*
X-3382Y1966D01*
X-3382Y1966D02*
X-3858Y2241D01*
X-3858Y2241D02*
X-3997Y2001D01*
X-3857Y1144D02*
X-3718Y1384D01*
X-3857Y1144D02*
X-4333Y1419D01*
X-4333Y1419D02*
X-4194Y1659D01*
X-3364Y-2054D02*
X-3503Y-1813D01*
X-3503Y-1813D02*
X-3979Y-2088D01*
X-3979Y-2088D02*
X-3840Y-2329D01*
X-3028Y-2636D02*
X-3167Y-2395D01*
X-3028Y-2636D02*
X-3504Y-2911D01*
X-3504Y-2911D02*
X-3643Y-2670D01*
X590Y-3858D02*
X312Y-3858D01*
X312Y-3858D02*
X312Y-4408D01*
X312Y-4408D02*
X590Y-4408D01*
X1262Y-3858D02*
X984Y-3858D01*
X1262Y-3858D02*
X1262Y-4408D01*
X1262Y-4408D02*
X984Y-4408D01*
X3442Y-1726D02*
X3303Y-1966D01*
X3303Y-1966D02*
X3780Y-2241D01*
X3780Y-2241D02*
X3919Y-2001D01*
X3778Y-1144D02*
X3639Y-1384D01*
X3778Y-1144D02*
X4255Y-1419D01*
X4255Y-1419D02*
X4116Y-1659D01*
X3167Y2172D02*
X3306Y1931D01*
X3306Y1931D02*
X3782Y2206D01*
X3782Y2206D02*
X3643Y2447D01*
X2831Y2754D02*
X2970Y2513D01*
X2831Y2754D02*
X3307Y3029D01*
X3307Y3029D02*
X3446Y2788D01*
X433Y5255D02*
X433Y4977D01*
X433Y4977D02*
X983Y4977D01*
X983Y4977D02*
X983Y5255D01*
X433Y5927D02*
X433Y5649D01*
X433Y5927D02*
X983Y5927D01*
X983Y5927D02*
X983Y5649D01*
G54D16*
X1796Y337D02*
X1796Y612D01*
X1796Y-57D02*
X1796Y-332D01*
X1284Y337D02*
X1284Y612D01*
X1284Y-332D02*
X1284Y-57D01*
X1290Y612D02*
X1790Y612D01*
X1790Y-332D02*
X1290Y-332D01*
X-3137Y47D02*
X-3137Y-227D01*
X-3137Y441D02*
X-3137Y716D01*
X-2625Y47D02*
X-2625Y-227D01*
X-2625Y716D02*
X-2625Y441D01*
X-2631Y-227D02*
X-3131Y-227D01*
X-3131Y716D02*
X-2631Y716D01*
X-2468Y47D02*
X-2468Y-227D01*
X-2468Y441D02*
X-2468Y716D01*
X-1956Y47D02*
X-1956Y-227D01*
X-1956Y716D02*
X-1956Y441D01*
X-1962Y-227D02*
X-2462Y-227D01*
X-2462Y716D02*
X-1962Y716D01*
X1399Y-4172D02*
X1399Y-4447D01*
X1399Y-3778D02*
X1399Y-3503D01*
X1911Y-4172D02*
X1911Y-4447D01*
X1911Y-3503D02*
X1911Y-3778D01*
X1905Y-4447D02*
X1405Y-4447D01*
X1405Y-3503D02*
X1905Y-3503D01*
G54D10*
X-2629Y-610D02*
X-2629Y-1201D01*
X-2629Y-1201D02*
X-1290Y-1201D01*
X-1290Y-1201D02*
X-1290Y-610D01*
X-1290Y-610D02*
X-2629Y-610D01*
G54D17*
G36*
X751Y1272D02*
X715Y1272D01*
X680Y1272D01*
X680Y1285D01*
X680Y1299D01*
X680Y1389D01*
X680Y1412D01*
X630Y1412D01*
X607Y1411D01*
X589Y1410D01*
X576Y1409D01*
X566Y1406D01*
X558Y1401D01*
X552Y1396D01*
X552Y1395D01*
X546Y1384D01*
X545Y1373D01*
X548Y1359D01*
X556Y1347D01*
X571Y1338D01*
X575Y1336D01*
X586Y1334D01*
X601Y1333D01*
X618Y1333D01*
X635Y1334D01*
X649Y1336D01*
X658Y1339D01*
X669Y1347D01*
X676Y1362D01*
X680Y1381D01*
X680Y1389D01*
X680Y1299D01*
X667Y1288D01*
X656Y1280D01*
X643Y1274D01*
X639Y1272D01*
X618Y1269D01*
X594Y1269D01*
X570Y1271D01*
X550Y1276D01*
X529Y1286D01*
X510Y1300D01*
X495Y1318D01*
X485Y1338D01*
X485Y1340D01*
X480Y1366D01*
X482Y1390D01*
X490Y1413D01*
X503Y1433D01*
X522Y1449D01*
X537Y1458D01*
X543Y1461D01*
X550Y1463D01*
X557Y1465D01*
X566Y1466D01*
X578Y1467D01*
X595Y1467D01*
X617Y1468D01*
X617Y1468D01*
X680Y1469D01*
X680Y1492D01*
X679Y1505D01*
X678Y1516D01*
X676Y1523D01*
X669Y1532D01*
X655Y1539D01*
X637Y1543D01*
X629Y1544D01*
X605Y1545D01*
X587Y1543D01*
X573Y1538D01*
X562Y1531D01*
X556Y1527D01*
X552Y1524D01*
X548Y1524D01*
X542Y1527D01*
X533Y1532D01*
X521Y1542D01*
X519Y1543D01*
X508Y1551D01*
X502Y1556D01*
X500Y1560D01*
X500Y1564D01*
X502Y1567D01*
X510Y1576D01*
X523Y1585D01*
X538Y1594D01*
X553Y1601D01*
X561Y1603D01*
X573Y1606D01*
X586Y1608D01*
X602Y1608D01*
X620Y1608D01*
X651Y1605D01*
X677Y1600D01*
X698Y1592D01*
X715Y1580D01*
X729Y1565D01*
X730Y1563D01*
X735Y1557D01*
X738Y1551D01*
X741Y1544D01*
X743Y1537D01*
X745Y1528D01*
X746Y1516D01*
X747Y1501D01*
X748Y1482D01*
X748Y1458D01*
X749Y1429D01*
X749Y1399D01*
X751Y1272D01*
X751Y1272D01*
X751Y1272D01*
G37*
G36*
X1313Y1272D02*
X1280Y1272D01*
X1247Y1272D01*
X1247Y1288D01*
X1247Y1305D01*
X1245Y1303D01*
X1245Y1430D01*
X1244Y1452D01*
X1243Y1474D01*
X1240Y1493D01*
X1236Y1507D01*
X1234Y1511D01*
X1223Y1525D01*
X1209Y1535D01*
X1192Y1540D01*
X1175Y1541D01*
X1158Y1537D01*
X1142Y1530D01*
X1130Y1517D01*
X1126Y1511D01*
X1121Y1498D01*
X1118Y1480D01*
X1116Y1459D01*
X1116Y1436D01*
X1116Y1414D01*
X1118Y1393D01*
X1122Y1376D01*
X1126Y1366D01*
X1132Y1356D01*
X1140Y1348D01*
X1141Y1347D01*
X1155Y1340D01*
X1172Y1337D01*
X1190Y1337D01*
X1207Y1341D01*
X1215Y1345D01*
X1226Y1354D01*
X1235Y1369D01*
X1241Y1390D01*
X1243Y1408D01*
X1245Y1430D01*
X1245Y1303D01*
X1228Y1291D01*
X1203Y1278D01*
X1178Y1270D01*
X1152Y1269D01*
X1126Y1273D01*
X1123Y1274D01*
X1100Y1286D01*
X1080Y1302D01*
X1068Y1316D01*
X1062Y1326D01*
X1058Y1335D01*
X1054Y1344D01*
X1052Y1355D01*
X1050Y1368D01*
X1049Y1385D01*
X1049Y1406D01*
X1048Y1432D01*
X1048Y1442D01*
X1049Y1467D01*
X1049Y1486D01*
X1049Y1501D01*
X1050Y1512D01*
X1051Y1521D01*
X1052Y1528D01*
X1054Y1534D01*
X1056Y1540D01*
X1069Y1563D01*
X1086Y1581D01*
X1108Y1596D01*
X1132Y1605D01*
X1152Y1608D01*
X1177Y1607D01*
X1200Y1601D01*
X1221Y1589D01*
X1227Y1585D01*
X1245Y1571D01*
X1246Y1655D01*
X1247Y1738D01*
X1280Y1738D01*
X1313Y1738D01*
X1313Y1505D01*
X1313Y1272D01*
X1313Y1272D01*
X1313Y1272D01*
G37*
G36*
X2094Y1272D02*
X2060Y1272D01*
X2027Y1272D01*
X2027Y1412D01*
X1975Y1412D01*
X1951Y1411D01*
X1933Y1410D01*
X1919Y1409D01*
X1909Y1406D01*
X1902Y1402D01*
X1896Y1396D01*
X1895Y1395D01*
X1891Y1384D01*
X1890Y1371D01*
X1892Y1359D01*
X1895Y1352D01*
X1904Y1344D01*
X1915Y1337D01*
X1930Y1334D01*
X1951Y1333D01*
X1966Y1333D01*
X1983Y1334D01*
X1995Y1336D01*
X2002Y1338D01*
X2006Y1341D01*
X2014Y1348D01*
X2019Y1357D01*
X2023Y1369D01*
X2025Y1387D01*
X2025Y1387D01*
X2027Y1412D01*
X2027Y1272D01*
X2027Y1272D01*
X2027Y1285D01*
X2026Y1294D01*
X2023Y1298D01*
X2019Y1296D01*
X2017Y1292D01*
X2012Y1288D01*
X2004Y1282D01*
X1998Y1278D01*
X1988Y1274D01*
X1978Y1272D01*
X1965Y1270D01*
X1950Y1269D01*
X1931Y1269D01*
X1914Y1271D01*
X1903Y1273D01*
X1877Y1283D01*
X1856Y1298D01*
X1840Y1316D01*
X1830Y1338D01*
X1826Y1363D01*
X1826Y1370D01*
X1829Y1396D01*
X1837Y1419D01*
X1852Y1438D01*
X1872Y1453D01*
X1883Y1459D01*
X1889Y1462D01*
X1896Y1464D01*
X1905Y1465D01*
X1916Y1466D01*
X1931Y1467D01*
X1952Y1468D01*
X1962Y1468D01*
X2025Y1470D01*
X2024Y1494D01*
X2024Y1507D01*
X2022Y1518D01*
X2020Y1525D01*
X2012Y1533D01*
X1999Y1539D01*
X1981Y1543D01*
X1966Y1544D01*
X1945Y1544D01*
X1928Y1542D01*
X1915Y1537D01*
X1903Y1529D01*
X1893Y1521D01*
X1868Y1540D01*
X1857Y1548D01*
X1849Y1555D01*
X1844Y1560D01*
X1843Y1561D01*
X1846Y1566D01*
X1853Y1573D01*
X1863Y1581D01*
X1874Y1589D01*
X1886Y1596D01*
X1888Y1597D01*
X1896Y1601D01*
X1904Y1603D01*
X1911Y1605D01*
X1920Y1606D01*
X1933Y1606D01*
X1950Y1606D01*
X1958Y1606D01*
X1979Y1606D01*
X1993Y1606D01*
X2005Y1605D01*
X2014Y1603D01*
X2022Y1601D01*
X2028Y1598D01*
X2050Y1587D01*
X2069Y1570D01*
X2082Y1551D01*
X2084Y1547D01*
X2086Y1543D01*
X2087Y1538D01*
X2089Y1533D01*
X2090Y1527D01*
X2091Y1519D01*
X2091Y1508D01*
X2092Y1493D01*
X2092Y1475D01*
X2092Y1451D01*
X2093Y1422D01*
X2093Y1401D01*
X2094Y1272D01*
X2094Y1272D01*
X2094Y1272D01*
G37*
G36*
X2667Y1412D02*
X2597Y1412D01*
X2597Y1468D01*
X2597Y1479D01*
X2595Y1490D01*
X2590Y1503D01*
X2584Y1516D01*
X2577Y1527D01*
X2575Y1529D01*
X2561Y1538D01*
X2543Y1543D01*
X2527Y1545D01*
X2508Y1542D01*
X2490Y1533D01*
X2476Y1519D01*
X2466Y1502D01*
X2461Y1484D01*
X2459Y1468D01*
X2528Y1468D01*
X2597Y1468D01*
X2597Y1412D01*
X2563Y1412D01*
X2460Y1412D01*
X2460Y1401D01*
X2462Y1392D01*
X2465Y1380D01*
X2468Y1372D01*
X2479Y1356D01*
X2495Y1343D01*
X2513Y1335D01*
X2534Y1332D01*
X2556Y1334D01*
X2577Y1342D01*
X2592Y1350D01*
X2602Y1356D01*
X2609Y1360D01*
X2612Y1361D01*
X2616Y1359D01*
X2623Y1354D01*
X2632Y1346D01*
X2637Y1342D01*
X2658Y1322D01*
X2645Y1308D01*
X2626Y1293D01*
X2602Y1281D01*
X2576Y1273D01*
X2548Y1269D01*
X2520Y1269D01*
X2496Y1273D01*
X2468Y1284D01*
X2444Y1299D01*
X2425Y1318D01*
X2410Y1342D01*
X2400Y1371D01*
X2394Y1404D01*
X2392Y1437D01*
X2393Y1466D01*
X2397Y1492D01*
X2403Y1515D01*
X2412Y1537D01*
X2412Y1538D01*
X2427Y1561D01*
X2446Y1580D01*
X2468Y1594D01*
X2492Y1603D01*
X2518Y1608D01*
X2545Y1608D01*
X2571Y1602D01*
X2596Y1591D01*
X2619Y1575D01*
X2625Y1569D01*
X2641Y1550D01*
X2653Y1528D01*
X2661Y1502D01*
X2666Y1471D01*
X2667Y1442D01*
X2667Y1412D01*
X2667Y1412D01*
X2667Y1412D01*
G37*
G36*
X433Y1272D02*
X400Y1272D01*
X367Y1272D01*
X366Y1382D01*
X366Y1413D01*
X365Y1437D01*
X365Y1456D01*
X365Y1471D01*
X364Y1482D01*
X363Y1490D01*
X362Y1496D01*
X361Y1501D01*
X359Y1505D01*
X358Y1507D01*
X345Y1524D01*
X329Y1535D01*
X310Y1541D01*
X293Y1540D01*
X272Y1535D01*
X256Y1525D01*
X246Y1512D01*
X244Y1509D01*
X242Y1505D01*
X241Y1501D01*
X240Y1494D01*
X239Y1486D01*
X238Y1474D01*
X238Y1459D01*
X237Y1439D01*
X237Y1414D01*
X237Y1387D01*
X235Y1273D01*
X201Y1272D01*
X167Y1271D01*
X167Y1702D01*
X167Y2132D01*
X201Y2131D01*
X235Y2130D01*
X237Y2114D01*
X238Y2098D01*
X246Y2106D01*
X253Y2112D01*
X264Y2118D01*
X274Y2124D01*
X287Y2129D01*
X299Y2132D01*
X313Y2133D01*
X322Y2133D01*
X336Y2133D01*
X347Y2131D01*
X358Y2128D01*
X370Y2123D01*
X371Y2122D01*
X393Y2108D01*
X410Y2090D01*
X423Y2068D01*
X424Y2065D01*
X426Y2059D01*
X428Y2053D01*
X429Y2046D01*
X430Y2037D01*
X431Y2026D01*
X431Y2010D01*
X431Y1990D01*
X432Y1965D01*
X431Y1935D01*
X431Y1911D01*
X430Y1892D01*
X428Y1877D01*
X425Y1865D01*
X421Y1855D01*
X416Y1846D01*
X409Y1837D01*
X400Y1828D01*
X399Y1827D01*
X380Y1811D01*
X365Y1803D01*
X365Y1962D01*
X364Y1992D01*
X361Y2016D01*
X356Y2034D01*
X348Y2048D01*
X337Y2058D01*
X323Y2063D01*
X305Y2065D01*
X300Y2065D01*
X281Y2063D01*
X266Y2057D01*
X253Y2046D01*
X252Y2044D01*
X245Y2033D01*
X241Y2019D01*
X238Y2002D01*
X237Y1979D01*
X237Y1954D01*
X238Y1935D01*
X239Y1922D01*
X240Y1912D01*
X242Y1904D01*
X245Y1896D01*
X247Y1893D01*
X257Y1878D01*
X272Y1868D01*
X290Y1863D01*
X305Y1862D01*
X321Y1864D01*
X334Y1869D01*
X338Y1872D01*
X347Y1880D01*
X354Y1889D01*
X359Y1902D01*
X363Y1918D01*
X364Y1939D01*
X365Y1962D01*
X365Y1803D01*
X361Y1801D01*
X340Y1796D01*
X324Y1794D01*
X296Y1797D01*
X271Y1807D01*
X254Y1817D01*
X246Y1823D01*
X240Y1827D01*
X238Y1827D01*
X238Y1824D01*
X237Y1814D01*
X237Y1800D01*
X237Y1781D01*
X237Y1758D01*
X237Y1732D01*
X237Y1704D01*
X237Y1700D01*
X238Y1574D01*
X251Y1585D01*
X273Y1598D01*
X297Y1606D01*
X323Y1608D01*
X348Y1605D01*
X372Y1597D01*
X393Y1583D01*
X395Y1581D01*
X412Y1563D01*
X424Y1541D01*
X428Y1528D01*
X429Y1522D01*
X431Y1515D01*
X432Y1506D01*
X432Y1493D01*
X433Y1477D01*
X433Y1457D01*
X433Y1432D01*
X433Y1401D01*
X433Y1391D01*
X433Y1272D01*
X433Y1272D01*
X433Y1272D01*
G37*
G36*
X1046Y1583D02*
X1023Y1555D01*
X1013Y1544D01*
X1005Y1534D01*
X999Y1528D01*
X997Y1527D01*
X993Y1528D01*
X985Y1532D01*
X979Y1535D01*
X960Y1540D01*
X941Y1540D01*
X923Y1534D01*
X908Y1523D01*
X897Y1508D01*
X897Y1507D01*
X895Y1503D01*
X894Y1499D01*
X892Y1493D01*
X891Y1486D01*
X891Y1477D01*
X890Y1464D01*
X890Y1447D01*
X890Y1426D01*
X890Y1399D01*
X890Y1382D01*
X890Y1272D01*
X855Y1272D01*
X820Y1272D01*
X820Y1438D01*
X820Y1605D01*
X855Y1605D01*
X890Y1605D01*
X890Y1588D01*
X890Y1571D01*
X904Y1583D01*
X925Y1597D01*
X949Y1605D01*
X975Y1608D01*
X994Y1606D01*
X1014Y1602D01*
X1031Y1594D01*
X1039Y1589D01*
X1046Y1583D01*
X1046Y1583D01*
X1046Y1583D01*
G37*
G36*
X1820Y1604D02*
X1819Y1601D01*
X1816Y1592D01*
X1812Y1578D01*
X1806Y1559D01*
X1798Y1536D01*
X1790Y1510D01*
X1781Y1481D01*
X1771Y1450D01*
X1767Y1438D01*
X1714Y1273D01*
X1684Y1272D01*
X1654Y1271D01*
X1651Y1282D01*
X1645Y1302D01*
X1639Y1324D01*
X1632Y1347D01*
X1624Y1372D01*
X1617Y1396D01*
X1610Y1420D01*
X1603Y1442D01*
X1597Y1461D01*
X1591Y1478D01*
X1587Y1490D01*
X1585Y1498D01*
X1584Y1500D01*
X1582Y1496D01*
X1579Y1487D01*
X1575Y1473D01*
X1569Y1455D01*
X1563Y1433D01*
X1555Y1408D01*
X1548Y1386D01*
X1515Y1273D01*
X1485Y1272D01*
X1455Y1271D01*
X1402Y1436D01*
X1392Y1467D01*
X1383Y1497D01*
X1374Y1524D01*
X1366Y1549D01*
X1360Y1569D01*
X1355Y1585D01*
X1352Y1596D01*
X1350Y1602D01*
X1350Y1602D01*
X1353Y1604D01*
X1361Y1605D01*
X1372Y1605D01*
X1385Y1605D01*
X1398Y1604D01*
X1410Y1604D01*
X1418Y1602D01*
X1421Y1601D01*
X1422Y1597D01*
X1425Y1587D01*
X1429Y1572D01*
X1434Y1554D01*
X1440Y1531D01*
X1447Y1507D01*
X1452Y1488D01*
X1459Y1462D01*
X1465Y1439D01*
X1471Y1418D01*
X1476Y1400D01*
X1480Y1387D01*
X1482Y1380D01*
X1483Y1377D01*
X1485Y1380D01*
X1488Y1388D01*
X1493Y1401D01*
X1499Y1419D01*
X1506Y1440D01*
X1514Y1464D01*
X1522Y1489D01*
X1559Y1603D01*
X1584Y1604D01*
X1609Y1605D01*
X1646Y1490D01*
X1655Y1464D01*
X1663Y1440D01*
X1670Y1418D01*
X1676Y1400D01*
X1680Y1387D01*
X1683Y1378D01*
X1685Y1375D01*
X1686Y1378D01*
X1688Y1387D01*
X1692Y1401D01*
X1697Y1419D01*
X1703Y1440D01*
X1710Y1465D01*
X1717Y1490D01*
X1748Y1605D01*
X1784Y1605D01*
X1799Y1605D01*
X1810Y1605D01*
X1818Y1604D01*
X1820Y1604D01*
X1820Y1604D01*
X1820Y1604D01*
G37*
G36*
X2387Y1584D02*
X2385Y1578D01*
X2380Y1570D01*
X2370Y1558D01*
X2367Y1554D01*
X2342Y1526D01*
X2327Y1534D01*
X2309Y1540D01*
X2290Y1540D01*
X2272Y1536D01*
X2257Y1526D01*
X2244Y1512D01*
X2237Y1496D01*
X2236Y1489D01*
X2235Y1476D01*
X2234Y1458D01*
X2234Y1436D01*
X2234Y1409D01*
X2233Y1380D01*
X2233Y1377D01*
X2233Y1272D01*
X2200Y1272D01*
X2167Y1272D01*
X2167Y1438D01*
X2167Y1605D01*
X2200Y1605D01*
X2233Y1605D01*
X2233Y1588D01*
X2233Y1571D01*
X2245Y1581D01*
X2261Y1593D01*
X2277Y1601D01*
X2296Y1605D01*
X2320Y1607D01*
X2320Y1607D01*
X2336Y1606D01*
X2348Y1605D01*
X2357Y1603D01*
X2365Y1599D01*
X2365Y1599D01*
X2377Y1593D01*
X2384Y1588D01*
X2387Y1584D01*
X2387Y1584D01*
X2387Y1584D01*
G37*
G36*
X1540Y1904D02*
X1539Y1881D01*
X1532Y1859D01*
X1523Y1842D01*
X1513Y1831D01*
X1499Y1821D01*
X1483Y1811D01*
X1468Y1804D01*
X1467Y1803D01*
X1450Y1799D01*
X1429Y1796D01*
X1406Y1795D01*
X1384Y1795D01*
X1379Y1795D01*
X1344Y1802D01*
X1311Y1816D01*
X1289Y1828D01*
X1275Y1838D01*
X1265Y1845D01*
X1261Y1850D01*
X1262Y1856D01*
X1267Y1863D01*
X1276Y1873D01*
X1280Y1877D01*
X1303Y1900D01*
X1316Y1889D01*
X1340Y1873D01*
X1366Y1863D01*
X1394Y1859D01*
X1414Y1859D01*
X1435Y1861D01*
X1450Y1865D01*
X1460Y1872D01*
X1468Y1883D01*
X1469Y1884D01*
X1473Y1897D01*
X1471Y1909D01*
X1465Y1920D01*
X1458Y1925D01*
X1451Y1927D01*
X1439Y1929D01*
X1424Y1932D01*
X1406Y1934D01*
X1402Y1934D01*
X1382Y1937D01*
X1364Y1939D01*
X1349Y1942D01*
X1339Y1945D01*
X1338Y1945D01*
X1316Y1957D01*
X1299Y1972D01*
X1287Y1992D01*
X1280Y2016D01*
X1279Y2034D01*
X1282Y2060D01*
X1291Y2082D01*
X1305Y2100D01*
X1324Y2115D01*
X1348Y2126D01*
X1377Y2132D01*
X1393Y2134D01*
X1429Y2133D01*
X1463Y2126D01*
X1494Y2114D01*
X1520Y2099D01*
X1534Y2089D01*
X1513Y2065D01*
X1504Y2055D01*
X1496Y2047D01*
X1492Y2043D01*
X1490Y2042D01*
X1487Y2044D01*
X1479Y2048D01*
X1468Y2053D01*
X1467Y2054D01*
X1446Y2062D01*
X1424Y2068D01*
X1403Y2070D01*
X1383Y2069D01*
X1367Y2065D01*
X1360Y2061D01*
X1351Y2050D01*
X1347Y2037D01*
X1348Y2024D01*
X1350Y2018D01*
X1355Y2012D01*
X1364Y2007D01*
X1377Y2003D01*
X1395Y2001D01*
X1419Y1998D01*
X1420Y1998D01*
X1447Y1995D01*
X1469Y1991D01*
X1485Y1986D01*
X1499Y1979D01*
X1511Y1970D01*
X1515Y1966D01*
X1528Y1948D01*
X1536Y1927D01*
X1540Y1904D01*
X1540Y1904D01*
X1540Y1904D01*
G37*
G36*
X109Y1944D02*
X108Y1919D01*
X106Y1899D01*
X101Y1881D01*
X94Y1866D01*
X87Y1852D01*
X73Y1835D01*
X57Y1821D01*
X43Y1812D01*
X43Y1959D01*
X43Y1975D01*
X41Y1999D01*
X37Y2019D01*
X32Y2033D01*
X24Y2045D01*
X16Y2052D01*
X4Y2060D01*
X-7Y2064D01*
X-21Y2065D01*
X-27Y2065D01*
X-48Y2063D01*
X-65Y2055D01*
X-78Y2043D01*
X-88Y2025D01*
X-94Y2002D01*
X-96Y1973D01*
X-96Y1948D01*
X-93Y1923D01*
X-88Y1903D01*
X-80Y1888D01*
X-69Y1876D01*
X-55Y1868D01*
X-39Y1863D01*
X-21Y1863D01*
X-2Y1866D01*
X8Y1870D01*
X21Y1879D01*
X31Y1892D01*
X38Y1909D01*
X42Y1931D01*
X43Y1959D01*
X43Y1812D01*
X38Y1809D01*
X32Y1806D01*
X24Y1802D01*
X15Y1799D01*
X6Y1797D01*
X-8Y1796D01*
X-22Y1796D01*
X-42Y1796D01*
X-57Y1797D01*
X-68Y1799D01*
X-73Y1801D01*
X-98Y1813D01*
X-121Y1831D01*
X-130Y1841D01*
X-141Y1855D01*
X-150Y1870D01*
X-156Y1887D01*
X-160Y1908D01*
X-162Y1932D01*
X-163Y1962D01*
X-163Y1965D01*
X-163Y1994D01*
X-160Y2019D01*
X-156Y2039D01*
X-150Y2056D01*
X-142Y2072D01*
X-138Y2077D01*
X-120Y2099D01*
X-99Y2115D01*
X-74Y2126D01*
X-54Y2132D01*
X-23Y2135D01*
X6Y2131D01*
X33Y2122D01*
X58Y2106D01*
X79Y2085D01*
X83Y2080D01*
X92Y2068D01*
X98Y2056D01*
X102Y2043D01*
X105Y2027D01*
X107Y2008D01*
X109Y1983D01*
X109Y1974D01*
X109Y1944D01*
X109Y1944D01*
X109Y1944D01*
G37*
G36*
X753Y1938D02*
X686Y1938D01*
X686Y1995D01*
X683Y2010D01*
X676Y2032D01*
X665Y2049D01*
X649Y2062D01*
X631Y2068D01*
X615Y2070D01*
X596Y2068D01*
X580Y2061D01*
X566Y2050D01*
X566Y2049D01*
X558Y2038D01*
X551Y2024D01*
X547Y2010D01*
X547Y2003D01*
X547Y1995D01*
X616Y1995D01*
X686Y1995D01*
X686Y1938D01*
X649Y1938D01*
X546Y1938D01*
X548Y1923D01*
X553Y1903D01*
X563Y1885D01*
X573Y1874D01*
X589Y1864D01*
X609Y1859D01*
X630Y1859D01*
X651Y1862D01*
X671Y1870D01*
X688Y1882D01*
X689Y1882D01*
X693Y1886D01*
X696Y1887D01*
X701Y1886D01*
X707Y1881D01*
X716Y1874D01*
X726Y1866D01*
X736Y1857D01*
X742Y1850D01*
X743Y1845D01*
X740Y1839D01*
X731Y1832D01*
X719Y1823D01*
X696Y1809D01*
X671Y1800D01*
X642Y1796D01*
X625Y1795D01*
X610Y1796D01*
X595Y1797D01*
X583Y1799D01*
X580Y1800D01*
X557Y1808D01*
X538Y1819D01*
X523Y1832D01*
X507Y1851D01*
X494Y1873D01*
X486Y1900D01*
X481Y1930D01*
X480Y1963D01*
X482Y2000D01*
X487Y2031D01*
X497Y2059D01*
X511Y2082D01*
X529Y2102D01*
X551Y2118D01*
X576Y2128D01*
X602Y2133D01*
X629Y2133D01*
X655Y2128D01*
X680Y2118D01*
X702Y2104D01*
X721Y2085D01*
X736Y2062D01*
X737Y2060D01*
X744Y2042D01*
X749Y2023D01*
X752Y2001D01*
X753Y1975D01*
X753Y1971D01*
X753Y1938D01*
X753Y1938D01*
X753Y1938D01*
G37*
G36*
X1853Y1965D02*
X1852Y1937D01*
X1849Y1912D01*
X1845Y1889D01*
X1839Y1871D01*
X1839Y1870D01*
X1825Y1848D01*
X1807Y1828D01*
X1785Y1812D01*
X1784Y1811D01*
X1784Y1953D01*
X1784Y1964D01*
X1784Y1983D01*
X1784Y1997D01*
X1783Y2007D01*
X1781Y2014D01*
X1779Y2021D01*
X1776Y2029D01*
X1775Y2031D01*
X1763Y2047D01*
X1749Y2058D01*
X1730Y2064D01*
X1716Y2065D01*
X1694Y2063D01*
X1676Y2054D01*
X1662Y2041D01*
X1653Y2023D01*
X1650Y2014D01*
X1648Y1999D01*
X1647Y1980D01*
X1647Y1959D01*
X1648Y1939D01*
X1649Y1921D01*
X1652Y1908D01*
X1660Y1890D01*
X1673Y1876D01*
X1688Y1867D01*
X1690Y1866D01*
X1709Y1862D01*
X1729Y1863D01*
X1745Y1868D01*
X1758Y1875D01*
X1768Y1884D01*
X1775Y1895D01*
X1780Y1910D01*
X1783Y1929D01*
X1784Y1953D01*
X1784Y1811D01*
X1777Y1808D01*
X1767Y1803D01*
X1757Y1799D01*
X1748Y1797D01*
X1735Y1796D01*
X1720Y1796D01*
X1701Y1796D01*
X1687Y1796D01*
X1676Y1798D01*
X1668Y1801D01*
X1642Y1814D01*
X1619Y1832D01*
X1602Y1854D01*
X1589Y1880D01*
X1583Y1899D01*
X1581Y1915D01*
X1580Y1935D01*
X1580Y1958D01*
X1580Y1981D01*
X1581Y2003D01*
X1583Y2022D01*
X1585Y2033D01*
X1589Y2050D01*
X1594Y2063D01*
X1601Y2075D01*
X1612Y2087D01*
X1615Y2091D01*
X1637Y2111D01*
X1662Y2125D01*
X1690Y2132D01*
X1720Y2134D01*
X1725Y2134D01*
X1745Y2131D01*
X1761Y2128D01*
X1776Y2122D01*
X1791Y2113D01*
X1794Y2111D01*
X1815Y2093D01*
X1832Y2071D01*
X1843Y2047D01*
X1845Y2040D01*
X1849Y2018D01*
X1852Y1992D01*
X1853Y1965D01*
X1853Y1965D01*
X1853Y1965D01*
G37*
G36*
X2177Y1798D02*
X2142Y1798D01*
X2107Y1798D01*
X2107Y1815D01*
X2107Y1832D01*
X2092Y1819D01*
X2080Y1810D01*
X2068Y1803D01*
X2061Y1800D01*
X2046Y1797D01*
X2028Y1795D01*
X2010Y1796D01*
X1994Y1798D01*
X1986Y1800D01*
X1963Y1811D01*
X1942Y1828D01*
X1925Y1849D01*
X1919Y1861D01*
X1917Y1865D01*
X1916Y1870D01*
X1914Y1875D01*
X1913Y1882D01*
X1913Y1891D01*
X1912Y1903D01*
X1912Y1919D01*
X1911Y1940D01*
X1911Y1965D01*
X1911Y1996D01*
X1911Y2004D01*
X1910Y2132D01*
X1943Y2132D01*
X1977Y2132D01*
X1977Y2027D01*
X1977Y1994D01*
X1977Y1967D01*
X1978Y1945D01*
X1979Y1927D01*
X1980Y1914D01*
X1982Y1903D01*
X1985Y1895D01*
X1989Y1889D01*
X1993Y1883D01*
X1996Y1881D01*
X2012Y1869D01*
X2030Y1863D01*
X2049Y1862D01*
X2067Y1866D01*
X2083Y1875D01*
X2096Y1889D01*
X2105Y1903D01*
X2107Y2016D01*
X2108Y2130D01*
X2143Y2131D01*
X2177Y2132D01*
X2177Y1965D01*
X2177Y1798D01*
X2177Y1798D01*
X2177Y1798D01*
G37*
G36*
X2737Y2077D02*
X2716Y2059D01*
X2704Y2048D01*
X2696Y2041D01*
X2690Y2038D01*
X2685Y2037D01*
X2680Y2040D01*
X2674Y2045D01*
X2655Y2057D01*
X2634Y2064D01*
X2615Y2065D01*
X2591Y2063D01*
X2571Y2055D01*
X2555Y2041D01*
X2544Y2023D01*
X2537Y2000D01*
X2534Y1972D01*
X2534Y1953D01*
X2537Y1927D01*
X2543Y1906D01*
X2553Y1889D01*
X2567Y1876D01*
X2571Y1874D01*
X2591Y1865D01*
X2614Y1862D01*
X2636Y1864D01*
X2657Y1872D01*
X2674Y1884D01*
X2687Y1896D01*
X2710Y1875D01*
X2720Y1865D01*
X2728Y1858D01*
X2733Y1853D01*
X2733Y1852D01*
X2731Y1847D01*
X2724Y1840D01*
X2714Y1831D01*
X2702Y1822D01*
X2690Y1814D01*
X2679Y1808D01*
X2677Y1807D01*
X2666Y1802D01*
X2657Y1799D01*
X2647Y1797D01*
X2634Y1796D01*
X2620Y1796D01*
X2598Y1796D01*
X2581Y1797D01*
X2572Y1799D01*
X2542Y1812D01*
X2517Y1829D01*
X2497Y1851D01*
X2482Y1877D01*
X2472Y1907D01*
X2468Y1925D01*
X2467Y1947D01*
X2466Y1971D01*
X2467Y1994D01*
X2470Y2014D01*
X2472Y2021D01*
X2483Y2052D01*
X2499Y2079D01*
X2519Y2100D01*
X2544Y2117D01*
X2573Y2128D01*
X2594Y2133D01*
X2624Y2134D01*
X2654Y2129D01*
X2683Y2118D01*
X2709Y2102D01*
X2719Y2093D01*
X2737Y2077D01*
X2737Y2077D01*
X2737Y2077D01*
G37*
G36*
X3027Y1938D02*
X2960Y1938D01*
X2960Y1995D01*
X2958Y2004D01*
X2952Y2025D01*
X2946Y2041D01*
X2937Y2052D01*
X2926Y2060D01*
X2924Y2061D01*
X2905Y2069D01*
X2887Y2070D01*
X2869Y2067D01*
X2851Y2058D01*
X2836Y2045D01*
X2826Y2026D01*
X2821Y2009D01*
X2819Y1995D01*
X2890Y1995D01*
X2960Y1995D01*
X2960Y1938D01*
X2923Y1938D01*
X2819Y1938D01*
X2821Y1923D01*
X2827Y1901D01*
X2838Y1883D01*
X2854Y1870D01*
X2873Y1862D01*
X2888Y1859D01*
X2913Y1860D01*
X2935Y1865D01*
X2955Y1877D01*
X2956Y1877D01*
X2964Y1883D01*
X2970Y1887D01*
X2972Y1888D01*
X2975Y1886D01*
X2982Y1881D01*
X2991Y1873D01*
X2997Y1868D01*
X3021Y1848D01*
X3011Y1838D01*
X2994Y1824D01*
X2974Y1811D01*
X2951Y1802D01*
X2950Y1801D01*
X2933Y1798D01*
X2913Y1796D01*
X2891Y1795D01*
X2870Y1796D01*
X2855Y1799D01*
X2838Y1805D01*
X2820Y1814D01*
X2803Y1826D01*
X2789Y1839D01*
X2786Y1844D01*
X2773Y1864D01*
X2763Y1887D01*
X2757Y1913D01*
X2754Y1944D01*
X2753Y1965D01*
X2756Y2002D01*
X2762Y2035D01*
X2773Y2064D01*
X2789Y2088D01*
X2799Y2099D01*
X2822Y2116D01*
X2848Y2127D01*
X2875Y2133D01*
X2902Y2133D01*
X2929Y2128D01*
X2954Y2118D01*
X2977Y2103D01*
X2997Y2083D01*
X3008Y2067D01*
X3017Y2048D01*
X3023Y2027D01*
X3026Y2002D01*
X3027Y1976D01*
X3027Y1938D01*
X3027Y1938D01*
X3027Y1938D01*
G37*
G36*
X1077Y1798D02*
X1042Y1798D01*
X1007Y1798D01*
X1007Y1907D01*
X1006Y1938D01*
X1006Y1962D01*
X1006Y1981D01*
X1006Y1996D01*
X1005Y2007D01*
X1004Y2015D01*
X1003Y2022D01*
X1002Y2026D01*
X1000Y2030D01*
X990Y2046D01*
X976Y2058D01*
X961Y2063D01*
X940Y2066D01*
X920Y2062D01*
X903Y2053D01*
X889Y2039D01*
X886Y2034D01*
X884Y2030D01*
X882Y2026D01*
X881Y2022D01*
X880Y2016D01*
X879Y2008D01*
X879Y1997D01*
X878Y1982D01*
X878Y1963D01*
X878Y1939D01*
X877Y1909D01*
X876Y1798D01*
X843Y1798D01*
X810Y1798D01*
X810Y1965D01*
X810Y2132D01*
X843Y2132D01*
X877Y2132D01*
X877Y2113D01*
X877Y2094D01*
X890Y2106D01*
X903Y2117D01*
X916Y2124D01*
X931Y2129D01*
X944Y2132D01*
X971Y2134D01*
X996Y2129D01*
X1019Y2119D01*
X1039Y2104D01*
X1056Y2085D01*
X1068Y2062D01*
X1073Y2042D01*
X1074Y2034D01*
X1075Y2021D01*
X1075Y2003D01*
X1076Y1980D01*
X1076Y1955D01*
X1077Y1928D01*
X1077Y1911D01*
X1077Y1798D01*
X1077Y1798D01*
X1077Y1798D01*
G37*
G36*
X2470Y2109D02*
X2469Y2104D01*
X2463Y2096D01*
X2453Y2084D01*
X2450Y2080D01*
X2440Y2069D01*
X2432Y2060D01*
X2427Y2053D01*
X2425Y2052D01*
X2421Y2053D01*
X2415Y2057D01*
X2399Y2064D01*
X2381Y2066D01*
X2363Y2063D01*
X2345Y2056D01*
X2331Y2044D01*
X2323Y2030D01*
X2321Y2026D01*
X2320Y2021D01*
X2319Y2015D01*
X2318Y2006D01*
X2318Y1994D01*
X2317Y1979D01*
X2317Y1959D01*
X2317Y1934D01*
X2317Y1907D01*
X2317Y1798D01*
X2283Y1798D01*
X2250Y1798D01*
X2250Y1965D01*
X2250Y2132D01*
X2283Y2132D01*
X2317Y2132D01*
X2317Y2115D01*
X2317Y2097D01*
X2328Y2106D01*
X2350Y2121D01*
X2374Y2130D01*
X2401Y2133D01*
X2402Y2133D01*
X2417Y2133D01*
X2429Y2131D01*
X2439Y2128D01*
X2447Y2124D01*
X2459Y2118D01*
X2467Y2114D01*
X2470Y2109D01*
X2470Y2109D01*
X2470Y2109D01*
G37*
G36*
X2673Y3345D02*
X2673Y3314D01*
X2673Y3289D01*
X2673Y3268D01*
X2673Y3252D01*
X2672Y3240D01*
X2672Y3231D01*
X2671Y3225D01*
X2670Y3220D01*
X2669Y3217D01*
X2668Y3215D01*
X2665Y3214D01*
X2662Y3212D01*
X2656Y3210D01*
X2647Y3207D01*
X2635Y3205D01*
X2619Y3201D01*
X2599Y3197D01*
X2573Y3192D01*
X2543Y3186D01*
X2508Y3180D01*
X2472Y3173D01*
X2441Y3167D01*
X2416Y3163D01*
X2395Y3158D01*
X2380Y3155D01*
X2368Y3152D01*
X2359Y3150D01*
X2354Y3148D01*
X2351Y3146D01*
X2350Y3145D01*
X2347Y3140D01*
X2342Y3130D01*
X2336Y3115D01*
X2328Y3097D01*
X2319Y3076D01*
X2310Y3053D01*
X2300Y3028D01*
X2290Y3004D01*
X2281Y2980D01*
X2272Y2957D01*
X2264Y2937D01*
X2258Y2919D01*
X2253Y2906D01*
X2251Y2897D01*
X2250Y2895D01*
X2252Y2890D01*
X2258Y2879D01*
X2268Y2863D01*
X2282Y2842D01*
X2299Y2815D01*
X2321Y2783D01*
X2337Y2760D01*
X2354Y2734D01*
X2371Y2710D01*
X2386Y2687D01*
X2399Y2667D01*
X2409Y2651D01*
X2417Y2638D01*
X2422Y2630D01*
X2423Y2627D01*
X2421Y2623D01*
X2415Y2615D01*
X2404Y2604D01*
X2391Y2590D01*
X2375Y2573D01*
X2357Y2555D01*
X2338Y2535D01*
X2318Y2514D01*
X2297Y2493D01*
X2277Y2473D01*
X2257Y2454D01*
X2239Y2436D01*
X2222Y2420D01*
X2208Y2407D01*
X2197Y2397D01*
X2190Y2390D01*
X2186Y2388D01*
X2182Y2390D01*
X2174Y2395D01*
X2161Y2404D01*
X2144Y2415D01*
X2124Y2428D01*
X2101Y2443D01*
X2077Y2460D01*
X2056Y2474D01*
X2022Y2497D01*
X1993Y2517D01*
X1968Y2533D01*
X1949Y2545D01*
X1935Y2554D01*
X1926Y2558D01*
X1923Y2559D01*
X1918Y2558D01*
X1907Y2554D01*
X1893Y2547D01*
X1877Y2539D01*
X1859Y2529D01*
X1857Y2529D01*
X1836Y2517D01*
X1821Y2509D01*
X1809Y2504D01*
X1801Y2501D01*
X1796Y2501D01*
X1795Y2501D01*
X1793Y2504D01*
X1788Y2513D01*
X1782Y2528D01*
X1774Y2546D01*
X1764Y2569D01*
X1753Y2595D01*
X1740Y2624D01*
X1727Y2655D01*
X1713Y2689D01*
X1698Y2723D01*
X1684Y2758D01*
X1669Y2794D01*
X1654Y2829D01*
X1640Y2863D01*
X1626Y2896D01*
X1614Y2927D01*
X1602Y2955D01*
X1592Y2981D01*
X1583Y3002D01*
X1576Y3020D01*
X1571Y3033D01*
X1568Y3041D01*
X1568Y3042D01*
X1568Y3048D01*
X1570Y3053D01*
X1578Y3059D01*
X1580Y3061D01*
X1606Y3079D01*
X1630Y3098D01*
X1653Y3116D01*
X1672Y3132D01*
X1684Y3144D01*
X1714Y3181D01*
X1738Y3221D01*
X1757Y3264D01*
X1769Y3309D01*
X1776Y3356D01*
X1777Y3381D01*
X1773Y3428D01*
X1764Y3473D01*
X1749Y3516D01*
X1729Y3556D01*
X1703Y3593D01*
X1673Y3627D01*
X1639Y3656D01*
X1601Y3681D01*
X1560Y3701D01*
X1515Y3715D01*
X1491Y3720D01*
X1444Y3725D01*
X1398Y3724D01*
X1353Y3716D01*
X1310Y3703D01*
X1270Y3685D01*
X1232Y3662D01*
X1197Y3634D01*
X1167Y3601D01*
X1140Y3565D01*
X1118Y3524D01*
X1102Y3481D01*
X1093Y3448D01*
X1087Y3402D01*
X1087Y3355D01*
X1094Y3309D01*
X1106Y3265D01*
X1125Y3222D01*
X1148Y3183D01*
X1178Y3146D01*
X1179Y3144D01*
X1194Y3130D01*
X1213Y3113D01*
X1236Y3095D01*
X1261Y3076D01*
X1284Y3061D01*
X1292Y3054D01*
X1295Y3049D01*
X1296Y3044D01*
X1295Y3042D01*
X1294Y3037D01*
X1290Y3026D01*
X1283Y3010D01*
X1275Y2990D01*
X1266Y2966D01*
X1254Y2938D01*
X1242Y2908D01*
X1229Y2876D01*
X1215Y2843D01*
X1200Y2808D01*
X1185Y2772D01*
X1171Y2737D01*
X1156Y2702D01*
X1142Y2668D01*
X1128Y2636D01*
X1115Y2606D01*
X1103Y2579D01*
X1093Y2555D01*
X1084Y2534D01*
X1077Y2518D01*
X1072Y2507D01*
X1069Y2502D01*
X1069Y2501D01*
X1065Y2501D01*
X1059Y2502D01*
X1049Y2506D01*
X1035Y2513D01*
X1017Y2523D01*
X1006Y2529D01*
X988Y2538D01*
X971Y2547D01*
X957Y2553D01*
X946Y2558D01*
X940Y2559D01*
X940Y2559D01*
X935Y2557D01*
X924Y2551D01*
X909Y2542D01*
X888Y2528D01*
X862Y2511D01*
X831Y2490D01*
X807Y2474D01*
X781Y2456D01*
X757Y2440D01*
X735Y2425D01*
X716Y2412D01*
X700Y2402D01*
X687Y2394D01*
X680Y2389D01*
X677Y2388D01*
X674Y2391D01*
X666Y2397D01*
X655Y2408D01*
X640Y2421D01*
X623Y2438D01*
X603Y2457D01*
X582Y2478D01*
X559Y2501D01*
X556Y2504D01*
X525Y2535D01*
X499Y2562D01*
X477Y2584D01*
X461Y2601D01*
X449Y2614D01*
X442Y2623D01*
X440Y2627D01*
X442Y2631D01*
X447Y2640D01*
X455Y2653D01*
X466Y2670D01*
X480Y2690D01*
X495Y2713D01*
X512Y2738D01*
X527Y2760D01*
X551Y2795D01*
X571Y2825D01*
X587Y2850D01*
X600Y2869D01*
X608Y2883D01*
X612Y2892D01*
X613Y2895D01*
X612Y2900D01*
X609Y2910D01*
X603Y2925D01*
X596Y2943D01*
X588Y2965D01*
X579Y2988D01*
X570Y3012D01*
X560Y3037D01*
X550Y3061D01*
X541Y3083D01*
X533Y3104D01*
X525Y3121D01*
X519Y3134D01*
X515Y3143D01*
X514Y3145D01*
X511Y3147D01*
X507Y3149D01*
X500Y3151D01*
X490Y3154D01*
X476Y3157D01*
X458Y3160D01*
X436Y3165D01*
X408Y3170D01*
X374Y3176D01*
X355Y3180D01*
X319Y3187D01*
X288Y3193D01*
X263Y3197D01*
X243Y3201D01*
X228Y3205D01*
X216Y3208D01*
X207Y3210D01*
X201Y3212D01*
X198Y3214D01*
X196Y3215D01*
X194Y3217D01*
X193Y3220D01*
X192Y3225D01*
X192Y3231D01*
X191Y3240D01*
X191Y3253D01*
X190Y3269D01*
X190Y3289D01*
X190Y3315D01*
X190Y3346D01*
X190Y3382D01*
X190Y3419D01*
X190Y3449D01*
X190Y3475D01*
X190Y3495D01*
X191Y3511D01*
X191Y3523D01*
X192Y3532D01*
X192Y3539D01*
X193Y3543D01*
X194Y3546D01*
X196Y3548D01*
X198Y3550D01*
X202Y3551D01*
X209Y3554D01*
X218Y3556D01*
X231Y3559D01*
X247Y3562D01*
X269Y3567D01*
X295Y3572D01*
X327Y3578D01*
X356Y3583D01*
X387Y3589D01*
X417Y3595D01*
X444Y3600D01*
X468Y3604D01*
X487Y3608D01*
X503Y3612D01*
X513Y3614D01*
X516Y3615D01*
X518Y3616D01*
X520Y3617D01*
X522Y3620D01*
X524Y3623D01*
X527Y3629D01*
X531Y3638D01*
X537Y3650D01*
X544Y3665D01*
X552Y3686D01*
X563Y3711D01*
X575Y3738D01*
X588Y3768D01*
X598Y3793D01*
X606Y3812D01*
X613Y3827D01*
X617Y3839D01*
X620Y3848D01*
X621Y3854D01*
X622Y3858D01*
X621Y3862D01*
X620Y3865D01*
X620Y3866D01*
X617Y3870D01*
X611Y3879D01*
X602Y3892D01*
X590Y3910D01*
X576Y3930D01*
X561Y3953D01*
X544Y3978D01*
X528Y4001D01*
X510Y4027D01*
X493Y4052D01*
X478Y4075D01*
X465Y4095D01*
X454Y4111D01*
X446Y4124D01*
X441Y4133D01*
X440Y4136D01*
X442Y4140D01*
X449Y4148D01*
X459Y4160D01*
X472Y4174D01*
X488Y4191D01*
X506Y4210D01*
X526Y4229D01*
X546Y4250D01*
X567Y4270D01*
X587Y4291D01*
X607Y4310D01*
X625Y4328D01*
X642Y4343D01*
X656Y4356D01*
X667Y4366D01*
X675Y4372D01*
X679Y4374D01*
X683Y4372D01*
X692Y4367D01*
X705Y4358D01*
X722Y4347D01*
X742Y4333D01*
X765Y4318D01*
X790Y4301D01*
X817Y4282D01*
X820Y4281D01*
X855Y4256D01*
X885Y4236D01*
X910Y4220D01*
X930Y4207D01*
X945Y4197D01*
X956Y4191D01*
X962Y4189D01*
X963Y4188D01*
X968Y4190D01*
X978Y4193D01*
X993Y4199D01*
X1012Y4206D01*
X1034Y4215D01*
X1059Y4224D01*
X1080Y4233D01*
X1112Y4246D01*
X1138Y4257D01*
X1158Y4266D01*
X1174Y4273D01*
X1185Y4279D01*
X1191Y4283D01*
X1194Y4285D01*
X1196Y4290D01*
X1199Y4301D01*
X1203Y4316D01*
X1207Y4338D01*
X1213Y4366D01*
X1219Y4400D01*
X1227Y4440D01*
X1228Y4448D01*
X1234Y4480D01*
X1240Y4510D01*
X1245Y4537D01*
X1250Y4561D01*
X1254Y4582D01*
X1257Y4597D01*
X1259Y4608D01*
X1260Y4613D01*
X1264Y4622D01*
X1432Y4622D01*
X1599Y4622D01*
X1603Y4613D01*
X1604Y4607D01*
X1606Y4597D01*
X1610Y4580D01*
X1614Y4560D01*
X1619Y4535D01*
X1624Y4508D01*
X1629Y4478D01*
X1635Y4448D01*
X1643Y4407D01*
X1649Y4372D01*
X1655Y4343D01*
X1660Y4320D01*
X1664Y4303D01*
X1667Y4292D01*
X1669Y4286D01*
X1670Y4285D01*
X1673Y4282D01*
X1681Y4278D01*
X1692Y4272D01*
X1708Y4265D01*
X1729Y4255D01*
X1756Y4244D01*
X1784Y4233D01*
X1809Y4222D01*
X1833Y4213D01*
X1854Y4205D01*
X1873Y4198D01*
X1887Y4193D01*
X1896Y4189D01*
X1900Y4188D01*
X1902Y4188D01*
X1904Y4189D01*
X1907Y4189D01*
X1910Y4191D01*
X1915Y4193D01*
X1921Y4197D01*
X1930Y4203D01*
X1941Y4211D01*
X1956Y4220D01*
X1974Y4233D01*
X1996Y4248D01*
X2023Y4266D01*
X2055Y4288D01*
X2061Y4293D01*
X2086Y4310D01*
X2110Y4326D01*
X2131Y4340D01*
X2150Y4352D01*
X2165Y4362D01*
X2176Y4370D01*
X2183Y4374D01*
X2184Y4374D01*
X2188Y4372D01*
X2196Y4366D01*
X2207Y4356D01*
X2221Y4343D01*
X2238Y4328D01*
X2256Y4310D01*
X2276Y4291D01*
X2297Y4270D01*
X2317Y4250D01*
X2338Y4229D01*
X2357Y4210D01*
X2375Y4191D01*
X2391Y4174D01*
X2404Y4160D01*
X2415Y4148D01*
X2421Y4140D01*
X2423Y4136D01*
X2422Y4132D01*
X2416Y4123D01*
X2408Y4110D01*
X2397Y4093D01*
X2384Y4072D01*
X2368Y4050D01*
X2352Y4025D01*
X2335Y4000D01*
X2317Y3973D01*
X2300Y3949D01*
X2284Y3926D01*
X2271Y3906D01*
X2260Y3889D01*
X2251Y3875D01*
X2245Y3867D01*
X2243Y3863D01*
X2242Y3860D01*
X2242Y3857D01*
X2242Y3853D01*
X2243Y3848D01*
X2246Y3840D01*
X2250Y3830D01*
X2255Y3816D01*
X2263Y3798D01*
X2272Y3776D01*
X2284Y3748D01*
X2288Y3738D01*
X2301Y3708D01*
X2312Y3684D01*
X2320Y3664D01*
X2327Y3649D01*
X2332Y3637D01*
X2336Y3629D01*
X2339Y3623D01*
X2342Y3619D01*
X2343Y3617D01*
X2345Y3616D01*
X2347Y3615D01*
X2351Y3614D01*
X2362Y3611D01*
X2377Y3608D01*
X2397Y3604D01*
X2421Y3600D01*
X2448Y3594D01*
X2478Y3589D01*
X2507Y3583D01*
X2544Y3576D01*
X2575Y3571D01*
X2600Y3566D01*
X2620Y3562D01*
X2636Y3558D01*
X2648Y3555D01*
X2656Y3553D01*
X2662Y3551D01*
X2666Y3549D01*
X2668Y3548D01*
X2669Y3546D01*
X2670Y3543D01*
X2671Y3539D01*
X2672Y3532D01*
X2672Y3523D01*
X2673Y3511D01*
X2673Y3495D01*
X2673Y3474D01*
X2673Y3449D01*
X2673Y3418D01*
X2673Y3382D01*
X2673Y3345D01*
X2673Y3345D01*
X2673Y3345D01*
G37*
G54D10*
X4065Y4010D02*
X3856Y4024D01*
X3986Y3874D02*
X3645Y4071D01*
X3697Y4161D01*
X3727Y4175D01*
X3749Y4177D01*
X3789Y4169D01*
X3837Y4141D01*
X3863Y4111D01*
X3873Y4090D01*
X3876Y4058D01*
X3823Y3967D01*
X3770Y4286D02*
X3861Y4446D01*
X4143Y4146D01*
X-1340Y3525D02*
X-999Y3721D01*
X-966Y3665D01*
X-963Y3621D01*
X-982Y3580D01*
X-1008Y3550D01*
X-1066Y3501D01*
X-1115Y3473D01*
X-1186Y3446D01*
X-1226Y3439D01*
X-1271Y3443D01*
X-1307Y3468D01*
X-1340Y3525D01*
X-1130Y3161D02*
X-1209Y3297D01*
X-1169Y3229D02*
X-828Y3426D01*
X-890Y3421D01*
X-936Y3425D01*
X-965Y3438D01*
X-743Y3278D02*
X-658Y3130D01*
X-833Y3135D01*
X-814Y3101D01*
X-817Y3069D01*
X-827Y3048D01*
X-852Y3018D01*
X-934Y2971D01*
X-973Y2964D01*
X-996Y2966D01*
X-1025Y2979D01*
X-1064Y3047D01*
X-1061Y3079D01*
X-1051Y3100D01*
X-3199Y4355D02*
X-3245Y4434D01*
X-3424Y4331D02*
X-3083Y4528D01*
X-3017Y4414D01*
X-3234Y4001D02*
X-3312Y4138D01*
X-3273Y4070D02*
X-2932Y4266D01*
X-2994Y4261D01*
X-3040Y4265D01*
X-3069Y4278D01*
X-1414Y1325D02*
X-1414Y1719D01*
X-1125Y1363D02*
X-1138Y1344D01*
X-1177Y1325D01*
X-1204Y1325D01*
X-1243Y1344D01*
X-1269Y1381D01*
X-1282Y1419D01*
X-1295Y1494D01*
X-1295Y1550D01*
X-1282Y1625D01*
X-1269Y1663D01*
X-1243Y1700D01*
X-1204Y1719D01*
X-1177Y1719D01*
X-1138Y1700D01*
X-1125Y1681D01*
X-862Y1325D02*
X-1020Y1325D01*
X-941Y1325D02*
X-941Y1719D01*
X-967Y1663D01*
X-994Y1625D01*
X-1020Y1606D01*
X-2534Y7717D02*
X-2534Y8110D01*
X-2469Y8110D01*
X-2429Y8092D01*
X-2403Y8054D01*
X-2390Y8017D01*
X-2377Y7942D01*
X-2377Y7885D01*
X-2390Y7810D01*
X-2403Y7773D01*
X-2429Y7736D01*
X-2469Y7717D01*
X-2534Y7717D01*
X-2114Y7717D02*
X-2272Y7717D01*
X-2193Y7717D02*
X-2193Y8110D01*
X-2219Y8054D01*
X-2245Y8017D01*
X-2272Y7998D01*
X-2009Y8073D02*
X-1996Y8092D01*
X-1970Y8110D01*
X-1904Y8110D01*
X-1878Y8092D01*
X-1865Y8073D01*
X-1852Y8035D01*
X-1852Y7998D01*
X-1865Y7942D01*
X-2022Y7717D01*
X-1852Y7717D01*
X1489Y6593D02*
X1463Y6612D01*
X1423Y6612D01*
X1384Y6593D01*
X1358Y6556D01*
X1345Y6518D01*
X1332Y6443D01*
X1332Y6387D01*
X1345Y6312D01*
X1358Y6274D01*
X1384Y6237D01*
X1423Y6218D01*
X1450Y6218D01*
X1489Y6237D01*
X1502Y6256D01*
X1502Y6387D01*
X1450Y6387D01*
X1502Y6887D02*
X1410Y7075D01*
X1345Y6887D02*
X1345Y7281D01*
X1450Y7281D01*
X1476Y7262D01*
X1489Y7244D01*
X1502Y7206D01*
X1502Y7150D01*
X1489Y7112D01*
X1476Y7094D01*
X1450Y7075D01*
X1345Y7075D01*
X1437Y7842D02*
X1476Y7823D01*
X1489Y7804D01*
X1502Y7767D01*
X1502Y7710D01*
X1489Y7673D01*
X1476Y7654D01*
X1450Y7635D01*
X1345Y7635D01*
X1345Y8029D01*
X1437Y8029D01*
X1463Y8010D01*
X1476Y7992D01*
X1489Y7954D01*
X1489Y7917D01*
X1476Y7879D01*
X1463Y7860D01*
X1437Y7842D01*
X1345Y7842D01*
X-1489Y6887D02*
X-1489Y7281D01*
X-1332Y6887D02*
X-1450Y7112D01*
X-1332Y7281D02*
X-1489Y7056D01*
X-5860Y5324D02*
X-6056Y5665D01*
X-6000Y5698D01*
X-5956Y5701D01*
X-5915Y5682D01*
X-5885Y5656D01*
X-5836Y5598D01*
X-5808Y5549D01*
X-5781Y5478D01*
X-5774Y5438D01*
X-5778Y5393D01*
X-5803Y5357D01*
X-5860Y5324D01*
X-5496Y5534D02*
X-5632Y5455D01*
X-5564Y5495D02*
X-5761Y5836D01*
X-5756Y5774D01*
X-5760Y5728D01*
X-5773Y5699D01*
X-5269Y5665D02*
X-5405Y5587D01*
X-5337Y5626D02*
X-5534Y5967D01*
X-5528Y5905D01*
X-5532Y5860D01*
X-5546Y5830D01*
X-2006Y6459D02*
X-2038Y6462D01*
X-2073Y6442D01*
X-2097Y6406D01*
X-2101Y6361D01*
X-2094Y6322D01*
X-2068Y6250D01*
X-2040Y6202D01*
X-1991Y6143D01*
X-1961Y6117D01*
X-1919Y6098D01*
X-1876Y6101D01*
X-1853Y6115D01*
X-1828Y6150D01*
X-1826Y6173D01*
X-1892Y6287D01*
X-1937Y6261D01*
X-2142Y6720D02*
X-2315Y6837D01*
X-2279Y6642D02*
X-2475Y6983D01*
X-2384Y7035D01*
X-2352Y7032D01*
X-2332Y7022D01*
X-2301Y6996D01*
X-2273Y6948D01*
X-2266Y6909D01*
X-2268Y6886D01*
X-2281Y6857D01*
X-2372Y6804D01*
X-2676Y7514D02*
X-2633Y7517D01*
X-2612Y7508D01*
X-2582Y7482D01*
X-2554Y7433D01*
X-2546Y7394D01*
X-2548Y7371D01*
X-2562Y7342D01*
X-2653Y7290D01*
X-2849Y7630D01*
X-2770Y7676D01*
X-2738Y7673D01*
X-2717Y7664D01*
X-2687Y7638D01*
X-2668Y7605D01*
X-2661Y7566D01*
X-2663Y7543D01*
X-2676Y7514D01*
X-2756Y7468D01*
X-4733Y5224D02*
X-4930Y5565D01*
X-4597Y5303D02*
X-4812Y5439D01*
X-4794Y5644D02*
X-4818Y5371D01*
X-7814Y1635D02*
X-8155Y1832D01*
X-8122Y1889D01*
X-8086Y1913D01*
X-8040Y1917D01*
X-8001Y1910D01*
X-7930Y1884D01*
X-7881Y1856D01*
X-7823Y1807D01*
X-7797Y1777D01*
X-7778Y1735D01*
X-7781Y1692D01*
X-7814Y1635D01*
X-7604Y1999D02*
X-7683Y1862D01*
X-7643Y1931D02*
X-7984Y2127D01*
X-7949Y2077D01*
X-7929Y2035D01*
X-7926Y2003D01*
X-7859Y2343D02*
X-7846Y2366D01*
X-7817Y2379D01*
X-7794Y2381D01*
X-7755Y2374D01*
X-7684Y2348D01*
X-7602Y2301D01*
X-7544Y2252D01*
X-7518Y2222D01*
X-7509Y2201D01*
X-7505Y2169D01*
X-7519Y2146D01*
X-7548Y2133D01*
X-7571Y2131D01*
X-7610Y2138D01*
X-7681Y2165D01*
X-7762Y2211D01*
X-7821Y2260D01*
X-7847Y2290D01*
X-7856Y2311D01*
X-7859Y2343D01*
X-4969Y4586D02*
X-4999Y4573D01*
X-5019Y4539D01*
X-5022Y4495D01*
X-5003Y4454D01*
X-4977Y4424D01*
X-4918Y4375D01*
X-4870Y4347D01*
X-4798Y4321D01*
X-4759Y4313D01*
X-4713Y4317D01*
X-4678Y4342D01*
X-4664Y4365D01*
X-4661Y4408D01*
X-4671Y4429D01*
X-4784Y4494D01*
X-4811Y4449D01*
X-5218Y4745D02*
X-5426Y4759D01*
X-5297Y4608D02*
X-5638Y4805D01*
X-5585Y4896D01*
X-5556Y4910D01*
X-5533Y4911D01*
X-5494Y4904D01*
X-5445Y4876D01*
X-5419Y4846D01*
X-5410Y4825D01*
X-5406Y4793D01*
X-5459Y4702D01*
X-6077Y5165D02*
X-6041Y5190D01*
X-6018Y5192D01*
X-5979Y5184D01*
X-5931Y5156D01*
X-5905Y5126D01*
X-5895Y5105D01*
X-5892Y5073D01*
X-5944Y4982D01*
X-6285Y5179D01*
X-6239Y5259D01*
X-6210Y5272D01*
X-6187Y5274D01*
X-6148Y5267D01*
X-6116Y5248D01*
X-6090Y5218D01*
X-6080Y5197D01*
X-6077Y5165D01*
X-6123Y5086D01*
X-6714Y2153D02*
X-7055Y2350D01*
X-6635Y2290D02*
X-6889Y2300D01*
X-6976Y2487D02*
X-6860Y2238D01*
X-7540Y-2303D02*
X-7934Y-2303D01*
X-7934Y-2237D01*
X-7915Y-2198D01*
X-7878Y-2172D01*
X-7840Y-2159D01*
X-7765Y-2145D01*
X-7709Y-2145D01*
X-7634Y-2159D01*
X-7596Y-2172D01*
X-7559Y-2198D01*
X-7540Y-2237D01*
X-7540Y-2303D01*
X-7540Y-2014D02*
X-7540Y-1962D01*
X-7559Y-1935D01*
X-7578Y-1922D01*
X-7634Y-1896D01*
X-7709Y-1883D01*
X-7859Y-1883D01*
X-7896Y-1896D01*
X-7915Y-1909D01*
X-7934Y-1935D01*
X-7934Y-1988D01*
X-7915Y-2014D01*
X-7896Y-2027D01*
X-7859Y-2040D01*
X-7765Y-2040D01*
X-7728Y-2027D01*
X-7709Y-2014D01*
X-7690Y-1988D01*
X-7690Y-1935D01*
X-7709Y-1909D01*
X-7728Y-1896D01*
X-7765Y-1883D01*
X-6593Y1489D02*
X-6612Y1463D01*
X-6612Y1423D01*
X-6593Y1384D01*
X-6556Y1358D01*
X-6518Y1345D01*
X-6443Y1332D01*
X-6387Y1332D01*
X-6312Y1345D01*
X-6274Y1358D01*
X-6237Y1384D01*
X-6218Y1423D01*
X-6218Y1450D01*
X-6237Y1489D01*
X-6256Y1502D01*
X-6387Y1502D01*
X-6387Y1450D01*
X-6887Y1502D02*
X-7075Y1410D01*
X-6887Y1345D02*
X-7281Y1345D01*
X-7281Y1450D01*
X-7262Y1476D01*
X-7244Y1489D01*
X-7206Y1502D01*
X-7150Y1502D01*
X-7112Y1489D01*
X-7094Y1476D01*
X-7075Y1450D01*
X-7075Y1345D01*
X-7842Y1437D02*
X-7823Y1476D01*
X-7804Y1489D01*
X-7767Y1502D01*
X-7710Y1502D01*
X-7673Y1489D01*
X-7654Y1476D01*
X-7635Y1450D01*
X-7635Y1345D01*
X-8029Y1345D01*
X-8029Y1437D01*
X-8010Y1463D01*
X-7992Y1476D01*
X-7954Y1489D01*
X-7917Y1489D01*
X-7879Y1476D01*
X-7860Y1463D01*
X-7842Y1437D01*
X-7842Y1345D01*
X-6887Y-1489D02*
X-7281Y-1489D01*
X-6887Y-1332D02*
X-7112Y-1450D01*
X-7281Y-1332D02*
X-7056Y-1489D01*
X-5904Y-5603D02*
X-5563Y-5406D01*
X-5530Y-5463D01*
X-5527Y-5506D01*
X-5546Y-5548D01*
X-5572Y-5578D01*
X-5631Y-5627D01*
X-5679Y-5655D01*
X-5751Y-5681D01*
X-5790Y-5689D01*
X-5835Y-5685D01*
X-5871Y-5660D01*
X-5904Y-5603D01*
X-5552Y-5763D02*
X-5549Y-5731D01*
X-5539Y-5710D01*
X-5513Y-5680D01*
X-5497Y-5671D01*
X-5458Y-5664D01*
X-5435Y-5666D01*
X-5406Y-5679D01*
X-5380Y-5724D01*
X-5383Y-5756D01*
X-5392Y-5777D01*
X-5418Y-5807D01*
X-5434Y-5817D01*
X-5473Y-5824D01*
X-5496Y-5822D01*
X-5526Y-5809D01*
X-5552Y-5763D01*
X-5581Y-5750D01*
X-5604Y-5748D01*
X-5643Y-5755D01*
X-5708Y-5793D01*
X-5734Y-5823D01*
X-5744Y-5844D01*
X-5747Y-5876D01*
X-5720Y-5921D01*
X-5691Y-5935D01*
X-5668Y-5937D01*
X-5629Y-5929D01*
X-5564Y-5892D01*
X-5538Y-5862D01*
X-5529Y-5841D01*
X-5526Y-5809D01*
X-6013Y-1916D02*
X-6010Y-1884D01*
X-6030Y-1850D01*
X-6066Y-1825D01*
X-6111Y-1821D01*
X-6150Y-1828D01*
X-6222Y-1854D01*
X-6271Y-1882D01*
X-6329Y-1931D01*
X-6355Y-1961D01*
X-6374Y-2003D01*
X-6371Y-2046D01*
X-6358Y-2069D01*
X-6322Y-2094D01*
X-6299Y-2096D01*
X-6185Y-2030D01*
X-6212Y-1985D01*
X-6911Y-2449D02*
X-6795Y-2276D01*
X-6990Y-2313D02*
X-6649Y-2116D01*
X-6596Y-2207D01*
X-6600Y-2239D01*
X-6609Y-2260D01*
X-6635Y-2290D01*
X-6684Y-2318D01*
X-6723Y-2325D01*
X-6746Y-2323D01*
X-6775Y-2310D01*
X-6828Y-2219D01*
X-7413Y-2663D02*
X-7410Y-2707D01*
X-7419Y-2728D01*
X-7445Y-2758D01*
X-7494Y-2786D01*
X-7533Y-2793D01*
X-7556Y-2791D01*
X-7585Y-2778D01*
X-7638Y-2687D01*
X-7297Y-2490D01*
X-7251Y-2570D01*
X-7254Y-2602D01*
X-7264Y-2622D01*
X-7290Y-2653D01*
X-7322Y-2671D01*
X-7361Y-2679D01*
X-7384Y-2677D01*
X-7413Y-2663D01*
X-7459Y-2584D01*
X-5573Y-4768D02*
X-5232Y-4571D01*
X-5494Y-4904D02*
X-5358Y-4689D01*
X-5153Y-4707D02*
X-5426Y-4683D01*
X-2320Y-7816D02*
X-2123Y-7475D01*
X-2067Y-7508D01*
X-2042Y-7544D01*
X-2038Y-7589D01*
X-2045Y-7628D01*
X-2071Y-7700D01*
X-2100Y-7748D01*
X-2148Y-7807D01*
X-2179Y-7833D01*
X-2220Y-7852D01*
X-2264Y-7849D01*
X-2320Y-7816D01*
X-1908Y-7600D02*
X-1748Y-7691D01*
X-2048Y-7973D01*
X-4246Y-4668D02*
X-4259Y-4639D01*
X-4293Y-4619D01*
X-4337Y-4616D01*
X-4378Y-4635D01*
X-4408Y-4661D01*
X-4457Y-4719D01*
X-4485Y-4768D01*
X-4511Y-4840D01*
X-4519Y-4879D01*
X-4515Y-4924D01*
X-4490Y-4960D01*
X-4467Y-4973D01*
X-4424Y-4977D01*
X-4403Y-4967D01*
X-4337Y-4853D01*
X-4383Y-4827D01*
X-4756Y-5579D02*
X-4742Y-5371D01*
X-4893Y-5500D02*
X-4696Y-5159D01*
X-4605Y-5212D01*
X-4592Y-5241D01*
X-4590Y-5264D01*
X-4597Y-5303D01*
X-4625Y-5352D01*
X-4655Y-5378D01*
X-4676Y-5387D01*
X-4708Y-5391D01*
X-4799Y-5338D01*
X-5084Y-6016D02*
X-5059Y-6051D01*
X-5057Y-6074D01*
X-5065Y-6113D01*
X-5093Y-6162D01*
X-5123Y-6188D01*
X-5144Y-6198D01*
X-5176Y-6201D01*
X-5267Y-6148D01*
X-5070Y-5807D01*
X-4990Y-5853D01*
X-4977Y-5883D01*
X-4975Y-5905D01*
X-4982Y-5944D01*
X-5001Y-5977D01*
X-5031Y-6003D01*
X-5052Y-6012D01*
X-5084Y-6016D01*
X-5164Y-5970D01*
X-2438Y-6918D02*
X-2241Y-6577D01*
X-2301Y-6996D02*
X-2291Y-6743D01*
X-2105Y-6655D02*
X-2354Y-6772D01*
X1996Y-8035D02*
X1996Y-7642D01*
X2062Y-7642D01*
X2101Y-7661D01*
X2127Y-7698D01*
X2140Y-7736D01*
X2154Y-7810D01*
X2154Y-7867D01*
X2140Y-7942D01*
X2127Y-7979D01*
X2101Y-8017D01*
X2062Y-8035D01*
X1996Y-8035D01*
X2390Y-7642D02*
X2337Y-7642D01*
X2311Y-7661D01*
X2298Y-7679D01*
X2272Y-7736D01*
X2259Y-7810D01*
X2259Y-7960D01*
X2272Y-7998D01*
X2285Y-8017D01*
X2311Y-8035D01*
X2364Y-8035D01*
X2390Y-8017D01*
X2403Y-7998D01*
X2416Y-7960D01*
X2416Y-7867D01*
X2403Y-7829D01*
X2390Y-7810D01*
X2364Y-7792D01*
X2311Y-7792D01*
X2285Y-7810D01*
X2272Y-7829D01*
X2259Y-7867D01*
X-1345Y-6162D02*
X-1371Y-6143D01*
X-1410Y-6143D01*
X-1450Y-6162D01*
X-1476Y-6199D01*
X-1489Y-6237D01*
X-1502Y-6312D01*
X-1502Y-6368D01*
X-1489Y-6443D01*
X-1476Y-6481D01*
X-1450Y-6518D01*
X-1410Y-6537D01*
X-1384Y-6537D01*
X-1345Y-6518D01*
X-1332Y-6499D01*
X-1332Y-6368D01*
X-1384Y-6368D01*
X-1332Y-7206D02*
X-1423Y-7019D01*
X-1489Y-7206D02*
X-1489Y-6812D01*
X-1384Y-6812D01*
X-1358Y-6831D01*
X-1345Y-6850D01*
X-1332Y-6887D01*
X-1332Y-6944D01*
X-1345Y-6981D01*
X-1358Y-7000D01*
X-1384Y-7019D01*
X-1489Y-7019D01*
X-1397Y-7748D02*
X-1358Y-7767D01*
X-1345Y-7785D01*
X-1332Y-7823D01*
X-1332Y-7879D01*
X-1345Y-7917D01*
X-1358Y-7935D01*
X-1384Y-7954D01*
X-1489Y-7954D01*
X-1489Y-7560D01*
X-1397Y-7560D01*
X-1371Y-7579D01*
X-1358Y-7598D01*
X-1345Y-7635D01*
X-1345Y-7673D01*
X-1358Y-7710D01*
X-1371Y-7729D01*
X-1397Y-7748D01*
X-1489Y-7748D01*
X1345Y-7206D02*
X1345Y-6812D01*
X1502Y-7206D02*
X1384Y-6981D01*
X1502Y-6812D02*
X1345Y-7037D01*
X5588Y-5944D02*
X5391Y-5603D01*
X5448Y-5570D01*
X5491Y-5567D01*
X5533Y-5586D01*
X5563Y-5612D01*
X5612Y-5671D01*
X5640Y-5719D01*
X5666Y-5791D01*
X5674Y-5830D01*
X5670Y-5875D01*
X5645Y-5911D01*
X5588Y-5944D01*
X5743Y-5400D02*
X5630Y-5465D01*
X5712Y-5634D01*
X5714Y-5612D01*
X5728Y-5582D01*
X5784Y-5549D01*
X5816Y-5553D01*
X5837Y-5562D01*
X5867Y-5588D01*
X5914Y-5669D01*
X5922Y-5708D01*
X5920Y-5731D01*
X5906Y-5760D01*
X5849Y-5793D01*
X5817Y-5790D01*
X5797Y-5781D01*
X1916Y-6013D02*
X1884Y-6010D01*
X1850Y-6030D01*
X1825Y-6066D01*
X1821Y-6111D01*
X1828Y-6150D01*
X1854Y-6222D01*
X1882Y-6271D01*
X1931Y-6329D01*
X1961Y-6355D01*
X2003Y-6374D01*
X2046Y-6371D01*
X2069Y-6358D01*
X2094Y-6322D01*
X2096Y-6299D01*
X2030Y-6185D01*
X1985Y-6212D01*
X2449Y-6911D02*
X2276Y-6795D01*
X2313Y-6990D02*
X2116Y-6649D01*
X2207Y-6596D01*
X2239Y-6600D01*
X2260Y-6609D01*
X2290Y-6635D01*
X2318Y-6684D01*
X2325Y-6723D01*
X2323Y-6746D01*
X2310Y-6775D01*
X2219Y-6828D01*
X2663Y-7413D02*
X2707Y-7410D01*
X2728Y-7419D01*
X2758Y-7445D01*
X2786Y-7494D01*
X2793Y-7533D01*
X2791Y-7556D01*
X2778Y-7585D01*
X2687Y-7638D01*
X2490Y-7297D01*
X2570Y-7251D01*
X2602Y-7254D01*
X2622Y-7264D01*
X2653Y-7290D01*
X2671Y-7322D01*
X2679Y-7361D01*
X2677Y-7384D01*
X2663Y-7413D01*
X2584Y-7459D01*
X4768Y-5573D02*
X4571Y-5232D01*
X4904Y-5494D02*
X4689Y-5358D01*
X4707Y-5153D02*
X4683Y-5426D01*
X7962Y-2288D02*
X7621Y-2092D01*
X7654Y-2035D01*
X7689Y-2010D01*
X7735Y-2006D01*
X7774Y-2013D01*
X7846Y-2040D01*
X7894Y-2068D01*
X7953Y-2117D01*
X7979Y-2147D01*
X7998Y-2188D01*
X7995Y-2232D01*
X7962Y-2288D01*
X7931Y-1816D02*
X8159Y-1947D01*
X7769Y-1798D02*
X7979Y-1995D01*
X8065Y-1848D01*
X4668Y-4246D02*
X4639Y-4259D01*
X4619Y-4293D01*
X4616Y-4337D01*
X4635Y-4378D01*
X4661Y-4408D01*
X4719Y-4457D01*
X4768Y-4485D01*
X4840Y-4511D01*
X4879Y-4519D01*
X4924Y-4515D01*
X4960Y-4490D01*
X4973Y-4467D01*
X4977Y-4424D01*
X4967Y-4403D01*
X4853Y-4337D01*
X4827Y-4383D01*
X5579Y-4756D02*
X5371Y-4742D01*
X5500Y-4893D02*
X5159Y-4696D01*
X5212Y-4605D01*
X5241Y-4592D01*
X5264Y-4590D01*
X5303Y-4597D01*
X5352Y-4625D01*
X5378Y-4655D01*
X5387Y-4676D01*
X5391Y-4708D01*
X5338Y-4799D01*
X6016Y-5084D02*
X6051Y-5059D01*
X6074Y-5057D01*
X6113Y-5065D01*
X6162Y-5093D01*
X6188Y-5123D01*
X6198Y-5144D01*
X6201Y-5176D01*
X6148Y-5267D01*
X5807Y-5070D01*
X5853Y-4990D01*
X5883Y-4977D01*
X5905Y-4975D01*
X5944Y-4982D01*
X5977Y-5001D01*
X6003Y-5031D01*
X6012Y-5052D01*
X6016Y-5084D01*
X5970Y-5164D01*
X6918Y-2438D02*
X6577Y-2241D01*
X6996Y-2301D02*
X6743Y-2291D01*
X6655Y-2105D02*
X6772Y-2354D01*
X8004Y1866D02*
X7610Y1866D01*
X7610Y1932D01*
X7629Y1971D01*
X7666Y1997D01*
X7704Y2010D01*
X7779Y2024D01*
X7835Y2024D01*
X7910Y2010D01*
X7948Y1997D01*
X7985Y1971D01*
X8004Y1932D01*
X8004Y1866D01*
X7610Y2115D02*
X7610Y2286D01*
X7760Y2194D01*
X7760Y2234D01*
X7779Y2260D01*
X7798Y2273D01*
X7835Y2286D01*
X7929Y2286D01*
X7966Y2273D01*
X7985Y2260D01*
X8004Y2234D01*
X8004Y2155D01*
X7985Y2129D01*
X7966Y2115D01*
X6162Y-1345D02*
X6143Y-1371D01*
X6143Y-1410D01*
X6162Y-1450D01*
X6199Y-1476D01*
X6237Y-1489D01*
X6312Y-1502D01*
X6368Y-1502D01*
X6443Y-1489D01*
X6481Y-1476D01*
X6518Y-1450D01*
X6537Y-1410D01*
X6537Y-1384D01*
X6518Y-1345D01*
X6499Y-1332D01*
X6368Y-1332D01*
X6368Y-1384D01*
X7206Y-1332D02*
X7019Y-1423D01*
X7206Y-1489D02*
X6812Y-1489D01*
X6812Y-1384D01*
X6831Y-1358D01*
X6850Y-1345D01*
X6887Y-1332D01*
X6944Y-1332D01*
X6981Y-1345D01*
X7000Y-1358D01*
X7019Y-1384D01*
X7019Y-1489D01*
X7748Y-1397D02*
X7767Y-1358D01*
X7785Y-1345D01*
X7823Y-1332D01*
X7879Y-1332D01*
X7917Y-1345D01*
X7935Y-1358D01*
X7954Y-1384D01*
X7954Y-1489D01*
X7560Y-1489D01*
X7560Y-1397D01*
X7579Y-1371D01*
X7598Y-1358D01*
X7635Y-1345D01*
X7673Y-1345D01*
X7710Y-1358D01*
X7729Y-1371D01*
X7748Y-1397D01*
X7748Y-1489D01*
X7206Y1345D02*
X6812Y1345D01*
X7206Y1502D02*
X6981Y1384D01*
X6812Y1502D02*
X7037Y1345D01*
X5486Y5940D02*
X5827Y6136D01*
X5859Y6080D01*
X5863Y6036D01*
X5844Y5995D01*
X5818Y5965D01*
X5759Y5916D01*
X5711Y5888D01*
X5639Y5861D01*
X5600Y5854D01*
X5554Y5858D01*
X5518Y5883D01*
X5486Y5940D01*
X5925Y5890D02*
X5948Y5888D01*
X5978Y5875D01*
X6010Y5818D01*
X6007Y5786D01*
X5998Y5765D01*
X5972Y5735D01*
X5939Y5716D01*
X5884Y5700D01*
X5610Y5724D01*
X5696Y5576D01*
X6459Y2006D02*
X6462Y2038D01*
X6442Y2073D01*
X6406Y2097D01*
X6361Y2101D01*
X6322Y2094D01*
X6250Y2068D01*
X6202Y2040D01*
X6143Y1991D01*
X6117Y1961D01*
X6098Y1919D01*
X6101Y1876D01*
X6115Y1853D01*
X6150Y1828D01*
X6173Y1826D01*
X6287Y1892D01*
X6261Y1937D01*
X6720Y2142D02*
X6837Y2315D01*
X6642Y2279D02*
X6983Y2475D01*
X7035Y2384D01*
X7032Y2352D01*
X7022Y2332D01*
X6996Y2301D01*
X6948Y2273D01*
X6909Y2266D01*
X6886Y2268D01*
X6857Y2281D01*
X6804Y2372D01*
X7514Y2676D02*
X7517Y2633D01*
X7508Y2612D01*
X7482Y2582D01*
X7433Y2554D01*
X7394Y2546D01*
X7371Y2548D01*
X7342Y2562D01*
X7290Y2653D01*
X7630Y2849D01*
X7676Y2770D01*
X7673Y2738D01*
X7664Y2717D01*
X7638Y2687D01*
X7605Y2668D01*
X7566Y2661D01*
X7543Y2663D01*
X7514Y2676D01*
X7468Y2756D01*
X5224Y4733D02*
X5565Y4930D01*
X5303Y4597D02*
X5439Y4812D01*
X5644Y4794D02*
X5371Y4818D01*
X1889Y7708D02*
X2086Y8049D01*
X2142Y8016D01*
X2167Y7980D01*
X2171Y7935D01*
X2164Y7896D01*
X2138Y7824D01*
X2109Y7776D01*
X2061Y7717D01*
X2030Y7691D01*
X1989Y7672D01*
X1945Y7675D01*
X1889Y7708D01*
X2252Y7498D02*
X2116Y7577D01*
X2184Y7538D02*
X2381Y7879D01*
X2330Y7843D01*
X2289Y7824D01*
X2257Y7821D01*
X4586Y4969D02*
X4573Y4999D01*
X4539Y5019D01*
X4495Y5022D01*
X4454Y5003D01*
X4424Y4977D01*
X4375Y4918D01*
X4347Y4870D01*
X4321Y4798D01*
X4313Y4759D01*
X4317Y4713D01*
X4342Y4678D01*
X4365Y4664D01*
X4408Y4661D01*
X4429Y4671D01*
X4494Y4784D01*
X4449Y4811D01*
X4745Y5218D02*
X4759Y5426D01*
X4608Y5297D02*
X4805Y5638D01*
X4896Y5585D01*
X4910Y5556D01*
X4911Y5533D01*
X4904Y5494D01*
X4876Y5445D01*
X4846Y5419D01*
X4825Y5410D01*
X4793Y5406D01*
X4702Y5459D01*
X5165Y6077D02*
X5190Y6041D01*
X5192Y6018D01*
X5184Y5979D01*
X5156Y5931D01*
X5126Y5905D01*
X5105Y5895D01*
X5073Y5892D01*
X4982Y5944D01*
X5179Y6285D01*
X5259Y6239D01*
X5272Y6210D01*
X5274Y6187D01*
X5267Y6148D01*
X5248Y6116D01*
X5218Y6090D01*
X5197Y6080D01*
X5165Y6077D01*
X5086Y6123D01*
X2153Y6714D02*
X2350Y7055D01*
X2290Y6635D02*
X2300Y6889D01*
X2487Y6976D02*
X2238Y6860D01*
X4784Y2723D02*
X4787Y2755D01*
X4807Y2796D01*
X4836Y2858D01*
X4839Y2891D01*
X4826Y2913D01*
X4751Y2855D02*
X4754Y2887D01*
X4774Y2929D01*
X4832Y2977D01*
X4946Y3043D01*
X5017Y3069D01*
X5063Y3065D01*
X5092Y3052D01*
X5118Y3006D01*
X5115Y2974D01*
X5096Y2933D01*
X5037Y2884D01*
X4924Y2818D01*
X4852Y2792D01*
X4807Y2796D01*
X4777Y2810D01*
X4751Y2855D01*
X4941Y2525D02*
X4863Y2662D01*
X4902Y2594D02*
X5243Y2790D01*
X5181Y2785D01*
X5136Y2789D01*
X5106Y2802D01*
X5629Y-2148D02*
X5600Y-2162D01*
X5554Y-2166D01*
X5486Y-2172D01*
X5457Y-2185D01*
X5443Y-2208D01*
X5531Y-2243D02*
X5502Y-2256D01*
X5456Y-2260D01*
X5385Y-2234D01*
X5271Y-2169D01*
X5213Y-2120D01*
X5193Y-2078D01*
X5190Y-2046D01*
X5216Y-2001D01*
X5246Y-1987D01*
X5291Y-1983D01*
X5363Y-2010D01*
X5477Y-2075D01*
X5535Y-2124D01*
X5554Y-2166D01*
X5557Y-2198D01*
X5531Y-2243D01*
X5334Y-1872D02*
X5325Y-1851D01*
X5321Y-1819D01*
X5354Y-1762D01*
X5384Y-1749D01*
X5406Y-1747D01*
X5445Y-1754D01*
X5478Y-1773D01*
X5520Y-1812D01*
X5636Y-2061D01*
X5721Y-1914D01*
X218Y-5941D02*
X192Y-5923D01*
X166Y-5885D01*
X126Y-5829D01*
X100Y-5810D01*
X74Y-5810D01*
X87Y-5904D02*
X61Y-5885D01*
X35Y-5848D01*
X21Y-5773D01*
X21Y-5641D01*
X35Y-5566D01*
X61Y-5529D01*
X87Y-5510D01*
X140Y-5510D01*
X166Y-5529D01*
X192Y-5566D01*
X205Y-5641D01*
X205Y-5773D01*
X192Y-5848D01*
X166Y-5885D01*
X140Y-5904D01*
X87Y-5904D01*
X297Y-5510D02*
X468Y-5510D01*
X376Y-5660D01*
X415Y-5660D01*
X441Y-5679D01*
X454Y-5698D01*
X468Y-5735D01*
X468Y-5829D01*
X454Y-5866D01*
X441Y-5885D01*
X415Y-5904D01*
X336Y-5904D01*
X310Y-5885D01*
X297Y-5866D01*
X-5373Y-2635D02*
X-5370Y-2603D01*
X-5351Y-2562D01*
X-5322Y-2499D01*
X-5319Y-2467D01*
X-5332Y-2445D01*
X-5406Y-2503D02*
X-5403Y-2471D01*
X-5384Y-2429D01*
X-5325Y-2380D01*
X-5212Y-2315D01*
X-5140Y-2289D01*
X-5095Y-2293D01*
X-5065Y-2306D01*
X-5039Y-2351D01*
X-5042Y-2384D01*
X-5062Y-2425D01*
X-5120Y-2474D01*
X-5234Y-2539D01*
X-5305Y-2566D01*
X-5351Y-2562D01*
X-5380Y-2548D01*
X-5406Y-2503D01*
X-5002Y-2678D02*
X-5229Y-2810D01*
X-4905Y-2547D02*
X-5181Y-2630D01*
X-5096Y-2778D01*
X-4743Y2825D02*
X-4772Y2812D01*
X-4818Y2808D01*
X-4886Y2802D01*
X-4916Y2788D01*
X-4929Y2766D01*
X-4841Y2730D02*
X-4870Y2717D01*
X-4916Y2713D01*
X-4988Y2739D01*
X-5101Y2805D01*
X-5160Y2853D01*
X-5179Y2895D01*
X-5182Y2927D01*
X-5156Y2972D01*
X-5126Y2986D01*
X-5081Y2990D01*
X-5009Y2964D01*
X-4896Y2898D01*
X-4837Y2849D01*
X-4818Y2808D01*
X-4815Y2776D01*
X-4841Y2730D01*
X-4998Y3245D02*
X-5064Y3132D01*
X-4908Y3027D01*
X-4918Y3047D01*
X-4921Y3079D01*
X-4888Y3136D01*
X-4859Y3150D01*
X-4836Y3152D01*
X-4797Y3144D01*
X-4716Y3097D01*
X-4690Y3067D01*
X-4680Y3046D01*
X-4677Y3014D01*
X-4710Y2957D01*
X-4739Y2944D01*
X-4762Y2942D01*
X-194Y5509D02*
X-221Y5528D01*
X-247Y5565D01*
X-286Y5621D01*
X-313Y5640D01*
X-339Y5640D01*
X-326Y5546D02*
X-352Y5565D01*
X-378Y5603D01*
X-391Y5678D01*
X-391Y5809D01*
X-378Y5884D01*
X-352Y5921D01*
X-326Y5940D01*
X-273Y5940D01*
X-247Y5921D01*
X-221Y5884D01*
X-208Y5809D01*
X-208Y5678D01*
X-221Y5603D01*
X-247Y5565D01*
X-273Y5546D01*
X-326Y5546D01*
X28Y5940D02*
X-24Y5940D01*
X-50Y5921D01*
X-63Y5903D01*
X-89Y5846D01*
X-103Y5771D01*
X-103Y5621D01*
X-89Y5584D01*
X-76Y5565D01*
X-50Y5546D01*
X1Y5546D01*
X28Y5565D01*
X41Y5584D01*
X54Y5621D01*
X54Y5715D01*
X41Y5753D01*
X28Y5771D01*
X1Y5790D01*
X-50Y5790D01*
X-76Y5771D01*
X-89Y5753D01*
X-103Y5715D01*
X2479Y-4830D02*
X2291Y-4922D01*
X2479Y-4988D02*
X2085Y-4988D01*
X2085Y-4883D01*
X2104Y-4857D01*
X2123Y-4844D01*
X2160Y-4830D01*
X2216Y-4830D01*
X2254Y-4844D01*
X2273Y-4857D01*
X2291Y-4883D01*
X2291Y-4988D01*
X2216Y-4594D02*
X2479Y-4594D01*
X2066Y-4660D02*
X2348Y-4725D01*
X2348Y-4555D01*
X-5665Y-99D02*
X-5757Y88D01*
X-5823Y-99D02*
X-5823Y294D01*
X-5718Y294D01*
X-5692Y275D01*
X-5679Y256D01*
X-5665Y219D01*
X-5665Y163D01*
X-5679Y125D01*
X-5692Y106D01*
X-5718Y88D01*
X-5823Y88D01*
X-5429Y294D02*
X-5482Y294D01*
X-5508Y275D01*
X-5521Y256D01*
X-5547Y200D01*
X-5560Y125D01*
X-5560Y-24D01*
X-5547Y-61D01*
X-5534Y-80D01*
X-5508Y-99D01*
X-5455Y-99D01*
X-5429Y-80D01*
X-5416Y-61D01*
X-5403Y-24D01*
X-5403Y69D01*
X-5416Y106D01*
X-5429Y125D01*
X-5455Y144D01*
X-5508Y144D01*
X-5534Y125D01*
X-5547Y106D01*
X-5560Y69D01*
X-2895Y4890D02*
X-2779Y5063D01*
X-2974Y5026D02*
X-2633Y5223D01*
X-2581Y5132D01*
X-2584Y5100D01*
X-2594Y5079D01*
X-2619Y5049D01*
X-2668Y5021D01*
X-2707Y5013D01*
X-2730Y5015D01*
X-2759Y5029D01*
X-2812Y5120D01*
X-2430Y4871D02*
X-2495Y4984D01*
X-2664Y4902D01*
X-2642Y4900D01*
X-2612Y4886D01*
X-2579Y4830D01*
X-2583Y4798D01*
X-2592Y4777D01*
X-2618Y4747D01*
X-2699Y4700D01*
X-2738Y4692D01*
X-2761Y4694D01*
X-2790Y4708D01*
X-2823Y4765D01*
X-2820Y4797D01*
X-2811Y4817D01*
X5729Y1599D02*
X5556Y1715D01*
X5593Y1520D02*
X5396Y1861D01*
X5487Y1913D01*
X5519Y1910D01*
X5540Y1900D01*
X5570Y1875D01*
X5598Y1826D01*
X5606Y1787D01*
X5604Y1764D01*
X5590Y1735D01*
X5499Y1682D01*
X5642Y1960D02*
X5644Y1982D01*
X5658Y2012D01*
X5714Y2044D01*
X5746Y2041D01*
X5767Y2032D01*
X5797Y2006D01*
X5816Y1973D01*
X5833Y1918D01*
X5809Y1644D01*
X5957Y1730D01*
X3740Y-3880D02*
X3754Y-3671D01*
X3604Y-3801D02*
X3801Y-3460D01*
X3891Y-3512D01*
X3905Y-3542D01*
X3907Y-3564D01*
X3899Y-3604D01*
X3871Y-3652D01*
X3841Y-3678D01*
X3820Y-3688D01*
X3788Y-3691D01*
X3697Y-3638D01*
X3967Y-4011D02*
X3831Y-3932D01*
X3899Y-3971D02*
X4096Y-3630D01*
X4045Y-3666D01*
X4004Y-3685D01*
X3972Y-3688D01*
X-1882Y4110D02*
X-1974Y4298D01*
X-2039Y4110D02*
X-2039Y4504D01*
X-1934Y4504D01*
X-1908Y4485D01*
X-1895Y4466D01*
X-1882Y4429D01*
X-1882Y4373D01*
X-1895Y4335D01*
X-1908Y4316D01*
X-1934Y4298D01*
X-2039Y4298D01*
X-1619Y4110D02*
X-1777Y4110D01*
X-1698Y4110D02*
X-1698Y4504D01*
X-1724Y4448D01*
X-1750Y4410D01*
X-1777Y4391D01*
X-1527Y4504D02*
X-1357Y4504D01*
X-1449Y4354D01*
X-1409Y4354D01*
X-1383Y4335D01*
X-1370Y4316D01*
X-1357Y4279D01*
X-1357Y4185D01*
X-1370Y4148D01*
X-1383Y4129D01*
X-1409Y4110D01*
X-1488Y4110D01*
X-1514Y4129D01*
X-1527Y4148D01*
X-3250Y2271D02*
X-3458Y2286D01*
X-3329Y2135D02*
X-3670Y2332D01*
X-3617Y2423D01*
X-3588Y2436D01*
X-3565Y2438D01*
X-3526Y2431D01*
X-3477Y2403D01*
X-3451Y2373D01*
X-3442Y2352D01*
X-3439Y2320D01*
X-3491Y2229D01*
X-3119Y2499D02*
X-3198Y2362D01*
X-3158Y2431D02*
X-3499Y2627D01*
X-3464Y2577D01*
X-3444Y2535D01*
X-3441Y2503D01*
X-3375Y2768D02*
X-3385Y2788D01*
X-3388Y2821D01*
X-3355Y2877D01*
X-3325Y2891D01*
X-3303Y2893D01*
X-3264Y2885D01*
X-3231Y2867D01*
X-3189Y2827D01*
X-3073Y2578D01*
X-2988Y2726D01*
X-4216Y-1466D02*
X-4100Y-1292D01*
X-4295Y-1329D02*
X-3954Y-1133D01*
X-3901Y-1223D01*
X-3904Y-1256D01*
X-3914Y-1276D01*
X-3940Y-1306D01*
X-3989Y-1335D01*
X-4028Y-1342D01*
X-4051Y-1340D01*
X-4080Y-1327D01*
X-4132Y-1236D01*
X-4085Y-1693D02*
X-4164Y-1557D01*
X-4124Y-1625D02*
X-3783Y-1428D01*
X-3845Y-1433D01*
X-3891Y-1429D01*
X-3920Y-1416D01*
X-3954Y-1920D02*
X-4032Y-1784D01*
X-3993Y-1852D02*
X-3652Y-1655D01*
X-3714Y-1661D01*
X-3759Y-1657D01*
X-3789Y-1643D01*
X742Y-3744D02*
X650Y-3556D01*
X585Y-3744D02*
X585Y-3350D01*
X690Y-3350D01*
X716Y-3369D01*
X729Y-3388D01*
X742Y-3425D01*
X742Y-3481D01*
X729Y-3519D01*
X716Y-3538D01*
X690Y-3556D01*
X585Y-3556D01*
X1005Y-3744D02*
X847Y-3744D01*
X926Y-3744D02*
X926Y-3350D01*
X900Y-3406D01*
X874Y-3444D01*
X847Y-3463D01*
X1175Y-3350D02*
X1202Y-3350D01*
X1228Y-3369D01*
X1241Y-3388D01*
X1254Y-3425D01*
X1267Y-3500D01*
X1267Y-3594D01*
X1254Y-3669D01*
X1241Y-3706D01*
X1228Y-3725D01*
X1202Y-3744D01*
X1175Y-3744D01*
X1149Y-3725D01*
X1136Y-3706D01*
X1123Y-3669D01*
X1110Y-3594D01*
X1110Y-3500D01*
X1123Y-3425D01*
X1136Y-3388D01*
X1149Y-3369D01*
X1175Y-3350D01*
X4371Y-1025D02*
X4163Y-1011D01*
X4293Y-1162D02*
X3952Y-965D01*
X4004Y-874D01*
X4034Y-860D01*
X4056Y-858D01*
X4095Y-866D01*
X4144Y-894D01*
X4170Y-924D01*
X4180Y-945D01*
X4183Y-977D01*
X4130Y-1068D01*
X4437Y-911D02*
X4463Y-866D01*
X4460Y-834D01*
X4450Y-813D01*
X4415Y-762D01*
X4356Y-713D01*
X4227Y-638D01*
X4188Y-631D01*
X4165Y-633D01*
X4135Y-646D01*
X4109Y-692D01*
X4112Y-724D01*
X4122Y-745D01*
X4148Y-775D01*
X4229Y-822D01*
X4268Y-829D01*
X4291Y-827D01*
X4320Y-814D01*
X4346Y-768D01*
X4343Y-736D01*
X4334Y-715D01*
X4308Y-685D01*
X3619Y1820D02*
X3735Y1993D01*
X3540Y1956D02*
X3881Y2153D01*
X3933Y2062D01*
X3930Y2030D01*
X3920Y2009D01*
X3895Y1979D01*
X3846Y1951D01*
X3807Y1943D01*
X3784Y1945D01*
X3755Y1959D01*
X3702Y2050D01*
X3892Y1796D02*
X3895Y1828D01*
X3905Y1849D01*
X3931Y1879D01*
X3947Y1888D01*
X3986Y1895D01*
X4009Y1893D01*
X4038Y1880D01*
X4064Y1835D01*
X4061Y1803D01*
X4052Y1782D01*
X4026Y1752D01*
X4010Y1742D01*
X3971Y1735D01*
X3948Y1737D01*
X3918Y1750D01*
X3892Y1796D01*
X3863Y1809D01*
X3840Y1811D01*
X3801Y1804D01*
X3736Y1766D01*
X3710Y1736D01*
X3700Y1715D01*
X3697Y1683D01*
X3724Y1638D01*
X3753Y1624D01*
X3776Y1622D01*
X3815Y1630D01*
X3880Y1667D01*
X3906Y1697D01*
X3915Y1718D01*
X3918Y1750D01*
X1529Y5209D02*
X1341Y5117D01*
X1529Y5051D02*
X1135Y5051D01*
X1135Y5156D01*
X1154Y5182D01*
X1173Y5195D01*
X1210Y5209D01*
X1266Y5209D01*
X1304Y5195D01*
X1323Y5182D01*
X1341Y5156D01*
X1341Y5051D01*
X1135Y5300D02*
X1135Y5471D01*
X1285Y5379D01*
X1285Y5419D01*
X1304Y5445D01*
X1323Y5458D01*
X1360Y5471D01*
X1454Y5471D01*
X1491Y5458D01*
X1510Y5445D01*
X1529Y5419D01*
X1529Y5340D01*
X1510Y5314D01*
X1491Y5300D01*
X1661Y894D02*
X1680Y880D01*
X1699Y841D01*
X1699Y815D01*
X1680Y775D01*
X1643Y749D01*
X1605Y736D01*
X1530Y723D01*
X1474Y723D01*
X1399Y736D01*
X1361Y749D01*
X1324Y775D01*
X1305Y815D01*
X1305Y841D01*
X1324Y880D01*
X1343Y894D01*
X1305Y985D02*
X1305Y1156D01*
X1455Y1064D01*
X1455Y1104D01*
X1474Y1130D01*
X1493Y1143D01*
X1530Y1156D01*
X1624Y1156D01*
X1661Y1143D01*
X1680Y1130D01*
X1699Y1104D01*
X1699Y1025D01*
X1680Y999D01*
X1661Y985D01*
X-2739Y946D02*
X-2721Y933D01*
X-2702Y893D01*
X-2702Y867D01*
X-2721Y828D01*
X-2758Y802D01*
X-2796Y788D01*
X-2871Y775D01*
X-2927Y775D01*
X-3002Y788D01*
X-3039Y802D01*
X-3077Y828D01*
X-3096Y867D01*
X-3096Y893D01*
X-3077Y933D01*
X-3058Y946D01*
X-3058Y1051D02*
X-3077Y1064D01*
X-3096Y1090D01*
X-3096Y1156D01*
X-3077Y1182D01*
X-3058Y1195D01*
X-3021Y1208D01*
X-2983Y1208D01*
X-2927Y1195D01*
X-2702Y1038D01*
X-2702Y1208D01*
X-2090Y966D02*
X-2071Y952D01*
X-2052Y913D01*
X-2052Y887D01*
X-2071Y848D01*
X-2109Y821D01*
X-2146Y808D01*
X-2221Y795D01*
X-2277Y795D01*
X-2352Y808D01*
X-2390Y821D01*
X-2427Y848D01*
X-2446Y887D01*
X-2446Y913D01*
X-2427Y952D01*
X-2409Y966D01*
X-2052Y1228D02*
X-2052Y1071D01*
X-2052Y1149D02*
X-2446Y1149D01*
X-2390Y1123D01*
X-2352Y1097D01*
X-2334Y1071D01*
X1876Y-4885D02*
X1895Y-4899D01*
X1914Y-4938D01*
X1914Y-4964D01*
X1895Y-5004D01*
X1858Y-5030D01*
X1820Y-5043D01*
X1745Y-5056D01*
X1689Y-5056D01*
X1614Y-5043D01*
X1576Y-5030D01*
X1539Y-5004D01*
X1520Y-4964D01*
X1520Y-4938D01*
X1539Y-4899D01*
X1558Y-4885D01*
X1651Y-4649D02*
X1914Y-4649D01*
X1501Y-4715D02*
X1783Y-4780D01*
X1783Y-4610D01*
X-3343Y-670D02*
X-3081Y-1064D01*
X-3081Y-670D02*
X-3343Y-1064D01*
X-2725Y-1064D02*
X-2950Y-1064D01*
X-2837Y-1064D02*
X-2837Y-670D01*
X-2875Y-726D01*
X-2912Y-764D01*
X-2950Y-783D01*
M02*
