G04 (created by PCBNEW (2013-05-16 BZR 4016)-stable) date 7/10/2013 14:07:53*
%MOIN*%
G04 Gerber Fmt 3.4, Leading zero omitted, Abs format*
%FSLAX34Y34*%
G01*
G70*
G90*
G04 APERTURE LIST*
%ADD10C,0.00590551*%
%ADD11R,0.01X0.03*%
%ADD12R,0.03X0.01*%
%ADD13R,0.1181X0.1181*%
%ADD14R,0.0787402X0.0629921*%
%ADD15R,0.0787402X0.0551181*%
%ADD16R,0.0787402X0.11811*%
%ADD17R,0.0787402X0.0393701*%
%ADD18R,0.0629921X0.0787402*%
%ADD19R,0.0551181X0.0787402*%
%ADD20R,0.11811X0.0787402*%
%ADD21R,0.0393701X0.0787402*%
%ADD22R,0.0315X0.0394*%
%ADD23R,0.045X0.025*%
%ADD24R,0.025X0.045*%
%ADD25R,0.015748X0.0511811*%
G04 APERTURE END LIST*
G54D10*
G36*
X3327Y3939D02*
X2937Y4164D01*
X3062Y4380D01*
X3452Y4155D01*
X3327Y3939D01*
X3327Y3939D01*
G37*
G36*
X3627Y4459D02*
X3237Y4684D01*
X3362Y4900D01*
X3752Y4675D01*
X3627Y4459D01*
X3627Y4459D01*
G37*
G36*
X-2082Y3850D02*
X-1946Y3929D01*
X-1847Y3759D01*
X-1984Y3680D01*
X-2082Y3850D01*
X-2082Y3850D01*
G37*
G36*
X-1630Y3066D02*
X-1493Y3145D01*
X-1395Y2975D01*
X-1531Y2896D01*
X-1630Y3066D01*
X-1630Y3066D01*
G37*
G36*
X-1723Y2507D02*
X-2416Y2107D01*
X-2716Y2626D01*
X-2023Y3026D01*
X-1723Y2507D01*
X-1723Y2507D01*
G37*
G36*
X-2373Y3633D02*
X-3066Y3233D01*
X-3366Y3752D01*
X-2673Y4152D01*
X-2373Y3633D01*
X-2373Y3633D01*
G37*
G54D11*
X-492Y984D03*
X-295Y984D03*
X-98Y984D03*
X-689Y984D03*
G54D12*
X-984Y689D03*
X-984Y492D03*
X-984Y295D03*
X-984Y98D03*
X-984Y-98D03*
X-984Y-295D03*
X-984Y-492D03*
X-984Y-689D03*
G54D11*
X689Y-984D03*
X-689Y-984D03*
X-492Y-984D03*
X-295Y-984D03*
X-98Y-984D03*
X98Y-984D03*
X295Y-984D03*
X492Y-984D03*
G54D12*
X984Y-689D03*
X984Y-492D03*
X984Y-295D03*
X984Y-98D03*
X984Y98D03*
X984Y295D03*
X984Y492D03*
X984Y689D03*
G54D11*
X689Y984D03*
X492Y984D03*
X295Y984D03*
X98Y984D03*
G54D13*
X0Y0D03*
G54D14*
X-866Y7755D03*
G54D15*
X866Y7795D03*
G54D16*
X-866Y7086D03*
G54D17*
X866Y7086D03*
G54D14*
X-866Y6417D03*
G54D15*
X866Y6377D03*
G54D10*
G36*
X-4811Y5818D02*
X-5126Y6364D01*
X-4444Y6757D01*
X-4129Y6212D01*
X-4811Y5818D01*
X-4811Y5818D01*
G37*
G36*
X-3350Y6753D02*
X-3626Y7230D01*
X-2944Y7624D01*
X-2668Y7146D01*
X-3350Y6753D01*
X-3350Y6753D01*
G37*
G36*
X-4339Y5000D02*
X-4929Y6023D01*
X-4247Y6416D01*
X-3657Y5394D01*
X-4339Y5000D01*
X-4339Y5000D01*
G37*
G36*
X-3035Y6207D02*
X-3232Y6548D01*
X-2550Y6942D01*
X-2353Y6601D01*
X-3035Y6207D01*
X-3035Y6207D01*
G37*
G36*
X-4142Y4659D02*
X-4457Y5204D01*
X-3775Y5598D01*
X-3460Y5053D01*
X-4142Y4659D01*
X-4142Y4659D01*
G37*
G36*
X-2642Y5525D02*
X-2917Y6002D01*
X-2235Y6396D01*
X-1960Y5919D01*
X-2642Y5525D01*
X-2642Y5525D01*
G37*
G36*
X-7078Y2629D02*
X-7624Y2944D01*
X-7230Y3626D01*
X-6684Y3311D01*
X-7078Y2629D01*
X-7078Y2629D01*
G37*
G36*
X-6280Y4168D02*
X-6757Y4444D01*
X-6364Y5126D01*
X-5886Y4850D01*
X-6280Y4168D01*
X-6280Y4168D01*
G37*
G36*
X-6260Y2156D02*
X-7283Y2747D01*
X-6889Y3429D01*
X-5866Y2838D01*
X-6260Y2156D01*
X-6260Y2156D01*
G37*
G36*
X-5735Y3854D02*
X-6075Y4050D01*
X-5682Y4732D01*
X-5341Y4535D01*
X-5735Y3854D01*
X-5735Y3854D01*
G37*
G36*
X-5919Y1960D02*
X-6464Y2275D01*
X-6071Y2956D01*
X-5525Y2642D01*
X-5919Y1960D01*
X-5919Y1960D01*
G37*
G36*
X-5053Y3460D02*
X-5530Y3735D01*
X-5136Y4417D01*
X-4659Y4142D01*
X-5053Y3460D01*
X-5053Y3460D01*
G37*
G54D18*
X-7755Y-866D03*
G54D19*
X-7795Y866D03*
G54D20*
X-7086Y-866D03*
G54D21*
X-7086Y866D03*
G54D18*
X-6417Y-866D03*
G54D19*
X-6377Y866D03*
G54D10*
G36*
X-5818Y-4811D02*
X-6364Y-5126D01*
X-6757Y-4444D01*
X-6212Y-4129D01*
X-5818Y-4811D01*
X-5818Y-4811D01*
G37*
G36*
X-6753Y-3350D02*
X-7230Y-3626D01*
X-7624Y-2944D01*
X-7146Y-2668D01*
X-6753Y-3350D01*
X-6753Y-3350D01*
G37*
G36*
X-5000Y-4339D02*
X-6023Y-4929D01*
X-6416Y-4247D01*
X-5394Y-3657D01*
X-5000Y-4339D01*
X-5000Y-4339D01*
G37*
G36*
X-6207Y-3035D02*
X-6548Y-3232D01*
X-6942Y-2550D01*
X-6601Y-2353D01*
X-6207Y-3035D01*
X-6207Y-3035D01*
G37*
G36*
X-4659Y-4142D02*
X-5204Y-4457D01*
X-5598Y-3775D01*
X-5053Y-3460D01*
X-4659Y-4142D01*
X-4659Y-4142D01*
G37*
G36*
X-5525Y-2642D02*
X-6002Y-2917D01*
X-6396Y-2235D01*
X-5919Y-1960D01*
X-5525Y-2642D01*
X-5525Y-2642D01*
G37*
G36*
X-2629Y-7078D02*
X-2944Y-7624D01*
X-3626Y-7230D01*
X-3311Y-6684D01*
X-2629Y-7078D01*
X-2629Y-7078D01*
G37*
G36*
X-4168Y-6280D02*
X-4444Y-6757D01*
X-5126Y-6364D01*
X-4850Y-5886D01*
X-4168Y-6280D01*
X-4168Y-6280D01*
G37*
G36*
X-2156Y-6260D02*
X-2747Y-7283D01*
X-3429Y-6889D01*
X-2838Y-5866D01*
X-2156Y-6260D01*
X-2156Y-6260D01*
G37*
G36*
X-3854Y-5735D02*
X-4050Y-6075D01*
X-4732Y-5682D01*
X-4535Y-5341D01*
X-3854Y-5735D01*
X-3854Y-5735D01*
G37*
G36*
X-1960Y-5919D02*
X-2275Y-6464D01*
X-2956Y-6071D01*
X-2642Y-5525D01*
X-1960Y-5919D01*
X-1960Y-5919D01*
G37*
G36*
X-3460Y-5053D02*
X-3735Y-5530D01*
X-4417Y-5136D01*
X-4142Y-4659D01*
X-3460Y-5053D01*
X-3460Y-5053D01*
G37*
G54D14*
X866Y-7755D03*
G54D15*
X-866Y-7795D03*
G54D16*
X866Y-7086D03*
G54D17*
X-866Y-7086D03*
G54D14*
X866Y-6417D03*
G54D15*
X-866Y-6377D03*
G54D10*
G36*
X4811Y-5818D02*
X5126Y-6364D01*
X4444Y-6757D01*
X4129Y-6212D01*
X4811Y-5818D01*
X4811Y-5818D01*
G37*
G36*
X3350Y-6753D02*
X3626Y-7230D01*
X2944Y-7624D01*
X2668Y-7146D01*
X3350Y-6753D01*
X3350Y-6753D01*
G37*
G36*
X4339Y-5000D02*
X4929Y-6023D01*
X4247Y-6416D01*
X3657Y-5394D01*
X4339Y-5000D01*
X4339Y-5000D01*
G37*
G36*
X3035Y-6207D02*
X3232Y-6548D01*
X2550Y-6942D01*
X2353Y-6601D01*
X3035Y-6207D01*
X3035Y-6207D01*
G37*
G36*
X4142Y-4659D02*
X4457Y-5204D01*
X3775Y-5598D01*
X3460Y-5053D01*
X4142Y-4659D01*
X4142Y-4659D01*
G37*
G36*
X2642Y-5525D02*
X2917Y-6002D01*
X2235Y-6396D01*
X1960Y-5919D01*
X2642Y-5525D01*
X2642Y-5525D01*
G37*
G36*
X7078Y-2629D02*
X7624Y-2944D01*
X7230Y-3626D01*
X6684Y-3311D01*
X7078Y-2629D01*
X7078Y-2629D01*
G37*
G36*
X6280Y-4168D02*
X6757Y-4444D01*
X6364Y-5126D01*
X5886Y-4850D01*
X6280Y-4168D01*
X6280Y-4168D01*
G37*
G36*
X6260Y-2156D02*
X7283Y-2747D01*
X6889Y-3429D01*
X5866Y-2838D01*
X6260Y-2156D01*
X6260Y-2156D01*
G37*
G36*
X5735Y-3854D02*
X6075Y-4050D01*
X5682Y-4732D01*
X5341Y-4535D01*
X5735Y-3854D01*
X5735Y-3854D01*
G37*
G36*
X5919Y-1960D02*
X6464Y-2275D01*
X6071Y-2956D01*
X5525Y-2642D01*
X5919Y-1960D01*
X5919Y-1960D01*
G37*
G36*
X5053Y-3460D02*
X5530Y-3735D01*
X5136Y-4417D01*
X4659Y-4142D01*
X5053Y-3460D01*
X5053Y-3460D01*
G37*
G54D18*
X7755Y866D03*
G54D19*
X7795Y-866D03*
G54D20*
X7086Y866D03*
G54D21*
X7086Y-866D03*
G54D18*
X6417Y866D03*
G54D19*
X6377Y-866D03*
G54D10*
G36*
X5818Y4811D02*
X6364Y5126D01*
X6757Y4444D01*
X6212Y4129D01*
X5818Y4811D01*
X5818Y4811D01*
G37*
G36*
X6753Y3350D02*
X7230Y3626D01*
X7624Y2944D01*
X7146Y2668D01*
X6753Y3350D01*
X6753Y3350D01*
G37*
G36*
X5000Y4339D02*
X6023Y4929D01*
X6416Y4247D01*
X5394Y3657D01*
X5000Y4339D01*
X5000Y4339D01*
G37*
G36*
X6207Y3035D02*
X6548Y3232D01*
X6942Y2550D01*
X6601Y2353D01*
X6207Y3035D01*
X6207Y3035D01*
G37*
G36*
X4659Y4142D02*
X5204Y4457D01*
X5598Y3775D01*
X5053Y3460D01*
X4659Y4142D01*
X4659Y4142D01*
G37*
G36*
X5525Y2642D02*
X6002Y2917D01*
X6396Y2235D01*
X5919Y1960D01*
X5525Y2642D01*
X5525Y2642D01*
G37*
G36*
X2629Y7078D02*
X2944Y7624D01*
X3626Y7230D01*
X3311Y6684D01*
X2629Y7078D01*
X2629Y7078D01*
G37*
G36*
X4168Y6280D02*
X4444Y6757D01*
X5126Y6364D01*
X4850Y5886D01*
X4168Y6280D01*
X4168Y6280D01*
G37*
G36*
X2156Y6260D02*
X2747Y7283D01*
X3429Y6889D01*
X2838Y5866D01*
X2156Y6260D01*
X2156Y6260D01*
G37*
G36*
X3854Y5735D02*
X4050Y6075D01*
X4732Y5682D01*
X4535Y5341D01*
X3854Y5735D01*
X3854Y5735D01*
G37*
G36*
X1960Y5919D02*
X2275Y6464D01*
X2956Y6071D01*
X2642Y5525D01*
X1960Y5919D01*
X1960Y5919D01*
G37*
G36*
X3460Y5053D02*
X3735Y5530D01*
X4417Y5136D01*
X4142Y4659D01*
X3460Y5053D01*
X3460Y5053D01*
G37*
G36*
X4416Y3285D02*
X4758Y3482D01*
X4915Y3210D01*
X4574Y3013D01*
X4416Y3285D01*
X4416Y3285D01*
G37*
G36*
X3854Y2528D02*
X4195Y2725D01*
X4353Y2452D01*
X4011Y2255D01*
X3854Y2528D01*
X3854Y2528D01*
G37*
G36*
X3479Y3177D02*
X3820Y3374D01*
X3978Y3101D01*
X3636Y2904D01*
X3479Y3177D01*
X3479Y3177D01*
G37*
G36*
X5007Y-2225D02*
X5348Y-2422D01*
X5191Y-2695D01*
X4850Y-2498D01*
X5007Y-2225D01*
X5007Y-2225D01*
G37*
G36*
X4070Y-2117D02*
X4411Y-2314D01*
X4253Y-2587D01*
X3912Y-2390D01*
X4070Y-2117D01*
X4070Y-2117D01*
G37*
G36*
X4445Y-1467D02*
X4786Y-1664D01*
X4628Y-1937D01*
X4287Y-1740D01*
X4445Y-1467D01*
X4445Y-1467D01*
G37*
G54D22*
X826Y-5669D03*
X451Y-4803D03*
X1201Y-4803D03*
G54D10*
G36*
X-4554Y-3128D02*
X-4895Y-3325D01*
X-5053Y-3052D01*
X-4712Y-2855D01*
X-4554Y-3128D01*
X-4554Y-3128D01*
G37*
G36*
X-3992Y-2370D02*
X-4333Y-2567D01*
X-4491Y-2294D01*
X-4149Y-2097D01*
X-3992Y-2370D01*
X-3992Y-2370D01*
G37*
G36*
X-3617Y-3020D02*
X-3958Y-3217D01*
X-4116Y-2944D01*
X-3774Y-2747D01*
X-3617Y-3020D01*
X-3617Y-3020D01*
G37*
G36*
X-5046Y2225D02*
X-5388Y2422D01*
X-5230Y2695D01*
X-4889Y2498D01*
X-5046Y2225D01*
X-5046Y2225D01*
G37*
G36*
X-4109Y2117D02*
X-4450Y2314D01*
X-4293Y2587D01*
X-3951Y2390D01*
X-4109Y2117D01*
X-4109Y2117D01*
G37*
G36*
X-4484Y1467D02*
X-4825Y1664D01*
X-4668Y1937D01*
X-4326Y1740D01*
X-4484Y1467D01*
X-4484Y1467D01*
G37*
G54D22*
X-708Y5669D03*
X-333Y4803D03*
X-1083Y4803D03*
G54D23*
X2280Y-3675D03*
X2280Y-4275D03*
G54D24*
X-5172Y708D03*
X-5772Y708D03*
G54D10*
G36*
X-1718Y4842D02*
X-2108Y4617D01*
X-2233Y4834D01*
X-1843Y5059D01*
X-1718Y4842D01*
X-1718Y4842D01*
G37*
G36*
X-2018Y5362D02*
X-2408Y5137D01*
X-2533Y5353D01*
X-2143Y5578D01*
X-2018Y5362D01*
X-2018Y5362D01*
G37*
G36*
X4842Y1738D02*
X4617Y2128D01*
X4834Y2253D01*
X5059Y1863D01*
X4842Y1738D01*
X4842Y1738D01*
G37*
G36*
X5362Y2038D02*
X5137Y2428D01*
X5353Y2553D01*
X5578Y2163D01*
X5362Y2038D01*
X5362Y2038D01*
G37*
G36*
X3928Y-3309D02*
X4153Y-2919D01*
X4370Y-3044D01*
X4145Y-3434D01*
X3928Y-3309D01*
X3928Y-3309D01*
G37*
G36*
X4448Y-3609D02*
X4673Y-3219D01*
X4890Y-3344D01*
X4665Y-3734D01*
X4448Y-3609D01*
X4448Y-3609D01*
G37*
G54D24*
X-448Y4133D03*
X-1048Y4133D03*
G54D10*
G36*
X-3840Y2173D02*
X-3450Y1948D01*
X-3575Y1731D01*
X-3965Y1956D01*
X-3840Y2173D01*
X-3840Y2173D01*
G37*
G36*
X-4140Y1653D02*
X-3750Y1428D01*
X-3875Y1212D01*
X-4265Y1437D01*
X-4140Y1653D01*
X-4140Y1653D01*
G37*
G36*
X-3911Y-2106D02*
X-3521Y-1881D01*
X-3396Y-2098D01*
X-3786Y-2323D01*
X-3911Y-2106D01*
X-3911Y-2106D01*
G37*
G36*
X-3611Y-2626D02*
X-3221Y-2401D01*
X-3096Y-2617D01*
X-3486Y-2842D01*
X-3611Y-2626D01*
X-3611Y-2626D01*
G37*
G54D24*
X487Y-4133D03*
X1087Y-4133D03*
G54D10*
G36*
X3761Y-2173D02*
X3372Y-1948D01*
X3497Y-1731D01*
X3886Y-1956D01*
X3761Y-2173D01*
X3761Y-2173D01*
G37*
G36*
X4061Y-1653D02*
X3672Y-1428D01*
X3797Y-1212D01*
X4186Y-1437D01*
X4061Y-1653D01*
X4061Y-1653D01*
G37*
G36*
X3714Y2224D02*
X3324Y1999D01*
X3199Y2216D01*
X3589Y2441D01*
X3714Y2224D01*
X3714Y2224D01*
G37*
G36*
X3414Y2744D02*
X3024Y2519D01*
X2899Y2735D01*
X3289Y2960D01*
X3414Y2744D01*
X3414Y2744D01*
G37*
G54D23*
X708Y5152D03*
X708Y5752D03*
X1540Y-160D03*
X1540Y440D03*
X-2881Y544D03*
X-2881Y-55D03*
X-2212Y544D03*
X-2212Y-55D03*
X1655Y-3675D03*
X1655Y-4275D03*
G54D25*
X-1487Y-905D03*
X-1959Y-905D03*
X-2432Y-905D03*
M02*
