M48
;DRILL file {Pcbnew (2013-05-16 BZR 4016)-stable} date 7/1/2013 01:22:34
;FORMAT={-:-/ absolute / metric / decimal}
FMAT,2
METRIC,TZ
T1C0.300
T2C0.813
T3C1.016
T4C2.500
%
G90
G05
M71
T1
X-19.304Y2.146
X-18.644Y-8.255
X-17.422Y0.217
X-16.904Y-7.264
X-16.434Y12.04
X-16.294Y2.273
X-14.694Y11.1
X-14.262Y-5.817
X-12.052Y9.55
X-11.544Y-15.596
X-10.808Y-5.969
X-10.058Y-12.992
X-9.373Y6.617
X-9.347Y17.015
X-9.195Y-14.732
X-8.572Y0.483
X-8.077Y-4.585
X-8.077Y-7.645
X-7.319Y1.383
X-6.21Y15.151
X-5.702Y-0.216
X-5.563Y2.972
X-4.585Y16.802
X-4.394Y0.292
X-4.369Y-0.787
X-4.356Y0.952
X-4.178Y3.581
X-3.899Y1.549
X-3.124Y2.807
X-2.578Y-9.144
X-2.515Y2.261
X-2.349Y-4.458
X-2.235Y-20.269
X-2.159Y-15.278
X-2.146Y-18.301
X-1.956Y2.527
X-1.867Y-11.036
X-1.346Y-4.28
X-0.813Y12.205
X-0.775Y-4.75
X-0.673Y4.686
X-0.064Y-8.763
X0.127Y4.712
X0.318Y-5.41
X1.321Y4.115
X1.321Y-3.81
X1.359Y4.686
X2.235Y20.269
X2.235Y18.263
X2.489Y2.489
X2.591Y-2.515
X2.819Y15.164
X3.124Y-2.984
X3.531Y2.045
X3.543Y-1.27
X3.556Y-5.436
X3.734Y4.839
X3.785Y3.34
X4.166Y1.181
X4.166Y-10.909
X4.178Y-9.335
X4.267Y8.306
X4.394Y-1.93
X6.02Y4.813
X6.02Y-0.191
X6.21Y-15.215
X6.566Y3.378
X6.566Y-4.229
X6.579Y1.575
X6.921Y-5.423
X6.934Y-1.105
X7.785Y-17.805
X7.938Y-3.67
X7.938Y-6.312
X8.204Y-15.342
X8.7Y2.413
X8.865Y13.792
X9.119Y14.795
X10.401Y6.286
X10.49Y-6.007
X11.341Y-10.046
X11.532Y15.608
X14.567Y4.775
X14.681Y-11.062
X15.596Y-13.132
X16.269Y-2.121
X16.294Y8.572
X17.348Y-0.368
X18.669Y8.204
X19.266Y-2.159
T2
X-6.2Y-6.75
X-3.66Y-6.75
X-3.048Y5.975
X-1.12Y-6.75
X-1.016Y5.975
X1.016Y5.975
X1.42Y-6.75
X3.048Y5.975
X3.96Y-6.75
X6.5Y-6.75
T3
X-6.34Y-9.73
X-6.34Y-12.27
X-3.8Y-9.73
X-3.8Y-12.27
X-1.26Y-9.73
X-1.26Y-12.27
T4
X-11.Y0.
X11.Y0.
T0
M30
