G04 (created by PCBNEW (2013-05-16 BZR 4016)-stable) date 7/3/2013 12:56:30*
%MOIN*%
G04 Gerber Fmt 3.4, Leading zero omitted, Abs format*
%FSLAX34Y34*%
G01*
G70*
G90*
G04 APERTURE LIST*
%ADD10C,0.00590551*%
%ADD11R,0.055X0.055*%
%ADD12C,0.055*%
%ADD13O,0.05X0.1*%
%ADD14O,0.1X0.05*%
%ADD15C,0.052*%
%ADD16R,0.052X0.052*%
G04 APERTURE END LIST*
G54D10*
G54D11*
X90200Y-44800D03*
G54D12*
X89200Y-44800D03*
X88200Y-44800D03*
X87200Y-44800D03*
X86200Y-44800D03*
G54D11*
X98200Y-44800D03*
G54D12*
X99200Y-44800D03*
X100200Y-44800D03*
X101200Y-44800D03*
G54D11*
X81200Y-63800D03*
G54D12*
X82200Y-63800D03*
X83200Y-63800D03*
X84200Y-63800D03*
X85200Y-63800D03*
G54D13*
X92450Y-52380D03*
X92450Y-54450D03*
X92450Y-56520D03*
G54D14*
X93630Y-57700D03*
X97180Y-57700D03*
X101110Y-57700D03*
X93630Y-51200D03*
X97180Y-51200D03*
X101110Y-51200D03*
G54D15*
X92040Y-49660D03*
X92040Y-48860D03*
X92040Y-48060D03*
G54D16*
X92040Y-47260D03*
G54D15*
X100860Y-59310D03*
X100060Y-59310D03*
X99260Y-59310D03*
G54D16*
X98460Y-59310D03*
G54D15*
X97740Y-49660D03*
X97740Y-48860D03*
X97740Y-48060D03*
G54D16*
X97740Y-47260D03*
G54D15*
X96110Y-59310D03*
X95310Y-59310D03*
X94510Y-59310D03*
G54D16*
X93710Y-59310D03*
G54D15*
X94840Y-49660D03*
X94840Y-48860D03*
X94840Y-48060D03*
G54D16*
X94840Y-47260D03*
M02*
