G04 (created by PCBNEW (2013-05-16 BZR 4016)-stable) date 7/3/2013 12:56:30*
%MOIN*%
G04 Gerber Fmt 3.4, Leading zero omitted, Abs format*
%FSLAX34Y34*%
G01*
G70*
G90*
G04 APERTURE LIST*
%ADD10C,0.00590551*%
%ADD11R,0.0315X0.0394*%
%ADD12R,0.025X0.045*%
%ADD13R,0.045X0.025*%
%ADD14R,0.016X0.024*%
%ADD15R,0.055X0.055*%
%ADD16C,0.055*%
%ADD17R,0.032X0.05*%
%ADD18R,0.032X0.06*%
%ADD19R,0.06X0.032*%
%ADD20R,0.05X0.032*%
%ADD21R,0.0314X0.0314*%
%ADD22R,0.025X0.02*%
%ADD23R,0.0394X0.0315*%
%ADD24O,0.05X0.1*%
%ADD25O,0.1X0.05*%
%ADD26C,0.052*%
%ADD27R,0.052X0.052*%
%ADD28C,0.028*%
%ADD29C,0.01*%
%ADD30C,0.03*%
G04 APERTURE END LIST*
G54D10*
G54D11*
X99700Y-46167D03*
X100075Y-47033D03*
X99325Y-47033D03*
G54D12*
X90600Y-48900D03*
X90000Y-48900D03*
G54D13*
X92100Y-58600D03*
X92100Y-58000D03*
X91400Y-58000D03*
X91400Y-58600D03*
G54D14*
X99330Y-48330D03*
X99580Y-48330D03*
X99830Y-48330D03*
X100080Y-48330D03*
X100080Y-47730D03*
X99830Y-47730D03*
X99580Y-47730D03*
X99330Y-47730D03*
G54D15*
X90200Y-44800D03*
G54D16*
X89200Y-44800D03*
X88200Y-44800D03*
X87200Y-44800D03*
X86200Y-44800D03*
G54D15*
X98200Y-44800D03*
G54D16*
X99200Y-44800D03*
X100200Y-44800D03*
X101200Y-44800D03*
G54D15*
X81200Y-63800D03*
G54D16*
X82200Y-63800D03*
X83200Y-63800D03*
X84200Y-63800D03*
X85200Y-63800D03*
G54D17*
X93770Y-57010D03*
G54D18*
X94370Y-56960D03*
X94970Y-56960D03*
X95570Y-56960D03*
X96160Y-56950D03*
X96760Y-56950D03*
X97360Y-56950D03*
X97960Y-56950D03*
X98560Y-56950D03*
X99160Y-56950D03*
X99760Y-56950D03*
X100360Y-56950D03*
X100960Y-56950D03*
X100970Y-51960D03*
X100370Y-51960D03*
X99770Y-51960D03*
X99170Y-51960D03*
X98570Y-51960D03*
X97970Y-51960D03*
X97370Y-51960D03*
X96770Y-51960D03*
X96170Y-51960D03*
X95570Y-51960D03*
X94970Y-51960D03*
X94370Y-51960D03*
G54D17*
X93770Y-51910D03*
G54D19*
X93220Y-52960D03*
X93220Y-53560D03*
X93220Y-54160D03*
X93220Y-54760D03*
X93220Y-55360D03*
X93220Y-55960D03*
G54D20*
X93170Y-56560D03*
X93170Y-52360D03*
G54D21*
X84745Y-60600D03*
X84155Y-60600D03*
X84745Y-61500D03*
X84155Y-61500D03*
G54D22*
X100730Y-47400D03*
X100730Y-47730D03*
X100730Y-48030D03*
X100730Y-48360D03*
X101270Y-48360D03*
X101270Y-48030D03*
X101270Y-47730D03*
X101270Y-47400D03*
G54D12*
X90000Y-47100D03*
X90600Y-47100D03*
X91500Y-59300D03*
X92100Y-59300D03*
X95100Y-50800D03*
X94500Y-50800D03*
X85950Y-60600D03*
X85350Y-60600D03*
X85950Y-61500D03*
X85350Y-61500D03*
X90600Y-48200D03*
X90000Y-48200D03*
X95600Y-50800D03*
X96200Y-50800D03*
X92000Y-50800D03*
X91400Y-50800D03*
G54D23*
X89328Y-47475D03*
X88462Y-47850D03*
X88462Y-47100D03*
G54D24*
X92450Y-52380D03*
X92450Y-54450D03*
X92450Y-56520D03*
G54D25*
X93630Y-57700D03*
X97180Y-57700D03*
X101110Y-57700D03*
X93630Y-51200D03*
X97180Y-51200D03*
X101110Y-51200D03*
G54D26*
X92040Y-49660D03*
X92040Y-48860D03*
X92040Y-48060D03*
G54D27*
X92040Y-47260D03*
G54D26*
X100860Y-59310D03*
X100060Y-59310D03*
X99260Y-59310D03*
G54D27*
X98460Y-59310D03*
G54D26*
X97740Y-49660D03*
X97740Y-48860D03*
X97740Y-48060D03*
G54D27*
X97740Y-47260D03*
G54D26*
X96110Y-59310D03*
X95310Y-59310D03*
X94510Y-59310D03*
G54D27*
X93710Y-59310D03*
G54D26*
X94840Y-49660D03*
X94840Y-48860D03*
X94840Y-48060D03*
G54D27*
X94840Y-47260D03*
G54D28*
X100200Y-48350D03*
X100150Y-49300D03*
X99300Y-50200D03*
X101300Y-48200D03*
X88600Y-55100D03*
X91600Y-54000D03*
X96150Y-48875D03*
X90000Y-56650D03*
X89450Y-59900D03*
X87750Y-59900D03*
X101300Y-47600D03*
X94000Y-52700D03*
X97500Y-56200D03*
X91100Y-51600D03*
X94000Y-53700D03*
X99300Y-47000D03*
X100600Y-47300D03*
X91400Y-57700D03*
X99750Y-46250D03*
X91400Y-50800D03*
X91400Y-48200D03*
X84150Y-62000D03*
X88950Y-60300D03*
X87500Y-60350D03*
X88500Y-60700D03*
X86900Y-60850D03*
G54D29*
X100180Y-48330D02*
X100080Y-48330D01*
X100200Y-48350D02*
X100180Y-48330D01*
X99580Y-48330D02*
X99580Y-48730D01*
X99580Y-48730D02*
X100150Y-49300D01*
X101270Y-48030D02*
X101270Y-48170D01*
X94500Y-50300D02*
X94500Y-50800D01*
X94600Y-50200D02*
X94500Y-50300D01*
X99300Y-50200D02*
X94600Y-50200D01*
X101270Y-48170D02*
X101300Y-48200D01*
X92000Y-50800D02*
X92000Y-51500D01*
X81200Y-61900D02*
X81200Y-63800D01*
X88000Y-55100D02*
X81200Y-61900D01*
X88200Y-55100D02*
X88000Y-55100D01*
X88600Y-55100D02*
X88200Y-55100D01*
X91600Y-51900D02*
X91600Y-54000D01*
X92000Y-51500D02*
X91600Y-51900D01*
X101270Y-48360D02*
X101270Y-48030D01*
X94500Y-50800D02*
X94400Y-50800D01*
X94400Y-50800D02*
X94200Y-50600D01*
X94200Y-50600D02*
X92200Y-50600D01*
X92200Y-50600D02*
X92000Y-50800D01*
X94370Y-51960D02*
X94370Y-51030D01*
X94370Y-51030D02*
X94500Y-50800D01*
X87750Y-59900D02*
X87750Y-59600D01*
X96150Y-48875D02*
X96150Y-48860D01*
X90000Y-57350D02*
X90000Y-56650D01*
X87750Y-59600D02*
X90000Y-57350D01*
X82200Y-63800D02*
X82225Y-62225D01*
X91500Y-59900D02*
X89450Y-59900D01*
X87750Y-59900D02*
X83900Y-60050D01*
X82225Y-62225D02*
X83900Y-60050D01*
X91500Y-59300D02*
X91500Y-59900D01*
X100060Y-59310D02*
X100060Y-59590D01*
X99750Y-59900D02*
X91500Y-59900D01*
X100060Y-59590D02*
X99750Y-59900D01*
X97740Y-48860D02*
X96250Y-48860D01*
X96250Y-48860D02*
X96150Y-48860D01*
X96150Y-48860D02*
X94840Y-48860D01*
X101270Y-47400D02*
X101270Y-47570D01*
X101270Y-47570D02*
X101300Y-47600D01*
X101270Y-47730D02*
X101270Y-47400D01*
G54D30*
X85200Y-63800D02*
X85200Y-63300D01*
X90600Y-57900D02*
X90600Y-48900D01*
X85200Y-63300D02*
X90600Y-57900D01*
X90600Y-48900D02*
X92000Y-48900D01*
X92000Y-48900D02*
X92040Y-48860D01*
G54D29*
X95600Y-50800D02*
X95100Y-50800D01*
X94970Y-51960D02*
X94970Y-51030D01*
X94970Y-51030D02*
X95100Y-50800D01*
X100730Y-48030D02*
X99370Y-48030D01*
X99330Y-48070D02*
X99330Y-48330D01*
X99370Y-48030D02*
X99330Y-48070D01*
X99330Y-48330D02*
X99330Y-49230D01*
X100370Y-50270D02*
X100370Y-51960D01*
X99330Y-49230D02*
X100370Y-50270D01*
X100730Y-48360D02*
X100730Y-48700D01*
X100730Y-48700D02*
X100700Y-48700D01*
X101200Y-48700D02*
X101100Y-48700D01*
X99830Y-48530D02*
X100000Y-48700D01*
X100000Y-48700D02*
X100700Y-48700D01*
X100700Y-48700D02*
X101100Y-48700D01*
X99830Y-48530D02*
X99830Y-48330D01*
X100970Y-51960D02*
X101440Y-51960D01*
X101900Y-49400D02*
X101200Y-48700D01*
X101900Y-51500D02*
X101900Y-49400D01*
X101440Y-51960D02*
X101900Y-51500D01*
X97500Y-56200D02*
X94000Y-52700D01*
X89200Y-44800D02*
X89200Y-45300D01*
X94840Y-46940D02*
X94840Y-47260D01*
X93800Y-45900D02*
X94840Y-46940D01*
X89800Y-45900D02*
X93800Y-45900D01*
X89200Y-45300D02*
X89800Y-45900D01*
X92100Y-58000D02*
X92100Y-57600D01*
X91100Y-56600D02*
X91100Y-51600D01*
X92100Y-57600D02*
X91100Y-56600D01*
X94970Y-56960D02*
X94970Y-54670D01*
X94970Y-54670D02*
X94000Y-53700D01*
X90600Y-47100D02*
X90600Y-46700D01*
X86200Y-45500D02*
X86200Y-44800D01*
X87100Y-46400D02*
X86200Y-45500D01*
X90300Y-46400D02*
X87100Y-46400D01*
X90600Y-46700D02*
X90300Y-46400D01*
X99325Y-47033D02*
X99325Y-46725D01*
X98200Y-45600D02*
X98200Y-44800D01*
X99325Y-46725D02*
X98200Y-45600D01*
X100730Y-47400D02*
X100700Y-47400D01*
X99330Y-47030D02*
X99330Y-47730D01*
X99300Y-47000D02*
X99330Y-47030D01*
X100700Y-47400D02*
X100600Y-47300D01*
X99580Y-47730D02*
X99330Y-47730D01*
X100080Y-47730D02*
X100080Y-47038D01*
X99200Y-44900D02*
X99200Y-44800D01*
X100100Y-45800D02*
X99200Y-44900D01*
X100100Y-47018D02*
X100100Y-45800D01*
X100080Y-47038D02*
X100100Y-47018D01*
X100730Y-47730D02*
X100070Y-47730D01*
X100000Y-47800D02*
X100080Y-47730D01*
X100070Y-47730D02*
X100000Y-47800D01*
X100080Y-47730D02*
X99950Y-47730D01*
X99950Y-47730D02*
X99830Y-47730D01*
X91400Y-58000D02*
X91400Y-57700D01*
X97180Y-51200D02*
X96600Y-51200D01*
X96600Y-51200D02*
X96200Y-50800D01*
X94840Y-49660D02*
X97740Y-49660D01*
X99750Y-46250D02*
X99750Y-46276D01*
X100860Y-59310D02*
X100860Y-59260D01*
X99300Y-57700D02*
X97180Y-57700D01*
X100860Y-59260D02*
X99300Y-57700D01*
X92450Y-54450D02*
X92450Y-52380D01*
X92450Y-54450D02*
X92450Y-56520D01*
X90600Y-48200D02*
X91400Y-48200D01*
X92450Y-56520D02*
X93130Y-56520D01*
X93620Y-57690D02*
X93630Y-57700D01*
X93620Y-57010D02*
X93620Y-57690D01*
X93130Y-56520D02*
X93620Y-57010D01*
X84150Y-62000D02*
X84155Y-61995D01*
X84155Y-61995D02*
X84155Y-61500D01*
X84155Y-60600D02*
X84155Y-61500D01*
X93630Y-51200D02*
X93630Y-51770D01*
X93630Y-51770D02*
X93170Y-52230D01*
X93170Y-52230D02*
X92600Y-52230D01*
X92600Y-52230D02*
X92450Y-52380D01*
X91300Y-58600D02*
X92100Y-58600D01*
X92100Y-58600D02*
X92100Y-59300D01*
X92100Y-59300D02*
X92110Y-59310D01*
X92110Y-59310D02*
X93910Y-59310D01*
X85350Y-60600D02*
X84745Y-60600D01*
X85350Y-61500D02*
X84745Y-61500D01*
X85950Y-60600D02*
X86550Y-60600D01*
X100200Y-57110D02*
X100360Y-56950D01*
X100200Y-57900D02*
X100200Y-57110D01*
X100700Y-58400D02*
X100200Y-57900D01*
X101300Y-58400D02*
X100700Y-58400D01*
X101500Y-58600D02*
X101300Y-58400D01*
X101500Y-59750D02*
X101500Y-58600D01*
X100950Y-60300D02*
X101500Y-59750D01*
X88950Y-60300D02*
X100950Y-60300D01*
X86800Y-60350D02*
X87500Y-60350D01*
X86550Y-60600D02*
X86800Y-60350D01*
X85950Y-61500D02*
X86250Y-61500D01*
X101650Y-56950D02*
X100960Y-56950D01*
X101850Y-57150D02*
X101650Y-56950D01*
X101850Y-60150D02*
X101850Y-57150D01*
X101300Y-60700D02*
X101850Y-60150D01*
X88500Y-60700D02*
X101300Y-60700D01*
X86250Y-61500D02*
X86900Y-60850D01*
X90000Y-48900D02*
X89512Y-48900D01*
X89512Y-48900D02*
X88462Y-47850D01*
X88462Y-47100D02*
X90000Y-47100D01*
X89328Y-47475D02*
X89328Y-47528D01*
X89328Y-47528D02*
X90000Y-48200D01*
X90000Y-48200D02*
X90000Y-47800D01*
X91440Y-47260D02*
X92040Y-47260D01*
X91000Y-47700D02*
X91440Y-47260D01*
X90100Y-47700D02*
X90135Y-47700D01*
X90135Y-47700D02*
X91000Y-47700D01*
X90000Y-47800D02*
X90100Y-47700D01*
G54D10*
G36*
X90200Y-56310D02*
X90077Y-56260D01*
X89922Y-56259D01*
X89779Y-56319D01*
X89669Y-56428D01*
X89610Y-56572D01*
X89609Y-56727D01*
X89669Y-56870D01*
X89700Y-56901D01*
X89700Y-57225D01*
X87537Y-59387D01*
X87472Y-59485D01*
X87450Y-59600D01*
X87450Y-59613D01*
X83888Y-59750D01*
X83875Y-59753D01*
X83861Y-59752D01*
X83818Y-59766D01*
X83774Y-59777D01*
X83763Y-59785D01*
X83750Y-59789D01*
X83716Y-59819D01*
X83679Y-59846D01*
X83672Y-59857D01*
X83662Y-59866D01*
X81987Y-62041D01*
X81971Y-62073D01*
X81949Y-62105D01*
X81944Y-62128D01*
X81935Y-62146D01*
X81932Y-62182D01*
X81924Y-62220D01*
X81906Y-63353D01*
X81903Y-63354D01*
X81755Y-63502D01*
X81725Y-63574D01*
X81725Y-63574D01*
X81724Y-63475D01*
X81686Y-63383D01*
X81616Y-63312D01*
X81524Y-63274D01*
X81312Y-63275D01*
X81250Y-63337D01*
X81250Y-63750D01*
X81257Y-63750D01*
X81257Y-63850D01*
X81250Y-63850D01*
X81250Y-63857D01*
X81150Y-63857D01*
X81150Y-63850D01*
X81142Y-63850D01*
X81142Y-63750D01*
X81150Y-63750D01*
X81150Y-63337D01*
X81087Y-63275D01*
X80969Y-63274D01*
X80969Y-62111D01*
X88790Y-54290D01*
X88849Y-54203D01*
X88869Y-54100D01*
X88869Y-49100D01*
X88849Y-48996D01*
X88790Y-48909D01*
X85969Y-46088D01*
X85969Y-45684D01*
X85987Y-45712D01*
X86887Y-46612D01*
X86887Y-46612D01*
X86985Y-46677D01*
X87100Y-46700D01*
X88197Y-46700D01*
X88123Y-46730D01*
X88053Y-46800D01*
X88015Y-46892D01*
X88014Y-46992D01*
X88014Y-47307D01*
X88052Y-47398D01*
X88123Y-47469D01*
X88136Y-47474D01*
X88123Y-47480D01*
X88053Y-47550D01*
X88015Y-47642D01*
X88014Y-47742D01*
X88014Y-48057D01*
X88052Y-48148D01*
X88123Y-48219D01*
X88215Y-48257D01*
X88314Y-48257D01*
X88445Y-48257D01*
X89299Y-49112D01*
X89299Y-49112D01*
X89397Y-49177D01*
X89512Y-49200D01*
X89635Y-49200D01*
X89662Y-49266D01*
X89733Y-49336D01*
X89825Y-49374D01*
X89924Y-49375D01*
X90174Y-49375D01*
X90200Y-49364D01*
X90200Y-56310D01*
X90200Y-56310D01*
G37*
G54D29*
X90200Y-56310D02*
X90077Y-56260D01*
X89922Y-56259D01*
X89779Y-56319D01*
X89669Y-56428D01*
X89610Y-56572D01*
X89609Y-56727D01*
X89669Y-56870D01*
X89700Y-56901D01*
X89700Y-57225D01*
X87537Y-59387D01*
X87472Y-59485D01*
X87450Y-59600D01*
X87450Y-59613D01*
X83888Y-59750D01*
X83875Y-59753D01*
X83861Y-59752D01*
X83818Y-59766D01*
X83774Y-59777D01*
X83763Y-59785D01*
X83750Y-59789D01*
X83716Y-59819D01*
X83679Y-59846D01*
X83672Y-59857D01*
X83662Y-59866D01*
X81987Y-62041D01*
X81971Y-62073D01*
X81949Y-62105D01*
X81944Y-62128D01*
X81935Y-62146D01*
X81932Y-62182D01*
X81924Y-62220D01*
X81906Y-63353D01*
X81903Y-63354D01*
X81755Y-63502D01*
X81725Y-63574D01*
X81725Y-63574D01*
X81724Y-63475D01*
X81686Y-63383D01*
X81616Y-63312D01*
X81524Y-63274D01*
X81312Y-63275D01*
X81250Y-63337D01*
X81250Y-63750D01*
X81257Y-63750D01*
X81257Y-63850D01*
X81250Y-63850D01*
X81250Y-63857D01*
X81150Y-63857D01*
X81150Y-63850D01*
X81142Y-63850D01*
X81142Y-63750D01*
X81150Y-63750D01*
X81150Y-63337D01*
X81087Y-63275D01*
X80969Y-63274D01*
X80969Y-62111D01*
X88790Y-54290D01*
X88849Y-54203D01*
X88869Y-54100D01*
X88869Y-49100D01*
X88849Y-48996D01*
X88790Y-48909D01*
X85969Y-46088D01*
X85969Y-45684D01*
X85987Y-45712D01*
X86887Y-46612D01*
X86887Y-46612D01*
X86985Y-46677D01*
X87100Y-46700D01*
X88197Y-46700D01*
X88123Y-46730D01*
X88053Y-46800D01*
X88015Y-46892D01*
X88014Y-46992D01*
X88014Y-47307D01*
X88052Y-47398D01*
X88123Y-47469D01*
X88136Y-47474D01*
X88123Y-47480D01*
X88053Y-47550D01*
X88015Y-47642D01*
X88014Y-47742D01*
X88014Y-48057D01*
X88052Y-48148D01*
X88123Y-48219D01*
X88215Y-48257D01*
X88314Y-48257D01*
X88445Y-48257D01*
X89299Y-49112D01*
X89299Y-49112D01*
X89397Y-49177D01*
X89512Y-49200D01*
X89635Y-49200D01*
X89662Y-49266D01*
X89733Y-49336D01*
X89825Y-49374D01*
X89924Y-49375D01*
X90174Y-49375D01*
X90200Y-49364D01*
X90200Y-56310D01*
G54D10*
G36*
X101600Y-50760D02*
X101566Y-50738D01*
X101374Y-50700D01*
X100845Y-50700D01*
X100670Y-50734D01*
X100670Y-50270D01*
X100647Y-50155D01*
X100582Y-50057D01*
X100582Y-50057D01*
X99630Y-49105D01*
X99630Y-48754D01*
X99787Y-48912D01*
X99787Y-48912D01*
X99885Y-48977D01*
X100000Y-49000D01*
X100700Y-49000D01*
X100730Y-49000D01*
X101075Y-49000D01*
X101600Y-49524D01*
X101600Y-50760D01*
X101600Y-50760D01*
G37*
G54D29*
X101600Y-50760D02*
X101566Y-50738D01*
X101374Y-50700D01*
X100845Y-50700D01*
X100670Y-50734D01*
X100670Y-50270D01*
X100647Y-50155D01*
X100582Y-50057D01*
X100582Y-50057D01*
X99630Y-49105D01*
X99630Y-48754D01*
X99787Y-48912D01*
X99787Y-48912D01*
X99885Y-48977D01*
X100000Y-49000D01*
X100700Y-49000D01*
X100730Y-49000D01*
X101075Y-49000D01*
X101600Y-49524D01*
X101600Y-50760D01*
G54D10*
G36*
X101830Y-48906D02*
X101566Y-48642D01*
X101607Y-48601D01*
X101645Y-48509D01*
X101645Y-48472D01*
X101582Y-48410D01*
X101320Y-48410D01*
X101320Y-48417D01*
X101289Y-48417D01*
X101212Y-48402D01*
X101212Y-48325D01*
X101220Y-48317D01*
X101220Y-48310D01*
X101220Y-48302D01*
X101320Y-48302D01*
X101320Y-48310D01*
X101320Y-48317D01*
X101382Y-48380D01*
X101345Y-48380D01*
X101444Y-48379D01*
X101536Y-48341D01*
X101568Y-48310D01*
X101582Y-48310D01*
X101645Y-48247D01*
X101645Y-48210D01*
X101638Y-48195D01*
X101645Y-48179D01*
X101645Y-48142D01*
X101582Y-48080D01*
X101568Y-48080D01*
X101536Y-48048D01*
X101529Y-48045D01*
X101536Y-48042D01*
X101606Y-47971D01*
X101618Y-47944D01*
X101645Y-47917D01*
X101645Y-47880D01*
X101644Y-47880D01*
X101644Y-47879D01*
X101645Y-47786D01*
X101689Y-47677D01*
X101690Y-47522D01*
X101645Y-47413D01*
X101645Y-47250D01*
X101607Y-47158D01*
X101536Y-47088D01*
X101444Y-47050D01*
X101345Y-47049D01*
X101095Y-47049D01*
X101003Y-47087D01*
X101000Y-47091D01*
X100996Y-47088D01*
X100904Y-47050D01*
X100901Y-47050D01*
X100821Y-46969D01*
X100677Y-46910D01*
X100522Y-46909D01*
X100482Y-46926D01*
X100482Y-46786D01*
X100444Y-46694D01*
X100400Y-46649D01*
X100400Y-45800D01*
X100377Y-45685D01*
X100312Y-45587D01*
X100312Y-45587D01*
X100016Y-45292D01*
X100095Y-45324D01*
X100303Y-45325D01*
X100497Y-45245D01*
X100644Y-45097D01*
X100700Y-44964D01*
X100754Y-45097D01*
X100902Y-45244D01*
X101095Y-45324D01*
X101303Y-45325D01*
X101497Y-45245D01*
X101644Y-45097D01*
X101724Y-44904D01*
X101725Y-44696D01*
X101662Y-44543D01*
X101709Y-44590D01*
X101830Y-44711D01*
X101830Y-48906D01*
X101830Y-48906D01*
G37*
G54D29*
X101830Y-48906D02*
X101566Y-48642D01*
X101607Y-48601D01*
X101645Y-48509D01*
X101645Y-48472D01*
X101582Y-48410D01*
X101320Y-48410D01*
X101320Y-48417D01*
X101289Y-48417D01*
X101212Y-48402D01*
X101212Y-48325D01*
X101220Y-48317D01*
X101220Y-48310D01*
X101220Y-48302D01*
X101320Y-48302D01*
X101320Y-48310D01*
X101320Y-48317D01*
X101382Y-48380D01*
X101345Y-48380D01*
X101444Y-48379D01*
X101536Y-48341D01*
X101568Y-48310D01*
X101582Y-48310D01*
X101645Y-48247D01*
X101645Y-48210D01*
X101638Y-48195D01*
X101645Y-48179D01*
X101645Y-48142D01*
X101582Y-48080D01*
X101568Y-48080D01*
X101536Y-48048D01*
X101529Y-48045D01*
X101536Y-48042D01*
X101606Y-47971D01*
X101618Y-47944D01*
X101645Y-47917D01*
X101645Y-47880D01*
X101644Y-47880D01*
X101644Y-47879D01*
X101645Y-47786D01*
X101689Y-47677D01*
X101690Y-47522D01*
X101645Y-47413D01*
X101645Y-47250D01*
X101607Y-47158D01*
X101536Y-47088D01*
X101444Y-47050D01*
X101345Y-47049D01*
X101095Y-47049D01*
X101003Y-47087D01*
X101000Y-47091D01*
X100996Y-47088D01*
X100904Y-47050D01*
X100901Y-47050D01*
X100821Y-46969D01*
X100677Y-46910D01*
X100522Y-46909D01*
X100482Y-46926D01*
X100482Y-46786D01*
X100444Y-46694D01*
X100400Y-46649D01*
X100400Y-45800D01*
X100377Y-45685D01*
X100312Y-45587D01*
X100312Y-45587D01*
X100016Y-45292D01*
X100095Y-45324D01*
X100303Y-45325D01*
X100497Y-45245D01*
X100644Y-45097D01*
X100700Y-44964D01*
X100754Y-45097D01*
X100902Y-45244D01*
X101095Y-45324D01*
X101303Y-45325D01*
X101497Y-45245D01*
X101644Y-45097D01*
X101724Y-44904D01*
X101725Y-44696D01*
X101662Y-44543D01*
X101709Y-44590D01*
X101830Y-44711D01*
X101830Y-48906D01*
G54D10*
G36*
X101830Y-56716D02*
X101764Y-56672D01*
X101650Y-56650D01*
X101370Y-56650D01*
X101370Y-56600D01*
X101332Y-56508D01*
X101261Y-56438D01*
X101169Y-56400D01*
X101070Y-56399D01*
X100750Y-56399D01*
X100659Y-56437D01*
X100569Y-56400D01*
X100470Y-56399D01*
X100150Y-56399D01*
X100059Y-56437D01*
X99969Y-56400D01*
X99870Y-56399D01*
X99550Y-56399D01*
X99459Y-56437D01*
X99369Y-56400D01*
X99270Y-56399D01*
X98950Y-56399D01*
X98859Y-56437D01*
X98769Y-56400D01*
X98670Y-56399D01*
X98350Y-56399D01*
X98259Y-56437D01*
X98169Y-56400D01*
X98070Y-56399D01*
X97839Y-56399D01*
X97889Y-56277D01*
X97890Y-56122D01*
X97830Y-55979D01*
X97721Y-55869D01*
X97577Y-55810D01*
X97534Y-55810D01*
X94390Y-52665D01*
X94390Y-52622D01*
X94330Y-52479D01*
X94309Y-52458D01*
X94320Y-52447D01*
X94320Y-52010D01*
X94312Y-52010D01*
X94312Y-51910D01*
X94320Y-51910D01*
X94320Y-51472D01*
X94309Y-51461D01*
X94356Y-51391D01*
X94379Y-51275D01*
X94387Y-51275D01*
X94450Y-51212D01*
X94450Y-50850D01*
X94442Y-50850D01*
X94442Y-50750D01*
X94450Y-50750D01*
X94450Y-50387D01*
X94387Y-50325D01*
X94325Y-50324D01*
X94233Y-50362D01*
X94163Y-50433D01*
X94125Y-50525D01*
X94124Y-50624D01*
X94125Y-50687D01*
X94187Y-50749D01*
X94125Y-50749D01*
X94125Y-50764D01*
X94086Y-50738D01*
X93894Y-50700D01*
X93365Y-50700D01*
X93173Y-50738D01*
X93011Y-50846D01*
X92903Y-51008D01*
X92865Y-51200D01*
X92903Y-51391D01*
X93011Y-51553D01*
X93173Y-51661D01*
X93290Y-51685D01*
X93045Y-51930D01*
X92913Y-51930D01*
X92911Y-51923D01*
X92803Y-51761D01*
X92641Y-51653D01*
X92450Y-51615D01*
X92375Y-51630D01*
X92375Y-50975D01*
X92375Y-50624D01*
X92374Y-50525D01*
X92336Y-50433D01*
X92266Y-50362D01*
X92174Y-50324D01*
X92112Y-50325D01*
X92050Y-50387D01*
X92050Y-50750D01*
X92312Y-50750D01*
X92375Y-50687D01*
X92375Y-50624D01*
X92375Y-50975D01*
X92375Y-50912D01*
X92312Y-50850D01*
X92050Y-50850D01*
X92050Y-51212D01*
X92112Y-51275D01*
X92174Y-51275D01*
X92266Y-51237D01*
X92336Y-51166D01*
X92374Y-51074D01*
X92375Y-50975D01*
X92375Y-51630D01*
X92258Y-51653D01*
X92096Y-51761D01*
X91988Y-51923D01*
X91950Y-52115D01*
X91950Y-52644D01*
X91988Y-52836D01*
X92096Y-52998D01*
X92150Y-53034D01*
X92150Y-53795D01*
X92096Y-53831D01*
X91988Y-53993D01*
X91950Y-54185D01*
X91950Y-54714D01*
X91988Y-54906D01*
X92096Y-55068D01*
X92150Y-55104D01*
X92150Y-55865D01*
X92096Y-55901D01*
X91988Y-56063D01*
X91950Y-56255D01*
X91950Y-56784D01*
X91988Y-56976D01*
X92096Y-57138D01*
X92258Y-57246D01*
X92450Y-57284D01*
X92641Y-57246D01*
X92803Y-57138D01*
X92911Y-56976D01*
X92913Y-56969D01*
X92969Y-56970D01*
X93155Y-56970D01*
X93320Y-57134D01*
X93320Y-57209D01*
X93173Y-57238D01*
X93011Y-57346D01*
X92903Y-57508D01*
X92865Y-57700D01*
X92903Y-57891D01*
X93011Y-58053D01*
X93173Y-58161D01*
X93365Y-58200D01*
X93894Y-58200D01*
X94086Y-58161D01*
X94248Y-58053D01*
X94356Y-57891D01*
X94394Y-57700D01*
X94356Y-57510D01*
X94579Y-57510D01*
X94670Y-57472D01*
X94760Y-57509D01*
X94859Y-57510D01*
X95179Y-57510D01*
X95270Y-57472D01*
X95360Y-57509D01*
X95459Y-57510D01*
X95779Y-57510D01*
X95871Y-57472D01*
X95874Y-57468D01*
X95950Y-57499D01*
X96049Y-57500D01*
X96369Y-57500D01*
X96460Y-57462D01*
X96478Y-57470D01*
X96453Y-57508D01*
X96415Y-57700D01*
X96453Y-57891D01*
X96561Y-58053D01*
X96723Y-58161D01*
X96915Y-58200D01*
X97444Y-58200D01*
X97636Y-58161D01*
X97798Y-58053D01*
X97834Y-58000D01*
X99175Y-58000D01*
X99975Y-58799D01*
X99959Y-58799D01*
X99771Y-58877D01*
X99659Y-58988D01*
X99549Y-58877D01*
X99361Y-58800D01*
X99159Y-58799D01*
X98971Y-58877D01*
X98934Y-58914D01*
X98932Y-58908D01*
X98861Y-58838D01*
X98769Y-58800D01*
X98670Y-58799D01*
X98150Y-58799D01*
X98058Y-58837D01*
X97988Y-58908D01*
X97950Y-59000D01*
X97949Y-59099D01*
X97949Y-59600D01*
X96541Y-59600D01*
X96542Y-59599D01*
X96619Y-59411D01*
X96620Y-59209D01*
X96542Y-59021D01*
X96399Y-58877D01*
X96211Y-58800D01*
X96009Y-58799D01*
X95821Y-58877D01*
X95709Y-58988D01*
X95599Y-58877D01*
X95411Y-58800D01*
X95209Y-58799D01*
X95021Y-58877D01*
X94909Y-58988D01*
X94799Y-58877D01*
X94611Y-58800D01*
X94409Y-58799D01*
X94221Y-58877D01*
X94184Y-58914D01*
X94182Y-58908D01*
X94111Y-58838D01*
X94019Y-58800D01*
X93920Y-58799D01*
X93400Y-58799D01*
X93308Y-58837D01*
X93238Y-58908D01*
X93200Y-59000D01*
X93200Y-59010D01*
X92468Y-59010D01*
X92442Y-58946D01*
X92466Y-58937D01*
X92536Y-58866D01*
X92574Y-58774D01*
X92575Y-58675D01*
X92575Y-58425D01*
X92537Y-58333D01*
X92503Y-58300D01*
X92536Y-58266D01*
X92574Y-58174D01*
X92575Y-58075D01*
X92575Y-57825D01*
X92537Y-57733D01*
X92466Y-57663D01*
X92400Y-57635D01*
X92400Y-57600D01*
X92377Y-57485D01*
X92312Y-57387D01*
X92312Y-57387D01*
X91400Y-56475D01*
X91400Y-51851D01*
X91430Y-51821D01*
X91489Y-51677D01*
X91490Y-51522D01*
X91430Y-51379D01*
X91326Y-51275D01*
X91574Y-51275D01*
X91666Y-51237D01*
X91700Y-51203D01*
X91733Y-51237D01*
X91825Y-51275D01*
X91887Y-51275D01*
X91950Y-51212D01*
X91950Y-50850D01*
X91942Y-50850D01*
X91942Y-50750D01*
X91950Y-50750D01*
X91950Y-50387D01*
X91887Y-50325D01*
X91825Y-50324D01*
X91733Y-50362D01*
X91700Y-50396D01*
X91666Y-50363D01*
X91574Y-50325D01*
X91475Y-50324D01*
X91225Y-50324D01*
X91133Y-50362D01*
X91063Y-50433D01*
X91025Y-50525D01*
X91024Y-50624D01*
X91024Y-50686D01*
X91010Y-50722D01*
X91009Y-50877D01*
X91024Y-50913D01*
X91024Y-51074D01*
X91062Y-51166D01*
X91106Y-51210D01*
X91022Y-51209D01*
X91000Y-51219D01*
X91000Y-49300D01*
X91678Y-49300D01*
X91607Y-49370D01*
X91530Y-49558D01*
X91529Y-49761D01*
X91607Y-49948D01*
X91750Y-50092D01*
X91938Y-50169D01*
X92141Y-50170D01*
X92328Y-50092D01*
X92472Y-49949D01*
X92549Y-49761D01*
X92550Y-49559D01*
X92472Y-49371D01*
X92361Y-49259D01*
X92472Y-49149D01*
X92549Y-48961D01*
X92550Y-48759D01*
X92472Y-48571D01*
X92361Y-48459D01*
X92472Y-48349D01*
X92549Y-48161D01*
X92550Y-47959D01*
X92472Y-47771D01*
X92435Y-47734D01*
X92441Y-47732D01*
X92511Y-47661D01*
X92549Y-47569D01*
X92550Y-47470D01*
X92550Y-46950D01*
X92512Y-46858D01*
X92441Y-46788D01*
X92349Y-46750D01*
X92250Y-46749D01*
X91730Y-46749D01*
X91638Y-46787D01*
X91568Y-46858D01*
X91530Y-46950D01*
X91530Y-46960D01*
X91440Y-46960D01*
X91325Y-46982D01*
X91227Y-47047D01*
X90975Y-47300D01*
X90975Y-47275D01*
X90975Y-46825D01*
X90937Y-46733D01*
X90899Y-46695D01*
X90877Y-46585D01*
X90812Y-46487D01*
X90812Y-46487D01*
X90524Y-46200D01*
X93675Y-46200D01*
X94358Y-46882D01*
X94330Y-46950D01*
X94329Y-47049D01*
X94329Y-47569D01*
X94367Y-47661D01*
X94438Y-47731D01*
X94444Y-47734D01*
X94407Y-47770D01*
X94330Y-47958D01*
X94329Y-48161D01*
X94407Y-48348D01*
X94518Y-48460D01*
X94407Y-48570D01*
X94330Y-48758D01*
X94329Y-48961D01*
X94407Y-49148D01*
X94518Y-49260D01*
X94407Y-49370D01*
X94330Y-49558D01*
X94329Y-49761D01*
X94407Y-49948D01*
X94550Y-50092D01*
X94738Y-50169D01*
X94941Y-50170D01*
X95128Y-50092D01*
X95261Y-49960D01*
X97318Y-49960D01*
X97450Y-50092D01*
X97638Y-50169D01*
X97841Y-50170D01*
X98028Y-50092D01*
X98172Y-49949D01*
X98249Y-49761D01*
X98250Y-49559D01*
X98172Y-49371D01*
X98061Y-49259D01*
X98172Y-49149D01*
X98249Y-48961D01*
X98250Y-48759D01*
X98172Y-48571D01*
X98061Y-48459D01*
X98172Y-48349D01*
X98249Y-48161D01*
X98250Y-47959D01*
X98172Y-47771D01*
X98135Y-47734D01*
X98141Y-47732D01*
X98211Y-47661D01*
X98249Y-47569D01*
X98250Y-47470D01*
X98250Y-46950D01*
X98212Y-46858D01*
X98141Y-46788D01*
X98049Y-46750D01*
X97950Y-46749D01*
X97430Y-46749D01*
X97338Y-46787D01*
X97268Y-46858D01*
X97230Y-46950D01*
X97229Y-47049D01*
X97229Y-47569D01*
X97267Y-47661D01*
X97338Y-47731D01*
X97344Y-47734D01*
X97307Y-47770D01*
X97230Y-47958D01*
X97229Y-48161D01*
X97307Y-48348D01*
X97418Y-48460D01*
X97318Y-48560D01*
X96386Y-48560D01*
X96371Y-48544D01*
X96227Y-48485D01*
X96072Y-48484D01*
X95929Y-48544D01*
X95913Y-48560D01*
X95261Y-48560D01*
X95161Y-48459D01*
X95272Y-48349D01*
X95349Y-48161D01*
X95350Y-47959D01*
X95272Y-47771D01*
X95235Y-47734D01*
X95241Y-47732D01*
X95311Y-47661D01*
X95349Y-47569D01*
X95350Y-47470D01*
X95350Y-46950D01*
X95312Y-46858D01*
X95241Y-46788D01*
X95149Y-46750D01*
X95066Y-46749D01*
X95066Y-46749D01*
X95052Y-46727D01*
X95052Y-46727D01*
X94193Y-45869D01*
X97700Y-45869D01*
X97803Y-45849D01*
X97890Y-45790D01*
X97932Y-45728D01*
X97932Y-45728D01*
X97987Y-45812D01*
X98930Y-46754D01*
X98917Y-46786D01*
X98917Y-46885D01*
X98917Y-46904D01*
X98910Y-46922D01*
X98909Y-47077D01*
X98917Y-47095D01*
X98917Y-47279D01*
X98955Y-47371D01*
X99025Y-47441D01*
X99030Y-47443D01*
X99030Y-47487D01*
X99000Y-47560D01*
X98999Y-47659D01*
X98999Y-47899D01*
X99037Y-47991D01*
X99044Y-47997D01*
X99030Y-48070D01*
X99030Y-48087D01*
X99000Y-48160D01*
X98999Y-48259D01*
X98999Y-48499D01*
X99030Y-48572D01*
X99030Y-49230D01*
X99052Y-49344D01*
X99117Y-49442D01*
X100070Y-50394D01*
X100070Y-51447D01*
X100069Y-51447D01*
X99979Y-51410D01*
X99880Y-51409D01*
X99560Y-51409D01*
X99469Y-51447D01*
X99379Y-51410D01*
X99280Y-51409D01*
X98960Y-51409D01*
X98869Y-51447D01*
X98779Y-51410D01*
X98680Y-51409D01*
X98360Y-51409D01*
X98269Y-51447D01*
X98179Y-51410D01*
X98080Y-51409D01*
X97894Y-51409D01*
X97906Y-51391D01*
X97944Y-51200D01*
X97906Y-51008D01*
X97798Y-50846D01*
X97636Y-50738D01*
X97444Y-50700D01*
X96915Y-50700D01*
X96723Y-50738D01*
X96627Y-50802D01*
X96575Y-50750D01*
X96575Y-50525D01*
X96537Y-50433D01*
X96466Y-50363D01*
X96374Y-50325D01*
X96275Y-50324D01*
X96025Y-50324D01*
X95933Y-50362D01*
X95900Y-50396D01*
X95866Y-50363D01*
X95774Y-50325D01*
X95675Y-50324D01*
X95425Y-50324D01*
X95349Y-50356D01*
X95274Y-50325D01*
X95175Y-50324D01*
X94925Y-50324D01*
X94833Y-50362D01*
X94800Y-50396D01*
X94766Y-50362D01*
X94674Y-50324D01*
X94612Y-50325D01*
X94550Y-50387D01*
X94550Y-50750D01*
X94557Y-50750D01*
X94557Y-50850D01*
X94550Y-50850D01*
X94550Y-51212D01*
X94612Y-51275D01*
X94670Y-51275D01*
X94670Y-51447D01*
X94579Y-51409D01*
X94482Y-51410D01*
X94420Y-51472D01*
X94420Y-51910D01*
X94427Y-51910D01*
X94427Y-52010D01*
X94420Y-52010D01*
X94420Y-52447D01*
X94482Y-52510D01*
X94579Y-52510D01*
X94670Y-52472D01*
X94760Y-52509D01*
X94859Y-52510D01*
X95179Y-52510D01*
X95270Y-52472D01*
X95360Y-52509D01*
X95459Y-52510D01*
X95779Y-52510D01*
X95870Y-52472D01*
X95960Y-52509D01*
X96059Y-52510D01*
X96379Y-52510D01*
X96470Y-52472D01*
X96560Y-52509D01*
X96659Y-52510D01*
X96979Y-52510D01*
X97070Y-52472D01*
X97160Y-52509D01*
X97259Y-52510D01*
X97579Y-52510D01*
X97670Y-52472D01*
X97760Y-52509D01*
X97859Y-52510D01*
X98179Y-52510D01*
X98270Y-52472D01*
X98360Y-52509D01*
X98459Y-52510D01*
X98779Y-52510D01*
X98870Y-52472D01*
X98960Y-52509D01*
X99059Y-52510D01*
X99379Y-52510D01*
X99470Y-52472D01*
X99560Y-52509D01*
X99659Y-52510D01*
X99979Y-52510D01*
X100070Y-52472D01*
X100160Y-52509D01*
X100259Y-52510D01*
X100579Y-52510D01*
X100670Y-52472D01*
X100760Y-52509D01*
X100859Y-52510D01*
X101179Y-52510D01*
X101271Y-52472D01*
X101341Y-52401D01*
X101379Y-52309D01*
X101379Y-52260D01*
X101440Y-52260D01*
X101440Y-52259D01*
X101554Y-52237D01*
X101554Y-52237D01*
X101652Y-52172D01*
X101830Y-51993D01*
X101830Y-56716D01*
X101830Y-56716D01*
G37*
G54D29*
X101830Y-56716D02*
X101764Y-56672D01*
X101650Y-56650D01*
X101370Y-56650D01*
X101370Y-56600D01*
X101332Y-56508D01*
X101261Y-56438D01*
X101169Y-56400D01*
X101070Y-56399D01*
X100750Y-56399D01*
X100659Y-56437D01*
X100569Y-56400D01*
X100470Y-56399D01*
X100150Y-56399D01*
X100059Y-56437D01*
X99969Y-56400D01*
X99870Y-56399D01*
X99550Y-56399D01*
X99459Y-56437D01*
X99369Y-56400D01*
X99270Y-56399D01*
X98950Y-56399D01*
X98859Y-56437D01*
X98769Y-56400D01*
X98670Y-56399D01*
X98350Y-56399D01*
X98259Y-56437D01*
X98169Y-56400D01*
X98070Y-56399D01*
X97839Y-56399D01*
X97889Y-56277D01*
X97890Y-56122D01*
X97830Y-55979D01*
X97721Y-55869D01*
X97577Y-55810D01*
X97534Y-55810D01*
X94390Y-52665D01*
X94390Y-52622D01*
X94330Y-52479D01*
X94309Y-52458D01*
X94320Y-52447D01*
X94320Y-52010D01*
X94312Y-52010D01*
X94312Y-51910D01*
X94320Y-51910D01*
X94320Y-51472D01*
X94309Y-51461D01*
X94356Y-51391D01*
X94379Y-51275D01*
X94387Y-51275D01*
X94450Y-51212D01*
X94450Y-50850D01*
X94442Y-50850D01*
X94442Y-50750D01*
X94450Y-50750D01*
X94450Y-50387D01*
X94387Y-50325D01*
X94325Y-50324D01*
X94233Y-50362D01*
X94163Y-50433D01*
X94125Y-50525D01*
X94124Y-50624D01*
X94125Y-50687D01*
X94187Y-50749D01*
X94125Y-50749D01*
X94125Y-50764D01*
X94086Y-50738D01*
X93894Y-50700D01*
X93365Y-50700D01*
X93173Y-50738D01*
X93011Y-50846D01*
X92903Y-51008D01*
X92865Y-51200D01*
X92903Y-51391D01*
X93011Y-51553D01*
X93173Y-51661D01*
X93290Y-51685D01*
X93045Y-51930D01*
X92913Y-51930D01*
X92911Y-51923D01*
X92803Y-51761D01*
X92641Y-51653D01*
X92450Y-51615D01*
X92375Y-51630D01*
X92375Y-50975D01*
X92375Y-50624D01*
X92374Y-50525D01*
X92336Y-50433D01*
X92266Y-50362D01*
X92174Y-50324D01*
X92112Y-50325D01*
X92050Y-50387D01*
X92050Y-50750D01*
X92312Y-50750D01*
X92375Y-50687D01*
X92375Y-50624D01*
X92375Y-50975D01*
X92375Y-50912D01*
X92312Y-50850D01*
X92050Y-50850D01*
X92050Y-51212D01*
X92112Y-51275D01*
X92174Y-51275D01*
X92266Y-51237D01*
X92336Y-51166D01*
X92374Y-51074D01*
X92375Y-50975D01*
X92375Y-51630D01*
X92258Y-51653D01*
X92096Y-51761D01*
X91988Y-51923D01*
X91950Y-52115D01*
X91950Y-52644D01*
X91988Y-52836D01*
X92096Y-52998D01*
X92150Y-53034D01*
X92150Y-53795D01*
X92096Y-53831D01*
X91988Y-53993D01*
X91950Y-54185D01*
X91950Y-54714D01*
X91988Y-54906D01*
X92096Y-55068D01*
X92150Y-55104D01*
X92150Y-55865D01*
X92096Y-55901D01*
X91988Y-56063D01*
X91950Y-56255D01*
X91950Y-56784D01*
X91988Y-56976D01*
X92096Y-57138D01*
X92258Y-57246D01*
X92450Y-57284D01*
X92641Y-57246D01*
X92803Y-57138D01*
X92911Y-56976D01*
X92913Y-56969D01*
X92969Y-56970D01*
X93155Y-56970D01*
X93320Y-57134D01*
X93320Y-57209D01*
X93173Y-57238D01*
X93011Y-57346D01*
X92903Y-57508D01*
X92865Y-57700D01*
X92903Y-57891D01*
X93011Y-58053D01*
X93173Y-58161D01*
X93365Y-58200D01*
X93894Y-58200D01*
X94086Y-58161D01*
X94248Y-58053D01*
X94356Y-57891D01*
X94394Y-57700D01*
X94356Y-57510D01*
X94579Y-57510D01*
X94670Y-57472D01*
X94760Y-57509D01*
X94859Y-57510D01*
X95179Y-57510D01*
X95270Y-57472D01*
X95360Y-57509D01*
X95459Y-57510D01*
X95779Y-57510D01*
X95871Y-57472D01*
X95874Y-57468D01*
X95950Y-57499D01*
X96049Y-57500D01*
X96369Y-57500D01*
X96460Y-57462D01*
X96478Y-57470D01*
X96453Y-57508D01*
X96415Y-57700D01*
X96453Y-57891D01*
X96561Y-58053D01*
X96723Y-58161D01*
X96915Y-58200D01*
X97444Y-58200D01*
X97636Y-58161D01*
X97798Y-58053D01*
X97834Y-58000D01*
X99175Y-58000D01*
X99975Y-58799D01*
X99959Y-58799D01*
X99771Y-58877D01*
X99659Y-58988D01*
X99549Y-58877D01*
X99361Y-58800D01*
X99159Y-58799D01*
X98971Y-58877D01*
X98934Y-58914D01*
X98932Y-58908D01*
X98861Y-58838D01*
X98769Y-58800D01*
X98670Y-58799D01*
X98150Y-58799D01*
X98058Y-58837D01*
X97988Y-58908D01*
X97950Y-59000D01*
X97949Y-59099D01*
X97949Y-59600D01*
X96541Y-59600D01*
X96542Y-59599D01*
X96619Y-59411D01*
X96620Y-59209D01*
X96542Y-59021D01*
X96399Y-58877D01*
X96211Y-58800D01*
X96009Y-58799D01*
X95821Y-58877D01*
X95709Y-58988D01*
X95599Y-58877D01*
X95411Y-58800D01*
X95209Y-58799D01*
X95021Y-58877D01*
X94909Y-58988D01*
X94799Y-58877D01*
X94611Y-58800D01*
X94409Y-58799D01*
X94221Y-58877D01*
X94184Y-58914D01*
X94182Y-58908D01*
X94111Y-58838D01*
X94019Y-58800D01*
X93920Y-58799D01*
X93400Y-58799D01*
X93308Y-58837D01*
X93238Y-58908D01*
X93200Y-59000D01*
X93200Y-59010D01*
X92468Y-59010D01*
X92442Y-58946D01*
X92466Y-58937D01*
X92536Y-58866D01*
X92574Y-58774D01*
X92575Y-58675D01*
X92575Y-58425D01*
X92537Y-58333D01*
X92503Y-58300D01*
X92536Y-58266D01*
X92574Y-58174D01*
X92575Y-58075D01*
X92575Y-57825D01*
X92537Y-57733D01*
X92466Y-57663D01*
X92400Y-57635D01*
X92400Y-57600D01*
X92377Y-57485D01*
X92312Y-57387D01*
X92312Y-57387D01*
X91400Y-56475D01*
X91400Y-51851D01*
X91430Y-51821D01*
X91489Y-51677D01*
X91490Y-51522D01*
X91430Y-51379D01*
X91326Y-51275D01*
X91574Y-51275D01*
X91666Y-51237D01*
X91700Y-51203D01*
X91733Y-51237D01*
X91825Y-51275D01*
X91887Y-51275D01*
X91950Y-51212D01*
X91950Y-50850D01*
X91942Y-50850D01*
X91942Y-50750D01*
X91950Y-50750D01*
X91950Y-50387D01*
X91887Y-50325D01*
X91825Y-50324D01*
X91733Y-50362D01*
X91700Y-50396D01*
X91666Y-50363D01*
X91574Y-50325D01*
X91475Y-50324D01*
X91225Y-50324D01*
X91133Y-50362D01*
X91063Y-50433D01*
X91025Y-50525D01*
X91024Y-50624D01*
X91024Y-50686D01*
X91010Y-50722D01*
X91009Y-50877D01*
X91024Y-50913D01*
X91024Y-51074D01*
X91062Y-51166D01*
X91106Y-51210D01*
X91022Y-51209D01*
X91000Y-51219D01*
X91000Y-49300D01*
X91678Y-49300D01*
X91607Y-49370D01*
X91530Y-49558D01*
X91529Y-49761D01*
X91607Y-49948D01*
X91750Y-50092D01*
X91938Y-50169D01*
X92141Y-50170D01*
X92328Y-50092D01*
X92472Y-49949D01*
X92549Y-49761D01*
X92550Y-49559D01*
X92472Y-49371D01*
X92361Y-49259D01*
X92472Y-49149D01*
X92549Y-48961D01*
X92550Y-48759D01*
X92472Y-48571D01*
X92361Y-48459D01*
X92472Y-48349D01*
X92549Y-48161D01*
X92550Y-47959D01*
X92472Y-47771D01*
X92435Y-47734D01*
X92441Y-47732D01*
X92511Y-47661D01*
X92549Y-47569D01*
X92550Y-47470D01*
X92550Y-46950D01*
X92512Y-46858D01*
X92441Y-46788D01*
X92349Y-46750D01*
X92250Y-46749D01*
X91730Y-46749D01*
X91638Y-46787D01*
X91568Y-46858D01*
X91530Y-46950D01*
X91530Y-46960D01*
X91440Y-46960D01*
X91325Y-46982D01*
X91227Y-47047D01*
X90975Y-47300D01*
X90975Y-47275D01*
X90975Y-46825D01*
X90937Y-46733D01*
X90899Y-46695D01*
X90877Y-46585D01*
X90812Y-46487D01*
X90812Y-46487D01*
X90524Y-46200D01*
X93675Y-46200D01*
X94358Y-46882D01*
X94330Y-46950D01*
X94329Y-47049D01*
X94329Y-47569D01*
X94367Y-47661D01*
X94438Y-47731D01*
X94444Y-47734D01*
X94407Y-47770D01*
X94330Y-47958D01*
X94329Y-48161D01*
X94407Y-48348D01*
X94518Y-48460D01*
X94407Y-48570D01*
X94330Y-48758D01*
X94329Y-48961D01*
X94407Y-49148D01*
X94518Y-49260D01*
X94407Y-49370D01*
X94330Y-49558D01*
X94329Y-49761D01*
X94407Y-49948D01*
X94550Y-50092D01*
X94738Y-50169D01*
X94941Y-50170D01*
X95128Y-50092D01*
X95261Y-49960D01*
X97318Y-49960D01*
X97450Y-50092D01*
X97638Y-50169D01*
X97841Y-50170D01*
X98028Y-50092D01*
X98172Y-49949D01*
X98249Y-49761D01*
X98250Y-49559D01*
X98172Y-49371D01*
X98061Y-49259D01*
X98172Y-49149D01*
X98249Y-48961D01*
X98250Y-48759D01*
X98172Y-48571D01*
X98061Y-48459D01*
X98172Y-48349D01*
X98249Y-48161D01*
X98250Y-47959D01*
X98172Y-47771D01*
X98135Y-47734D01*
X98141Y-47732D01*
X98211Y-47661D01*
X98249Y-47569D01*
X98250Y-47470D01*
X98250Y-46950D01*
X98212Y-46858D01*
X98141Y-46788D01*
X98049Y-46750D01*
X97950Y-46749D01*
X97430Y-46749D01*
X97338Y-46787D01*
X97268Y-46858D01*
X97230Y-46950D01*
X97229Y-47049D01*
X97229Y-47569D01*
X97267Y-47661D01*
X97338Y-47731D01*
X97344Y-47734D01*
X97307Y-47770D01*
X97230Y-47958D01*
X97229Y-48161D01*
X97307Y-48348D01*
X97418Y-48460D01*
X97318Y-48560D01*
X96386Y-48560D01*
X96371Y-48544D01*
X96227Y-48485D01*
X96072Y-48484D01*
X95929Y-48544D01*
X95913Y-48560D01*
X95261Y-48560D01*
X95161Y-48459D01*
X95272Y-48349D01*
X95349Y-48161D01*
X95350Y-47959D01*
X95272Y-47771D01*
X95235Y-47734D01*
X95241Y-47732D01*
X95311Y-47661D01*
X95349Y-47569D01*
X95350Y-47470D01*
X95350Y-46950D01*
X95312Y-46858D01*
X95241Y-46788D01*
X95149Y-46750D01*
X95066Y-46749D01*
X95066Y-46749D01*
X95052Y-46727D01*
X95052Y-46727D01*
X94193Y-45869D01*
X97700Y-45869D01*
X97803Y-45849D01*
X97890Y-45790D01*
X97932Y-45728D01*
X97932Y-45728D01*
X97987Y-45812D01*
X98930Y-46754D01*
X98917Y-46786D01*
X98917Y-46885D01*
X98917Y-46904D01*
X98910Y-46922D01*
X98909Y-47077D01*
X98917Y-47095D01*
X98917Y-47279D01*
X98955Y-47371D01*
X99025Y-47441D01*
X99030Y-47443D01*
X99030Y-47487D01*
X99000Y-47560D01*
X98999Y-47659D01*
X98999Y-47899D01*
X99037Y-47991D01*
X99044Y-47997D01*
X99030Y-48070D01*
X99030Y-48087D01*
X99000Y-48160D01*
X98999Y-48259D01*
X98999Y-48499D01*
X99030Y-48572D01*
X99030Y-49230D01*
X99052Y-49344D01*
X99117Y-49442D01*
X100070Y-50394D01*
X100070Y-51447D01*
X100069Y-51447D01*
X99979Y-51410D01*
X99880Y-51409D01*
X99560Y-51409D01*
X99469Y-51447D01*
X99379Y-51410D01*
X99280Y-51409D01*
X98960Y-51409D01*
X98869Y-51447D01*
X98779Y-51410D01*
X98680Y-51409D01*
X98360Y-51409D01*
X98269Y-51447D01*
X98179Y-51410D01*
X98080Y-51409D01*
X97894Y-51409D01*
X97906Y-51391D01*
X97944Y-51200D01*
X97906Y-51008D01*
X97798Y-50846D01*
X97636Y-50738D01*
X97444Y-50700D01*
X96915Y-50700D01*
X96723Y-50738D01*
X96627Y-50802D01*
X96575Y-50750D01*
X96575Y-50525D01*
X96537Y-50433D01*
X96466Y-50363D01*
X96374Y-50325D01*
X96275Y-50324D01*
X96025Y-50324D01*
X95933Y-50362D01*
X95900Y-50396D01*
X95866Y-50363D01*
X95774Y-50325D01*
X95675Y-50324D01*
X95425Y-50324D01*
X95349Y-50356D01*
X95274Y-50325D01*
X95175Y-50324D01*
X94925Y-50324D01*
X94833Y-50362D01*
X94800Y-50396D01*
X94766Y-50362D01*
X94674Y-50324D01*
X94612Y-50325D01*
X94550Y-50387D01*
X94550Y-50750D01*
X94557Y-50750D01*
X94557Y-50850D01*
X94550Y-50850D01*
X94550Y-51212D01*
X94612Y-51275D01*
X94670Y-51275D01*
X94670Y-51447D01*
X94579Y-51409D01*
X94482Y-51410D01*
X94420Y-51472D01*
X94420Y-51910D01*
X94427Y-51910D01*
X94427Y-52010D01*
X94420Y-52010D01*
X94420Y-52447D01*
X94482Y-52510D01*
X94579Y-52510D01*
X94670Y-52472D01*
X94760Y-52509D01*
X94859Y-52510D01*
X95179Y-52510D01*
X95270Y-52472D01*
X95360Y-52509D01*
X95459Y-52510D01*
X95779Y-52510D01*
X95870Y-52472D01*
X95960Y-52509D01*
X96059Y-52510D01*
X96379Y-52510D01*
X96470Y-52472D01*
X96560Y-52509D01*
X96659Y-52510D01*
X96979Y-52510D01*
X97070Y-52472D01*
X97160Y-52509D01*
X97259Y-52510D01*
X97579Y-52510D01*
X97670Y-52472D01*
X97760Y-52509D01*
X97859Y-52510D01*
X98179Y-52510D01*
X98270Y-52472D01*
X98360Y-52509D01*
X98459Y-52510D01*
X98779Y-52510D01*
X98870Y-52472D01*
X98960Y-52509D01*
X99059Y-52510D01*
X99379Y-52510D01*
X99470Y-52472D01*
X99560Y-52509D01*
X99659Y-52510D01*
X99979Y-52510D01*
X100070Y-52472D01*
X100160Y-52509D01*
X100259Y-52510D01*
X100579Y-52510D01*
X100670Y-52472D01*
X100760Y-52509D01*
X100859Y-52510D01*
X101179Y-52510D01*
X101271Y-52472D01*
X101341Y-52401D01*
X101379Y-52309D01*
X101379Y-52260D01*
X101440Y-52260D01*
X101440Y-52259D01*
X101554Y-52237D01*
X101554Y-52237D01*
X101652Y-52172D01*
X101830Y-51993D01*
X101830Y-56716D01*
M02*
