G04 (created by PCBNEW (2013-05-16 BZR 4016)-stable) date 6/30/2013 14:04:39*
%MOIN*%
G04 Gerber Fmt 3.4, Leading zero omitted, Abs format*
%FSLAX34Y34*%
G01*
G70*
G90*
G04 APERTURE LIST*
%ADD10C,0.00590551*%
%ADD11R,0.055X0.055*%
%ADD12C,0.055*%
%ADD13O,0.05X0.1*%
%ADD14O,0.1X0.05*%
%ADD15C,0.052*%
%ADD16R,0.052X0.052*%
%ADD17C,0.028*%
%ADD18C,0.01*%
G04 APERTURE END LIST*
G54D10*
G54D11*
X90200Y-44800D03*
G54D12*
X89200Y-44800D03*
X88200Y-44800D03*
X87200Y-44800D03*
X86200Y-44800D03*
G54D11*
X98200Y-44800D03*
G54D12*
X99200Y-44800D03*
X100200Y-44800D03*
X101200Y-44800D03*
G54D11*
X81200Y-63800D03*
G54D12*
X82200Y-63800D03*
X83200Y-63800D03*
X84200Y-63800D03*
X85200Y-63800D03*
G54D13*
X92450Y-52380D03*
X92450Y-54450D03*
X92450Y-56520D03*
G54D14*
X93630Y-57700D03*
X97180Y-57700D03*
X101110Y-57700D03*
X93630Y-51200D03*
X97180Y-51200D03*
X101110Y-51200D03*
G54D15*
X92040Y-49660D03*
X92040Y-48860D03*
X92040Y-48060D03*
G54D16*
X92040Y-47260D03*
G54D15*
X100860Y-59310D03*
X100060Y-59310D03*
X99260Y-59310D03*
G54D16*
X98460Y-59310D03*
G54D15*
X97740Y-49660D03*
X97740Y-48860D03*
X97740Y-48060D03*
G54D16*
X97740Y-47260D03*
G54D15*
X96110Y-59310D03*
X95310Y-59310D03*
X94510Y-59310D03*
G54D16*
X93710Y-59310D03*
G54D15*
X94840Y-49660D03*
X94840Y-48860D03*
X94840Y-48060D03*
G54D16*
X94840Y-47260D03*
G54D17*
X100200Y-48350D03*
X100150Y-49300D03*
X99300Y-50200D03*
X101300Y-48200D03*
X88600Y-55100D03*
X91600Y-54000D03*
X96150Y-48875D03*
X90000Y-56650D03*
X89450Y-59900D03*
X87750Y-59900D03*
X101300Y-47600D03*
X94000Y-52700D03*
X97500Y-56200D03*
X91100Y-51600D03*
X94000Y-53700D03*
X99300Y-47000D03*
X100600Y-47300D03*
X91400Y-57700D03*
X99750Y-46250D03*
X91400Y-50800D03*
X91400Y-48200D03*
X84150Y-62000D03*
X88950Y-60300D03*
X87500Y-60350D03*
X88500Y-60700D03*
X86900Y-60850D03*
G54D18*
X100500Y-49000D02*
X100500Y-48650D01*
X100500Y-48650D02*
X100200Y-48350D01*
X100150Y-49300D02*
X100175Y-49325D01*
X101300Y-48200D02*
X100500Y-49000D01*
X100500Y-49000D02*
X100175Y-49325D01*
X100175Y-49325D02*
X99300Y-50200D01*
X90500Y-55100D02*
X88600Y-55100D01*
X91600Y-54000D02*
X90500Y-55100D01*
X96150Y-53350D02*
X96150Y-48875D01*
X94050Y-55450D02*
X96150Y-53350D01*
X91200Y-55450D02*
X94050Y-55450D01*
X90000Y-56650D02*
X91200Y-55450D01*
X89450Y-59900D02*
X87750Y-59900D01*
X98440Y-48860D02*
X97740Y-48860D01*
X99500Y-47800D02*
X98440Y-48860D01*
X101100Y-47800D02*
X99500Y-47800D01*
X101300Y-47600D02*
X101100Y-47800D01*
X97600Y-56300D02*
X97500Y-56200D01*
X90200Y-44800D02*
X90200Y-45700D01*
X91000Y-49900D02*
X94000Y-52700D01*
X91000Y-46700D02*
X91000Y-49900D01*
X90200Y-45700D02*
X91000Y-46700D01*
X98460Y-57160D02*
X98460Y-59310D01*
X97600Y-56300D02*
X98460Y-57160D01*
X90700Y-47300D02*
X88200Y-44800D01*
X90700Y-51200D02*
X90700Y-47300D01*
X91100Y-51600D02*
X90700Y-51200D01*
X90200Y-47800D02*
X87200Y-44800D01*
X90200Y-51400D02*
X90200Y-47800D01*
X92400Y-53600D02*
X90200Y-51400D01*
X93900Y-53600D02*
X92400Y-53600D01*
X94000Y-53700D02*
X93900Y-53600D01*
X100300Y-47000D02*
X99300Y-47000D01*
X100600Y-47300D02*
X100300Y-47000D01*
X101200Y-44800D02*
X101200Y-44900D01*
X99300Y-45700D02*
X97740Y-47260D01*
X100400Y-45700D02*
X99300Y-45700D01*
X101200Y-44900D02*
X100400Y-45700D01*
X100200Y-44800D02*
X100000Y-44800D01*
X97160Y-48060D02*
X97740Y-48060D01*
X97000Y-47900D02*
X97160Y-48060D01*
X97000Y-47000D02*
X97000Y-47900D01*
X98600Y-45400D02*
X97000Y-47000D01*
X99400Y-45400D02*
X98600Y-45400D01*
X100000Y-44800D02*
X99400Y-45400D01*
X92450Y-56520D02*
X92030Y-56520D01*
X91400Y-57150D02*
X91400Y-57700D01*
X92030Y-56520D02*
X91400Y-57150D01*
X101110Y-51200D02*
X101110Y-49740D01*
X101250Y-46250D02*
X99750Y-46250D01*
X101750Y-46750D02*
X101250Y-46250D01*
X101750Y-49100D02*
X101750Y-46750D01*
X101110Y-49740D02*
X101750Y-49100D01*
X91400Y-51250D02*
X91400Y-50800D01*
X91400Y-51250D02*
X92450Y-52300D01*
X92450Y-52380D02*
X92450Y-52300D01*
X91410Y-49660D02*
X92040Y-49660D01*
X91400Y-49650D02*
X91410Y-49660D01*
X91400Y-48200D02*
X91400Y-49650D01*
X93630Y-51200D02*
X93580Y-51200D01*
X93580Y-51200D02*
X92040Y-49660D01*
X93630Y-51200D02*
X93630Y-50870D01*
X93630Y-50870D02*
X94840Y-49660D01*
X101110Y-51200D02*
X97180Y-51200D01*
X97180Y-51200D02*
X97740Y-50640D01*
X97740Y-50640D02*
X97740Y-49660D01*
X100860Y-59310D02*
X100860Y-57950D01*
X100860Y-57950D02*
X101110Y-57700D01*
X96110Y-59310D02*
X96110Y-58770D01*
X96110Y-58770D02*
X97180Y-57700D01*
X84150Y-62000D02*
X84150Y-61150D01*
X84150Y-61150D02*
X87600Y-57700D01*
X87600Y-57700D02*
X91400Y-57700D01*
X91400Y-57700D02*
X97180Y-57700D01*
X83200Y-63800D02*
X84200Y-63800D01*
X84200Y-63800D02*
X84150Y-63750D01*
X84150Y-63750D02*
X84150Y-62000D01*
X87550Y-60300D02*
X88950Y-60300D01*
X87500Y-60350D02*
X87550Y-60300D01*
X87050Y-60700D02*
X88500Y-60700D01*
X86900Y-60850D02*
X87050Y-60700D01*
G54D10*
G36*
X80150Y-64700D02*
X80150Y-64750D01*
X80150Y-64700D01*
X80150Y-64700D01*
X80150Y-64700D01*
G37*
G54D18*
X80150Y-64700D02*
X80150Y-64750D01*
X80150Y-64700D01*
X80150Y-64700D01*
G54D10*
G36*
X101830Y-60488D02*
X101709Y-60609D01*
X101709Y-60609D01*
X101488Y-60830D01*
X101374Y-60830D01*
X101374Y-59382D01*
X101363Y-59179D01*
X101308Y-59046D01*
X101216Y-59023D01*
X101146Y-59094D01*
X101146Y-58953D01*
X101123Y-58861D01*
X101060Y-58839D01*
X101060Y-58200D01*
X101060Y-57750D01*
X101060Y-57650D01*
X101060Y-57200D01*
X101060Y-51700D01*
X101060Y-51250D01*
X101060Y-51150D01*
X101060Y-50700D01*
X100810Y-50700D01*
X100622Y-50757D01*
X100471Y-50881D01*
X100378Y-51054D01*
X100376Y-51072D01*
X100425Y-51150D01*
X101060Y-51150D01*
X101060Y-51250D01*
X100425Y-51250D01*
X100376Y-51327D01*
X100378Y-51345D01*
X100471Y-51518D01*
X100622Y-51642D01*
X100810Y-51700D01*
X101060Y-51700D01*
X101060Y-57200D01*
X100810Y-57200D01*
X100622Y-57257D01*
X100471Y-57381D01*
X100378Y-57554D01*
X100376Y-57572D01*
X100425Y-57650D01*
X101060Y-57650D01*
X101060Y-57750D01*
X100425Y-57750D01*
X100376Y-57827D01*
X100378Y-57845D01*
X100471Y-58018D01*
X100622Y-58142D01*
X100810Y-58200D01*
X101060Y-58200D01*
X101060Y-58839D01*
X100932Y-58795D01*
X100729Y-58806D01*
X100596Y-58861D01*
X100573Y-58953D01*
X100860Y-59239D01*
X101146Y-58953D01*
X101146Y-59094D01*
X100930Y-59310D01*
X101216Y-59596D01*
X101308Y-59573D01*
X101374Y-59382D01*
X101374Y-60830D01*
X101146Y-60830D01*
X101146Y-59666D01*
X100860Y-59380D01*
X100789Y-59451D01*
X100789Y-59310D01*
X100503Y-59023D01*
X100494Y-59025D01*
X100492Y-59021D01*
X100349Y-58877D01*
X100161Y-58800D01*
X99959Y-58799D01*
X99771Y-58877D01*
X99659Y-58988D01*
X99549Y-58877D01*
X99361Y-58800D01*
X99159Y-58799D01*
X98971Y-58877D01*
X98934Y-58914D01*
X98932Y-58908D01*
X98861Y-58838D01*
X98769Y-58800D01*
X98760Y-58800D01*
X98760Y-57160D01*
X98737Y-57045D01*
X98672Y-56947D01*
X98254Y-56530D01*
X98254Y-49732D01*
X98243Y-49529D01*
X98188Y-49396D01*
X98096Y-49373D01*
X97810Y-49660D01*
X98096Y-49946D01*
X98188Y-49923D01*
X98254Y-49732D01*
X98254Y-56530D01*
X98026Y-56301D01*
X98026Y-50016D01*
X97740Y-49730D01*
X97669Y-49801D01*
X97669Y-49660D01*
X97383Y-49373D01*
X97291Y-49396D01*
X97225Y-49587D01*
X97236Y-49790D01*
X97291Y-49923D01*
X97383Y-49946D01*
X97669Y-49660D01*
X97669Y-49801D01*
X97453Y-50016D01*
X97476Y-50108D01*
X97667Y-50174D01*
X97870Y-50163D01*
X98003Y-50108D01*
X98026Y-50016D01*
X98026Y-56301D01*
X97913Y-56189D01*
X97913Y-51327D01*
X97913Y-51072D01*
X97911Y-51054D01*
X97818Y-50881D01*
X97667Y-50757D01*
X97480Y-50700D01*
X97230Y-50700D01*
X97230Y-51150D01*
X97864Y-51150D01*
X97913Y-51072D01*
X97913Y-51327D01*
X97864Y-51250D01*
X97230Y-51250D01*
X97230Y-51700D01*
X97480Y-51700D01*
X97667Y-51642D01*
X97818Y-51518D01*
X97911Y-51345D01*
X97913Y-51327D01*
X97913Y-56189D01*
X97890Y-56165D01*
X97890Y-56122D01*
X97830Y-55979D01*
X97721Y-55869D01*
X97577Y-55810D01*
X97422Y-55809D01*
X97279Y-55869D01*
X97169Y-55978D01*
X97130Y-56074D01*
X97130Y-51700D01*
X97130Y-51250D01*
X97122Y-51250D01*
X97122Y-51150D01*
X97130Y-51150D01*
X97130Y-50700D01*
X96880Y-50700D01*
X96692Y-50757D01*
X96541Y-50881D01*
X96450Y-51052D01*
X96450Y-49126D01*
X96480Y-49096D01*
X96539Y-48952D01*
X96540Y-48797D01*
X96480Y-48654D01*
X96371Y-48544D01*
X96227Y-48485D01*
X96072Y-48484D01*
X95929Y-48544D01*
X95819Y-48653D01*
X95760Y-48797D01*
X95759Y-48952D01*
X95819Y-49095D01*
X95850Y-49126D01*
X95850Y-53225D01*
X95354Y-53720D01*
X95354Y-49732D01*
X95350Y-49647D01*
X95350Y-48759D01*
X95272Y-48571D01*
X95161Y-48459D01*
X95272Y-48349D01*
X95349Y-48161D01*
X95350Y-47959D01*
X95272Y-47771D01*
X95235Y-47734D01*
X95241Y-47732D01*
X95311Y-47661D01*
X95349Y-47569D01*
X95350Y-47470D01*
X95350Y-46950D01*
X95312Y-46858D01*
X95241Y-46788D01*
X95149Y-46750D01*
X95050Y-46749D01*
X94530Y-46749D01*
X94438Y-46787D01*
X94368Y-46858D01*
X94330Y-46950D01*
X94329Y-47049D01*
X94329Y-47569D01*
X94367Y-47661D01*
X94438Y-47731D01*
X94444Y-47734D01*
X94407Y-47770D01*
X94330Y-47958D01*
X94329Y-48161D01*
X94407Y-48348D01*
X94518Y-48460D01*
X94407Y-48570D01*
X94330Y-48758D01*
X94329Y-48961D01*
X94407Y-49148D01*
X94550Y-49292D01*
X94555Y-49294D01*
X94553Y-49303D01*
X94840Y-49589D01*
X95126Y-49303D01*
X95124Y-49294D01*
X95128Y-49292D01*
X95272Y-49149D01*
X95349Y-48961D01*
X95350Y-48759D01*
X95350Y-49647D01*
X95343Y-49529D01*
X95288Y-49396D01*
X95196Y-49373D01*
X94910Y-49660D01*
X95196Y-49946D01*
X95288Y-49923D01*
X95354Y-49732D01*
X95354Y-53720D01*
X95126Y-53949D01*
X95126Y-50016D01*
X94840Y-49730D01*
X94769Y-49801D01*
X94769Y-49660D01*
X94483Y-49373D01*
X94391Y-49396D01*
X94325Y-49587D01*
X94336Y-49790D01*
X94391Y-49923D01*
X94483Y-49946D01*
X94769Y-49660D01*
X94769Y-49801D01*
X94553Y-50016D01*
X94576Y-50108D01*
X94767Y-50174D01*
X94970Y-50163D01*
X95103Y-50108D01*
X95126Y-50016D01*
X95126Y-53949D01*
X93925Y-55150D01*
X92653Y-55150D01*
X92768Y-55088D01*
X92892Y-54937D01*
X92950Y-54750D01*
X92950Y-54500D01*
X92500Y-54500D01*
X92500Y-54507D01*
X92400Y-54507D01*
X92400Y-54500D01*
X91950Y-54500D01*
X91950Y-54750D01*
X92007Y-54937D01*
X92131Y-55088D01*
X92246Y-55150D01*
X91200Y-55150D01*
X91085Y-55172D01*
X90987Y-55237D01*
X89965Y-56259D01*
X89922Y-56259D01*
X89779Y-56319D01*
X89669Y-56428D01*
X89610Y-56572D01*
X89609Y-56727D01*
X89669Y-56870D01*
X89778Y-56980D01*
X89922Y-57039D01*
X90077Y-57040D01*
X90220Y-56980D01*
X90330Y-56871D01*
X90389Y-56727D01*
X90389Y-56684D01*
X91324Y-55750D01*
X94050Y-55750D01*
X94050Y-55749D01*
X94164Y-55727D01*
X94164Y-55727D01*
X94262Y-55662D01*
X96362Y-53562D01*
X96427Y-53464D01*
X96449Y-53350D01*
X96450Y-53350D01*
X96450Y-51347D01*
X96541Y-51518D01*
X96692Y-51642D01*
X96880Y-51700D01*
X97130Y-51700D01*
X97130Y-56074D01*
X97110Y-56122D01*
X97109Y-56277D01*
X97169Y-56420D01*
X97278Y-56530D01*
X97422Y-56589D01*
X97465Y-56589D01*
X98160Y-57284D01*
X98160Y-58799D01*
X98150Y-58799D01*
X98058Y-58837D01*
X97988Y-58908D01*
X97950Y-59000D01*
X97949Y-59099D01*
X97949Y-59619D01*
X97987Y-59711D01*
X98058Y-59781D01*
X98150Y-59819D01*
X98249Y-59820D01*
X98769Y-59820D01*
X98861Y-59782D01*
X98931Y-59711D01*
X98934Y-59705D01*
X98970Y-59742D01*
X99158Y-59819D01*
X99361Y-59820D01*
X99548Y-59742D01*
X99660Y-59631D01*
X99770Y-59742D01*
X99958Y-59819D01*
X100161Y-59820D01*
X100348Y-59742D01*
X100492Y-59599D01*
X100494Y-59594D01*
X100503Y-59596D01*
X100789Y-59310D01*
X100789Y-59451D01*
X100573Y-59666D01*
X100596Y-59758D01*
X100787Y-59824D01*
X100990Y-59813D01*
X101123Y-59758D01*
X101146Y-59666D01*
X101146Y-60830D01*
X97913Y-60830D01*
X97913Y-57827D01*
X97913Y-57572D01*
X97911Y-57554D01*
X97818Y-57381D01*
X97667Y-57257D01*
X97480Y-57200D01*
X97230Y-57200D01*
X97230Y-57650D01*
X97864Y-57650D01*
X97913Y-57572D01*
X97913Y-57827D01*
X97864Y-57750D01*
X97230Y-57750D01*
X97230Y-58200D01*
X97480Y-58200D01*
X97667Y-58142D01*
X97818Y-58018D01*
X97911Y-57845D01*
X97913Y-57827D01*
X97913Y-60830D01*
X97130Y-60830D01*
X97130Y-58200D01*
X97130Y-57750D01*
X97130Y-57650D01*
X97130Y-57200D01*
X96880Y-57200D01*
X96692Y-57257D01*
X96541Y-57381D01*
X96448Y-57554D01*
X96446Y-57572D01*
X96495Y-57650D01*
X97130Y-57650D01*
X97130Y-57750D01*
X96495Y-57750D01*
X96446Y-57827D01*
X96448Y-57845D01*
X96541Y-58018D01*
X96692Y-58142D01*
X96880Y-58200D01*
X97130Y-58200D01*
X97130Y-60830D01*
X96624Y-60830D01*
X96624Y-59382D01*
X96613Y-59179D01*
X96558Y-59046D01*
X96466Y-59023D01*
X96396Y-59094D01*
X96396Y-58953D01*
X96373Y-58861D01*
X96182Y-58795D01*
X95979Y-58806D01*
X95846Y-58861D01*
X95823Y-58953D01*
X96110Y-59239D01*
X96396Y-58953D01*
X96396Y-59094D01*
X96180Y-59310D01*
X96466Y-59596D01*
X96558Y-59573D01*
X96624Y-59382D01*
X96624Y-60830D01*
X96396Y-60830D01*
X96396Y-59666D01*
X96110Y-59380D01*
X96039Y-59451D01*
X96039Y-59310D01*
X95753Y-59023D01*
X95744Y-59025D01*
X95742Y-59021D01*
X95599Y-58877D01*
X95411Y-58800D01*
X95209Y-58799D01*
X95021Y-58877D01*
X94909Y-58988D01*
X94799Y-58877D01*
X94611Y-58800D01*
X94409Y-58799D01*
X94363Y-58818D01*
X94363Y-57827D01*
X94363Y-57572D01*
X94361Y-57554D01*
X94268Y-57381D01*
X94117Y-57257D01*
X93930Y-57200D01*
X93680Y-57200D01*
X93680Y-57650D01*
X94314Y-57650D01*
X94363Y-57572D01*
X94363Y-57827D01*
X94314Y-57750D01*
X93680Y-57750D01*
X93680Y-58200D01*
X93930Y-58200D01*
X94117Y-58142D01*
X94268Y-58018D01*
X94361Y-57845D01*
X94363Y-57827D01*
X94363Y-58818D01*
X94221Y-58877D01*
X94184Y-58914D01*
X94182Y-58908D01*
X94111Y-58838D01*
X94019Y-58800D01*
X93920Y-58799D01*
X93580Y-58799D01*
X93580Y-58200D01*
X93580Y-57750D01*
X93580Y-57650D01*
X93580Y-57200D01*
X93330Y-57200D01*
X93142Y-57257D01*
X92991Y-57381D01*
X92950Y-57458D01*
X92950Y-56820D01*
X92950Y-56570D01*
X92950Y-56470D01*
X92950Y-56220D01*
X92892Y-56032D01*
X92768Y-55881D01*
X92595Y-55788D01*
X92577Y-55786D01*
X92500Y-55835D01*
X92500Y-56470D01*
X92950Y-56470D01*
X92950Y-56570D01*
X92500Y-56570D01*
X92500Y-57204D01*
X92577Y-57253D01*
X92595Y-57251D01*
X92768Y-57158D01*
X92892Y-57007D01*
X92950Y-56820D01*
X92950Y-57458D01*
X92898Y-57554D01*
X92896Y-57572D01*
X92945Y-57650D01*
X93580Y-57650D01*
X93580Y-57750D01*
X92945Y-57750D01*
X92896Y-57827D01*
X92898Y-57845D01*
X92991Y-58018D01*
X93142Y-58142D01*
X93330Y-58200D01*
X93580Y-58200D01*
X93580Y-58799D01*
X93400Y-58799D01*
X93308Y-58837D01*
X93238Y-58908D01*
X93200Y-59000D01*
X93199Y-59099D01*
X93199Y-59619D01*
X93237Y-59711D01*
X93308Y-59781D01*
X93400Y-59819D01*
X93499Y-59820D01*
X94019Y-59820D01*
X94111Y-59782D01*
X94181Y-59711D01*
X94184Y-59705D01*
X94220Y-59742D01*
X94408Y-59819D01*
X94611Y-59820D01*
X94798Y-59742D01*
X94910Y-59631D01*
X95020Y-59742D01*
X95208Y-59819D01*
X95411Y-59820D01*
X95598Y-59742D01*
X95742Y-59599D01*
X95744Y-59594D01*
X95753Y-59596D01*
X96039Y-59310D01*
X96039Y-59451D01*
X95823Y-59666D01*
X95846Y-59758D01*
X96037Y-59824D01*
X96240Y-59813D01*
X96373Y-59758D01*
X96396Y-59666D01*
X96396Y-60830D01*
X92400Y-60830D01*
X92400Y-57204D01*
X92400Y-56570D01*
X92400Y-56470D01*
X92400Y-55835D01*
X92322Y-55786D01*
X92304Y-55788D01*
X92131Y-55881D01*
X92007Y-56032D01*
X91950Y-56220D01*
X91950Y-56470D01*
X92400Y-56470D01*
X92400Y-56570D01*
X91950Y-56570D01*
X91950Y-56820D01*
X92007Y-57007D01*
X92131Y-57158D01*
X92304Y-57251D01*
X92322Y-57253D01*
X92400Y-57204D01*
X92400Y-60830D01*
X90600Y-60830D01*
X88868Y-60830D01*
X88889Y-60777D01*
X88890Y-60689D01*
X89027Y-60690D01*
X89170Y-60630D01*
X89280Y-60521D01*
X89339Y-60377D01*
X89340Y-60276D01*
X89372Y-60289D01*
X89527Y-60290D01*
X89670Y-60230D01*
X89780Y-60121D01*
X89839Y-59977D01*
X89840Y-59822D01*
X89780Y-59679D01*
X89671Y-59569D01*
X89527Y-59510D01*
X89372Y-59509D01*
X89229Y-59569D01*
X89198Y-59600D01*
X88001Y-59600D01*
X87971Y-59569D01*
X87827Y-59510D01*
X87672Y-59509D01*
X87529Y-59569D01*
X87419Y-59678D01*
X87360Y-59822D01*
X87359Y-59977D01*
X87362Y-59984D01*
X87279Y-60019D01*
X87169Y-60128D01*
X87110Y-60272D01*
X87109Y-60400D01*
X87050Y-60400D01*
X86935Y-60422D01*
X86879Y-60459D01*
X86822Y-60459D01*
X86679Y-60519D01*
X86569Y-60628D01*
X86510Y-60772D01*
X86509Y-60927D01*
X86569Y-61070D01*
X86678Y-61180D01*
X86822Y-61239D01*
X86977Y-61240D01*
X87120Y-61180D01*
X87230Y-61071D01*
X87260Y-61000D01*
X87518Y-61000D01*
X85609Y-62909D01*
X85550Y-62996D01*
X85530Y-63100D01*
X85530Y-63387D01*
X85497Y-63355D01*
X85304Y-63275D01*
X85096Y-63274D01*
X84903Y-63354D01*
X84755Y-63502D01*
X84702Y-63628D01*
X84660Y-63527D01*
X84567Y-63502D01*
X84497Y-63573D01*
X84497Y-63432D01*
X84472Y-63339D01*
X84275Y-63270D01*
X84067Y-63281D01*
X83927Y-63339D01*
X83902Y-63432D01*
X84200Y-63729D01*
X84497Y-63432D01*
X84497Y-63573D01*
X84270Y-63800D01*
X84276Y-63805D01*
X84205Y-63876D01*
X84200Y-63870D01*
X84194Y-63876D01*
X84129Y-63811D01*
X84123Y-63805D01*
X84129Y-63800D01*
X83832Y-63502D01*
X83739Y-63527D01*
X83703Y-63630D01*
X83660Y-63527D01*
X83567Y-63502D01*
X83497Y-63573D01*
X83497Y-63432D01*
X83472Y-63339D01*
X83275Y-63270D01*
X83067Y-63281D01*
X82927Y-63339D01*
X82902Y-63432D01*
X83200Y-63729D01*
X83497Y-63432D01*
X83497Y-63573D01*
X83270Y-63800D01*
X83276Y-63805D01*
X83205Y-63876D01*
X83200Y-63870D01*
X83194Y-63876D01*
X83123Y-63805D01*
X83129Y-63800D01*
X82832Y-63502D01*
X82739Y-63527D01*
X82700Y-63637D01*
X82645Y-63503D01*
X82497Y-63355D01*
X82304Y-63275D01*
X82096Y-63274D01*
X81903Y-63354D01*
X81755Y-63502D01*
X81725Y-63574D01*
X81725Y-63475D01*
X81687Y-63383D01*
X81616Y-63313D01*
X81524Y-63275D01*
X81425Y-63274D01*
X80969Y-63274D01*
X80969Y-62111D01*
X88790Y-54290D01*
X88849Y-54203D01*
X88869Y-54100D01*
X88869Y-49100D01*
X88849Y-48996D01*
X88790Y-48909D01*
X85969Y-46088D01*
X85969Y-45272D01*
X86095Y-45324D01*
X86303Y-45325D01*
X86497Y-45245D01*
X86644Y-45097D01*
X86700Y-44964D01*
X86754Y-45097D01*
X86902Y-45244D01*
X87095Y-45324D01*
X87300Y-45325D01*
X89900Y-47924D01*
X89900Y-51400D01*
X89922Y-51514D01*
X89987Y-51612D01*
X92167Y-53791D01*
X92131Y-53811D01*
X92007Y-53962D01*
X91989Y-54018D01*
X91990Y-53922D01*
X91930Y-53779D01*
X91821Y-53669D01*
X91677Y-53610D01*
X91522Y-53609D01*
X91379Y-53669D01*
X91269Y-53778D01*
X91210Y-53922D01*
X91210Y-53965D01*
X90375Y-54800D01*
X88851Y-54800D01*
X88821Y-54769D01*
X88677Y-54710D01*
X88522Y-54709D01*
X88379Y-54769D01*
X88269Y-54878D01*
X88210Y-55022D01*
X88209Y-55177D01*
X88269Y-55320D01*
X88378Y-55430D01*
X88522Y-55489D01*
X88677Y-55490D01*
X88820Y-55430D01*
X88851Y-55400D01*
X90500Y-55400D01*
X90500Y-55399D01*
X90614Y-55377D01*
X90614Y-55377D01*
X90712Y-55312D01*
X91634Y-54390D01*
X91677Y-54390D01*
X91820Y-54330D01*
X91930Y-54221D01*
X91950Y-54174D01*
X91950Y-54400D01*
X92400Y-54400D01*
X92400Y-54392D01*
X92500Y-54392D01*
X92500Y-54400D01*
X92950Y-54400D01*
X92950Y-54150D01*
X92892Y-53962D01*
X92841Y-53900D01*
X93660Y-53900D01*
X93669Y-53920D01*
X93778Y-54030D01*
X93922Y-54089D01*
X94077Y-54090D01*
X94220Y-54030D01*
X94330Y-53921D01*
X94389Y-53777D01*
X94390Y-53622D01*
X94330Y-53479D01*
X94221Y-53369D01*
X94077Y-53310D01*
X93950Y-53309D01*
X93900Y-53300D01*
X92950Y-53300D01*
X92950Y-52680D01*
X92950Y-52430D01*
X92500Y-52430D01*
X92500Y-53064D01*
X92577Y-53113D01*
X92595Y-53111D01*
X92768Y-53018D01*
X92892Y-52867D01*
X92950Y-52680D01*
X92950Y-53300D01*
X92524Y-53300D01*
X92331Y-53107D01*
X92400Y-53064D01*
X92400Y-52430D01*
X91950Y-52430D01*
X91950Y-52680D01*
X91970Y-52745D01*
X91203Y-51979D01*
X91320Y-51930D01*
X91430Y-51821D01*
X91489Y-51677D01*
X91490Y-51522D01*
X91430Y-51379D01*
X91321Y-51269D01*
X91177Y-51210D01*
X91134Y-51210D01*
X91000Y-51075D01*
X91000Y-50310D01*
X92415Y-51630D01*
X92399Y-51630D01*
X92399Y-51695D01*
X92322Y-51646D01*
X92304Y-51648D01*
X92131Y-51741D01*
X92007Y-51892D01*
X91950Y-52080D01*
X91950Y-52330D01*
X92400Y-52330D01*
X92400Y-52322D01*
X92500Y-52322D01*
X92500Y-52330D01*
X92950Y-52330D01*
X92950Y-52128D01*
X93609Y-52744D01*
X93609Y-52777D01*
X93669Y-52920D01*
X93778Y-53030D01*
X93922Y-53089D01*
X94077Y-53090D01*
X94220Y-53030D01*
X94330Y-52921D01*
X94389Y-52777D01*
X94390Y-52622D01*
X94363Y-52558D01*
X94363Y-51327D01*
X94363Y-51072D01*
X94361Y-51054D01*
X94268Y-50881D01*
X94117Y-50757D01*
X93930Y-50700D01*
X93680Y-50700D01*
X93680Y-51150D01*
X94314Y-51150D01*
X94363Y-51072D01*
X94363Y-51327D01*
X94314Y-51250D01*
X93680Y-51250D01*
X93680Y-51700D01*
X93930Y-51700D01*
X94117Y-51642D01*
X94268Y-51518D01*
X94361Y-51345D01*
X94363Y-51327D01*
X94363Y-52558D01*
X94330Y-52479D01*
X94221Y-52369D01*
X94077Y-52310D01*
X94024Y-52310D01*
X93370Y-51700D01*
X93580Y-51700D01*
X93580Y-51250D01*
X93580Y-51150D01*
X93580Y-50700D01*
X93330Y-50700D01*
X93142Y-50757D01*
X92991Y-50881D01*
X92898Y-51054D01*
X92896Y-51072D01*
X92945Y-51150D01*
X93580Y-51150D01*
X93580Y-51250D01*
X92945Y-51250D01*
X92923Y-51283D01*
X92554Y-50939D01*
X92554Y-49732D01*
X92550Y-49647D01*
X92550Y-48759D01*
X92472Y-48571D01*
X92361Y-48459D01*
X92472Y-48349D01*
X92549Y-48161D01*
X92550Y-47959D01*
X92472Y-47771D01*
X92435Y-47734D01*
X92441Y-47732D01*
X92511Y-47661D01*
X92549Y-47569D01*
X92550Y-47470D01*
X92550Y-46950D01*
X92512Y-46858D01*
X92441Y-46788D01*
X92349Y-46750D01*
X92250Y-46749D01*
X91730Y-46749D01*
X91638Y-46787D01*
X91568Y-46858D01*
X91530Y-46950D01*
X91529Y-47049D01*
X91529Y-47569D01*
X91567Y-47661D01*
X91638Y-47731D01*
X91644Y-47734D01*
X91607Y-47770D01*
X91530Y-47958D01*
X91529Y-48161D01*
X91607Y-48348D01*
X91718Y-48460D01*
X91607Y-48570D01*
X91530Y-48758D01*
X91529Y-48961D01*
X91607Y-49148D01*
X91750Y-49292D01*
X91755Y-49294D01*
X91753Y-49303D01*
X92040Y-49589D01*
X92326Y-49303D01*
X92324Y-49294D01*
X92328Y-49292D01*
X92472Y-49149D01*
X92549Y-48961D01*
X92550Y-48759D01*
X92550Y-49647D01*
X92543Y-49529D01*
X92488Y-49396D01*
X92396Y-49373D01*
X92110Y-49660D01*
X92396Y-49946D01*
X92488Y-49923D01*
X92554Y-49732D01*
X92554Y-50939D01*
X92326Y-50726D01*
X92326Y-50016D01*
X92040Y-49730D01*
X91969Y-49801D01*
X91969Y-49660D01*
X91683Y-49373D01*
X91591Y-49396D01*
X91525Y-49587D01*
X91536Y-49790D01*
X91591Y-49923D01*
X91683Y-49946D01*
X91969Y-49660D01*
X91969Y-49801D01*
X91753Y-50016D01*
X91776Y-50108D01*
X91967Y-50174D01*
X92170Y-50163D01*
X92303Y-50108D01*
X92326Y-50016D01*
X92326Y-50726D01*
X91300Y-49769D01*
X91300Y-46700D01*
X91293Y-46665D01*
X91288Y-46615D01*
X91279Y-46598D01*
X91277Y-46585D01*
X91258Y-46556D01*
X91234Y-46511D01*
X90720Y-45869D01*
X97700Y-45869D01*
X97707Y-45868D01*
X96787Y-46787D01*
X96722Y-46885D01*
X96700Y-47000D01*
X96700Y-47900D01*
X96722Y-48014D01*
X96787Y-48112D01*
X96947Y-48272D01*
X96947Y-48272D01*
X97045Y-48337D01*
X97160Y-48360D01*
X97318Y-48360D01*
X97418Y-48460D01*
X97307Y-48570D01*
X97230Y-48758D01*
X97229Y-48961D01*
X97307Y-49148D01*
X97450Y-49292D01*
X97455Y-49294D01*
X97453Y-49303D01*
X97740Y-49589D01*
X98026Y-49303D01*
X98024Y-49294D01*
X98028Y-49292D01*
X98161Y-49160D01*
X98440Y-49160D01*
X98440Y-49159D01*
X98554Y-49137D01*
X98554Y-49137D01*
X98652Y-49072D01*
X99624Y-48100D01*
X99898Y-48100D01*
X99869Y-48128D01*
X99810Y-48272D01*
X99809Y-48427D01*
X99869Y-48570D01*
X99978Y-48680D01*
X100122Y-48739D01*
X100165Y-48739D01*
X100200Y-48774D01*
X100200Y-48875D01*
X100165Y-48910D01*
X100072Y-48909D01*
X99929Y-48969D01*
X99819Y-49078D01*
X99760Y-49222D01*
X99759Y-49315D01*
X99265Y-49809D01*
X99222Y-49809D01*
X99079Y-49869D01*
X98969Y-49978D01*
X98910Y-50122D01*
X98909Y-50277D01*
X98969Y-50420D01*
X99078Y-50530D01*
X99222Y-50589D01*
X99377Y-50590D01*
X99520Y-50530D01*
X99630Y-50421D01*
X99689Y-50277D01*
X99689Y-50234D01*
X100239Y-49685D01*
X100370Y-49630D01*
X100480Y-49521D01*
X100535Y-49388D01*
X100712Y-49212D01*
X100712Y-49212D01*
X100712Y-49212D01*
X101334Y-48590D01*
X101377Y-48590D01*
X101520Y-48530D01*
X101630Y-48421D01*
X101689Y-48277D01*
X101690Y-48122D01*
X101630Y-47979D01*
X101551Y-47899D01*
X101630Y-47821D01*
X101689Y-47677D01*
X101690Y-47522D01*
X101630Y-47379D01*
X101521Y-47269D01*
X101377Y-47210D01*
X101222Y-47209D01*
X101090Y-47264D01*
X101090Y-47222D01*
X101030Y-47079D01*
X100921Y-46969D01*
X100777Y-46910D01*
X100734Y-46910D01*
X100712Y-46887D01*
X100614Y-46822D01*
X100500Y-46800D01*
X99751Y-46800D01*
X99721Y-46769D01*
X99577Y-46710D01*
X99422Y-46709D01*
X99279Y-46769D01*
X99169Y-46878D01*
X99110Y-47022D01*
X99109Y-47177D01*
X99169Y-47320D01*
X99278Y-47430D01*
X99422Y-47489D01*
X99577Y-47490D01*
X99720Y-47430D01*
X99751Y-47400D01*
X100319Y-47400D01*
X100360Y-47500D01*
X99500Y-47500D01*
X99385Y-47522D01*
X99287Y-47587D01*
X98315Y-48560D01*
X98161Y-48560D01*
X98061Y-48459D01*
X98172Y-48349D01*
X98249Y-48161D01*
X98250Y-47959D01*
X98172Y-47771D01*
X98135Y-47734D01*
X98141Y-47732D01*
X98211Y-47661D01*
X98249Y-47569D01*
X98250Y-47470D01*
X98250Y-47174D01*
X99424Y-46000D01*
X100400Y-46000D01*
X100400Y-45999D01*
X100514Y-45977D01*
X100514Y-45977D01*
X100612Y-45912D01*
X101199Y-45324D01*
X101303Y-45325D01*
X101497Y-45245D01*
X101644Y-45097D01*
X101724Y-44904D01*
X101725Y-44696D01*
X101662Y-44543D01*
X101709Y-44590D01*
X101830Y-44711D01*
X101830Y-51034D01*
X101748Y-50881D01*
X101597Y-50757D01*
X101410Y-50700D01*
X101160Y-50700D01*
X101160Y-51150D01*
X101167Y-51150D01*
X101167Y-51250D01*
X101160Y-51250D01*
X101160Y-51700D01*
X101410Y-51700D01*
X101597Y-51642D01*
X101748Y-51518D01*
X101830Y-51365D01*
X101830Y-57534D01*
X101748Y-57381D01*
X101597Y-57257D01*
X101410Y-57200D01*
X101160Y-57200D01*
X101160Y-57650D01*
X101167Y-57650D01*
X101167Y-57750D01*
X101160Y-57750D01*
X101160Y-58200D01*
X101410Y-58200D01*
X101597Y-58142D01*
X101748Y-58018D01*
X101830Y-57865D01*
X101830Y-60488D01*
X101830Y-60488D01*
G37*
G54D18*
X101830Y-60488D02*
X101709Y-60609D01*
X101709Y-60609D01*
X101488Y-60830D01*
X101374Y-60830D01*
X101374Y-59382D01*
X101363Y-59179D01*
X101308Y-59046D01*
X101216Y-59023D01*
X101146Y-59094D01*
X101146Y-58953D01*
X101123Y-58861D01*
X101060Y-58839D01*
X101060Y-58200D01*
X101060Y-57750D01*
X101060Y-57650D01*
X101060Y-57200D01*
X101060Y-51700D01*
X101060Y-51250D01*
X101060Y-51150D01*
X101060Y-50700D01*
X100810Y-50700D01*
X100622Y-50757D01*
X100471Y-50881D01*
X100378Y-51054D01*
X100376Y-51072D01*
X100425Y-51150D01*
X101060Y-51150D01*
X101060Y-51250D01*
X100425Y-51250D01*
X100376Y-51327D01*
X100378Y-51345D01*
X100471Y-51518D01*
X100622Y-51642D01*
X100810Y-51700D01*
X101060Y-51700D01*
X101060Y-57200D01*
X100810Y-57200D01*
X100622Y-57257D01*
X100471Y-57381D01*
X100378Y-57554D01*
X100376Y-57572D01*
X100425Y-57650D01*
X101060Y-57650D01*
X101060Y-57750D01*
X100425Y-57750D01*
X100376Y-57827D01*
X100378Y-57845D01*
X100471Y-58018D01*
X100622Y-58142D01*
X100810Y-58200D01*
X101060Y-58200D01*
X101060Y-58839D01*
X100932Y-58795D01*
X100729Y-58806D01*
X100596Y-58861D01*
X100573Y-58953D01*
X100860Y-59239D01*
X101146Y-58953D01*
X101146Y-59094D01*
X100930Y-59310D01*
X101216Y-59596D01*
X101308Y-59573D01*
X101374Y-59382D01*
X101374Y-60830D01*
X101146Y-60830D01*
X101146Y-59666D01*
X100860Y-59380D01*
X100789Y-59451D01*
X100789Y-59310D01*
X100503Y-59023D01*
X100494Y-59025D01*
X100492Y-59021D01*
X100349Y-58877D01*
X100161Y-58800D01*
X99959Y-58799D01*
X99771Y-58877D01*
X99659Y-58988D01*
X99549Y-58877D01*
X99361Y-58800D01*
X99159Y-58799D01*
X98971Y-58877D01*
X98934Y-58914D01*
X98932Y-58908D01*
X98861Y-58838D01*
X98769Y-58800D01*
X98760Y-58800D01*
X98760Y-57160D01*
X98737Y-57045D01*
X98672Y-56947D01*
X98254Y-56530D01*
X98254Y-49732D01*
X98243Y-49529D01*
X98188Y-49396D01*
X98096Y-49373D01*
X97810Y-49660D01*
X98096Y-49946D01*
X98188Y-49923D01*
X98254Y-49732D01*
X98254Y-56530D01*
X98026Y-56301D01*
X98026Y-50016D01*
X97740Y-49730D01*
X97669Y-49801D01*
X97669Y-49660D01*
X97383Y-49373D01*
X97291Y-49396D01*
X97225Y-49587D01*
X97236Y-49790D01*
X97291Y-49923D01*
X97383Y-49946D01*
X97669Y-49660D01*
X97669Y-49801D01*
X97453Y-50016D01*
X97476Y-50108D01*
X97667Y-50174D01*
X97870Y-50163D01*
X98003Y-50108D01*
X98026Y-50016D01*
X98026Y-56301D01*
X97913Y-56189D01*
X97913Y-51327D01*
X97913Y-51072D01*
X97911Y-51054D01*
X97818Y-50881D01*
X97667Y-50757D01*
X97480Y-50700D01*
X97230Y-50700D01*
X97230Y-51150D01*
X97864Y-51150D01*
X97913Y-51072D01*
X97913Y-51327D01*
X97864Y-51250D01*
X97230Y-51250D01*
X97230Y-51700D01*
X97480Y-51700D01*
X97667Y-51642D01*
X97818Y-51518D01*
X97911Y-51345D01*
X97913Y-51327D01*
X97913Y-56189D01*
X97890Y-56165D01*
X97890Y-56122D01*
X97830Y-55979D01*
X97721Y-55869D01*
X97577Y-55810D01*
X97422Y-55809D01*
X97279Y-55869D01*
X97169Y-55978D01*
X97130Y-56074D01*
X97130Y-51700D01*
X97130Y-51250D01*
X97122Y-51250D01*
X97122Y-51150D01*
X97130Y-51150D01*
X97130Y-50700D01*
X96880Y-50700D01*
X96692Y-50757D01*
X96541Y-50881D01*
X96450Y-51052D01*
X96450Y-49126D01*
X96480Y-49096D01*
X96539Y-48952D01*
X96540Y-48797D01*
X96480Y-48654D01*
X96371Y-48544D01*
X96227Y-48485D01*
X96072Y-48484D01*
X95929Y-48544D01*
X95819Y-48653D01*
X95760Y-48797D01*
X95759Y-48952D01*
X95819Y-49095D01*
X95850Y-49126D01*
X95850Y-53225D01*
X95354Y-53720D01*
X95354Y-49732D01*
X95350Y-49647D01*
X95350Y-48759D01*
X95272Y-48571D01*
X95161Y-48459D01*
X95272Y-48349D01*
X95349Y-48161D01*
X95350Y-47959D01*
X95272Y-47771D01*
X95235Y-47734D01*
X95241Y-47732D01*
X95311Y-47661D01*
X95349Y-47569D01*
X95350Y-47470D01*
X95350Y-46950D01*
X95312Y-46858D01*
X95241Y-46788D01*
X95149Y-46750D01*
X95050Y-46749D01*
X94530Y-46749D01*
X94438Y-46787D01*
X94368Y-46858D01*
X94330Y-46950D01*
X94329Y-47049D01*
X94329Y-47569D01*
X94367Y-47661D01*
X94438Y-47731D01*
X94444Y-47734D01*
X94407Y-47770D01*
X94330Y-47958D01*
X94329Y-48161D01*
X94407Y-48348D01*
X94518Y-48460D01*
X94407Y-48570D01*
X94330Y-48758D01*
X94329Y-48961D01*
X94407Y-49148D01*
X94550Y-49292D01*
X94555Y-49294D01*
X94553Y-49303D01*
X94840Y-49589D01*
X95126Y-49303D01*
X95124Y-49294D01*
X95128Y-49292D01*
X95272Y-49149D01*
X95349Y-48961D01*
X95350Y-48759D01*
X95350Y-49647D01*
X95343Y-49529D01*
X95288Y-49396D01*
X95196Y-49373D01*
X94910Y-49660D01*
X95196Y-49946D01*
X95288Y-49923D01*
X95354Y-49732D01*
X95354Y-53720D01*
X95126Y-53949D01*
X95126Y-50016D01*
X94840Y-49730D01*
X94769Y-49801D01*
X94769Y-49660D01*
X94483Y-49373D01*
X94391Y-49396D01*
X94325Y-49587D01*
X94336Y-49790D01*
X94391Y-49923D01*
X94483Y-49946D01*
X94769Y-49660D01*
X94769Y-49801D01*
X94553Y-50016D01*
X94576Y-50108D01*
X94767Y-50174D01*
X94970Y-50163D01*
X95103Y-50108D01*
X95126Y-50016D01*
X95126Y-53949D01*
X93925Y-55150D01*
X92653Y-55150D01*
X92768Y-55088D01*
X92892Y-54937D01*
X92950Y-54750D01*
X92950Y-54500D01*
X92500Y-54500D01*
X92500Y-54507D01*
X92400Y-54507D01*
X92400Y-54500D01*
X91950Y-54500D01*
X91950Y-54750D01*
X92007Y-54937D01*
X92131Y-55088D01*
X92246Y-55150D01*
X91200Y-55150D01*
X91085Y-55172D01*
X90987Y-55237D01*
X89965Y-56259D01*
X89922Y-56259D01*
X89779Y-56319D01*
X89669Y-56428D01*
X89610Y-56572D01*
X89609Y-56727D01*
X89669Y-56870D01*
X89778Y-56980D01*
X89922Y-57039D01*
X90077Y-57040D01*
X90220Y-56980D01*
X90330Y-56871D01*
X90389Y-56727D01*
X90389Y-56684D01*
X91324Y-55750D01*
X94050Y-55750D01*
X94050Y-55749D01*
X94164Y-55727D01*
X94164Y-55727D01*
X94262Y-55662D01*
X96362Y-53562D01*
X96427Y-53464D01*
X96449Y-53350D01*
X96450Y-53350D01*
X96450Y-51347D01*
X96541Y-51518D01*
X96692Y-51642D01*
X96880Y-51700D01*
X97130Y-51700D01*
X97130Y-56074D01*
X97110Y-56122D01*
X97109Y-56277D01*
X97169Y-56420D01*
X97278Y-56530D01*
X97422Y-56589D01*
X97465Y-56589D01*
X98160Y-57284D01*
X98160Y-58799D01*
X98150Y-58799D01*
X98058Y-58837D01*
X97988Y-58908D01*
X97950Y-59000D01*
X97949Y-59099D01*
X97949Y-59619D01*
X97987Y-59711D01*
X98058Y-59781D01*
X98150Y-59819D01*
X98249Y-59820D01*
X98769Y-59820D01*
X98861Y-59782D01*
X98931Y-59711D01*
X98934Y-59705D01*
X98970Y-59742D01*
X99158Y-59819D01*
X99361Y-59820D01*
X99548Y-59742D01*
X99660Y-59631D01*
X99770Y-59742D01*
X99958Y-59819D01*
X100161Y-59820D01*
X100348Y-59742D01*
X100492Y-59599D01*
X100494Y-59594D01*
X100503Y-59596D01*
X100789Y-59310D01*
X100789Y-59451D01*
X100573Y-59666D01*
X100596Y-59758D01*
X100787Y-59824D01*
X100990Y-59813D01*
X101123Y-59758D01*
X101146Y-59666D01*
X101146Y-60830D01*
X97913Y-60830D01*
X97913Y-57827D01*
X97913Y-57572D01*
X97911Y-57554D01*
X97818Y-57381D01*
X97667Y-57257D01*
X97480Y-57200D01*
X97230Y-57200D01*
X97230Y-57650D01*
X97864Y-57650D01*
X97913Y-57572D01*
X97913Y-57827D01*
X97864Y-57750D01*
X97230Y-57750D01*
X97230Y-58200D01*
X97480Y-58200D01*
X97667Y-58142D01*
X97818Y-58018D01*
X97911Y-57845D01*
X97913Y-57827D01*
X97913Y-60830D01*
X97130Y-60830D01*
X97130Y-58200D01*
X97130Y-57750D01*
X97130Y-57650D01*
X97130Y-57200D01*
X96880Y-57200D01*
X96692Y-57257D01*
X96541Y-57381D01*
X96448Y-57554D01*
X96446Y-57572D01*
X96495Y-57650D01*
X97130Y-57650D01*
X97130Y-57750D01*
X96495Y-57750D01*
X96446Y-57827D01*
X96448Y-57845D01*
X96541Y-58018D01*
X96692Y-58142D01*
X96880Y-58200D01*
X97130Y-58200D01*
X97130Y-60830D01*
X96624Y-60830D01*
X96624Y-59382D01*
X96613Y-59179D01*
X96558Y-59046D01*
X96466Y-59023D01*
X96396Y-59094D01*
X96396Y-58953D01*
X96373Y-58861D01*
X96182Y-58795D01*
X95979Y-58806D01*
X95846Y-58861D01*
X95823Y-58953D01*
X96110Y-59239D01*
X96396Y-58953D01*
X96396Y-59094D01*
X96180Y-59310D01*
X96466Y-59596D01*
X96558Y-59573D01*
X96624Y-59382D01*
X96624Y-60830D01*
X96396Y-60830D01*
X96396Y-59666D01*
X96110Y-59380D01*
X96039Y-59451D01*
X96039Y-59310D01*
X95753Y-59023D01*
X95744Y-59025D01*
X95742Y-59021D01*
X95599Y-58877D01*
X95411Y-58800D01*
X95209Y-58799D01*
X95021Y-58877D01*
X94909Y-58988D01*
X94799Y-58877D01*
X94611Y-58800D01*
X94409Y-58799D01*
X94363Y-58818D01*
X94363Y-57827D01*
X94363Y-57572D01*
X94361Y-57554D01*
X94268Y-57381D01*
X94117Y-57257D01*
X93930Y-57200D01*
X93680Y-57200D01*
X93680Y-57650D01*
X94314Y-57650D01*
X94363Y-57572D01*
X94363Y-57827D01*
X94314Y-57750D01*
X93680Y-57750D01*
X93680Y-58200D01*
X93930Y-58200D01*
X94117Y-58142D01*
X94268Y-58018D01*
X94361Y-57845D01*
X94363Y-57827D01*
X94363Y-58818D01*
X94221Y-58877D01*
X94184Y-58914D01*
X94182Y-58908D01*
X94111Y-58838D01*
X94019Y-58800D01*
X93920Y-58799D01*
X93580Y-58799D01*
X93580Y-58200D01*
X93580Y-57750D01*
X93580Y-57650D01*
X93580Y-57200D01*
X93330Y-57200D01*
X93142Y-57257D01*
X92991Y-57381D01*
X92950Y-57458D01*
X92950Y-56820D01*
X92950Y-56570D01*
X92950Y-56470D01*
X92950Y-56220D01*
X92892Y-56032D01*
X92768Y-55881D01*
X92595Y-55788D01*
X92577Y-55786D01*
X92500Y-55835D01*
X92500Y-56470D01*
X92950Y-56470D01*
X92950Y-56570D01*
X92500Y-56570D01*
X92500Y-57204D01*
X92577Y-57253D01*
X92595Y-57251D01*
X92768Y-57158D01*
X92892Y-57007D01*
X92950Y-56820D01*
X92950Y-57458D01*
X92898Y-57554D01*
X92896Y-57572D01*
X92945Y-57650D01*
X93580Y-57650D01*
X93580Y-57750D01*
X92945Y-57750D01*
X92896Y-57827D01*
X92898Y-57845D01*
X92991Y-58018D01*
X93142Y-58142D01*
X93330Y-58200D01*
X93580Y-58200D01*
X93580Y-58799D01*
X93400Y-58799D01*
X93308Y-58837D01*
X93238Y-58908D01*
X93200Y-59000D01*
X93199Y-59099D01*
X93199Y-59619D01*
X93237Y-59711D01*
X93308Y-59781D01*
X93400Y-59819D01*
X93499Y-59820D01*
X94019Y-59820D01*
X94111Y-59782D01*
X94181Y-59711D01*
X94184Y-59705D01*
X94220Y-59742D01*
X94408Y-59819D01*
X94611Y-59820D01*
X94798Y-59742D01*
X94910Y-59631D01*
X95020Y-59742D01*
X95208Y-59819D01*
X95411Y-59820D01*
X95598Y-59742D01*
X95742Y-59599D01*
X95744Y-59594D01*
X95753Y-59596D01*
X96039Y-59310D01*
X96039Y-59451D01*
X95823Y-59666D01*
X95846Y-59758D01*
X96037Y-59824D01*
X96240Y-59813D01*
X96373Y-59758D01*
X96396Y-59666D01*
X96396Y-60830D01*
X92400Y-60830D01*
X92400Y-57204D01*
X92400Y-56570D01*
X92400Y-56470D01*
X92400Y-55835D01*
X92322Y-55786D01*
X92304Y-55788D01*
X92131Y-55881D01*
X92007Y-56032D01*
X91950Y-56220D01*
X91950Y-56470D01*
X92400Y-56470D01*
X92400Y-56570D01*
X91950Y-56570D01*
X91950Y-56820D01*
X92007Y-57007D01*
X92131Y-57158D01*
X92304Y-57251D01*
X92322Y-57253D01*
X92400Y-57204D01*
X92400Y-60830D01*
X90600Y-60830D01*
X88868Y-60830D01*
X88889Y-60777D01*
X88890Y-60689D01*
X89027Y-60690D01*
X89170Y-60630D01*
X89280Y-60521D01*
X89339Y-60377D01*
X89340Y-60276D01*
X89372Y-60289D01*
X89527Y-60290D01*
X89670Y-60230D01*
X89780Y-60121D01*
X89839Y-59977D01*
X89840Y-59822D01*
X89780Y-59679D01*
X89671Y-59569D01*
X89527Y-59510D01*
X89372Y-59509D01*
X89229Y-59569D01*
X89198Y-59600D01*
X88001Y-59600D01*
X87971Y-59569D01*
X87827Y-59510D01*
X87672Y-59509D01*
X87529Y-59569D01*
X87419Y-59678D01*
X87360Y-59822D01*
X87359Y-59977D01*
X87362Y-59984D01*
X87279Y-60019D01*
X87169Y-60128D01*
X87110Y-60272D01*
X87109Y-60400D01*
X87050Y-60400D01*
X86935Y-60422D01*
X86879Y-60459D01*
X86822Y-60459D01*
X86679Y-60519D01*
X86569Y-60628D01*
X86510Y-60772D01*
X86509Y-60927D01*
X86569Y-61070D01*
X86678Y-61180D01*
X86822Y-61239D01*
X86977Y-61240D01*
X87120Y-61180D01*
X87230Y-61071D01*
X87260Y-61000D01*
X87518Y-61000D01*
X85609Y-62909D01*
X85550Y-62996D01*
X85530Y-63100D01*
X85530Y-63387D01*
X85497Y-63355D01*
X85304Y-63275D01*
X85096Y-63274D01*
X84903Y-63354D01*
X84755Y-63502D01*
X84702Y-63628D01*
X84660Y-63527D01*
X84567Y-63502D01*
X84497Y-63573D01*
X84497Y-63432D01*
X84472Y-63339D01*
X84275Y-63270D01*
X84067Y-63281D01*
X83927Y-63339D01*
X83902Y-63432D01*
X84200Y-63729D01*
X84497Y-63432D01*
X84497Y-63573D01*
X84270Y-63800D01*
X84276Y-63805D01*
X84205Y-63876D01*
X84200Y-63870D01*
X84194Y-63876D01*
X84129Y-63811D01*
X84123Y-63805D01*
X84129Y-63800D01*
X83832Y-63502D01*
X83739Y-63527D01*
X83703Y-63630D01*
X83660Y-63527D01*
X83567Y-63502D01*
X83497Y-63573D01*
X83497Y-63432D01*
X83472Y-63339D01*
X83275Y-63270D01*
X83067Y-63281D01*
X82927Y-63339D01*
X82902Y-63432D01*
X83200Y-63729D01*
X83497Y-63432D01*
X83497Y-63573D01*
X83270Y-63800D01*
X83276Y-63805D01*
X83205Y-63876D01*
X83200Y-63870D01*
X83194Y-63876D01*
X83123Y-63805D01*
X83129Y-63800D01*
X82832Y-63502D01*
X82739Y-63527D01*
X82700Y-63637D01*
X82645Y-63503D01*
X82497Y-63355D01*
X82304Y-63275D01*
X82096Y-63274D01*
X81903Y-63354D01*
X81755Y-63502D01*
X81725Y-63574D01*
X81725Y-63475D01*
X81687Y-63383D01*
X81616Y-63313D01*
X81524Y-63275D01*
X81425Y-63274D01*
X80969Y-63274D01*
X80969Y-62111D01*
X88790Y-54290D01*
X88849Y-54203D01*
X88869Y-54100D01*
X88869Y-49100D01*
X88849Y-48996D01*
X88790Y-48909D01*
X85969Y-46088D01*
X85969Y-45272D01*
X86095Y-45324D01*
X86303Y-45325D01*
X86497Y-45245D01*
X86644Y-45097D01*
X86700Y-44964D01*
X86754Y-45097D01*
X86902Y-45244D01*
X87095Y-45324D01*
X87300Y-45325D01*
X89900Y-47924D01*
X89900Y-51400D01*
X89922Y-51514D01*
X89987Y-51612D01*
X92167Y-53791D01*
X92131Y-53811D01*
X92007Y-53962D01*
X91989Y-54018D01*
X91990Y-53922D01*
X91930Y-53779D01*
X91821Y-53669D01*
X91677Y-53610D01*
X91522Y-53609D01*
X91379Y-53669D01*
X91269Y-53778D01*
X91210Y-53922D01*
X91210Y-53965D01*
X90375Y-54800D01*
X88851Y-54800D01*
X88821Y-54769D01*
X88677Y-54710D01*
X88522Y-54709D01*
X88379Y-54769D01*
X88269Y-54878D01*
X88210Y-55022D01*
X88209Y-55177D01*
X88269Y-55320D01*
X88378Y-55430D01*
X88522Y-55489D01*
X88677Y-55490D01*
X88820Y-55430D01*
X88851Y-55400D01*
X90500Y-55400D01*
X90500Y-55399D01*
X90614Y-55377D01*
X90614Y-55377D01*
X90712Y-55312D01*
X91634Y-54390D01*
X91677Y-54390D01*
X91820Y-54330D01*
X91930Y-54221D01*
X91950Y-54174D01*
X91950Y-54400D01*
X92400Y-54400D01*
X92400Y-54392D01*
X92500Y-54392D01*
X92500Y-54400D01*
X92950Y-54400D01*
X92950Y-54150D01*
X92892Y-53962D01*
X92841Y-53900D01*
X93660Y-53900D01*
X93669Y-53920D01*
X93778Y-54030D01*
X93922Y-54089D01*
X94077Y-54090D01*
X94220Y-54030D01*
X94330Y-53921D01*
X94389Y-53777D01*
X94390Y-53622D01*
X94330Y-53479D01*
X94221Y-53369D01*
X94077Y-53310D01*
X93950Y-53309D01*
X93900Y-53300D01*
X92950Y-53300D01*
X92950Y-52680D01*
X92950Y-52430D01*
X92500Y-52430D01*
X92500Y-53064D01*
X92577Y-53113D01*
X92595Y-53111D01*
X92768Y-53018D01*
X92892Y-52867D01*
X92950Y-52680D01*
X92950Y-53300D01*
X92524Y-53300D01*
X92331Y-53107D01*
X92400Y-53064D01*
X92400Y-52430D01*
X91950Y-52430D01*
X91950Y-52680D01*
X91970Y-52745D01*
X91203Y-51979D01*
X91320Y-51930D01*
X91430Y-51821D01*
X91489Y-51677D01*
X91490Y-51522D01*
X91430Y-51379D01*
X91321Y-51269D01*
X91177Y-51210D01*
X91134Y-51210D01*
X91000Y-51075D01*
X91000Y-50310D01*
X92415Y-51630D01*
X92399Y-51630D01*
X92399Y-51695D01*
X92322Y-51646D01*
X92304Y-51648D01*
X92131Y-51741D01*
X92007Y-51892D01*
X91950Y-52080D01*
X91950Y-52330D01*
X92400Y-52330D01*
X92400Y-52322D01*
X92500Y-52322D01*
X92500Y-52330D01*
X92950Y-52330D01*
X92950Y-52128D01*
X93609Y-52744D01*
X93609Y-52777D01*
X93669Y-52920D01*
X93778Y-53030D01*
X93922Y-53089D01*
X94077Y-53090D01*
X94220Y-53030D01*
X94330Y-52921D01*
X94389Y-52777D01*
X94390Y-52622D01*
X94363Y-52558D01*
X94363Y-51327D01*
X94363Y-51072D01*
X94361Y-51054D01*
X94268Y-50881D01*
X94117Y-50757D01*
X93930Y-50700D01*
X93680Y-50700D01*
X93680Y-51150D01*
X94314Y-51150D01*
X94363Y-51072D01*
X94363Y-51327D01*
X94314Y-51250D01*
X93680Y-51250D01*
X93680Y-51700D01*
X93930Y-51700D01*
X94117Y-51642D01*
X94268Y-51518D01*
X94361Y-51345D01*
X94363Y-51327D01*
X94363Y-52558D01*
X94330Y-52479D01*
X94221Y-52369D01*
X94077Y-52310D01*
X94024Y-52310D01*
X93370Y-51700D01*
X93580Y-51700D01*
X93580Y-51250D01*
X93580Y-51150D01*
X93580Y-50700D01*
X93330Y-50700D01*
X93142Y-50757D01*
X92991Y-50881D01*
X92898Y-51054D01*
X92896Y-51072D01*
X92945Y-51150D01*
X93580Y-51150D01*
X93580Y-51250D01*
X92945Y-51250D01*
X92923Y-51283D01*
X92554Y-50939D01*
X92554Y-49732D01*
X92550Y-49647D01*
X92550Y-48759D01*
X92472Y-48571D01*
X92361Y-48459D01*
X92472Y-48349D01*
X92549Y-48161D01*
X92550Y-47959D01*
X92472Y-47771D01*
X92435Y-47734D01*
X92441Y-47732D01*
X92511Y-47661D01*
X92549Y-47569D01*
X92550Y-47470D01*
X92550Y-46950D01*
X92512Y-46858D01*
X92441Y-46788D01*
X92349Y-46750D01*
X92250Y-46749D01*
X91730Y-46749D01*
X91638Y-46787D01*
X91568Y-46858D01*
X91530Y-46950D01*
X91529Y-47049D01*
X91529Y-47569D01*
X91567Y-47661D01*
X91638Y-47731D01*
X91644Y-47734D01*
X91607Y-47770D01*
X91530Y-47958D01*
X91529Y-48161D01*
X91607Y-48348D01*
X91718Y-48460D01*
X91607Y-48570D01*
X91530Y-48758D01*
X91529Y-48961D01*
X91607Y-49148D01*
X91750Y-49292D01*
X91755Y-49294D01*
X91753Y-49303D01*
X92040Y-49589D01*
X92326Y-49303D01*
X92324Y-49294D01*
X92328Y-49292D01*
X92472Y-49149D01*
X92549Y-48961D01*
X92550Y-48759D01*
X92550Y-49647D01*
X92543Y-49529D01*
X92488Y-49396D01*
X92396Y-49373D01*
X92110Y-49660D01*
X92396Y-49946D01*
X92488Y-49923D01*
X92554Y-49732D01*
X92554Y-50939D01*
X92326Y-50726D01*
X92326Y-50016D01*
X92040Y-49730D01*
X91969Y-49801D01*
X91969Y-49660D01*
X91683Y-49373D01*
X91591Y-49396D01*
X91525Y-49587D01*
X91536Y-49790D01*
X91591Y-49923D01*
X91683Y-49946D01*
X91969Y-49660D01*
X91969Y-49801D01*
X91753Y-50016D01*
X91776Y-50108D01*
X91967Y-50174D01*
X92170Y-50163D01*
X92303Y-50108D01*
X92326Y-50016D01*
X92326Y-50726D01*
X91300Y-49769D01*
X91300Y-46700D01*
X91293Y-46665D01*
X91288Y-46615D01*
X91279Y-46598D01*
X91277Y-46585D01*
X91258Y-46556D01*
X91234Y-46511D01*
X90720Y-45869D01*
X97700Y-45869D01*
X97707Y-45868D01*
X96787Y-46787D01*
X96722Y-46885D01*
X96700Y-47000D01*
X96700Y-47900D01*
X96722Y-48014D01*
X96787Y-48112D01*
X96947Y-48272D01*
X96947Y-48272D01*
X97045Y-48337D01*
X97160Y-48360D01*
X97318Y-48360D01*
X97418Y-48460D01*
X97307Y-48570D01*
X97230Y-48758D01*
X97229Y-48961D01*
X97307Y-49148D01*
X97450Y-49292D01*
X97455Y-49294D01*
X97453Y-49303D01*
X97740Y-49589D01*
X98026Y-49303D01*
X98024Y-49294D01*
X98028Y-49292D01*
X98161Y-49160D01*
X98440Y-49160D01*
X98440Y-49159D01*
X98554Y-49137D01*
X98554Y-49137D01*
X98652Y-49072D01*
X99624Y-48100D01*
X99898Y-48100D01*
X99869Y-48128D01*
X99810Y-48272D01*
X99809Y-48427D01*
X99869Y-48570D01*
X99978Y-48680D01*
X100122Y-48739D01*
X100165Y-48739D01*
X100200Y-48774D01*
X100200Y-48875D01*
X100165Y-48910D01*
X100072Y-48909D01*
X99929Y-48969D01*
X99819Y-49078D01*
X99760Y-49222D01*
X99759Y-49315D01*
X99265Y-49809D01*
X99222Y-49809D01*
X99079Y-49869D01*
X98969Y-49978D01*
X98910Y-50122D01*
X98909Y-50277D01*
X98969Y-50420D01*
X99078Y-50530D01*
X99222Y-50589D01*
X99377Y-50590D01*
X99520Y-50530D01*
X99630Y-50421D01*
X99689Y-50277D01*
X99689Y-50234D01*
X100239Y-49685D01*
X100370Y-49630D01*
X100480Y-49521D01*
X100535Y-49388D01*
X100712Y-49212D01*
X100712Y-49212D01*
X100712Y-49212D01*
X101334Y-48590D01*
X101377Y-48590D01*
X101520Y-48530D01*
X101630Y-48421D01*
X101689Y-48277D01*
X101690Y-48122D01*
X101630Y-47979D01*
X101551Y-47899D01*
X101630Y-47821D01*
X101689Y-47677D01*
X101690Y-47522D01*
X101630Y-47379D01*
X101521Y-47269D01*
X101377Y-47210D01*
X101222Y-47209D01*
X101090Y-47264D01*
X101090Y-47222D01*
X101030Y-47079D01*
X100921Y-46969D01*
X100777Y-46910D01*
X100734Y-46910D01*
X100712Y-46887D01*
X100614Y-46822D01*
X100500Y-46800D01*
X99751Y-46800D01*
X99721Y-46769D01*
X99577Y-46710D01*
X99422Y-46709D01*
X99279Y-46769D01*
X99169Y-46878D01*
X99110Y-47022D01*
X99109Y-47177D01*
X99169Y-47320D01*
X99278Y-47430D01*
X99422Y-47489D01*
X99577Y-47490D01*
X99720Y-47430D01*
X99751Y-47400D01*
X100319Y-47400D01*
X100360Y-47500D01*
X99500Y-47500D01*
X99385Y-47522D01*
X99287Y-47587D01*
X98315Y-48560D01*
X98161Y-48560D01*
X98061Y-48459D01*
X98172Y-48349D01*
X98249Y-48161D01*
X98250Y-47959D01*
X98172Y-47771D01*
X98135Y-47734D01*
X98141Y-47732D01*
X98211Y-47661D01*
X98249Y-47569D01*
X98250Y-47470D01*
X98250Y-47174D01*
X99424Y-46000D01*
X100400Y-46000D01*
X100400Y-45999D01*
X100514Y-45977D01*
X100514Y-45977D01*
X100612Y-45912D01*
X101199Y-45324D01*
X101303Y-45325D01*
X101497Y-45245D01*
X101644Y-45097D01*
X101724Y-44904D01*
X101725Y-44696D01*
X101662Y-44543D01*
X101709Y-44590D01*
X101830Y-44711D01*
X101830Y-51034D01*
X101748Y-50881D01*
X101597Y-50757D01*
X101410Y-50700D01*
X101160Y-50700D01*
X101160Y-51150D01*
X101167Y-51150D01*
X101167Y-51250D01*
X101160Y-51250D01*
X101160Y-51700D01*
X101410Y-51700D01*
X101597Y-51642D01*
X101748Y-51518D01*
X101830Y-51365D01*
X101830Y-57534D01*
X101748Y-57381D01*
X101597Y-57257D01*
X101410Y-57200D01*
X101160Y-57200D01*
X101160Y-57650D01*
X101167Y-57650D01*
X101167Y-57750D01*
X101160Y-57750D01*
X101160Y-58200D01*
X101410Y-58200D01*
X101597Y-58142D01*
X101748Y-58018D01*
X101830Y-57865D01*
X101830Y-60488D01*
M02*
