G04 (created by PCBNEW (2013-05-16 BZR 4016)-stable) date 7/10/2013 01:08:46*
%MOIN*%
G04 Gerber Fmt 3.4, Leading zero omitted, Abs format*
%FSLAX34Y34*%
G01*
G70*
G90*
G04 APERTURE LIST*
%ADD10C,0.00590551*%
%ADD11R,0.0315X0.0394*%
%ADD12R,0.025X0.045*%
%ADD13R,0.045X0.025*%
%ADD14R,0.016X0.024*%
%ADD15R,0.055X0.055*%
%ADD16C,0.055*%
%ADD17R,0.032X0.05*%
%ADD18R,0.032X0.06*%
%ADD19R,0.06X0.032*%
%ADD20R,0.05X0.032*%
%ADD21R,0.0314X0.0314*%
%ADD22R,0.025X0.02*%
%ADD23R,0.0394X0.0315*%
%ADD24O,0.05X0.1*%
%ADD25O,0.1X0.05*%
%ADD26C,0.052*%
%ADD27R,0.052X0.052*%
G04 APERTURE END LIST*
G54D10*
G54D11*
X99700Y-46167D03*
X100075Y-47033D03*
X99325Y-47033D03*
G54D12*
X90600Y-48900D03*
X90000Y-48900D03*
G54D13*
X92100Y-58600D03*
X92100Y-58000D03*
X91400Y-58000D03*
X91400Y-58600D03*
G54D14*
X99330Y-48330D03*
X99580Y-48330D03*
X99830Y-48330D03*
X100080Y-48330D03*
X100080Y-47730D03*
X99830Y-47730D03*
X99580Y-47730D03*
X99330Y-47730D03*
G54D15*
X90200Y-44800D03*
G54D16*
X89200Y-44800D03*
X88200Y-44800D03*
X87200Y-44800D03*
X86200Y-44800D03*
G54D15*
X98200Y-44800D03*
G54D16*
X99200Y-44800D03*
X100200Y-44800D03*
X101200Y-44800D03*
G54D15*
X81200Y-63800D03*
G54D16*
X82200Y-63800D03*
X83200Y-63800D03*
X84200Y-63800D03*
X85200Y-63800D03*
G54D17*
X93770Y-57010D03*
G54D18*
X94370Y-56960D03*
X94970Y-56960D03*
X95570Y-56960D03*
X96160Y-56950D03*
X96760Y-56950D03*
X97360Y-56950D03*
X97960Y-56950D03*
X98560Y-56950D03*
X99160Y-56950D03*
X99760Y-56950D03*
X100360Y-56950D03*
X100960Y-56950D03*
X100970Y-51960D03*
X100370Y-51960D03*
X99770Y-51960D03*
X99170Y-51960D03*
X98570Y-51960D03*
X97970Y-51960D03*
X97370Y-51960D03*
X96770Y-51960D03*
X96170Y-51960D03*
X95570Y-51960D03*
X94970Y-51960D03*
X94370Y-51960D03*
G54D17*
X93770Y-51910D03*
G54D19*
X93220Y-52960D03*
X93220Y-53560D03*
X93220Y-54160D03*
X93220Y-54760D03*
X93220Y-55360D03*
X93220Y-55960D03*
G54D20*
X93170Y-56560D03*
X93170Y-52360D03*
G54D21*
X84745Y-60600D03*
X84155Y-60600D03*
X84745Y-61500D03*
X84155Y-61500D03*
G54D22*
X100730Y-47400D03*
X100730Y-47730D03*
X100730Y-48030D03*
X100730Y-48360D03*
X101270Y-48360D03*
X101270Y-48030D03*
X101270Y-47730D03*
X101270Y-47400D03*
G54D12*
X90000Y-47100D03*
X90600Y-47100D03*
X91500Y-59300D03*
X92100Y-59300D03*
X95100Y-50800D03*
X94500Y-50800D03*
X85950Y-60600D03*
X85350Y-60600D03*
X85950Y-61500D03*
X85350Y-61500D03*
X90600Y-48200D03*
X90000Y-48200D03*
X95600Y-50800D03*
X96200Y-50800D03*
X92000Y-50800D03*
X91400Y-50800D03*
G54D23*
X89328Y-47475D03*
X88462Y-47850D03*
X88462Y-47100D03*
G54D24*
X92450Y-52380D03*
X92450Y-54450D03*
X92450Y-56520D03*
G54D25*
X93630Y-57700D03*
X97180Y-57700D03*
X101110Y-57700D03*
X93630Y-51200D03*
X97180Y-51200D03*
X101110Y-51200D03*
G54D26*
X92040Y-49660D03*
X92040Y-48860D03*
X92040Y-48060D03*
G54D27*
X92040Y-47260D03*
G54D26*
X100860Y-59310D03*
X100060Y-59310D03*
X99260Y-59310D03*
G54D27*
X98460Y-59310D03*
G54D26*
X97740Y-49660D03*
X97740Y-48860D03*
X97740Y-48060D03*
G54D27*
X97740Y-47260D03*
G54D26*
X96110Y-59310D03*
X95310Y-59310D03*
X94510Y-59310D03*
G54D27*
X93710Y-59310D03*
G54D26*
X94840Y-49660D03*
X94840Y-48860D03*
X94840Y-48060D03*
G54D27*
X94840Y-47260D03*
M02*
