M48
;DRILL file {Pcbnew (2013-05-16 BZR 4016)-stable} date 7/3/2013 12:56:32
;FORMAT={-:-/ absolute / metric / decimal}
FMAT,2
METRIC,TZ
T1C0.305
T2C0.635
T3C0.813
%
G90
G05
M71
T1
X213.741Y-157.48
X220.726Y-154.559
X222.25Y-153.289
X222.885Y-152.146
X224.79Y-154.178
X225.044Y-139.954
X225.933Y-153.162
X227.203Y-152.146
X228.6Y-143.891
X231.394Y-131.064
X232.156Y-122.428
X232.156Y-129.032
X232.156Y-146.558
X232.664Y-137.16
X238.76Y-133.858
X238.76Y-136.398
X244.221Y-124.142
X247.65Y-142.748
X252.222Y-119.38
X252.222Y-127.508
X253.365Y-117.475
X254.381Y-125.222
X254.508Y-122.809
X255.524Y-120.142
X257.302Y-120.904
X257.302Y-122.428
T3
X206.248Y-162.052
X208.788Y-162.052
X211.328Y-162.052
X213.868Y-162.052
X216.408Y-162.052
X218.948Y-113.792
X221.488Y-113.792
X224.028Y-113.792
X226.568Y-113.792
X229.108Y-113.792
X233.782Y-120.04
X233.782Y-122.072
X233.782Y-124.104
X233.782Y-126.136
X238.023Y-150.647
X240.055Y-150.647
X240.894Y-120.04
X240.894Y-122.072
X240.894Y-124.104
X240.894Y-126.136
X242.087Y-150.647
X244.119Y-150.647
X248.26Y-120.04
X248.26Y-122.072
X248.26Y-124.104
X248.26Y-126.136
X249.428Y-113.792
X250.088Y-150.647
X251.968Y-113.792
X252.12Y-150.647
X254.152Y-150.647
X254.508Y-113.792
X256.184Y-150.647
X257.048Y-113.792
T2
X234.823Y-132.664G85X234.823Y-133.426
G05
X234.823Y-137.922G85X234.823Y-138.684
G05
X234.823Y-143.18G85X234.823Y-143.942
G05
X237.439Y-130.048G85X238.201Y-130.048
G05
X237.439Y-146.558G85X238.201Y-146.558
G05
X246.456Y-130.048G85X247.218Y-130.048
G05
X246.456Y-146.558G85X247.218Y-146.558
G05
X256.438Y-130.048G85X257.2Y-130.048
G05
X256.438Y-146.558G85X257.2Y-146.558
G05
T0
M30
