G04 (created by PCBNEW (2013-05-16 BZR 4016)-stable) date 7/3/2013 12:56:30*
%MOIN*%
G04 Gerber Fmt 3.4, Leading zero omitted, Abs format*
%FSLAX34Y34*%
G01*
G70*
G90*
G04 APERTURE LIST*
%ADD10C,0.00590551*%
%ADD11C,0.011811*%
%ADD12C,0.006*%
%ADD13C,0.0001*%
%ADD14C,0.0031*%
%ADD15C,0.005*%
%ADD16C,0.0047*%
%ADD17C,0.012*%
%ADD18C,0.04*%
G04 APERTURE END LIST*
G54D10*
X99037Y-45809D02*
X98945Y-45621D01*
X98880Y-45809D02*
X98880Y-45415D01*
X98985Y-45415D01*
X99011Y-45434D01*
X99024Y-45453D01*
X99037Y-45490D01*
X99037Y-45546D01*
X99024Y-45584D01*
X99011Y-45603D01*
X98985Y-45621D01*
X98880Y-45621D01*
X99129Y-45415D02*
X99313Y-45809D01*
X99313Y-45415D02*
X99129Y-45809D01*
X99562Y-45809D02*
X99405Y-45809D01*
X99484Y-45809D02*
X99484Y-45415D01*
X99457Y-45471D01*
X99431Y-45509D01*
X99405Y-45528D01*
X97883Y-45405D02*
X98041Y-45405D01*
X97962Y-45799D02*
X97962Y-45405D01*
X98106Y-45405D02*
X98290Y-45799D01*
X98290Y-45405D02*
X98106Y-45799D01*
X98539Y-45799D02*
X98382Y-45799D01*
X98461Y-45799D02*
X98461Y-45405D01*
X98434Y-45461D01*
X98408Y-45499D01*
X98382Y-45518D01*
X100931Y-45790D02*
X100971Y-45809D01*
X101036Y-45809D01*
X101063Y-45790D01*
X101076Y-45771D01*
X101089Y-45734D01*
X101089Y-45696D01*
X101076Y-45659D01*
X101063Y-45640D01*
X101036Y-45621D01*
X100984Y-45603D01*
X100958Y-45584D01*
X100945Y-45565D01*
X100931Y-45528D01*
X100931Y-45490D01*
X100945Y-45453D01*
X100958Y-45434D01*
X100984Y-45415D01*
X101050Y-45415D01*
X101089Y-45434D01*
X101364Y-45771D02*
X101351Y-45790D01*
X101312Y-45809D01*
X101286Y-45809D01*
X101246Y-45790D01*
X101220Y-45753D01*
X101207Y-45715D01*
X101194Y-45640D01*
X101194Y-45584D01*
X101207Y-45509D01*
X101220Y-45471D01*
X101246Y-45434D01*
X101286Y-45415D01*
X101312Y-45415D01*
X101351Y-45434D01*
X101364Y-45453D01*
X101614Y-45809D02*
X101483Y-45809D01*
X101483Y-45415D01*
X99850Y-45785D02*
X99889Y-45804D01*
X99955Y-45804D01*
X99981Y-45785D01*
X99994Y-45766D01*
X100007Y-45729D01*
X100007Y-45691D01*
X99994Y-45654D01*
X99981Y-45635D01*
X99955Y-45616D01*
X99902Y-45598D01*
X99876Y-45579D01*
X99863Y-45560D01*
X99850Y-45523D01*
X99850Y-45485D01*
X99863Y-45448D01*
X99876Y-45429D01*
X99902Y-45410D01*
X99968Y-45410D01*
X100007Y-45429D01*
X100125Y-45804D02*
X100125Y-45410D01*
X100191Y-45410D01*
X100230Y-45429D01*
X100257Y-45466D01*
X100270Y-45504D01*
X100283Y-45579D01*
X100283Y-45635D01*
X100270Y-45710D01*
X100257Y-45748D01*
X100230Y-45785D01*
X100191Y-45804D01*
X100125Y-45804D01*
X100388Y-45691D02*
X100519Y-45691D01*
X100362Y-45804D02*
X100454Y-45410D01*
X100545Y-45804D01*
G54D11*
X84380Y-59539D02*
X84380Y-58948D01*
X84605Y-58948D01*
X84661Y-58976D01*
X84689Y-59004D01*
X84717Y-59060D01*
X84717Y-59145D01*
X84689Y-59201D01*
X84661Y-59229D01*
X84605Y-59257D01*
X84380Y-59257D01*
X84914Y-59145D02*
X85055Y-59539D01*
X85195Y-59145D02*
X85055Y-59539D01*
X84998Y-59679D01*
X84970Y-59707D01*
X84914Y-59735D01*
X85420Y-59539D02*
X85420Y-59145D01*
X85420Y-59257D02*
X85448Y-59201D01*
X85476Y-59173D01*
X85533Y-59145D01*
X85589Y-59145D01*
X86039Y-59539D02*
X86039Y-59229D01*
X86011Y-59173D01*
X85954Y-59145D01*
X85842Y-59145D01*
X85786Y-59173D01*
X86039Y-59510D02*
X85983Y-59539D01*
X85842Y-59539D01*
X85786Y-59510D01*
X85758Y-59454D01*
X85758Y-59398D01*
X85786Y-59342D01*
X85842Y-59314D01*
X85983Y-59314D01*
X86039Y-59285D01*
X86320Y-59539D02*
X86320Y-59145D01*
X86320Y-59201D02*
X86348Y-59173D01*
X86404Y-59145D01*
X86489Y-59145D01*
X86545Y-59173D01*
X86573Y-59229D01*
X86573Y-59539D01*
X86573Y-59229D02*
X86601Y-59173D01*
X86657Y-59145D01*
X86742Y-59145D01*
X86798Y-59173D01*
X86826Y-59229D01*
X86826Y-59539D01*
X87107Y-59539D02*
X87107Y-59145D01*
X87107Y-58948D02*
X87079Y-58976D01*
X87107Y-59004D01*
X87135Y-58976D01*
X87107Y-58948D01*
X87107Y-59004D01*
X87642Y-59539D02*
X87642Y-58948D01*
X87642Y-59510D02*
X87585Y-59539D01*
X87473Y-59539D01*
X87417Y-59510D01*
X87389Y-59482D01*
X87360Y-59426D01*
X87360Y-59257D01*
X87389Y-59201D01*
X87417Y-59173D01*
X87473Y-59145D01*
X87585Y-59145D01*
X87642Y-59173D01*
X88345Y-59510D02*
X88429Y-59539D01*
X88570Y-59539D01*
X88626Y-59510D01*
X88654Y-59482D01*
X88682Y-59426D01*
X88682Y-59370D01*
X88654Y-59314D01*
X88626Y-59285D01*
X88570Y-59257D01*
X88457Y-59229D01*
X88401Y-59201D01*
X88373Y-59173D01*
X88345Y-59117D01*
X88345Y-59060D01*
X88373Y-59004D01*
X88401Y-58976D01*
X88457Y-58948D01*
X88598Y-58948D01*
X88682Y-58976D01*
X88935Y-59539D02*
X88935Y-58948D01*
X89188Y-59539D02*
X89188Y-59229D01*
X89160Y-59173D01*
X89104Y-59145D01*
X89020Y-59145D01*
X88963Y-59173D01*
X88935Y-59201D01*
X89470Y-59539D02*
X89470Y-59145D01*
X89470Y-58948D02*
X89441Y-58976D01*
X89470Y-59004D01*
X89498Y-58976D01*
X89470Y-58948D01*
X89470Y-59004D01*
X89976Y-59510D02*
X89920Y-59539D01*
X89807Y-59539D01*
X89751Y-59510D01*
X89723Y-59454D01*
X89723Y-59229D01*
X89751Y-59173D01*
X89807Y-59145D01*
X89920Y-59145D01*
X89976Y-59173D01*
X90004Y-59229D01*
X90004Y-59285D01*
X89723Y-59342D01*
X90341Y-59539D02*
X90285Y-59510D01*
X90257Y-59454D01*
X90257Y-58948D01*
X90819Y-59539D02*
X90819Y-58948D01*
X90819Y-59510D02*
X90763Y-59539D01*
X90651Y-59539D01*
X90594Y-59510D01*
X90566Y-59482D01*
X90538Y-59426D01*
X90538Y-59257D01*
X90566Y-59201D01*
X90594Y-59173D01*
X90651Y-59145D01*
X90763Y-59145D01*
X90819Y-59173D01*
G54D10*
X89904Y-45578D02*
X89876Y-45565D01*
X89848Y-45539D01*
X89848Y-45473D01*
X89876Y-45447D01*
X89904Y-45434D01*
X89960Y-45421D01*
X90017Y-45421D01*
X90101Y-45434D01*
X90439Y-45591D01*
X90439Y-45421D01*
X89539Y-46743D02*
X88948Y-46743D01*
X89539Y-46454D02*
X89257Y-46546D01*
X89539Y-46611D02*
X88948Y-46611D01*
X88948Y-46506D01*
X88976Y-46480D01*
X89004Y-46467D01*
X89060Y-46454D01*
X89145Y-46454D01*
X89201Y-46467D01*
X89229Y-46480D01*
X89257Y-46506D01*
X89257Y-46611D01*
X89539Y-46178D02*
X89257Y-46270D01*
X89539Y-46336D02*
X88948Y-46336D01*
X88948Y-46231D01*
X88976Y-46204D01*
X89004Y-46191D01*
X89060Y-46178D01*
X89145Y-46178D01*
X89201Y-46191D01*
X89229Y-46204D01*
X89257Y-46231D01*
X89257Y-46336D01*
X89510Y-45955D02*
X89539Y-45981D01*
X89539Y-46034D01*
X89510Y-46060D01*
X89454Y-46073D01*
X89229Y-46073D01*
X89173Y-46060D01*
X89145Y-46034D01*
X89145Y-45981D01*
X89173Y-45955D01*
X89229Y-45942D01*
X89285Y-45942D01*
X89342Y-46073D01*
X89510Y-45706D02*
X89539Y-45732D01*
X89539Y-45785D01*
X89510Y-45811D01*
X89482Y-45824D01*
X89426Y-45837D01*
X89257Y-45837D01*
X89201Y-45824D01*
X89173Y-45811D01*
X89145Y-45785D01*
X89145Y-45732D01*
X89173Y-45706D01*
X88948Y-45614D02*
X88948Y-45443D01*
X89173Y-45535D01*
X89173Y-45496D01*
X89201Y-45470D01*
X89229Y-45456D01*
X89285Y-45443D01*
X89426Y-45443D01*
X89482Y-45456D01*
X89510Y-45470D01*
X89539Y-45496D01*
X89539Y-45575D01*
X89510Y-45601D01*
X89482Y-45614D01*
X88153Y-47048D02*
X88171Y-47008D01*
X88190Y-46995D01*
X88228Y-46982D01*
X88284Y-46982D01*
X88321Y-46995D01*
X88340Y-47008D01*
X88359Y-47034D01*
X88359Y-47139D01*
X87965Y-47139D01*
X87965Y-47048D01*
X87984Y-47021D01*
X88003Y-47008D01*
X88040Y-46995D01*
X88078Y-46995D01*
X88115Y-47008D01*
X88134Y-47021D01*
X88153Y-47048D01*
X88153Y-47139D01*
X88096Y-46746D02*
X88359Y-46746D01*
X88096Y-46864D02*
X88303Y-46864D01*
X88340Y-46851D01*
X88359Y-46824D01*
X88359Y-46785D01*
X88340Y-46759D01*
X88321Y-46746D01*
X88096Y-46654D02*
X88096Y-46549D01*
X87965Y-46614D02*
X88303Y-46614D01*
X88340Y-46601D01*
X88359Y-46575D01*
X88359Y-46549D01*
X88096Y-46496D02*
X88096Y-46391D01*
X87965Y-46457D02*
X88303Y-46457D01*
X88340Y-46444D01*
X88359Y-46418D01*
X88359Y-46391D01*
X88359Y-46260D02*
X88340Y-46286D01*
X88321Y-46299D01*
X88284Y-46313D01*
X88171Y-46313D01*
X88134Y-46299D01*
X88115Y-46286D01*
X88096Y-46260D01*
X88096Y-46221D01*
X88115Y-46195D01*
X88134Y-46181D01*
X88171Y-46168D01*
X88284Y-46168D01*
X88321Y-46181D01*
X88340Y-46195D01*
X88359Y-46221D01*
X88359Y-46260D01*
X88096Y-46050D02*
X88359Y-46050D01*
X88134Y-46050D02*
X88115Y-46037D01*
X88096Y-46011D01*
X88096Y-45971D01*
X88115Y-45945D01*
X88153Y-45932D01*
X88359Y-45932D01*
X88096Y-45473D02*
X88359Y-45473D01*
X87946Y-45538D02*
X88228Y-45604D01*
X88228Y-45433D01*
X87153Y-47213D02*
X87171Y-47174D01*
X87190Y-47161D01*
X87228Y-47148D01*
X87284Y-47148D01*
X87321Y-47161D01*
X87340Y-47174D01*
X87359Y-47200D01*
X87359Y-47305D01*
X86965Y-47305D01*
X86965Y-47213D01*
X86984Y-47187D01*
X87003Y-47174D01*
X87040Y-47161D01*
X87078Y-47161D01*
X87115Y-47174D01*
X87134Y-47187D01*
X87153Y-47213D01*
X87153Y-47305D01*
X86965Y-47069D02*
X86965Y-46911D01*
X87359Y-46990D02*
X86965Y-46990D01*
X87321Y-46452D02*
X87340Y-46465D01*
X87359Y-46504D01*
X87359Y-46531D01*
X87340Y-46570D01*
X87303Y-46596D01*
X87265Y-46609D01*
X87190Y-46623D01*
X87134Y-46623D01*
X87059Y-46609D01*
X87021Y-46596D01*
X86984Y-46570D01*
X86965Y-46531D01*
X86965Y-46504D01*
X86984Y-46465D01*
X87003Y-46452D01*
X87359Y-46295D02*
X87340Y-46321D01*
X87321Y-46334D01*
X87284Y-46347D01*
X87171Y-46347D01*
X87134Y-46334D01*
X87115Y-46321D01*
X87096Y-46295D01*
X87096Y-46255D01*
X87115Y-46229D01*
X87134Y-46216D01*
X87171Y-46203D01*
X87284Y-46203D01*
X87321Y-46216D01*
X87340Y-46229D01*
X87359Y-46255D01*
X87359Y-46295D01*
X87096Y-46085D02*
X87359Y-46085D01*
X87134Y-46085D02*
X87115Y-46071D01*
X87096Y-46045D01*
X87096Y-46006D01*
X87115Y-45980D01*
X87153Y-45966D01*
X87359Y-45966D01*
X86965Y-45494D02*
X86965Y-45625D01*
X87153Y-45638D01*
X87134Y-45625D01*
X87115Y-45599D01*
X87115Y-45533D01*
X87134Y-45507D01*
X87153Y-45494D01*
X87190Y-45481D01*
X87284Y-45481D01*
X87321Y-45494D01*
X87340Y-45507D01*
X87359Y-45533D01*
X87359Y-45599D01*
X87340Y-45625D01*
X87321Y-45638D01*
X86359Y-46274D02*
X85965Y-46274D01*
X86359Y-45985D02*
X86171Y-46077D01*
X86359Y-46142D02*
X85965Y-46142D01*
X85965Y-46037D01*
X85984Y-46011D01*
X86003Y-45998D01*
X86040Y-45985D01*
X86096Y-45985D01*
X86134Y-45998D01*
X86153Y-46011D01*
X86171Y-46037D01*
X86171Y-46142D01*
X85965Y-45539D02*
X85965Y-45591D01*
X85984Y-45617D01*
X86003Y-45630D01*
X86059Y-45657D01*
X86134Y-45670D01*
X86284Y-45670D01*
X86321Y-45657D01*
X86340Y-45644D01*
X86359Y-45617D01*
X86359Y-45565D01*
X86340Y-45539D01*
X86321Y-45525D01*
X86284Y-45512D01*
X86190Y-45512D01*
X86153Y-45525D01*
X86134Y-45539D01*
X86115Y-45565D01*
X86115Y-45617D01*
X86134Y-45644D01*
X86153Y-45657D01*
X86190Y-45670D01*
G54D12*
X85442Y-63097D02*
X85442Y-63021D01*
X85414Y-62983D01*
X85385Y-62964D01*
X85300Y-62926D01*
X85185Y-62907D01*
X84957Y-62907D01*
X84900Y-62926D01*
X84871Y-62945D01*
X84842Y-62983D01*
X84842Y-63059D01*
X84871Y-63097D01*
X84900Y-63116D01*
X84957Y-63135D01*
X85100Y-63135D01*
X85157Y-63116D01*
X85185Y-63097D01*
X85214Y-63059D01*
X85214Y-62983D01*
X85185Y-62945D01*
X85157Y-62926D01*
X85100Y-62907D01*
X84842Y-62792D02*
X85442Y-62659D01*
X84842Y-62526D01*
X83971Y-62904D02*
X83942Y-62942D01*
X83942Y-63000D01*
X83971Y-63057D01*
X84028Y-63095D01*
X84085Y-63114D01*
X84200Y-63133D01*
X84285Y-63133D01*
X84400Y-63114D01*
X84457Y-63095D01*
X84514Y-63057D01*
X84542Y-63000D01*
X84542Y-62961D01*
X84514Y-62904D01*
X84485Y-62885D01*
X84285Y-62885D01*
X84285Y-62961D01*
X84542Y-62714D02*
X83942Y-62714D01*
X84542Y-62485D01*
X83942Y-62485D01*
X84542Y-62295D02*
X83942Y-62295D01*
X83942Y-62199D01*
X83971Y-62142D01*
X84028Y-62104D01*
X84085Y-62085D01*
X84200Y-62066D01*
X84285Y-62066D01*
X84400Y-62085D01*
X84457Y-62104D01*
X84514Y-62142D01*
X84542Y-62199D01*
X84542Y-62295D01*
X82921Y-62904D02*
X82892Y-62942D01*
X82892Y-63000D01*
X82921Y-63057D01*
X82978Y-63095D01*
X83035Y-63114D01*
X83150Y-63133D01*
X83235Y-63133D01*
X83350Y-63114D01*
X83407Y-63095D01*
X83464Y-63057D01*
X83492Y-63000D01*
X83492Y-62961D01*
X83464Y-62904D01*
X83435Y-62885D01*
X83235Y-62885D01*
X83235Y-62961D01*
X83492Y-62714D02*
X82892Y-62714D01*
X83492Y-62485D01*
X82892Y-62485D01*
X83492Y-62295D02*
X82892Y-62295D01*
X82892Y-62199D01*
X82921Y-62142D01*
X82978Y-62104D01*
X83035Y-62085D01*
X83150Y-62066D01*
X83235Y-62066D01*
X83350Y-62085D01*
X83407Y-62104D01*
X83464Y-62142D01*
X83492Y-62199D01*
X83492Y-62295D01*
X81842Y-62926D02*
X81842Y-63116D01*
X82128Y-63135D01*
X82100Y-63116D01*
X82071Y-63078D01*
X82071Y-62983D01*
X82100Y-62945D01*
X82128Y-62926D01*
X82185Y-62907D01*
X82328Y-62907D01*
X82385Y-62926D01*
X82414Y-62945D01*
X82442Y-62983D01*
X82442Y-63078D01*
X82414Y-63116D01*
X82385Y-63135D01*
X81842Y-62792D02*
X82442Y-62659D01*
X81842Y-62526D01*
X80842Y-63095D02*
X80842Y-62847D01*
X81071Y-62980D01*
X81071Y-62923D01*
X81100Y-62885D01*
X81128Y-62866D01*
X81185Y-62847D01*
X81328Y-62847D01*
X81385Y-62866D01*
X81414Y-62885D01*
X81442Y-62923D01*
X81442Y-63038D01*
X81414Y-63076D01*
X81385Y-63095D01*
X80842Y-62733D02*
X81442Y-62599D01*
X80842Y-62466D01*
X80842Y-62371D02*
X80842Y-62123D01*
X81071Y-62257D01*
X81071Y-62200D01*
X81100Y-62161D01*
X81128Y-62142D01*
X81185Y-62123D01*
X81328Y-62123D01*
X81385Y-62142D01*
X81414Y-62161D01*
X81442Y-62200D01*
X81442Y-62314D01*
X81414Y-62352D01*
X81385Y-62371D01*
G54D13*
G36*
X89155Y-58057D02*
X89126Y-58074D01*
X89126Y-58039D01*
X89124Y-57865D01*
X89124Y-57831D01*
X89124Y-57794D01*
X89123Y-57757D01*
X89123Y-57719D01*
X89123Y-57412D01*
X89122Y-57090D01*
X89122Y-57049D01*
X89122Y-57010D01*
X89122Y-56972D01*
X89122Y-56937D01*
X89121Y-56904D01*
X89121Y-56873D01*
X89121Y-56846D01*
X89121Y-56822D01*
X89120Y-56802D01*
X89120Y-56787D01*
X89120Y-56775D01*
X89120Y-56768D01*
X89120Y-56767D01*
X89117Y-56768D01*
X89111Y-56772D01*
X89100Y-56777D01*
X89097Y-56779D01*
X89097Y-56738D01*
X89094Y-56737D01*
X89087Y-56733D01*
X89077Y-56726D01*
X89062Y-56718D01*
X89045Y-56708D01*
X89025Y-56696D01*
X89002Y-56683D01*
X88977Y-56669D01*
X88951Y-56653D01*
X88923Y-56637D01*
X88894Y-56620D01*
X88864Y-56603D01*
X88835Y-56586D01*
X88805Y-56569D01*
X88776Y-56552D01*
X88747Y-56536D01*
X88720Y-56520D01*
X88694Y-56505D01*
X88670Y-56491D01*
X88648Y-56479D01*
X88629Y-56468D01*
X88613Y-56459D01*
X88600Y-56451D01*
X88591Y-56446D01*
X88586Y-56443D01*
X88585Y-56443D01*
X88582Y-56444D01*
X88576Y-56449D01*
X88568Y-56455D01*
X88563Y-56459D01*
X88552Y-56468D01*
X88552Y-56423D01*
X88275Y-56263D01*
X88239Y-56242D01*
X88205Y-56223D01*
X88172Y-56204D01*
X88142Y-56186D01*
X88113Y-56170D01*
X88087Y-56155D01*
X88063Y-56142D01*
X88043Y-56130D01*
X88026Y-56120D01*
X88012Y-56112D01*
X88002Y-56107D01*
X87997Y-56104D01*
X87995Y-56103D01*
X87993Y-56105D01*
X87986Y-56108D01*
X87975Y-56114D01*
X87961Y-56123D01*
X87944Y-56133D01*
X87924Y-56144D01*
X87901Y-56158D01*
X87876Y-56172D01*
X87849Y-56187D01*
X87821Y-56204D01*
X87792Y-56221D01*
X87762Y-56238D01*
X87732Y-56256D01*
X87702Y-56273D01*
X87672Y-56291D01*
X87642Y-56308D01*
X87614Y-56324D01*
X87587Y-56340D01*
X87562Y-56355D01*
X87538Y-56368D01*
X87518Y-56380D01*
X87506Y-56387D01*
X87488Y-56398D01*
X87546Y-56417D01*
X87576Y-56428D01*
X87602Y-56437D01*
X87624Y-56445D01*
X87642Y-56452D01*
X87656Y-56458D01*
X87669Y-56465D01*
X87679Y-56471D01*
X87688Y-56477D01*
X87693Y-56482D01*
X87703Y-56493D01*
X87708Y-56503D01*
X87707Y-56514D01*
X87701Y-56525D01*
X87691Y-56537D01*
X87680Y-56545D01*
X87670Y-56552D01*
X87658Y-56557D01*
X87643Y-56562D01*
X87624Y-56566D01*
X87618Y-56567D01*
X87590Y-56573D01*
X87567Y-56581D01*
X87549Y-56590D01*
X87535Y-56600D01*
X87526Y-56611D01*
X87522Y-56623D01*
X87522Y-56636D01*
X87526Y-56645D01*
X87534Y-56657D01*
X87545Y-56667D01*
X87560Y-56675D01*
X87576Y-56681D01*
X87589Y-56685D01*
X87601Y-56688D01*
X87613Y-56689D01*
X87624Y-56689D01*
X87645Y-56688D01*
X87665Y-56683D01*
X87684Y-56676D01*
X87701Y-56666D01*
X87717Y-56656D01*
X87728Y-56646D01*
X87737Y-56636D01*
X87742Y-56626D01*
X87749Y-56614D01*
X87757Y-56604D01*
X87768Y-56596D01*
X87782Y-56588D01*
X87804Y-56580D01*
X87826Y-56577D01*
X87848Y-56579D01*
X87870Y-56586D01*
X87891Y-56598D01*
X87905Y-56607D01*
X87921Y-56620D01*
X87940Y-56635D01*
X87960Y-56653D01*
X87982Y-56672D01*
X87995Y-56684D01*
X88007Y-56695D01*
X88017Y-56703D01*
X88023Y-56709D01*
X88028Y-56712D01*
X88032Y-56713D01*
X88035Y-56713D01*
X88039Y-56711D01*
X88048Y-56709D01*
X88060Y-56705D01*
X88074Y-56700D01*
X88087Y-56696D01*
X88119Y-56685D01*
X88147Y-56674D01*
X88170Y-56665D01*
X88188Y-56656D01*
X88201Y-56649D01*
X88209Y-56643D01*
X88212Y-56638D01*
X88212Y-56636D01*
X88207Y-56631D01*
X88198Y-56626D01*
X88185Y-56621D01*
X88168Y-56616D01*
X88150Y-56612D01*
X88128Y-56608D01*
X88110Y-56603D01*
X88096Y-56598D01*
X88083Y-56591D01*
X88071Y-56583D01*
X88059Y-56572D01*
X88059Y-56572D01*
X88047Y-56558D01*
X88039Y-56543D01*
X88037Y-56528D01*
X88040Y-56512D01*
X88042Y-56507D01*
X88051Y-56494D01*
X88064Y-56482D01*
X88080Y-56469D01*
X88099Y-56458D01*
X88118Y-56450D01*
X88136Y-56444D01*
X88150Y-56441D01*
X88168Y-56440D01*
X88188Y-56441D01*
X88207Y-56442D01*
X88226Y-56445D01*
X88239Y-56448D01*
X88258Y-56454D01*
X88277Y-56463D01*
X88295Y-56473D01*
X88311Y-56483D01*
X88321Y-56492D01*
X88329Y-56500D01*
X88334Y-56507D01*
X88337Y-56515D01*
X88339Y-56521D01*
X88342Y-56536D01*
X88357Y-56539D01*
X88369Y-56540D01*
X88382Y-56540D01*
X88395Y-56536D01*
X88410Y-56530D01*
X88426Y-56520D01*
X88445Y-56508D01*
X88458Y-56498D01*
X88474Y-56486D01*
X88492Y-56473D01*
X88509Y-56459D01*
X88525Y-56446D01*
X88539Y-56435D01*
X88542Y-56432D01*
X88552Y-56423D01*
X88552Y-56468D01*
X88550Y-56470D01*
X88535Y-56482D01*
X88519Y-56494D01*
X88502Y-56507D01*
X88486Y-56519D01*
X88471Y-56529D01*
X88458Y-56538D01*
X88449Y-56544D01*
X88448Y-56545D01*
X88424Y-56556D01*
X88400Y-56563D01*
X88374Y-56566D01*
X88373Y-56566D01*
X88352Y-56565D01*
X88334Y-56562D01*
X88319Y-56557D01*
X88307Y-56550D01*
X88301Y-56542D01*
X88300Y-56541D01*
X88297Y-56532D01*
X88294Y-56523D01*
X88293Y-56520D01*
X88287Y-56509D01*
X88276Y-56498D01*
X88261Y-56489D01*
X88243Y-56480D01*
X88222Y-56473D01*
X88203Y-56468D01*
X88190Y-56466D01*
X88180Y-56465D01*
X88171Y-56465D01*
X88162Y-56466D01*
X88138Y-56473D01*
X88116Y-56484D01*
X88101Y-56495D01*
X88090Y-56507D01*
X88083Y-56518D01*
X88080Y-56528D01*
X88082Y-56539D01*
X88086Y-56548D01*
X88094Y-56559D01*
X88105Y-56567D01*
X88118Y-56575D01*
X88135Y-56581D01*
X88156Y-56586D01*
X88168Y-56588D01*
X88193Y-56594D01*
X88213Y-56600D01*
X88229Y-56607D01*
X88242Y-56616D01*
X88247Y-56621D01*
X88254Y-56630D01*
X88256Y-56638D01*
X88254Y-56646D01*
X88246Y-56656D01*
X88244Y-56658D01*
X88233Y-56667D01*
X88216Y-56676D01*
X88194Y-56687D01*
X88168Y-56698D01*
X88137Y-56709D01*
X88102Y-56721D01*
X88080Y-56728D01*
X88067Y-56732D01*
X88055Y-56736D01*
X88045Y-56739D01*
X88040Y-56741D01*
X88039Y-56741D01*
X88037Y-56742D01*
X88037Y-56744D01*
X88040Y-56748D01*
X88044Y-56754D01*
X88052Y-56763D01*
X88062Y-56775D01*
X88087Y-56802D01*
X88109Y-56825D01*
X88129Y-56843D01*
X88146Y-56856D01*
X88161Y-56866D01*
X88162Y-56866D01*
X88172Y-56871D01*
X88180Y-56874D01*
X88188Y-56875D01*
X88198Y-56876D01*
X88206Y-56876D01*
X88220Y-56876D01*
X88231Y-56874D01*
X88241Y-56872D01*
X88247Y-56870D01*
X88263Y-56862D01*
X88275Y-56853D01*
X88283Y-56844D01*
X88285Y-56840D01*
X88296Y-56821D01*
X88310Y-56805D01*
X88319Y-56798D01*
X88345Y-56783D01*
X88373Y-56774D01*
X88403Y-56769D01*
X88434Y-56770D01*
X88466Y-56776D01*
X88468Y-56776D01*
X88489Y-56783D01*
X88506Y-56791D01*
X88521Y-56802D01*
X88526Y-56808D01*
X88537Y-56822D01*
X88543Y-56834D01*
X88544Y-56846D01*
X88540Y-56858D01*
X88530Y-56871D01*
X88523Y-56878D01*
X88500Y-56895D01*
X88473Y-56909D01*
X88442Y-56919D01*
X88417Y-56924D01*
X88405Y-56926D01*
X88393Y-56929D01*
X88383Y-56932D01*
X88380Y-56933D01*
X88371Y-56938D01*
X88361Y-56945D01*
X88354Y-56952D01*
X88350Y-56958D01*
X88349Y-56960D01*
X88352Y-56967D01*
X88359Y-56974D01*
X88370Y-56982D01*
X88384Y-56990D01*
X88388Y-56992D01*
X88398Y-56996D01*
X88411Y-57002D01*
X88427Y-57008D01*
X88444Y-57015D01*
X88462Y-57022D01*
X88481Y-57029D01*
X88498Y-57035D01*
X88515Y-57041D01*
X88530Y-57046D01*
X88541Y-57050D01*
X88549Y-57052D01*
X88553Y-57053D01*
X88555Y-57052D01*
X88563Y-57048D01*
X88574Y-57042D01*
X88589Y-57034D01*
X88607Y-57023D01*
X88629Y-57011D01*
X88653Y-56997D01*
X88680Y-56982D01*
X88709Y-56965D01*
X88741Y-56947D01*
X88774Y-56928D01*
X88808Y-56908D01*
X88828Y-56897D01*
X88863Y-56877D01*
X88897Y-56857D01*
X88928Y-56839D01*
X88959Y-56821D01*
X88986Y-56805D01*
X89012Y-56790D01*
X89034Y-56777D01*
X89054Y-56765D01*
X89070Y-56755D01*
X89083Y-56748D01*
X89092Y-56742D01*
X89096Y-56739D01*
X89097Y-56738D01*
X89097Y-56779D01*
X89086Y-56785D01*
X89068Y-56795D01*
X89048Y-56807D01*
X89025Y-56820D01*
X89000Y-56834D01*
X88973Y-56849D01*
X88945Y-56866D01*
X88915Y-56883D01*
X88885Y-56900D01*
X88854Y-56918D01*
X88823Y-56935D01*
X88792Y-56953D01*
X88762Y-56971D01*
X88732Y-56987D01*
X88704Y-57004D01*
X88678Y-57019D01*
X88653Y-57033D01*
X88631Y-57046D01*
X88611Y-57057D01*
X88595Y-57067D01*
X88582Y-57075D01*
X88572Y-57081D01*
X88566Y-57084D01*
X88565Y-57085D01*
X88565Y-57088D01*
X88566Y-57095D01*
X88569Y-57105D01*
X88571Y-57112D01*
X88579Y-57139D01*
X88585Y-57166D01*
X88589Y-57192D01*
X88592Y-57215D01*
X88592Y-57236D01*
X88591Y-57253D01*
X88588Y-57266D01*
X88587Y-57267D01*
X88578Y-57282D01*
X88564Y-57294D01*
X88562Y-57296D01*
X88562Y-57091D01*
X88561Y-57088D01*
X88558Y-57082D01*
X88554Y-57074D01*
X88549Y-57067D01*
X88545Y-57061D01*
X88542Y-57058D01*
X88541Y-57058D01*
X88539Y-57059D01*
X88532Y-57063D01*
X88521Y-57069D01*
X88506Y-57078D01*
X88488Y-57088D01*
X88466Y-57100D01*
X88442Y-57113D01*
X88415Y-57128D01*
X88385Y-57145D01*
X88354Y-57162D01*
X88321Y-57181D01*
X88287Y-57200D01*
X88270Y-57209D01*
X88235Y-57229D01*
X88202Y-57248D01*
X88170Y-57266D01*
X88140Y-57283D01*
X88112Y-57298D01*
X88086Y-57313D01*
X88063Y-57325D01*
X88043Y-57336D01*
X88027Y-57345D01*
X88014Y-57352D01*
X88005Y-57357D01*
X88002Y-57359D01*
X88002Y-56738D01*
X88000Y-56736D01*
X87995Y-56731D01*
X87987Y-56724D01*
X87977Y-56714D01*
X87965Y-56703D01*
X87959Y-56698D01*
X87936Y-56677D01*
X87916Y-56660D01*
X87899Y-56645D01*
X87885Y-56634D01*
X87873Y-56624D01*
X87863Y-56617D01*
X87854Y-56612D01*
X87846Y-56608D01*
X87839Y-56606D01*
X87837Y-56605D01*
X87828Y-56603D01*
X87822Y-56604D01*
X87814Y-56606D01*
X87813Y-56607D01*
X87802Y-56612D01*
X87794Y-56618D01*
X87788Y-56626D01*
X87782Y-56638D01*
X87782Y-56638D01*
X87776Y-56649D01*
X87769Y-56657D01*
X87761Y-56665D01*
X87755Y-56669D01*
X87732Y-56685D01*
X87706Y-56698D01*
X87679Y-56708D01*
X87672Y-56710D01*
X87661Y-56712D01*
X87651Y-56714D01*
X87641Y-56714D01*
X87628Y-56714D01*
X87615Y-56714D01*
X87599Y-56713D01*
X87587Y-56712D01*
X87576Y-56711D01*
X87566Y-56708D01*
X87554Y-56704D01*
X87553Y-56704D01*
X87530Y-56694D01*
X87510Y-56683D01*
X87495Y-56669D01*
X87484Y-56654D01*
X87479Y-56638D01*
X87478Y-56632D01*
X87479Y-56616D01*
X87485Y-56601D01*
X87496Y-56588D01*
X87511Y-56576D01*
X87532Y-56565D01*
X87558Y-56555D01*
X87589Y-56546D01*
X87622Y-56539D01*
X87633Y-56535D01*
X87644Y-56530D01*
X87654Y-56523D01*
X87661Y-56516D01*
X87664Y-56509D01*
X87664Y-56508D01*
X87662Y-56501D01*
X87654Y-56494D01*
X87642Y-56486D01*
X87625Y-56477D01*
X87624Y-56477D01*
X87615Y-56473D01*
X87603Y-56468D01*
X87588Y-56463D01*
X87571Y-56457D01*
X87553Y-56450D01*
X87535Y-56444D01*
X87516Y-56438D01*
X87499Y-56432D01*
X87484Y-56427D01*
X87471Y-56423D01*
X87461Y-56420D01*
X87455Y-56419D01*
X87454Y-56419D01*
X87451Y-56421D01*
X87444Y-56425D01*
X87433Y-56431D01*
X87418Y-56439D01*
X87399Y-56450D01*
X87378Y-56462D01*
X87353Y-56476D01*
X87326Y-56492D01*
X87297Y-56509D01*
X87265Y-56527D01*
X87232Y-56546D01*
X87198Y-56566D01*
X87174Y-56580D01*
X86899Y-56740D01*
X86933Y-56759D01*
X86940Y-56763D01*
X86951Y-56770D01*
X86966Y-56778D01*
X86985Y-56789D01*
X87007Y-56802D01*
X87031Y-56816D01*
X87059Y-56832D01*
X87088Y-56849D01*
X87119Y-56867D01*
X87151Y-56885D01*
X87185Y-56905D01*
X87211Y-56920D01*
X87455Y-57061D01*
X87489Y-57027D01*
X87502Y-57015D01*
X87514Y-57004D01*
X87525Y-56994D01*
X87534Y-56986D01*
X87539Y-56982D01*
X87552Y-56973D01*
X87567Y-56965D01*
X87581Y-56958D01*
X87592Y-56954D01*
X87595Y-56953D01*
X87607Y-56953D01*
X87620Y-56956D01*
X87635Y-56962D01*
X87646Y-56968D01*
X87654Y-56975D01*
X87661Y-56984D01*
X87668Y-56994D01*
X87678Y-57011D01*
X87690Y-57023D01*
X87705Y-57033D01*
X87714Y-57038D01*
X87732Y-57045D01*
X87750Y-57050D01*
X87769Y-57052D01*
X87791Y-57053D01*
X87799Y-57053D01*
X87815Y-57052D01*
X87828Y-57050D01*
X87839Y-57048D01*
X87851Y-57044D01*
X87852Y-57044D01*
X87876Y-57035D01*
X87896Y-57024D01*
X87910Y-57014D01*
X87920Y-57002D01*
X87924Y-56990D01*
X87923Y-56978D01*
X87921Y-56972D01*
X87913Y-56960D01*
X87901Y-56947D01*
X87886Y-56936D01*
X87869Y-56926D01*
X87851Y-56917D01*
X87833Y-56911D01*
X87813Y-56907D01*
X87795Y-56905D01*
X87779Y-56904D01*
X87768Y-56901D01*
X87760Y-56896D01*
X87754Y-56890D01*
X87753Y-56888D01*
X87749Y-56877D01*
X87750Y-56867D01*
X87755Y-56857D01*
X87766Y-56847D01*
X87781Y-56837D01*
X87783Y-56836D01*
X87793Y-56830D01*
X87808Y-56823D01*
X87826Y-56815D01*
X87848Y-56805D01*
X87872Y-56794D01*
X87899Y-56782D01*
X87928Y-56769D01*
X87947Y-56761D01*
X87963Y-56755D01*
X87977Y-56749D01*
X87988Y-56744D01*
X87997Y-56740D01*
X88001Y-56738D01*
X88002Y-56738D01*
X88002Y-57359D01*
X88001Y-57360D01*
X88000Y-57360D01*
X87997Y-57359D01*
X87990Y-57355D01*
X87979Y-57349D01*
X87965Y-57341D01*
X87946Y-57331D01*
X87925Y-57319D01*
X87901Y-57305D01*
X87874Y-57290D01*
X87845Y-57274D01*
X87814Y-57256D01*
X87781Y-57238D01*
X87747Y-57219D01*
X87734Y-57212D01*
X87700Y-57192D01*
X87667Y-57174D01*
X87635Y-57156D01*
X87605Y-57139D01*
X87577Y-57124D01*
X87552Y-57110D01*
X87530Y-57097D01*
X87510Y-57086D01*
X87494Y-57077D01*
X87482Y-57070D01*
X87473Y-57066D01*
X87469Y-57063D01*
X87469Y-57063D01*
X87466Y-57065D01*
X87462Y-57070D01*
X87457Y-57077D01*
X87453Y-57085D01*
X87450Y-57091D01*
X87449Y-57095D01*
X87451Y-57097D01*
X87458Y-57101D01*
X87469Y-57108D01*
X87483Y-57116D01*
X87501Y-57127D01*
X87522Y-57139D01*
X87546Y-57153D01*
X87573Y-57168D01*
X87602Y-57185D01*
X87633Y-57202D01*
X87666Y-57221D01*
X87700Y-57240D01*
X87713Y-57248D01*
X87977Y-57396D01*
X87978Y-57719D01*
X87979Y-58043D01*
X88000Y-58043D01*
X88021Y-58043D01*
X88022Y-57719D01*
X88023Y-57396D01*
X88292Y-57245D01*
X88327Y-57225D01*
X88361Y-57206D01*
X88393Y-57188D01*
X88423Y-57171D01*
X88451Y-57155D01*
X88476Y-57141D01*
X88499Y-57128D01*
X88519Y-57116D01*
X88535Y-57107D01*
X88548Y-57100D01*
X88557Y-57095D01*
X88561Y-57092D01*
X88562Y-57091D01*
X88562Y-57296D01*
X88552Y-57302D01*
X88545Y-57305D01*
X88538Y-57307D01*
X88529Y-57308D01*
X88517Y-57308D01*
X88514Y-57308D01*
X88502Y-57308D01*
X88492Y-57309D01*
X88485Y-57311D01*
X88478Y-57314D01*
X88474Y-57315D01*
X88452Y-57329D01*
X88432Y-57347D01*
X88414Y-57369D01*
X88399Y-57394D01*
X88398Y-57396D01*
X88389Y-57418D01*
X88383Y-57439D01*
X88378Y-57463D01*
X88377Y-57475D01*
X88377Y-57496D01*
X88380Y-57513D01*
X88386Y-57526D01*
X88395Y-57534D01*
X88408Y-57538D01*
X88415Y-57539D01*
X88432Y-57536D01*
X88452Y-57530D01*
X88472Y-57520D01*
X88482Y-57514D01*
X88495Y-57504D01*
X88506Y-57494D01*
X88517Y-57481D01*
X88529Y-57465D01*
X88533Y-57459D01*
X88543Y-57447D01*
X88552Y-57439D01*
X88562Y-57435D01*
X88570Y-57436D01*
X88579Y-57438D01*
X88587Y-57444D01*
X88592Y-57452D01*
X88595Y-57464D01*
X88596Y-57480D01*
X88596Y-57500D01*
X88595Y-57514D01*
X88593Y-57530D01*
X88591Y-57551D01*
X88589Y-57576D01*
X88586Y-57603D01*
X88583Y-57631D01*
X88580Y-57660D01*
X88576Y-57689D01*
X88575Y-57697D01*
X88572Y-57726D01*
X88579Y-57724D01*
X88584Y-57723D01*
X88592Y-57720D01*
X88605Y-57716D01*
X88620Y-57711D01*
X88637Y-57706D01*
X88651Y-57701D01*
X88676Y-57693D01*
X88696Y-57686D01*
X88713Y-57680D01*
X88726Y-57675D01*
X88737Y-57670D01*
X88746Y-57666D01*
X88754Y-57661D01*
X88761Y-57656D01*
X88772Y-57646D01*
X88779Y-57633D01*
X88782Y-57620D01*
X88780Y-57607D01*
X88775Y-57597D01*
X88765Y-57582D01*
X88758Y-57568D01*
X88754Y-57552D01*
X88752Y-57533D01*
X88752Y-57517D01*
X88755Y-57483D01*
X88762Y-57450D01*
X88775Y-57419D01*
X88782Y-57407D01*
X88791Y-57393D01*
X88803Y-57378D01*
X88818Y-57364D01*
X88833Y-57350D01*
X88847Y-57338D01*
X88859Y-57331D01*
X88868Y-57326D01*
X88875Y-57323D01*
X88883Y-57322D01*
X88893Y-57321D01*
X88899Y-57321D01*
X88911Y-57322D01*
X88919Y-57322D01*
X88925Y-57324D01*
X88930Y-57327D01*
X88932Y-57328D01*
X88943Y-57338D01*
X88950Y-57348D01*
X88952Y-57354D01*
X88954Y-57360D01*
X88955Y-57366D01*
X88956Y-57375D01*
X88956Y-57388D01*
X88956Y-57397D01*
X88956Y-57433D01*
X88943Y-57470D01*
X88938Y-57485D01*
X88934Y-57496D01*
X88932Y-57505D01*
X88931Y-57512D01*
X88931Y-57518D01*
X88931Y-57524D01*
X88933Y-57534D01*
X88934Y-57542D01*
X88936Y-57545D01*
X88940Y-57549D01*
X88946Y-57550D01*
X88954Y-57548D01*
X88964Y-57544D01*
X88976Y-57536D01*
X88990Y-57526D01*
X89008Y-57513D01*
X89028Y-57496D01*
X89051Y-57476D01*
X89078Y-57452D01*
X89088Y-57444D01*
X89123Y-57412D01*
X89123Y-57719D01*
X89123Y-57682D01*
X89123Y-57647D01*
X89123Y-57615D01*
X89123Y-57586D01*
X89123Y-57571D01*
X89123Y-57450D01*
X89082Y-57487D01*
X89055Y-57511D01*
X89031Y-57531D01*
X89010Y-57548D01*
X88992Y-57562D01*
X88976Y-57573D01*
X88963Y-57581D01*
X88951Y-57586D01*
X88941Y-57589D01*
X88934Y-57589D01*
X88922Y-57588D01*
X88913Y-57583D01*
X88907Y-57575D01*
X88902Y-57562D01*
X88900Y-57545D01*
X88900Y-57539D01*
X88899Y-57529D01*
X88899Y-57522D01*
X88900Y-57515D01*
X88902Y-57507D01*
X88905Y-57496D01*
X88910Y-57483D01*
X88911Y-57481D01*
X88916Y-57466D01*
X88920Y-57454D01*
X88922Y-57444D01*
X88924Y-57433D01*
X88924Y-57422D01*
X88925Y-57420D01*
X88925Y-57407D01*
X88925Y-57398D01*
X88924Y-57391D01*
X88922Y-57385D01*
X88920Y-57380D01*
X88913Y-57369D01*
X88903Y-57363D01*
X88891Y-57360D01*
X88885Y-57360D01*
X88870Y-57362D01*
X88854Y-57369D01*
X88839Y-57380D01*
X88824Y-57394D01*
X88811Y-57411D01*
X88800Y-57429D01*
X88791Y-57449D01*
X88790Y-57451D01*
X88788Y-57459D01*
X88787Y-57468D01*
X88786Y-57479D01*
X88785Y-57494D01*
X88785Y-57501D01*
X88785Y-57517D01*
X88786Y-57528D01*
X88787Y-57537D01*
X88789Y-57544D01*
X88793Y-57550D01*
X88798Y-57557D01*
X88800Y-57560D01*
X88807Y-57572D01*
X88811Y-57588D01*
X88811Y-57607D01*
X88810Y-57616D01*
X88806Y-57638D01*
X88796Y-57658D01*
X88784Y-57674D01*
X88776Y-57681D01*
X88768Y-57688D01*
X88760Y-57693D01*
X88751Y-57699D01*
X88739Y-57705D01*
X88726Y-57710D01*
X88709Y-57717D01*
X88689Y-57724D01*
X88665Y-57733D01*
X88644Y-57740D01*
X88627Y-57746D01*
X88611Y-57752D01*
X88598Y-57757D01*
X88587Y-57761D01*
X88581Y-57764D01*
X88579Y-57766D01*
X88577Y-57770D01*
X88574Y-57780D01*
X88571Y-57792D01*
X88568Y-57807D01*
X88565Y-57824D01*
X88561Y-57842D01*
X88558Y-57860D01*
X88556Y-57871D01*
X88553Y-57888D01*
X88551Y-57905D01*
X88550Y-57922D01*
X88549Y-57936D01*
X88550Y-57947D01*
X88550Y-57955D01*
X88552Y-57959D01*
X88557Y-57959D01*
X88565Y-57955D01*
X88574Y-57949D01*
X88585Y-57939D01*
X88597Y-57928D01*
X88604Y-57920D01*
X88619Y-57902D01*
X88634Y-57888D01*
X88647Y-57877D01*
X88661Y-57868D01*
X88670Y-57864D01*
X88690Y-57857D01*
X88708Y-57854D01*
X88724Y-57856D01*
X88738Y-57863D01*
X88749Y-57875D01*
X88758Y-57891D01*
X88763Y-57911D01*
X88765Y-57922D01*
X88765Y-57952D01*
X88762Y-57980D01*
X88753Y-58006D01*
X88740Y-58031D01*
X88734Y-58040D01*
X88734Y-57967D01*
X88734Y-57947D01*
X88733Y-57944D01*
X88730Y-57926D01*
X88725Y-57913D01*
X88718Y-57903D01*
X88708Y-57898D01*
X88704Y-57896D01*
X88689Y-57895D01*
X88673Y-57899D01*
X88657Y-57907D01*
X88640Y-57921D01*
X88622Y-57940D01*
X88618Y-57945D01*
X88602Y-57962D01*
X88586Y-57976D01*
X88572Y-57987D01*
X88558Y-57995D01*
X88546Y-57998D01*
X88535Y-57998D01*
X88527Y-57993D01*
X88522Y-57986D01*
X88520Y-57978D01*
X88519Y-57966D01*
X88519Y-57950D01*
X88519Y-57933D01*
X88521Y-57914D01*
X88523Y-57895D01*
X88525Y-57877D01*
X88527Y-57865D01*
X88530Y-57850D01*
X88534Y-57834D01*
X88537Y-57817D01*
X88541Y-57801D01*
X88544Y-57785D01*
X88547Y-57772D01*
X88549Y-57762D01*
X88551Y-57756D01*
X88551Y-57756D01*
X88552Y-57754D01*
X88551Y-57753D01*
X88550Y-57752D01*
X88546Y-57753D01*
X88538Y-57754D01*
X88528Y-57756D01*
X88513Y-57759D01*
X88509Y-57760D01*
X88474Y-57768D01*
X88444Y-57775D01*
X88418Y-57783D01*
X88397Y-57792D01*
X88379Y-57801D01*
X88365Y-57812D01*
X88354Y-57824D01*
X88346Y-57837D01*
X88340Y-57852D01*
X88336Y-57869D01*
X88336Y-57870D01*
X88334Y-57888D01*
X88334Y-57902D01*
X88338Y-57914D01*
X88344Y-57924D01*
X88352Y-57936D01*
X88357Y-57949D01*
X88360Y-57963D01*
X88361Y-57980D01*
X88361Y-57984D01*
X88359Y-58010D01*
X88353Y-58036D01*
X88342Y-58060D01*
X88326Y-58085D01*
X88319Y-58095D01*
X88303Y-58113D01*
X88287Y-58127D01*
X88270Y-58138D01*
X88254Y-58145D01*
X88238Y-58148D01*
X88224Y-58148D01*
X88212Y-58144D01*
X88201Y-58136D01*
X88193Y-58123D01*
X88191Y-58116D01*
X88188Y-58104D01*
X88187Y-58089D01*
X88187Y-58071D01*
X88187Y-58054D01*
X88189Y-58039D01*
X88190Y-58036D01*
X88192Y-58026D01*
X88195Y-58014D01*
X88200Y-58001D01*
X88203Y-57993D01*
X88208Y-57979D01*
X88211Y-57968D01*
X88213Y-57959D01*
X88213Y-57949D01*
X88213Y-57946D01*
X88212Y-57931D01*
X88210Y-57922D01*
X88205Y-57916D01*
X88199Y-57915D01*
X88188Y-57917D01*
X88175Y-57923D01*
X88159Y-57933D01*
X88148Y-57941D01*
X88140Y-57947D01*
X88128Y-57956D01*
X88115Y-57967D01*
X88099Y-57980D01*
X88083Y-57993D01*
X88068Y-58006D01*
X88052Y-58019D01*
X88039Y-58030D01*
X88029Y-58039D01*
X88028Y-58040D01*
X88018Y-58048D01*
X88017Y-58363D01*
X88016Y-58411D01*
X88016Y-58454D01*
X88016Y-58492D01*
X88016Y-58526D01*
X88016Y-58555D01*
X88016Y-58580D01*
X88016Y-58602D01*
X88016Y-58620D01*
X88016Y-58635D01*
X88016Y-58648D01*
X88017Y-58657D01*
X88017Y-58665D01*
X88017Y-58670D01*
X88018Y-58674D01*
X88018Y-58676D01*
X88019Y-58677D01*
X88019Y-58677D01*
X88022Y-58675D01*
X88029Y-58671D01*
X88040Y-58665D01*
X88055Y-58656D01*
X88073Y-58646D01*
X88095Y-58634D01*
X88119Y-58620D01*
X88146Y-58604D01*
X88175Y-58588D01*
X88205Y-58570D01*
X88238Y-58551D01*
X88272Y-58532D01*
X88276Y-58529D01*
X88310Y-58510D01*
X88343Y-58491D01*
X88374Y-58473D01*
X88403Y-58456D01*
X88430Y-58440D01*
X88454Y-58426D01*
X88476Y-58414D01*
X88495Y-58403D01*
X88510Y-58394D01*
X88522Y-58387D01*
X88529Y-58382D01*
X88533Y-58380D01*
X88533Y-58380D01*
X88534Y-58378D01*
X88535Y-58374D01*
X88534Y-58367D01*
X88533Y-58356D01*
X88531Y-58345D01*
X88525Y-58310D01*
X88521Y-58277D01*
X88518Y-58248D01*
X88516Y-58222D01*
X88516Y-58201D01*
X88517Y-58184D01*
X88517Y-58183D01*
X88523Y-58161D01*
X88532Y-58139D01*
X88546Y-58118D01*
X88558Y-58103D01*
X88567Y-58095D01*
X88575Y-58088D01*
X88581Y-58084D01*
X88583Y-58084D01*
X88591Y-58083D01*
X88602Y-58085D01*
X88606Y-58086D01*
X88616Y-58088D01*
X88624Y-58089D01*
X88632Y-58087D01*
X88642Y-58083D01*
X88653Y-58078D01*
X88673Y-58064D01*
X88692Y-58049D01*
X88708Y-58031D01*
X88721Y-58013D01*
X88725Y-58005D01*
X88731Y-57987D01*
X88734Y-57967D01*
X88734Y-58040D01*
X88722Y-58056D01*
X88704Y-58075D01*
X88681Y-58096D01*
X88658Y-58112D01*
X88636Y-58123D01*
X88623Y-58127D01*
X88613Y-58129D01*
X88606Y-58130D01*
X88598Y-58128D01*
X88593Y-58127D01*
X88578Y-58122D01*
X88570Y-58130D01*
X88564Y-58137D01*
X88558Y-58146D01*
X88555Y-58151D01*
X88552Y-58157D01*
X88550Y-58164D01*
X88549Y-58171D01*
X88548Y-58180D01*
X88548Y-58192D01*
X88549Y-58214D01*
X88551Y-58241D01*
X88555Y-58272D01*
X88560Y-58309D01*
X88563Y-58324D01*
X88565Y-58337D01*
X88566Y-58347D01*
X88568Y-58355D01*
X88568Y-58358D01*
X88568Y-58358D01*
X88568Y-58359D01*
X88569Y-58359D01*
X88570Y-58359D01*
X88572Y-58358D01*
X88575Y-58356D01*
X88579Y-58354D01*
X88585Y-58350D01*
X88593Y-58346D01*
X88603Y-58341D01*
X88615Y-58334D01*
X88629Y-58325D01*
X88647Y-58315D01*
X88667Y-58304D01*
X88691Y-58290D01*
X88718Y-58274D01*
X88749Y-58257D01*
X88783Y-58237D01*
X88822Y-58214D01*
X88856Y-58195D01*
X89126Y-58039D01*
X89126Y-58074D01*
X88589Y-58384D01*
X88538Y-58413D01*
X88488Y-58442D01*
X88440Y-58470D01*
X88393Y-58497D01*
X88348Y-58523D01*
X88304Y-58548D01*
X88263Y-58572D01*
X88224Y-58595D01*
X88188Y-58615D01*
X88155Y-58635D01*
X88124Y-58652D01*
X88097Y-58668D01*
X88073Y-58682D01*
X88053Y-58694D01*
X88036Y-58703D01*
X88023Y-58711D01*
X88015Y-58715D01*
X88011Y-58718D01*
X88011Y-58718D01*
X87998Y-58725D01*
X87986Y-58717D01*
X87986Y-58052D01*
X87966Y-58035D01*
X87938Y-58011D01*
X87913Y-57990D01*
X87892Y-57973D01*
X87873Y-57958D01*
X87858Y-57946D01*
X87845Y-57936D01*
X87834Y-57928D01*
X87824Y-57923D01*
X87816Y-57919D01*
X87810Y-57916D01*
X87804Y-57915D01*
X87800Y-57915D01*
X87793Y-57916D01*
X87789Y-57921D01*
X87789Y-57922D01*
X87788Y-57930D01*
X87787Y-57941D01*
X87787Y-57954D01*
X87788Y-57967D01*
X87791Y-57976D01*
X87791Y-57977D01*
X87798Y-57995D01*
X87803Y-58009D01*
X87807Y-58020D01*
X87809Y-58030D01*
X87811Y-58039D01*
X87811Y-58049D01*
X87812Y-58060D01*
X87812Y-58072D01*
X87812Y-58087D01*
X87812Y-58099D01*
X87811Y-58107D01*
X87810Y-58113D01*
X87808Y-58118D01*
X87806Y-58123D01*
X87805Y-58124D01*
X87798Y-58136D01*
X87790Y-58143D01*
X87779Y-58147D01*
X87767Y-58148D01*
X87748Y-58145D01*
X87729Y-58138D01*
X87710Y-58126D01*
X87693Y-58110D01*
X87676Y-58090D01*
X87661Y-58066D01*
X87656Y-58056D01*
X87645Y-58029D01*
X87639Y-58002D01*
X87638Y-57976D01*
X87639Y-57967D01*
X87640Y-57960D01*
X87642Y-57952D01*
X87645Y-57944D01*
X87650Y-57934D01*
X87657Y-57921D01*
X87661Y-57914D01*
X87664Y-57907D01*
X87666Y-57902D01*
X87666Y-57896D01*
X87666Y-57889D01*
X87665Y-57878D01*
X87665Y-57877D01*
X87660Y-57855D01*
X87653Y-57837D01*
X87643Y-57821D01*
X87629Y-57807D01*
X87623Y-57804D01*
X87623Y-57493D01*
X87623Y-57477D01*
X87618Y-57445D01*
X87611Y-57417D01*
X87600Y-57392D01*
X87585Y-57369D01*
X87566Y-57347D01*
X87565Y-57346D01*
X87551Y-57332D01*
X87538Y-57322D01*
X87526Y-57315D01*
X87514Y-57311D01*
X87500Y-57309D01*
X87484Y-57308D01*
X87472Y-57308D01*
X87463Y-57307D01*
X87456Y-57306D01*
X87450Y-57304D01*
X87445Y-57301D01*
X87434Y-57293D01*
X87424Y-57284D01*
X87415Y-57273D01*
X87410Y-57265D01*
X87409Y-57259D01*
X87408Y-57250D01*
X87407Y-57238D01*
X87407Y-57228D01*
X87408Y-57207D01*
X87411Y-57184D01*
X87416Y-57159D01*
X87424Y-57130D01*
X87429Y-57111D01*
X87437Y-57086D01*
X87158Y-56925D01*
X86879Y-56764D01*
X86878Y-57088D01*
X86877Y-57412D01*
X86895Y-57429D01*
X86924Y-57455D01*
X86951Y-57479D01*
X86975Y-57499D01*
X86996Y-57516D01*
X87015Y-57530D01*
X87031Y-57540D01*
X87044Y-57547D01*
X87053Y-57549D01*
X87054Y-57549D01*
X87060Y-57548D01*
X87064Y-57544D01*
X87067Y-57537D01*
X87068Y-57525D01*
X87068Y-57524D01*
X87069Y-57514D01*
X87068Y-57507D01*
X87067Y-57499D01*
X87063Y-57489D01*
X87060Y-57481D01*
X87052Y-57457D01*
X87046Y-57434D01*
X87043Y-57413D01*
X87043Y-57390D01*
X87043Y-57389D01*
X87045Y-57369D01*
X87048Y-57354D01*
X87054Y-57342D01*
X87062Y-57333D01*
X87067Y-57328D01*
X87073Y-57325D01*
X87079Y-57323D01*
X87086Y-57322D01*
X87097Y-57321D01*
X87101Y-57321D01*
X87114Y-57322D01*
X87126Y-57324D01*
X87136Y-57328D01*
X87147Y-57334D01*
X87160Y-57343D01*
X87163Y-57346D01*
X87188Y-57368D01*
X87209Y-57394D01*
X87226Y-57423D01*
X87238Y-57453D01*
X87242Y-57466D01*
X87244Y-57478D01*
X87245Y-57494D01*
X87246Y-57511D01*
X87246Y-57528D01*
X87245Y-57544D01*
X87244Y-57558D01*
X87242Y-57565D01*
X87238Y-57574D01*
X87233Y-57585D01*
X87228Y-57592D01*
X87223Y-57600D01*
X87220Y-57606D01*
X87219Y-57613D01*
X87219Y-57622D01*
X87219Y-57624D01*
X87221Y-57634D01*
X87224Y-57643D01*
X87230Y-57650D01*
X87239Y-57657D01*
X87251Y-57664D01*
X87268Y-57672D01*
X87276Y-57675D01*
X87285Y-57678D01*
X87297Y-57683D01*
X87312Y-57688D01*
X87328Y-57694D01*
X87345Y-57700D01*
X87362Y-57706D01*
X87379Y-57711D01*
X87394Y-57716D01*
X87407Y-57720D01*
X87417Y-57723D01*
X87423Y-57725D01*
X87424Y-57725D01*
X87426Y-57725D01*
X87427Y-57723D01*
X87427Y-57718D01*
X87426Y-57710D01*
X87425Y-57698D01*
X87421Y-57669D01*
X87418Y-57639D01*
X87414Y-57610D01*
X87411Y-57582D01*
X87409Y-57557D01*
X87407Y-57534D01*
X87405Y-57514D01*
X87405Y-57499D01*
X87404Y-57493D01*
X87404Y-57476D01*
X87405Y-57462D01*
X87407Y-57453D01*
X87410Y-57446D01*
X87415Y-57442D01*
X87420Y-57439D01*
X87430Y-57435D01*
X87438Y-57435D01*
X87446Y-57438D01*
X87455Y-57445D01*
X87465Y-57456D01*
X87473Y-57468D01*
X87491Y-57490D01*
X87510Y-57508D01*
X87532Y-57522D01*
X87541Y-57527D01*
X87557Y-57534D01*
X87574Y-57538D01*
X87589Y-57539D01*
X87598Y-57538D01*
X87608Y-57533D01*
X87616Y-57523D01*
X87621Y-57510D01*
X87623Y-57493D01*
X87623Y-57804D01*
X87610Y-57795D01*
X87588Y-57785D01*
X87560Y-57776D01*
X87560Y-57776D01*
X87549Y-57773D01*
X87536Y-57770D01*
X87521Y-57767D01*
X87505Y-57763D01*
X87490Y-57760D01*
X87476Y-57757D01*
X87464Y-57755D01*
X87455Y-57753D01*
X87450Y-57753D01*
X87449Y-57753D01*
X87449Y-57756D01*
X87450Y-57763D01*
X87453Y-57773D01*
X87455Y-57785D01*
X87456Y-57787D01*
X87463Y-57816D01*
X87468Y-57845D01*
X87473Y-57873D01*
X87477Y-57899D01*
X87480Y-57923D01*
X87482Y-57943D01*
X87482Y-57959D01*
X87482Y-57964D01*
X87480Y-57978D01*
X87476Y-57988D01*
X87471Y-57994D01*
X87465Y-57997D01*
X87454Y-57998D01*
X87440Y-57995D01*
X87425Y-57986D01*
X87409Y-57973D01*
X87391Y-57955D01*
X87382Y-57945D01*
X87367Y-57928D01*
X87354Y-57915D01*
X87341Y-57906D01*
X87328Y-57900D01*
X87314Y-57896D01*
X87314Y-57895D01*
X87304Y-57894D01*
X87298Y-57894D01*
X87293Y-57895D01*
X87289Y-57897D01*
X87279Y-57906D01*
X87272Y-57918D01*
X87267Y-57933D01*
X87265Y-57950D01*
X87265Y-57968D01*
X87268Y-57986D01*
X87274Y-58004D01*
X87278Y-58011D01*
X87288Y-58027D01*
X87302Y-58043D01*
X87318Y-58058D01*
X87335Y-58071D01*
X87353Y-58081D01*
X87366Y-58087D01*
X87375Y-58089D01*
X87381Y-58089D01*
X87389Y-58087D01*
X87390Y-58087D01*
X87399Y-58084D01*
X87408Y-58083D01*
X87410Y-58083D01*
X87419Y-58085D01*
X87430Y-58091D01*
X87441Y-58102D01*
X87451Y-58112D01*
X87460Y-58125D01*
X87468Y-58138D01*
X87474Y-58152D01*
X87479Y-58166D01*
X87482Y-58182D01*
X87483Y-58200D01*
X87483Y-58221D01*
X87481Y-58245D01*
X87479Y-58272D01*
X87474Y-58304D01*
X87470Y-58333D01*
X87468Y-58349D01*
X87466Y-58362D01*
X87465Y-58373D01*
X87465Y-58379D01*
X87466Y-58381D01*
X87468Y-58382D01*
X87475Y-58386D01*
X87486Y-58392D01*
X87501Y-58401D01*
X87519Y-58411D01*
X87540Y-58423D01*
X87564Y-58437D01*
X87591Y-58452D01*
X87619Y-58469D01*
X87650Y-58487D01*
X87683Y-58506D01*
X87716Y-58525D01*
X87725Y-58530D01*
X87983Y-58679D01*
X87984Y-58580D01*
X87985Y-58561D01*
X87985Y-58537D01*
X87985Y-58510D01*
X87985Y-58479D01*
X87986Y-58445D01*
X87986Y-58410D01*
X87986Y-58373D01*
X87986Y-58336D01*
X87986Y-58299D01*
X87986Y-58267D01*
X87986Y-58052D01*
X87986Y-58717D01*
X87985Y-58716D01*
X87982Y-58714D01*
X87974Y-58710D01*
X87962Y-58703D01*
X87946Y-58693D01*
X87926Y-58682D01*
X87902Y-58668D01*
X87875Y-58652D01*
X87845Y-58635D01*
X87812Y-58616D01*
X87776Y-58595D01*
X87738Y-58573D01*
X87697Y-58549D01*
X87654Y-58524D01*
X87609Y-58498D01*
X87562Y-58471D01*
X87514Y-58443D01*
X87464Y-58415D01*
X87451Y-58407D01*
X87451Y-58198D01*
X87451Y-58195D01*
X87451Y-58181D01*
X87450Y-58171D01*
X87449Y-58164D01*
X87447Y-58158D01*
X87444Y-58151D01*
X87444Y-58151D01*
X87439Y-58142D01*
X87433Y-58133D01*
X87430Y-58130D01*
X87422Y-58122D01*
X87407Y-58127D01*
X87397Y-58129D01*
X87388Y-58129D01*
X87380Y-58128D01*
X87360Y-58121D01*
X87339Y-58110D01*
X87318Y-58096D01*
X87298Y-58078D01*
X87280Y-58059D01*
X87264Y-58038D01*
X87251Y-58017D01*
X87248Y-58010D01*
X87241Y-57993D01*
X87237Y-57977D01*
X87235Y-57959D01*
X87234Y-57941D01*
X87236Y-57916D01*
X87240Y-57896D01*
X87247Y-57880D01*
X87257Y-57867D01*
X87270Y-57859D01*
X87273Y-57857D01*
X87285Y-57854D01*
X87298Y-57854D01*
X87313Y-57857D01*
X87315Y-57858D01*
X87330Y-57864D01*
X87344Y-57872D01*
X87358Y-57882D01*
X87373Y-57895D01*
X87388Y-57911D01*
X87406Y-57932D01*
X87415Y-57941D01*
X87424Y-57948D01*
X87433Y-57954D01*
X87441Y-57957D01*
X87447Y-57957D01*
X87448Y-57957D01*
X87450Y-57952D01*
X87450Y-57942D01*
X87450Y-57928D01*
X87449Y-57912D01*
X87447Y-57892D01*
X87446Y-57890D01*
X87445Y-57878D01*
X87442Y-57863D01*
X87439Y-57846D01*
X87436Y-57829D01*
X87432Y-57812D01*
X87429Y-57797D01*
X87426Y-57783D01*
X87424Y-57773D01*
X87422Y-57767D01*
X87421Y-57766D01*
X87418Y-57763D01*
X87410Y-57760D01*
X87398Y-57755D01*
X87384Y-57750D01*
X87376Y-57747D01*
X87345Y-57737D01*
X87319Y-57728D01*
X87297Y-57720D01*
X87278Y-57713D01*
X87263Y-57706D01*
X87250Y-57700D01*
X87239Y-57693D01*
X87230Y-57687D01*
X87221Y-57679D01*
X87213Y-57671D01*
X87212Y-57671D01*
X87202Y-57657D01*
X87194Y-57640D01*
X87190Y-57622D01*
X87188Y-57603D01*
X87190Y-57585D01*
X87195Y-57569D01*
X87201Y-57558D01*
X87208Y-57547D01*
X87213Y-57534D01*
X87215Y-57517D01*
X87216Y-57498D01*
X87215Y-57489D01*
X87212Y-57461D01*
X87204Y-57436D01*
X87192Y-57414D01*
X87175Y-57393D01*
X87159Y-57380D01*
X87145Y-57370D01*
X87132Y-57363D01*
X87120Y-57361D01*
X87112Y-57360D01*
X87099Y-57362D01*
X87088Y-57367D01*
X87081Y-57377D01*
X87076Y-57391D01*
X87075Y-57409D01*
X87075Y-57411D01*
X87075Y-57428D01*
X87078Y-57445D01*
X87082Y-57462D01*
X87089Y-57482D01*
X87091Y-57487D01*
X87098Y-57511D01*
X87101Y-57534D01*
X87099Y-57556D01*
X87098Y-57561D01*
X87092Y-57574D01*
X87086Y-57583D01*
X87078Y-57588D01*
X87067Y-57589D01*
X87067Y-57589D01*
X87058Y-57588D01*
X87047Y-57585D01*
X87035Y-57580D01*
X87021Y-57572D01*
X87006Y-57561D01*
X86987Y-57547D01*
X86966Y-57530D01*
X86942Y-57509D01*
X86920Y-57489D01*
X86908Y-57478D01*
X86897Y-57469D01*
X86888Y-57461D01*
X86882Y-57456D01*
X86878Y-57454D01*
X86878Y-57454D01*
X86878Y-57457D01*
X86878Y-57465D01*
X86877Y-57478D01*
X86877Y-57494D01*
X86877Y-57515D01*
X86876Y-57539D01*
X86876Y-57567D01*
X86876Y-57598D01*
X86876Y-57631D01*
X86876Y-57666D01*
X86875Y-57703D01*
X86875Y-57742D01*
X86875Y-57747D01*
X86874Y-58039D01*
X87152Y-58199D01*
X87188Y-58220D01*
X87222Y-58240D01*
X87254Y-58258D01*
X87285Y-58276D01*
X87313Y-58292D01*
X87340Y-58307D01*
X87363Y-58321D01*
X87383Y-58332D01*
X87401Y-58342D01*
X87414Y-58350D01*
X87424Y-58356D01*
X87429Y-58359D01*
X87431Y-58359D01*
X87431Y-58357D01*
X87433Y-58350D01*
X87434Y-58339D01*
X87437Y-58327D01*
X87437Y-58324D01*
X87442Y-58291D01*
X87446Y-58263D01*
X87449Y-58238D01*
X87450Y-58217D01*
X87451Y-58198D01*
X87451Y-58407D01*
X87414Y-58386D01*
X87409Y-58383D01*
X86845Y-58058D01*
X86845Y-57625D01*
X86845Y-57573D01*
X86845Y-57520D01*
X86845Y-57465D01*
X86845Y-57411D01*
X86846Y-57356D01*
X86846Y-57302D01*
X86846Y-57250D01*
X86846Y-57199D01*
X86846Y-57151D01*
X86846Y-57105D01*
X86846Y-57063D01*
X86847Y-57024D01*
X86847Y-56990D01*
X86847Y-56964D01*
X86849Y-56734D01*
X86861Y-56727D01*
X86864Y-56725D01*
X86872Y-56720D01*
X86884Y-56713D01*
X86900Y-56704D01*
X86920Y-56692D01*
X86943Y-56679D01*
X86970Y-56663D01*
X87000Y-56646D01*
X87033Y-56626D01*
X87069Y-56606D01*
X87107Y-56584D01*
X87148Y-56560D01*
X87190Y-56535D01*
X87235Y-56509D01*
X87282Y-56482D01*
X87330Y-56454D01*
X87379Y-56425D01*
X87429Y-56396D01*
X87429Y-56396D01*
X87480Y-56367D01*
X87529Y-56338D01*
X87577Y-56310D01*
X87623Y-56284D01*
X87667Y-56258D01*
X87710Y-56233D01*
X87750Y-56210D01*
X87788Y-56188D01*
X87823Y-56167D01*
X87856Y-56148D01*
X87885Y-56131D01*
X87911Y-56116D01*
X87934Y-56102D01*
X87954Y-56091D01*
X87969Y-56082D01*
X87981Y-56076D01*
X87988Y-56071D01*
X87991Y-56070D01*
X87992Y-56069D01*
X87993Y-56070D01*
X87996Y-56071D01*
X88000Y-56073D01*
X88005Y-56075D01*
X88012Y-56079D01*
X88021Y-56083D01*
X88031Y-56089D01*
X88043Y-56095D01*
X88057Y-56103D01*
X88074Y-56113D01*
X88093Y-56124D01*
X88115Y-56136D01*
X88140Y-56150D01*
X88168Y-56166D01*
X88198Y-56184D01*
X88233Y-56203D01*
X88270Y-56225D01*
X88312Y-56249D01*
X88357Y-56275D01*
X88406Y-56303D01*
X88459Y-56334D01*
X88517Y-56367D01*
X88560Y-56392D01*
X88611Y-56422D01*
X88661Y-56450D01*
X88709Y-56478D01*
X88756Y-56505D01*
X88801Y-56531D01*
X88844Y-56556D01*
X88885Y-56580D01*
X88924Y-56602D01*
X88960Y-56623D01*
X88994Y-56642D01*
X89024Y-56660D01*
X89051Y-56675D01*
X89075Y-56689D01*
X89096Y-56700D01*
X89112Y-56710D01*
X89125Y-56717D01*
X89133Y-56722D01*
X89137Y-56724D01*
X89138Y-56724D01*
X89151Y-56730D01*
X89153Y-57000D01*
X89153Y-57037D01*
X89153Y-57079D01*
X89154Y-57124D01*
X89154Y-57174D01*
X89154Y-57225D01*
X89154Y-57280D01*
X89154Y-57335D01*
X89154Y-57391D01*
X89154Y-57448D01*
X89154Y-57504D01*
X89155Y-57560D01*
X89155Y-57613D01*
X89155Y-57664D01*
X89155Y-58057D01*
X89155Y-58057D01*
X89155Y-58057D01*
G37*
G54D14*
X99299Y-46738D02*
G75*
G03X99299Y-46738I-62J0D01*
G74*
G01*
X100200Y-46400D02*
X100200Y-46800D01*
X99175Y-46400D02*
X99175Y-46800D01*
X100200Y-46800D02*
X99175Y-46800D01*
X99175Y-46400D02*
X100200Y-46400D01*
G54D15*
X90750Y-49150D02*
X89850Y-49150D01*
X89850Y-49150D02*
X89850Y-48650D01*
X89850Y-48650D02*
X90750Y-48650D01*
X90750Y-48650D02*
X90750Y-49150D01*
X91850Y-58750D02*
X91850Y-57850D01*
X91850Y-57850D02*
X92350Y-57850D01*
X92350Y-57850D02*
X92350Y-58750D01*
X92350Y-58750D02*
X91850Y-58750D01*
G54D16*
X91144Y-58497D02*
X91144Y-58772D01*
X91144Y-58103D02*
X91144Y-57828D01*
X91656Y-58497D02*
X91656Y-58772D01*
X91656Y-57828D02*
X91656Y-58103D01*
X91650Y-58772D02*
X91150Y-58772D01*
X91150Y-57828D02*
X91650Y-57828D01*
G54D10*
X100340Y-47610D02*
X100340Y-48440D01*
X98950Y-48150D02*
X98950Y-47730D01*
X98950Y-47730D02*
X99080Y-47620D01*
X99032Y-48300D02*
G75*
G03X99032Y-48300I-92J0D01*
G74*
G01*
G54D17*
X90700Y-44300D02*
X90700Y-45300D01*
X90700Y-45300D02*
X85700Y-45300D01*
X85700Y-45300D02*
X85700Y-44300D01*
X85700Y-44300D02*
X90700Y-44300D01*
X89700Y-44300D02*
X89700Y-45300D01*
X97700Y-44300D02*
X97700Y-44300D01*
X97700Y-45300D02*
X97700Y-44300D01*
X97700Y-44300D02*
X97700Y-44300D01*
X97700Y-44300D02*
X101700Y-44300D01*
X101700Y-44300D02*
X101700Y-45300D01*
X101700Y-45300D02*
X97700Y-45300D01*
X98700Y-45300D02*
X98700Y-44300D01*
X80700Y-64300D02*
X80700Y-63300D01*
X80700Y-63300D02*
X85700Y-63300D01*
X85700Y-63300D02*
X85700Y-64300D01*
X85700Y-64300D02*
X80700Y-64300D01*
X81700Y-64300D02*
X81700Y-63300D01*
G54D10*
X95850Y-56120D02*
X95860Y-53720D01*
X95860Y-53720D02*
X98380Y-53700D01*
X98380Y-53700D02*
X98380Y-56000D01*
X98380Y-56000D02*
X98370Y-56100D01*
X98370Y-56100D02*
X95880Y-56120D01*
X93970Y-53700D02*
X93970Y-56130D01*
X93970Y-56130D02*
X95540Y-56130D01*
X95540Y-56130D02*
X95540Y-53720D01*
X95540Y-53720D02*
X93960Y-53710D01*
G54D18*
X103430Y-55820D02*
X101930Y-55820D01*
X101930Y-55820D02*
X101930Y-55020D01*
X101930Y-55020D02*
X103430Y-55020D01*
X103430Y-55020D02*
X103430Y-54220D01*
X103430Y-54220D02*
X101930Y-54220D01*
X101930Y-54220D02*
X101930Y-53420D01*
X101930Y-53420D02*
X103430Y-53420D01*
X103430Y-53420D02*
X103430Y-52620D01*
X103430Y-52620D02*
X101930Y-52620D01*
X101570Y-56620D02*
X103430Y-56620D01*
X103430Y-56620D02*
X103430Y-55820D01*
G54D10*
X93170Y-57020D02*
X103800Y-57020D01*
X103800Y-57020D02*
X103800Y-51910D01*
X103800Y-51910D02*
X93170Y-51910D01*
X93170Y-51910D02*
X93170Y-57020D01*
X84370Y-60820D02*
X84260Y-60940D01*
X84260Y-60940D02*
X84350Y-60940D01*
X84350Y-60940D02*
X84260Y-60940D01*
X84260Y-60940D02*
X84260Y-60850D01*
X84550Y-60830D02*
X84450Y-60940D01*
X84450Y-60940D02*
X84550Y-60940D01*
X84550Y-60940D02*
X84450Y-60940D01*
X84450Y-60940D02*
X84450Y-60860D01*
X84450Y-60860D02*
X84450Y-60840D01*
X84520Y-60690D02*
X84520Y-60680D01*
X84510Y-60530D02*
X84520Y-60510D01*
X84500Y-60540D02*
X84500Y-60660D01*
X84500Y-60660D02*
X84430Y-60600D01*
X84430Y-60600D02*
X84470Y-60560D01*
X84550Y-60450D02*
X84550Y-60740D01*
X84550Y-60740D02*
X84350Y-60600D01*
X84350Y-60600D02*
X84550Y-60450D01*
X84370Y-61720D02*
X84260Y-61840D01*
X84260Y-61840D02*
X84350Y-61840D01*
X84350Y-61840D02*
X84260Y-61840D01*
X84260Y-61840D02*
X84260Y-61750D01*
X84550Y-61730D02*
X84450Y-61840D01*
X84450Y-61840D02*
X84550Y-61840D01*
X84550Y-61840D02*
X84450Y-61840D01*
X84450Y-61840D02*
X84450Y-61760D01*
X84450Y-61760D02*
X84450Y-61740D01*
X84520Y-61590D02*
X84520Y-61580D01*
X84510Y-61430D02*
X84520Y-61410D01*
X84500Y-61440D02*
X84500Y-61560D01*
X84500Y-61560D02*
X84430Y-61500D01*
X84430Y-61500D02*
X84470Y-61460D01*
X84550Y-61350D02*
X84550Y-61640D01*
X84550Y-61640D02*
X84350Y-61500D01*
X84350Y-61500D02*
X84550Y-61350D01*
X100530Y-47240D02*
X100530Y-48530D01*
X100530Y-48530D02*
X101470Y-48530D01*
X101470Y-48530D02*
X101470Y-47240D01*
X101470Y-47240D02*
X100530Y-47240D01*
G54D15*
X89850Y-46850D02*
X90750Y-46850D01*
X90750Y-46850D02*
X90750Y-47350D01*
X90750Y-47350D02*
X89850Y-47350D01*
X89850Y-47350D02*
X89850Y-46850D01*
X91350Y-59050D02*
X92250Y-59050D01*
X92250Y-59050D02*
X92250Y-59550D01*
X92250Y-59550D02*
X91350Y-59550D01*
X91350Y-59550D02*
X91350Y-59050D01*
X95250Y-51050D02*
X94350Y-51050D01*
X94350Y-51050D02*
X94350Y-50550D01*
X94350Y-50550D02*
X95250Y-50550D01*
X95250Y-50550D02*
X95250Y-51050D01*
X86100Y-60850D02*
X85200Y-60850D01*
X85200Y-60850D02*
X85200Y-60350D01*
X85200Y-60350D02*
X86100Y-60350D01*
X86100Y-60350D02*
X86100Y-60850D01*
X86100Y-61750D02*
X85200Y-61750D01*
X85200Y-61750D02*
X85200Y-61250D01*
X85200Y-61250D02*
X86100Y-61250D01*
X86100Y-61250D02*
X86100Y-61750D01*
X90750Y-48450D02*
X89850Y-48450D01*
X89850Y-48450D02*
X89850Y-47950D01*
X89850Y-47950D02*
X90750Y-47950D01*
X90750Y-47950D02*
X90750Y-48450D01*
G54D16*
X96097Y-51056D02*
X96372Y-51056D01*
X95703Y-51056D02*
X95428Y-51056D01*
X96097Y-50544D02*
X96372Y-50544D01*
X95428Y-50544D02*
X95703Y-50544D01*
X96372Y-50550D02*
X96372Y-51050D01*
X95428Y-51050D02*
X95428Y-50550D01*
X91503Y-50544D02*
X91228Y-50544D01*
X91897Y-50544D02*
X92172Y-50544D01*
X91503Y-51056D02*
X91228Y-51056D01*
X92172Y-51056D02*
X91897Y-51056D01*
X91228Y-51050D02*
X91228Y-50550D01*
X92172Y-50550D02*
X92172Y-51050D01*
G54D14*
X88819Y-47012D02*
G75*
G03X88819Y-47012I-62J0D01*
G74*
G01*
X89095Y-47975D02*
X88695Y-47975D01*
X89095Y-46950D02*
X88695Y-46950D01*
X88695Y-47975D02*
X88695Y-46950D01*
X89095Y-46950D02*
X89095Y-47975D01*
G54D10*
X101500Y-57700D02*
X101500Y-57470D01*
X101510Y-55590D02*
X101510Y-56750D01*
X101510Y-53320D02*
X101510Y-54640D01*
X101500Y-51200D02*
X101500Y-52200D01*
X92450Y-57700D02*
X92450Y-51200D01*
X92450Y-51200D02*
X101500Y-51200D01*
X101500Y-57700D02*
X92450Y-57700D01*
X91180Y-50410D02*
X90940Y-50410D01*
X90940Y-50410D02*
X90940Y-49710D01*
X90940Y-49710D02*
X91180Y-49710D01*
X90940Y-47180D02*
X91180Y-47180D01*
X90940Y-46480D02*
X90940Y-47180D01*
X91180Y-46480D02*
X90940Y-46480D01*
X92900Y-46480D02*
X91180Y-46480D01*
X91180Y-46480D02*
X91180Y-50410D01*
X91180Y-50410D02*
X92900Y-50410D01*
X92900Y-50410D02*
X92900Y-46480D01*
X101610Y-60170D02*
X101610Y-60410D01*
X101610Y-60410D02*
X100910Y-60410D01*
X100910Y-60410D02*
X100910Y-60170D01*
X98380Y-60410D02*
X98380Y-60170D01*
X97680Y-60410D02*
X98380Y-60410D01*
X97680Y-60170D02*
X97680Y-60410D01*
X97680Y-58450D02*
X97680Y-60170D01*
X97680Y-60170D02*
X101610Y-60170D01*
X101610Y-60170D02*
X101610Y-58450D01*
X101610Y-58450D02*
X97680Y-58450D01*
X96880Y-50410D02*
X96640Y-50410D01*
X96640Y-50410D02*
X96640Y-49710D01*
X96640Y-49710D02*
X96880Y-49710D01*
X96640Y-47180D02*
X96880Y-47180D01*
X96640Y-46480D02*
X96640Y-47180D01*
X96880Y-46480D02*
X96640Y-46480D01*
X98600Y-46480D02*
X96880Y-46480D01*
X96880Y-46480D02*
X96880Y-50410D01*
X96880Y-50410D02*
X98600Y-50410D01*
X98600Y-50410D02*
X98600Y-46480D01*
X96860Y-60170D02*
X96860Y-60410D01*
X96860Y-60410D02*
X96160Y-60410D01*
X96160Y-60410D02*
X96160Y-60170D01*
X93630Y-60410D02*
X93630Y-60170D01*
X92930Y-60410D02*
X93630Y-60410D01*
X92930Y-60170D02*
X92930Y-60410D01*
X92930Y-58450D02*
X92930Y-60170D01*
X92930Y-60170D02*
X96860Y-60170D01*
X96860Y-60170D02*
X96860Y-58450D01*
X96860Y-58450D02*
X92930Y-58450D01*
X93980Y-50410D02*
X93740Y-50410D01*
X93740Y-50410D02*
X93740Y-49710D01*
X93740Y-49710D02*
X93980Y-49710D01*
X93740Y-47180D02*
X93980Y-47180D01*
X93740Y-46480D02*
X93740Y-47180D01*
X93980Y-46480D02*
X93740Y-46480D01*
X95700Y-46480D02*
X93980Y-46480D01*
X93980Y-46480D02*
X93980Y-50410D01*
X93980Y-50410D02*
X95700Y-50410D01*
X95700Y-50410D02*
X95700Y-46480D01*
X100379Y-46379D02*
X100379Y-45985D01*
X100473Y-45985D01*
X100529Y-46004D01*
X100566Y-46041D01*
X100585Y-46079D01*
X100604Y-46154D01*
X100604Y-46210D01*
X100585Y-46285D01*
X100566Y-46323D01*
X100529Y-46360D01*
X100473Y-46379D01*
X100379Y-46379D01*
X100979Y-46379D02*
X100754Y-46379D01*
X100866Y-46379D02*
X100866Y-45985D01*
X100829Y-46041D01*
X100791Y-46079D01*
X100754Y-46098D01*
X89334Y-49159D02*
X89203Y-48971D01*
X89109Y-49159D02*
X89109Y-48765D01*
X89259Y-48765D01*
X89296Y-48784D01*
X89315Y-48803D01*
X89334Y-48840D01*
X89334Y-48896D01*
X89315Y-48934D01*
X89296Y-48953D01*
X89259Y-48971D01*
X89109Y-48971D01*
X89559Y-48934D02*
X89521Y-48915D01*
X89503Y-48896D01*
X89484Y-48859D01*
X89484Y-48840D01*
X89503Y-48803D01*
X89521Y-48784D01*
X89559Y-48765D01*
X89634Y-48765D01*
X89671Y-48784D01*
X89690Y-48803D01*
X89709Y-48840D01*
X89709Y-48859D01*
X89690Y-48896D01*
X89671Y-48915D01*
X89634Y-48934D01*
X89559Y-48934D01*
X89521Y-48953D01*
X89503Y-48971D01*
X89484Y-49009D01*
X89484Y-49084D01*
X89503Y-49121D01*
X89521Y-49140D01*
X89559Y-49159D01*
X89634Y-49159D01*
X89671Y-49140D01*
X89690Y-49121D01*
X89709Y-49084D01*
X89709Y-49009D01*
X89690Y-48971D01*
X89671Y-48953D01*
X89634Y-48934D01*
X92259Y-57465D02*
X92071Y-57596D01*
X92259Y-57690D02*
X91865Y-57690D01*
X91865Y-57540D01*
X91884Y-57503D01*
X91903Y-57484D01*
X91940Y-57465D01*
X91996Y-57465D01*
X92034Y-57484D01*
X92053Y-57503D01*
X92071Y-57540D01*
X92071Y-57690D01*
X91865Y-57334D02*
X91865Y-57071D01*
X92259Y-57240D01*
X91521Y-57365D02*
X91540Y-57384D01*
X91559Y-57440D01*
X91559Y-57478D01*
X91540Y-57534D01*
X91503Y-57571D01*
X91465Y-57590D01*
X91390Y-57609D01*
X91334Y-57609D01*
X91259Y-57590D01*
X91221Y-57571D01*
X91184Y-57534D01*
X91165Y-57478D01*
X91165Y-57440D01*
X91184Y-57384D01*
X91203Y-57365D01*
X91165Y-57234D02*
X91165Y-56990D01*
X91315Y-57121D01*
X91315Y-57065D01*
X91334Y-57028D01*
X91353Y-57009D01*
X91390Y-56990D01*
X91484Y-56990D01*
X91521Y-57009D01*
X91540Y-57028D01*
X91559Y-57065D01*
X91559Y-57178D01*
X91540Y-57215D01*
X91521Y-57234D01*
X90565Y-58346D02*
X90565Y-58309D01*
X90584Y-58271D01*
X90603Y-58253D01*
X90640Y-58234D01*
X90715Y-58215D01*
X90809Y-58215D01*
X90884Y-58234D01*
X90921Y-58253D01*
X90940Y-58271D01*
X90959Y-58309D01*
X90959Y-58346D01*
X90940Y-58384D01*
X90921Y-58403D01*
X90884Y-58421D01*
X90809Y-58440D01*
X90715Y-58440D01*
X90640Y-58421D01*
X90603Y-58403D01*
X90584Y-58384D01*
X90565Y-58346D01*
X90921Y-58046D02*
X90940Y-58028D01*
X90959Y-58046D01*
X90940Y-58065D01*
X90921Y-58046D01*
X90959Y-58046D01*
X90959Y-57653D02*
X90959Y-57878D01*
X90959Y-57765D02*
X90565Y-57765D01*
X90621Y-57803D01*
X90659Y-57840D01*
X90678Y-57878D01*
X90696Y-57315D02*
X90959Y-57315D01*
X90696Y-57484D02*
X90903Y-57484D01*
X90940Y-57465D01*
X90959Y-57428D01*
X90959Y-57371D01*
X90940Y-57334D01*
X90921Y-57315D01*
X90753Y-56996D02*
X90753Y-57128D01*
X90959Y-57128D02*
X90565Y-57128D01*
X90565Y-56940D01*
X99592Y-49156D02*
X99555Y-49138D01*
X99517Y-49100D01*
X99461Y-49044D01*
X99423Y-49025D01*
X99386Y-49025D01*
X99405Y-49119D02*
X99367Y-49100D01*
X99330Y-49063D01*
X99311Y-48988D01*
X99311Y-48856D01*
X99330Y-48781D01*
X99367Y-48744D01*
X99405Y-48725D01*
X99480Y-48725D01*
X99517Y-48744D01*
X99555Y-48781D01*
X99573Y-48856D01*
X99573Y-48988D01*
X99555Y-49063D01*
X99517Y-49100D01*
X99480Y-49119D01*
X99405Y-49119D01*
X99723Y-48763D02*
X99742Y-48744D01*
X99779Y-48725D01*
X99873Y-48725D01*
X99911Y-48744D01*
X99929Y-48763D01*
X99948Y-48800D01*
X99948Y-48838D01*
X99929Y-48894D01*
X99704Y-49119D01*
X99948Y-49119D01*
X100490Y-53253D02*
X100546Y-53271D01*
X100565Y-53290D01*
X100584Y-53328D01*
X100584Y-53384D01*
X100565Y-53421D01*
X100546Y-53440D01*
X100509Y-53459D01*
X100359Y-53459D01*
X100359Y-53065D01*
X100490Y-53065D01*
X100528Y-53084D01*
X100546Y-53103D01*
X100565Y-53140D01*
X100565Y-53178D01*
X100546Y-53215D01*
X100528Y-53234D01*
X100490Y-53253D01*
X100359Y-53253D01*
X100696Y-53065D02*
X100921Y-53065D01*
X100809Y-53459D02*
X100809Y-53065D01*
X101259Y-53459D02*
X101034Y-53459D01*
X101146Y-53459D02*
X101146Y-53065D01*
X101109Y-53121D01*
X101071Y-53159D01*
X101034Y-53178D01*
X94194Y-53253D02*
X94250Y-53271D01*
X94269Y-53290D01*
X94287Y-53328D01*
X94287Y-53384D01*
X94269Y-53421D01*
X94250Y-53440D01*
X94212Y-53459D01*
X94062Y-53459D01*
X94062Y-53065D01*
X94194Y-53065D01*
X94231Y-53084D01*
X94250Y-53103D01*
X94269Y-53140D01*
X94269Y-53178D01*
X94250Y-53215D01*
X94231Y-53234D01*
X94194Y-53253D01*
X94062Y-53253D01*
X94644Y-53459D02*
X94456Y-53459D01*
X94456Y-53065D01*
X94775Y-53065D02*
X94775Y-53384D01*
X94794Y-53421D01*
X94812Y-53440D01*
X94850Y-53459D01*
X94925Y-53459D01*
X94962Y-53440D01*
X94981Y-53421D01*
X95000Y-53384D01*
X95000Y-53065D01*
X95187Y-53253D02*
X95318Y-53253D01*
X95375Y-53459D02*
X95187Y-53459D01*
X95187Y-53065D01*
X95375Y-53065D01*
X95487Y-53065D02*
X95712Y-53065D01*
X95600Y-53459D02*
X95600Y-53065D01*
X95918Y-53065D02*
X95993Y-53065D01*
X96031Y-53084D01*
X96068Y-53121D01*
X96087Y-53196D01*
X96087Y-53328D01*
X96068Y-53403D01*
X96031Y-53440D01*
X95993Y-53459D01*
X95918Y-53459D01*
X95881Y-53440D01*
X95843Y-53403D01*
X95825Y-53328D01*
X95825Y-53196D01*
X95843Y-53121D01*
X95881Y-53084D01*
X95918Y-53065D01*
X96331Y-53065D02*
X96406Y-53065D01*
X96443Y-53084D01*
X96481Y-53121D01*
X96500Y-53196D01*
X96500Y-53328D01*
X96481Y-53403D01*
X96443Y-53440D01*
X96406Y-53459D01*
X96331Y-53459D01*
X96293Y-53440D01*
X96256Y-53403D01*
X96237Y-53328D01*
X96237Y-53196D01*
X96256Y-53121D01*
X96293Y-53084D01*
X96331Y-53065D01*
X96612Y-53065D02*
X96837Y-53065D01*
X96725Y-53459D02*
X96725Y-53065D01*
X96968Y-53459D02*
X96968Y-53065D01*
X96968Y-53253D02*
X97193Y-53253D01*
X97193Y-53459D02*
X97193Y-53065D01*
X97287Y-53496D02*
X97587Y-53496D01*
X97681Y-53459D02*
X97681Y-53065D01*
X97812Y-53346D01*
X97943Y-53065D01*
X97943Y-53459D01*
X98206Y-53065D02*
X98281Y-53065D01*
X98318Y-53084D01*
X98356Y-53121D01*
X98374Y-53196D01*
X98374Y-53328D01*
X98356Y-53403D01*
X98318Y-53440D01*
X98281Y-53459D01*
X98206Y-53459D01*
X98168Y-53440D01*
X98131Y-53403D01*
X98112Y-53328D01*
X98112Y-53196D01*
X98131Y-53121D01*
X98168Y-53084D01*
X98206Y-53065D01*
X98543Y-53459D02*
X98543Y-53065D01*
X98637Y-53065D01*
X98693Y-53084D01*
X98731Y-53121D01*
X98749Y-53159D01*
X98768Y-53234D01*
X98768Y-53290D01*
X98749Y-53365D01*
X98731Y-53403D01*
X98693Y-53440D01*
X98637Y-53459D01*
X98543Y-53459D01*
X98937Y-53065D02*
X98937Y-53384D01*
X98955Y-53421D01*
X98974Y-53440D01*
X99012Y-53459D01*
X99087Y-53459D01*
X99124Y-53440D01*
X99143Y-53421D01*
X99162Y-53384D01*
X99162Y-53065D01*
X99537Y-53459D02*
X99349Y-53459D01*
X99349Y-53065D01*
X99668Y-53253D02*
X99799Y-53253D01*
X99855Y-53459D02*
X99668Y-53459D01*
X99668Y-53065D01*
X99855Y-53065D01*
X83209Y-60859D02*
X83209Y-60465D01*
X83303Y-60465D01*
X83359Y-60484D01*
X83396Y-60521D01*
X83415Y-60559D01*
X83434Y-60634D01*
X83434Y-60690D01*
X83415Y-60765D01*
X83396Y-60803D01*
X83359Y-60840D01*
X83303Y-60859D01*
X83209Y-60859D01*
X83565Y-60465D02*
X83809Y-60465D01*
X83678Y-60615D01*
X83734Y-60615D01*
X83771Y-60634D01*
X83790Y-60653D01*
X83809Y-60690D01*
X83809Y-60784D01*
X83790Y-60821D01*
X83771Y-60840D01*
X83734Y-60859D01*
X83621Y-60859D01*
X83584Y-60840D01*
X83565Y-60821D01*
X83562Y-60259D02*
X83431Y-60071D01*
X83337Y-60259D02*
X83337Y-59865D01*
X83487Y-59865D01*
X83525Y-59884D01*
X83543Y-59903D01*
X83562Y-59940D01*
X83562Y-59996D01*
X83543Y-60034D01*
X83525Y-60053D01*
X83487Y-60071D01*
X83337Y-60071D01*
X83731Y-60053D02*
X83862Y-60053D01*
X83918Y-60259D02*
X83731Y-60259D01*
X83731Y-59865D01*
X83918Y-59865D01*
X84087Y-60259D02*
X84087Y-59865D01*
X84181Y-59865D01*
X84237Y-59884D01*
X84275Y-59921D01*
X84293Y-59959D01*
X84312Y-60034D01*
X84312Y-60090D01*
X84293Y-60165D01*
X84275Y-60203D01*
X84237Y-60240D01*
X84181Y-60259D01*
X84087Y-60259D01*
X84968Y-60259D02*
X84781Y-60259D01*
X84781Y-59865D01*
X85099Y-60053D02*
X85231Y-60053D01*
X85287Y-60259D02*
X85099Y-60259D01*
X85099Y-59865D01*
X85287Y-59865D01*
X85456Y-60259D02*
X85456Y-59865D01*
X85549Y-59865D01*
X85606Y-59884D01*
X85643Y-59921D01*
X85662Y-59959D01*
X85681Y-60034D01*
X85681Y-60090D01*
X85662Y-60165D01*
X85643Y-60203D01*
X85606Y-60240D01*
X85549Y-60259D01*
X85456Y-60259D01*
X83209Y-61659D02*
X83209Y-61265D01*
X83303Y-61265D01*
X83359Y-61284D01*
X83396Y-61321D01*
X83415Y-61359D01*
X83434Y-61434D01*
X83434Y-61490D01*
X83415Y-61565D01*
X83396Y-61603D01*
X83359Y-61640D01*
X83303Y-61659D01*
X83209Y-61659D01*
X83584Y-61303D02*
X83603Y-61284D01*
X83640Y-61265D01*
X83734Y-61265D01*
X83771Y-61284D01*
X83790Y-61303D01*
X83809Y-61340D01*
X83809Y-61378D01*
X83790Y-61434D01*
X83565Y-61659D01*
X83809Y-61659D01*
X84259Y-61884D02*
X84222Y-61865D01*
X84165Y-61865D01*
X84109Y-61884D01*
X84072Y-61921D01*
X84053Y-61959D01*
X84034Y-62034D01*
X84034Y-62090D01*
X84053Y-62165D01*
X84072Y-62203D01*
X84109Y-62240D01*
X84165Y-62259D01*
X84203Y-62259D01*
X84259Y-62240D01*
X84278Y-62221D01*
X84278Y-62090D01*
X84203Y-62090D01*
X84671Y-62259D02*
X84540Y-62071D01*
X84447Y-62259D02*
X84447Y-61865D01*
X84597Y-61865D01*
X84634Y-61884D01*
X84653Y-61903D01*
X84671Y-61940D01*
X84671Y-61996D01*
X84653Y-62034D01*
X84634Y-62053D01*
X84597Y-62071D01*
X84447Y-62071D01*
X84840Y-62053D02*
X84971Y-62053D01*
X85028Y-62259D02*
X84840Y-62259D01*
X84840Y-61865D01*
X85028Y-61865D01*
X85196Y-62053D02*
X85328Y-62053D01*
X85384Y-62259D02*
X85196Y-62259D01*
X85196Y-61865D01*
X85384Y-61865D01*
X85553Y-62259D02*
X85553Y-61865D01*
X85778Y-62259D01*
X85778Y-61865D01*
X86453Y-62259D02*
X86265Y-62259D01*
X86265Y-61865D01*
X86584Y-62053D02*
X86715Y-62053D01*
X86771Y-62259D02*
X86584Y-62259D01*
X86584Y-61865D01*
X86771Y-61865D01*
X86940Y-62259D02*
X86940Y-61865D01*
X87034Y-61865D01*
X87090Y-61884D01*
X87127Y-61921D01*
X87146Y-61959D01*
X87165Y-62034D01*
X87165Y-62090D01*
X87146Y-62165D01*
X87127Y-62203D01*
X87090Y-62240D01*
X87034Y-62259D01*
X86940Y-62259D01*
X100787Y-47059D02*
X100656Y-46871D01*
X100562Y-47059D02*
X100562Y-46665D01*
X100712Y-46665D01*
X100750Y-46684D01*
X100768Y-46703D01*
X100787Y-46740D01*
X100787Y-46796D01*
X100768Y-46834D01*
X100750Y-46853D01*
X100712Y-46871D01*
X100562Y-46871D01*
X100956Y-47059D02*
X100956Y-46665D01*
X101106Y-46665D01*
X101143Y-46684D01*
X101162Y-46703D01*
X101181Y-46740D01*
X101181Y-46796D01*
X101162Y-46834D01*
X101143Y-46853D01*
X101106Y-46871D01*
X100956Y-46871D01*
X101556Y-47059D02*
X101331Y-47059D01*
X101443Y-47059D02*
X101443Y-46665D01*
X101406Y-46721D01*
X101368Y-46759D01*
X101331Y-46778D01*
X100775Y-49149D02*
X100550Y-49149D01*
X100663Y-49149D02*
X100663Y-48755D01*
X100625Y-48811D01*
X100588Y-48849D01*
X100550Y-48868D01*
X101019Y-48755D02*
X101056Y-48755D01*
X101094Y-48774D01*
X101113Y-48793D01*
X101131Y-48830D01*
X101150Y-48905D01*
X101150Y-48999D01*
X101131Y-49074D01*
X101113Y-49111D01*
X101094Y-49130D01*
X101056Y-49149D01*
X101019Y-49149D01*
X100981Y-49130D01*
X100963Y-49111D01*
X100944Y-49074D01*
X100925Y-48999D01*
X100925Y-48905D01*
X100944Y-48830D01*
X100963Y-48793D01*
X100981Y-48774D01*
X101019Y-48755D01*
X101319Y-49149D02*
X101319Y-48755D01*
X101356Y-48999D02*
X101469Y-49149D01*
X101469Y-48886D02*
X101319Y-49036D01*
X90234Y-46759D02*
X90103Y-46571D01*
X90009Y-46759D02*
X90009Y-46365D01*
X90159Y-46365D01*
X90196Y-46384D01*
X90215Y-46403D01*
X90234Y-46440D01*
X90234Y-46496D01*
X90215Y-46534D01*
X90196Y-46553D01*
X90159Y-46571D01*
X90009Y-46571D01*
X90365Y-46365D02*
X90609Y-46365D01*
X90478Y-46515D01*
X90534Y-46515D01*
X90571Y-46534D01*
X90590Y-46553D01*
X90609Y-46590D01*
X90609Y-46684D01*
X90590Y-46721D01*
X90571Y-46740D01*
X90534Y-46759D01*
X90421Y-46759D01*
X90384Y-46740D01*
X90365Y-46721D01*
X91634Y-60159D02*
X91503Y-59971D01*
X91409Y-60159D02*
X91409Y-59765D01*
X91559Y-59765D01*
X91596Y-59784D01*
X91615Y-59803D01*
X91634Y-59840D01*
X91634Y-59896D01*
X91615Y-59934D01*
X91596Y-59953D01*
X91559Y-59971D01*
X91409Y-59971D01*
X91784Y-59803D02*
X91803Y-59784D01*
X91840Y-59765D01*
X91934Y-59765D01*
X91971Y-59784D01*
X91990Y-59803D01*
X92009Y-59840D01*
X92009Y-59878D01*
X91990Y-59934D01*
X91765Y-60159D01*
X92009Y-60159D01*
X93834Y-50859D02*
X93703Y-50671D01*
X93609Y-50859D02*
X93609Y-50465D01*
X93759Y-50465D01*
X93796Y-50484D01*
X93815Y-50503D01*
X93834Y-50540D01*
X93834Y-50596D01*
X93815Y-50634D01*
X93796Y-50653D01*
X93759Y-50671D01*
X93609Y-50671D01*
X94171Y-50596D02*
X94171Y-50859D01*
X94078Y-50446D02*
X93984Y-50728D01*
X94228Y-50728D01*
X86534Y-60759D02*
X86403Y-60571D01*
X86309Y-60759D02*
X86309Y-60365D01*
X86459Y-60365D01*
X86496Y-60384D01*
X86515Y-60403D01*
X86534Y-60440D01*
X86534Y-60496D01*
X86515Y-60534D01*
X86496Y-60553D01*
X86459Y-60571D01*
X86309Y-60571D01*
X86871Y-60365D02*
X86796Y-60365D01*
X86759Y-60384D01*
X86740Y-60403D01*
X86703Y-60459D01*
X86684Y-60534D01*
X86684Y-60684D01*
X86703Y-60721D01*
X86721Y-60740D01*
X86759Y-60759D01*
X86834Y-60759D01*
X86871Y-60740D01*
X86890Y-60721D01*
X86909Y-60684D01*
X86909Y-60590D01*
X86890Y-60553D01*
X86871Y-60534D01*
X86834Y-60515D01*
X86759Y-60515D01*
X86721Y-60534D01*
X86703Y-60553D01*
X86684Y-60590D01*
X86534Y-61759D02*
X86403Y-61571D01*
X86309Y-61759D02*
X86309Y-61365D01*
X86459Y-61365D01*
X86496Y-61384D01*
X86515Y-61403D01*
X86534Y-61440D01*
X86534Y-61496D01*
X86515Y-61534D01*
X86496Y-61553D01*
X86459Y-61571D01*
X86309Y-61571D01*
X86890Y-61365D02*
X86703Y-61365D01*
X86684Y-61553D01*
X86703Y-61534D01*
X86740Y-61515D01*
X86834Y-61515D01*
X86871Y-61534D01*
X86890Y-61553D01*
X86909Y-61590D01*
X86909Y-61684D01*
X86890Y-61721D01*
X86871Y-61740D01*
X86834Y-61759D01*
X86740Y-61759D01*
X86703Y-61740D01*
X86684Y-61721D01*
X89334Y-48559D02*
X89203Y-48371D01*
X89109Y-48559D02*
X89109Y-48165D01*
X89259Y-48165D01*
X89296Y-48184D01*
X89315Y-48203D01*
X89334Y-48240D01*
X89334Y-48296D01*
X89315Y-48334D01*
X89296Y-48353D01*
X89259Y-48371D01*
X89109Y-48371D01*
X89709Y-48559D02*
X89484Y-48559D01*
X89596Y-48559D02*
X89596Y-48165D01*
X89559Y-48221D01*
X89521Y-48259D01*
X89484Y-48278D01*
X96734Y-50821D02*
X96715Y-50840D01*
X96659Y-50859D01*
X96621Y-50859D01*
X96565Y-50840D01*
X96528Y-50803D01*
X96509Y-50765D01*
X96490Y-50690D01*
X96490Y-50634D01*
X96509Y-50559D01*
X96528Y-50521D01*
X96565Y-50484D01*
X96621Y-50465D01*
X96659Y-50465D01*
X96715Y-50484D01*
X96734Y-50503D01*
X97109Y-50859D02*
X96884Y-50859D01*
X96996Y-50859D02*
X96996Y-50465D01*
X96959Y-50521D01*
X96921Y-50559D01*
X96884Y-50578D01*
X97690Y-50859D02*
X97465Y-50859D01*
X97578Y-50859D02*
X97578Y-50465D01*
X97540Y-50521D01*
X97503Y-50559D01*
X97465Y-50578D01*
X97934Y-50465D02*
X97971Y-50465D01*
X98009Y-50484D01*
X98028Y-50503D01*
X98046Y-50540D01*
X98065Y-50615D01*
X98065Y-50709D01*
X98046Y-50784D01*
X98028Y-50821D01*
X98009Y-50840D01*
X97971Y-50859D01*
X97934Y-50859D01*
X97896Y-50840D01*
X97878Y-50821D01*
X97859Y-50784D01*
X97840Y-50709D01*
X97840Y-50615D01*
X97859Y-50540D01*
X97878Y-50503D01*
X97896Y-50484D01*
X97934Y-50465D01*
X98309Y-50465D02*
X98346Y-50465D01*
X98384Y-50484D01*
X98403Y-50503D01*
X98421Y-50540D01*
X98440Y-50615D01*
X98440Y-50709D01*
X98421Y-50784D01*
X98403Y-50821D01*
X98384Y-50840D01*
X98346Y-50859D01*
X98309Y-50859D01*
X98271Y-50840D01*
X98253Y-50821D01*
X98234Y-50784D01*
X98215Y-50709D01*
X98215Y-50615D01*
X98234Y-50540D01*
X98253Y-50503D01*
X98271Y-50484D01*
X98309Y-50465D01*
X98609Y-50596D02*
X98609Y-50859D01*
X98609Y-50634D02*
X98628Y-50615D01*
X98665Y-50596D01*
X98721Y-50596D01*
X98759Y-50615D01*
X98778Y-50653D01*
X98778Y-50859D01*
X99096Y-50653D02*
X98965Y-50653D01*
X98965Y-50859D02*
X98965Y-50465D01*
X99153Y-50465D01*
X91634Y-51521D02*
X91615Y-51540D01*
X91559Y-51559D01*
X91521Y-51559D01*
X91465Y-51540D01*
X91428Y-51503D01*
X91409Y-51465D01*
X91390Y-51390D01*
X91390Y-51334D01*
X91409Y-51259D01*
X91428Y-51221D01*
X91465Y-51184D01*
X91521Y-51165D01*
X91559Y-51165D01*
X91615Y-51184D01*
X91634Y-51203D01*
X91784Y-51203D02*
X91803Y-51184D01*
X91840Y-51165D01*
X91934Y-51165D01*
X91971Y-51184D01*
X91990Y-51203D01*
X92009Y-51240D01*
X92009Y-51278D01*
X91990Y-51334D01*
X91765Y-51559D01*
X92009Y-51559D01*
X90978Y-52259D02*
X90753Y-52259D01*
X90865Y-52259D02*
X90865Y-51865D01*
X90828Y-51921D01*
X90790Y-51959D01*
X90753Y-51978D01*
X91221Y-51865D02*
X91259Y-51865D01*
X91296Y-51884D01*
X91315Y-51903D01*
X91334Y-51940D01*
X91353Y-52015D01*
X91353Y-52109D01*
X91334Y-52184D01*
X91315Y-52221D01*
X91296Y-52240D01*
X91259Y-52259D01*
X91221Y-52259D01*
X91184Y-52240D01*
X91165Y-52221D01*
X91146Y-52184D01*
X91128Y-52109D01*
X91128Y-52015D01*
X91146Y-51940D01*
X91165Y-51903D01*
X91184Y-51884D01*
X91221Y-51865D01*
X91690Y-51996D02*
X91690Y-52259D01*
X91521Y-51996D02*
X91521Y-52203D01*
X91540Y-52240D01*
X91578Y-52259D01*
X91634Y-52259D01*
X91671Y-52240D01*
X91690Y-52221D01*
X92009Y-52053D02*
X91878Y-52053D01*
X91878Y-52259D02*
X91878Y-51865D01*
X92065Y-51865D01*
X87702Y-47601D02*
X87665Y-47583D01*
X87627Y-47545D01*
X87571Y-47489D01*
X87533Y-47470D01*
X87496Y-47470D01*
X87515Y-47564D02*
X87477Y-47545D01*
X87440Y-47508D01*
X87421Y-47433D01*
X87421Y-47301D01*
X87440Y-47226D01*
X87477Y-47189D01*
X87515Y-47170D01*
X87590Y-47170D01*
X87627Y-47189D01*
X87665Y-47226D01*
X87683Y-47301D01*
X87683Y-47433D01*
X87665Y-47508D01*
X87627Y-47545D01*
X87590Y-47564D01*
X87515Y-47564D01*
X88058Y-47564D02*
X87833Y-47564D01*
X87946Y-47564D02*
X87946Y-47170D01*
X87908Y-47226D01*
X87871Y-47264D01*
X87833Y-47283D01*
X98709Y-52859D02*
X98709Y-52465D01*
X98859Y-52465D01*
X98896Y-52484D01*
X98915Y-52503D01*
X98934Y-52540D01*
X98934Y-52596D01*
X98915Y-52634D01*
X98896Y-52653D01*
X98859Y-52671D01*
X98709Y-52671D01*
X99271Y-52465D02*
X99196Y-52465D01*
X99159Y-52484D01*
X99140Y-52503D01*
X99103Y-52559D01*
X99084Y-52634D01*
X99084Y-52784D01*
X99103Y-52821D01*
X99121Y-52840D01*
X99159Y-52859D01*
X99234Y-52859D01*
X99271Y-52840D01*
X99290Y-52821D01*
X99309Y-52784D01*
X99309Y-52690D01*
X99290Y-52653D01*
X99271Y-52634D01*
X99234Y-52615D01*
X99159Y-52615D01*
X99121Y-52634D01*
X99103Y-52653D01*
X99084Y-52690D01*
X94547Y-52859D02*
X94547Y-52465D01*
X94678Y-52746D01*
X94809Y-52465D01*
X94809Y-52859D01*
X95147Y-52840D02*
X95109Y-52859D01*
X95034Y-52859D01*
X94997Y-52840D01*
X94978Y-52803D01*
X94978Y-52653D01*
X94997Y-52615D01*
X95034Y-52596D01*
X95109Y-52596D01*
X95147Y-52615D01*
X95165Y-52653D01*
X95165Y-52690D01*
X94978Y-52728D01*
X95278Y-52596D02*
X95428Y-52596D01*
X95334Y-52465D02*
X95334Y-52803D01*
X95353Y-52840D01*
X95390Y-52859D01*
X95428Y-52859D01*
X95728Y-52859D02*
X95728Y-52653D01*
X95709Y-52615D01*
X95671Y-52596D01*
X95596Y-52596D01*
X95559Y-52615D01*
X95728Y-52840D02*
X95690Y-52859D01*
X95596Y-52859D01*
X95559Y-52840D01*
X95540Y-52803D01*
X95540Y-52765D01*
X95559Y-52728D01*
X95596Y-52709D01*
X95690Y-52709D01*
X95728Y-52690D01*
X95971Y-52859D02*
X95934Y-52840D01*
X95915Y-52803D01*
X95915Y-52465D01*
X96403Y-52840D02*
X96459Y-52859D01*
X96553Y-52859D01*
X96590Y-52840D01*
X96609Y-52821D01*
X96628Y-52784D01*
X96628Y-52746D01*
X96609Y-52709D01*
X96590Y-52690D01*
X96553Y-52671D01*
X96478Y-52653D01*
X96440Y-52634D01*
X96421Y-52615D01*
X96403Y-52578D01*
X96403Y-52540D01*
X96421Y-52503D01*
X96440Y-52484D01*
X96478Y-52465D01*
X96571Y-52465D01*
X96628Y-52484D01*
X96796Y-52859D02*
X96796Y-52465D01*
X96965Y-52859D02*
X96965Y-52653D01*
X96946Y-52615D01*
X96909Y-52596D01*
X96853Y-52596D01*
X96815Y-52615D01*
X96796Y-52634D01*
X97153Y-52859D02*
X97153Y-52596D01*
X97153Y-52465D02*
X97134Y-52484D01*
X97153Y-52503D01*
X97171Y-52484D01*
X97153Y-52465D01*
X97153Y-52503D01*
X97490Y-52840D02*
X97452Y-52859D01*
X97377Y-52859D01*
X97340Y-52840D01*
X97321Y-52803D01*
X97321Y-52653D01*
X97340Y-52615D01*
X97377Y-52596D01*
X97452Y-52596D01*
X97490Y-52615D01*
X97509Y-52653D01*
X97509Y-52690D01*
X97321Y-52728D01*
X97734Y-52859D02*
X97696Y-52840D01*
X97677Y-52803D01*
X97677Y-52465D01*
X98052Y-52859D02*
X98052Y-52465D01*
X98052Y-52840D02*
X98015Y-52859D01*
X97940Y-52859D01*
X97902Y-52840D01*
X97884Y-52821D01*
X97865Y-52784D01*
X97865Y-52671D01*
X97884Y-52634D01*
X97902Y-52615D01*
X97940Y-52596D01*
X98015Y-52596D01*
X98052Y-52615D01*
X92859Y-50290D02*
X92465Y-50290D01*
X92465Y-50140D01*
X92484Y-50103D01*
X92503Y-50084D01*
X92540Y-50065D01*
X92596Y-50065D01*
X92634Y-50084D01*
X92653Y-50103D01*
X92671Y-50140D01*
X92671Y-50290D01*
X92465Y-49709D02*
X92465Y-49896D01*
X92653Y-49915D01*
X92634Y-49896D01*
X92615Y-49859D01*
X92615Y-49765D01*
X92634Y-49728D01*
X92653Y-49709D01*
X92690Y-49690D01*
X92784Y-49690D01*
X92821Y-49709D01*
X92840Y-49728D01*
X92859Y-49765D01*
X92859Y-49859D01*
X92840Y-49896D01*
X92821Y-49915D01*
X91058Y-46349D02*
X91058Y-45955D01*
X91471Y-46349D02*
X91340Y-46161D01*
X91246Y-46349D02*
X91246Y-45955D01*
X91396Y-45955D01*
X91433Y-45974D01*
X91452Y-45993D01*
X91471Y-46030D01*
X91471Y-46086D01*
X91452Y-46124D01*
X91433Y-46143D01*
X91396Y-46161D01*
X91246Y-46161D01*
X92127Y-46349D02*
X91940Y-46349D01*
X91940Y-45955D01*
X92258Y-46143D02*
X92389Y-46143D01*
X92446Y-46349D02*
X92258Y-46349D01*
X92258Y-45955D01*
X92446Y-45955D01*
X92614Y-46349D02*
X92614Y-45955D01*
X92708Y-45955D01*
X92764Y-45974D01*
X92802Y-46011D01*
X92821Y-46049D01*
X92839Y-46124D01*
X92839Y-46180D01*
X92821Y-46255D01*
X92802Y-46293D01*
X92764Y-46330D01*
X92708Y-46349D01*
X92614Y-46349D01*
X90952Y-47265D02*
X90900Y-47265D01*
X90873Y-47284D01*
X90860Y-47303D01*
X90834Y-47359D01*
X90821Y-47434D01*
X90821Y-47584D01*
X90834Y-47621D01*
X90847Y-47640D01*
X90873Y-47659D01*
X90926Y-47659D01*
X90952Y-47640D01*
X90965Y-47621D01*
X90978Y-47584D01*
X90978Y-47490D01*
X90965Y-47453D01*
X90952Y-47434D01*
X90926Y-47415D01*
X90873Y-47415D01*
X90847Y-47434D01*
X90834Y-47453D01*
X90821Y-47490D01*
X90983Y-48259D02*
X90983Y-47865D01*
X91140Y-48259D01*
X91140Y-47865D01*
X91429Y-48221D02*
X91416Y-48240D01*
X91377Y-48259D01*
X91350Y-48259D01*
X91311Y-48240D01*
X91285Y-48203D01*
X91272Y-48165D01*
X91259Y-48090D01*
X91259Y-48034D01*
X91272Y-47959D01*
X91285Y-47921D01*
X91311Y-47884D01*
X91350Y-47865D01*
X91377Y-47865D01*
X91416Y-47884D01*
X91429Y-47903D01*
X90932Y-48665D02*
X91024Y-49059D01*
X91116Y-48665D01*
X91365Y-49021D02*
X91352Y-49040D01*
X91313Y-49059D01*
X91286Y-49059D01*
X91247Y-49040D01*
X91221Y-49003D01*
X91208Y-48965D01*
X91195Y-48890D01*
X91195Y-48834D01*
X91208Y-48759D01*
X91221Y-48721D01*
X91247Y-48684D01*
X91286Y-48665D01*
X91313Y-48665D01*
X91352Y-48684D01*
X91365Y-48703D01*
X91641Y-49021D02*
X91628Y-49040D01*
X91588Y-49059D01*
X91562Y-49059D01*
X91523Y-49040D01*
X91496Y-49003D01*
X91483Y-48965D01*
X91470Y-48890D01*
X91470Y-48834D01*
X91483Y-48759D01*
X91496Y-48721D01*
X91523Y-48684D01*
X91562Y-48665D01*
X91588Y-48665D01*
X91628Y-48684D01*
X91641Y-48703D01*
X91090Y-49384D02*
X91063Y-49365D01*
X91024Y-49365D01*
X90985Y-49384D01*
X90958Y-49421D01*
X90945Y-49459D01*
X90932Y-49534D01*
X90932Y-49590D01*
X90945Y-49665D01*
X90958Y-49703D01*
X90985Y-49740D01*
X91024Y-49759D01*
X91050Y-49759D01*
X91090Y-49740D01*
X91103Y-49721D01*
X91103Y-49590D01*
X91050Y-49590D01*
X91221Y-49759D02*
X91221Y-49365D01*
X91378Y-49759D01*
X91378Y-49365D01*
X91509Y-49759D02*
X91509Y-49365D01*
X91575Y-49365D01*
X91614Y-49384D01*
X91641Y-49421D01*
X91654Y-49459D01*
X91667Y-49534D01*
X91667Y-49590D01*
X91654Y-49665D01*
X91641Y-49703D01*
X91614Y-49740D01*
X91575Y-49759D01*
X91509Y-49759D01*
X100909Y-60159D02*
X100909Y-59765D01*
X101059Y-59765D01*
X101096Y-59784D01*
X101115Y-59803D01*
X101134Y-59840D01*
X101134Y-59896D01*
X101115Y-59934D01*
X101096Y-59953D01*
X101059Y-59971D01*
X100909Y-59971D01*
X101471Y-59896D02*
X101471Y-60159D01*
X101378Y-59746D02*
X101284Y-60028D01*
X101528Y-60028D01*
X97054Y-60126D02*
X97035Y-60164D01*
X97035Y-60220D01*
X97054Y-60276D01*
X97091Y-60314D01*
X97129Y-60333D01*
X97204Y-60351D01*
X97260Y-60351D01*
X97335Y-60333D01*
X97373Y-60314D01*
X97410Y-60276D01*
X97429Y-60220D01*
X97429Y-60183D01*
X97410Y-60126D01*
X97391Y-60108D01*
X97260Y-60108D01*
X97260Y-60183D01*
X97429Y-59714D02*
X97241Y-59845D01*
X97429Y-59939D02*
X97035Y-59939D01*
X97035Y-59789D01*
X97054Y-59751D01*
X97073Y-59733D01*
X97110Y-59714D01*
X97166Y-59714D01*
X97204Y-59733D01*
X97223Y-59751D01*
X97241Y-59789D01*
X97241Y-59939D01*
X97035Y-59470D02*
X97035Y-59395D01*
X97054Y-59358D01*
X97091Y-59320D01*
X97166Y-59301D01*
X97298Y-59301D01*
X97373Y-59320D01*
X97410Y-59358D01*
X97429Y-59395D01*
X97429Y-59470D01*
X97410Y-59508D01*
X97373Y-59545D01*
X97298Y-59564D01*
X97166Y-59564D01*
X97091Y-59545D01*
X97054Y-59508D01*
X97035Y-59470D01*
X97035Y-59189D02*
X97429Y-59058D01*
X97035Y-58926D01*
X97223Y-58795D02*
X97223Y-58664D01*
X97429Y-58608D02*
X97429Y-58795D01*
X97035Y-58795D01*
X97035Y-58608D01*
X98203Y-60778D02*
X98184Y-60765D01*
X98165Y-60739D01*
X98165Y-60673D01*
X98184Y-60647D01*
X98203Y-60634D01*
X98240Y-60621D01*
X98278Y-60621D01*
X98334Y-60634D01*
X98559Y-60791D01*
X98559Y-60621D01*
X99459Y-60916D02*
X99065Y-60916D01*
X99459Y-60759D01*
X99065Y-60759D01*
X99421Y-60470D02*
X99440Y-60483D01*
X99459Y-60522D01*
X99459Y-60549D01*
X99440Y-60588D01*
X99403Y-60614D01*
X99365Y-60627D01*
X99290Y-60640D01*
X99234Y-60640D01*
X99159Y-60627D01*
X99121Y-60614D01*
X99084Y-60588D01*
X99065Y-60549D01*
X99065Y-60522D01*
X99084Y-60483D01*
X99103Y-60470D01*
X99865Y-60967D02*
X100259Y-60875D01*
X99865Y-60783D01*
X100221Y-60534D02*
X100240Y-60547D01*
X100259Y-60586D01*
X100259Y-60613D01*
X100240Y-60652D01*
X100203Y-60678D01*
X100165Y-60691D01*
X100090Y-60704D01*
X100034Y-60704D01*
X99959Y-60691D01*
X99921Y-60678D01*
X99884Y-60652D01*
X99865Y-60613D01*
X99865Y-60586D01*
X99884Y-60547D01*
X99903Y-60534D01*
X100221Y-60258D02*
X100240Y-60271D01*
X100259Y-60311D01*
X100259Y-60337D01*
X100240Y-60376D01*
X100203Y-60403D01*
X100165Y-60416D01*
X100090Y-60429D01*
X100034Y-60429D01*
X99959Y-60416D01*
X99921Y-60403D01*
X99884Y-60376D01*
X99865Y-60337D01*
X99865Y-60311D01*
X99884Y-60271D01*
X99903Y-60258D01*
X100684Y-60809D02*
X100665Y-60836D01*
X100665Y-60875D01*
X100684Y-60914D01*
X100721Y-60941D01*
X100759Y-60954D01*
X100834Y-60967D01*
X100890Y-60967D01*
X100965Y-60954D01*
X101003Y-60941D01*
X101040Y-60914D01*
X101059Y-60875D01*
X101059Y-60849D01*
X101040Y-60809D01*
X101021Y-60796D01*
X100890Y-60796D01*
X100890Y-60849D01*
X101059Y-60678D02*
X100665Y-60678D01*
X101059Y-60521D01*
X100665Y-60521D01*
X101059Y-60390D02*
X100665Y-60390D01*
X100665Y-60324D01*
X100684Y-60285D01*
X100721Y-60258D01*
X100759Y-60245D01*
X100834Y-60232D01*
X100890Y-60232D01*
X100965Y-60245D01*
X101003Y-60258D01*
X101040Y-60285D01*
X101059Y-60324D01*
X101059Y-60390D01*
X98459Y-50290D02*
X98065Y-50290D01*
X98065Y-50140D01*
X98084Y-50103D01*
X98103Y-50084D01*
X98140Y-50065D01*
X98196Y-50065D01*
X98234Y-50084D01*
X98253Y-50103D01*
X98271Y-50140D01*
X98271Y-50290D01*
X98065Y-49934D02*
X98065Y-49690D01*
X98215Y-49821D01*
X98215Y-49765D01*
X98234Y-49728D01*
X98253Y-49709D01*
X98290Y-49690D01*
X98384Y-49690D01*
X98421Y-49709D01*
X98440Y-49728D01*
X98459Y-49765D01*
X98459Y-49878D01*
X98440Y-49915D01*
X98421Y-49934D01*
X96626Y-46369D02*
X96495Y-46181D01*
X96401Y-46369D02*
X96401Y-45975D01*
X96551Y-45975D01*
X96588Y-45994D01*
X96607Y-46013D01*
X96626Y-46050D01*
X96626Y-46106D01*
X96607Y-46144D01*
X96588Y-46163D01*
X96551Y-46181D01*
X96401Y-46181D01*
X97001Y-45994D02*
X96963Y-45975D01*
X96907Y-45975D01*
X96851Y-45994D01*
X96813Y-46031D01*
X96795Y-46069D01*
X96776Y-46144D01*
X96776Y-46200D01*
X96795Y-46275D01*
X96813Y-46313D01*
X96851Y-46350D01*
X96907Y-46369D01*
X96945Y-46369D01*
X97001Y-46350D01*
X97020Y-46331D01*
X97020Y-46200D01*
X96945Y-46200D01*
X97320Y-46163D02*
X97376Y-46181D01*
X97395Y-46200D01*
X97413Y-46238D01*
X97413Y-46294D01*
X97395Y-46331D01*
X97376Y-46350D01*
X97338Y-46369D01*
X97188Y-46369D01*
X97188Y-45975D01*
X97320Y-45975D01*
X97357Y-45994D01*
X97376Y-46013D01*
X97395Y-46050D01*
X97395Y-46088D01*
X97376Y-46125D01*
X97357Y-46144D01*
X97320Y-46163D01*
X97188Y-46163D01*
X97882Y-46369D02*
X97882Y-45975D01*
X97882Y-46163D02*
X98107Y-46163D01*
X98107Y-46369D02*
X98107Y-45975D01*
X98294Y-46163D02*
X98426Y-46163D01*
X98482Y-46369D02*
X98294Y-46369D01*
X98294Y-45975D01*
X98482Y-45975D01*
X98613Y-45975D02*
X98876Y-46369D01*
X98876Y-45975D02*
X98613Y-46369D01*
X95971Y-47440D02*
X96011Y-47459D01*
X96076Y-47459D01*
X96103Y-47440D01*
X96116Y-47421D01*
X96129Y-47384D01*
X96129Y-47346D01*
X96116Y-47309D01*
X96103Y-47290D01*
X96076Y-47271D01*
X96024Y-47253D01*
X95998Y-47234D01*
X95985Y-47215D01*
X95971Y-47178D01*
X95971Y-47140D01*
X95985Y-47103D01*
X95998Y-47084D01*
X96024Y-47065D01*
X96090Y-47065D01*
X96129Y-47084D01*
X96404Y-47421D02*
X96391Y-47440D01*
X96352Y-47459D01*
X96326Y-47459D01*
X96286Y-47440D01*
X96260Y-47403D01*
X96247Y-47365D01*
X96234Y-47290D01*
X96234Y-47234D01*
X96247Y-47159D01*
X96260Y-47121D01*
X96286Y-47084D01*
X96326Y-47065D01*
X96352Y-47065D01*
X96391Y-47084D01*
X96404Y-47103D01*
X96654Y-47459D02*
X96523Y-47459D01*
X96523Y-47065D01*
X95965Y-48240D02*
X96004Y-48259D01*
X96070Y-48259D01*
X96096Y-48240D01*
X96109Y-48221D01*
X96122Y-48184D01*
X96122Y-48146D01*
X96109Y-48109D01*
X96096Y-48090D01*
X96070Y-48071D01*
X96017Y-48053D01*
X95991Y-48034D01*
X95978Y-48015D01*
X95965Y-47978D01*
X95965Y-47940D01*
X95978Y-47903D01*
X95991Y-47884D01*
X96017Y-47865D01*
X96083Y-47865D01*
X96122Y-47884D01*
X96240Y-48259D02*
X96240Y-47865D01*
X96306Y-47865D01*
X96345Y-47884D01*
X96372Y-47921D01*
X96385Y-47959D01*
X96398Y-48034D01*
X96398Y-48090D01*
X96385Y-48165D01*
X96372Y-48203D01*
X96345Y-48240D01*
X96306Y-48259D01*
X96240Y-48259D01*
X96503Y-48146D02*
X96634Y-48146D01*
X96477Y-48259D02*
X96569Y-47865D01*
X96660Y-48259D01*
X95932Y-48665D02*
X96024Y-49059D01*
X96116Y-48665D01*
X96365Y-49021D02*
X96352Y-49040D01*
X96313Y-49059D01*
X96286Y-49059D01*
X96247Y-49040D01*
X96221Y-49003D01*
X96208Y-48965D01*
X96195Y-48890D01*
X96195Y-48834D01*
X96208Y-48759D01*
X96221Y-48721D01*
X96247Y-48684D01*
X96286Y-48665D01*
X96313Y-48665D01*
X96352Y-48684D01*
X96365Y-48703D01*
X96641Y-49021D02*
X96628Y-49040D01*
X96588Y-49059D01*
X96562Y-49059D01*
X96523Y-49040D01*
X96496Y-49003D01*
X96483Y-48965D01*
X96470Y-48890D01*
X96470Y-48834D01*
X96483Y-48759D01*
X96496Y-48721D01*
X96523Y-48684D01*
X96562Y-48665D01*
X96588Y-48665D01*
X96628Y-48684D01*
X96641Y-48703D01*
X96090Y-49484D02*
X96063Y-49465D01*
X96024Y-49465D01*
X95985Y-49484D01*
X95958Y-49521D01*
X95945Y-49559D01*
X95932Y-49634D01*
X95932Y-49690D01*
X95945Y-49765D01*
X95958Y-49803D01*
X95985Y-49840D01*
X96024Y-49859D01*
X96050Y-49859D01*
X96090Y-49840D01*
X96103Y-49821D01*
X96103Y-49690D01*
X96050Y-49690D01*
X96221Y-49859D02*
X96221Y-49465D01*
X96378Y-49859D01*
X96378Y-49465D01*
X96509Y-49859D02*
X96509Y-49465D01*
X96575Y-49465D01*
X96614Y-49484D01*
X96641Y-49521D01*
X96654Y-49559D01*
X96667Y-49634D01*
X96667Y-49690D01*
X96654Y-49765D01*
X96641Y-49803D01*
X96614Y-49840D01*
X96575Y-49859D01*
X96509Y-49859D01*
X96209Y-60059D02*
X96209Y-59665D01*
X96359Y-59665D01*
X96396Y-59684D01*
X96415Y-59703D01*
X96434Y-59740D01*
X96434Y-59796D01*
X96415Y-59834D01*
X96396Y-59853D01*
X96359Y-59871D01*
X96209Y-59871D01*
X96584Y-59703D02*
X96603Y-59684D01*
X96640Y-59665D01*
X96734Y-59665D01*
X96771Y-59684D01*
X96790Y-59703D01*
X96809Y-59740D01*
X96809Y-59778D01*
X96790Y-59834D01*
X96565Y-60059D01*
X96809Y-60059D01*
X92473Y-60211D02*
X92491Y-60154D01*
X92510Y-60136D01*
X92548Y-60117D01*
X92604Y-60117D01*
X92641Y-60136D01*
X92660Y-60154D01*
X92679Y-60192D01*
X92679Y-60342D01*
X92285Y-60342D01*
X92285Y-60211D01*
X92304Y-60173D01*
X92323Y-60154D01*
X92360Y-60136D01*
X92398Y-60136D01*
X92435Y-60154D01*
X92454Y-60173D01*
X92473Y-60211D01*
X92473Y-60342D01*
X92416Y-59779D02*
X92679Y-59779D01*
X92416Y-59948D02*
X92623Y-59948D01*
X92660Y-59929D01*
X92679Y-59892D01*
X92679Y-59836D01*
X92660Y-59798D01*
X92641Y-59779D01*
X92416Y-59648D02*
X92416Y-59498D01*
X92285Y-59592D02*
X92623Y-59592D01*
X92660Y-59573D01*
X92679Y-59536D01*
X92679Y-59498D01*
X92416Y-59423D02*
X92416Y-59273D01*
X92285Y-59367D02*
X92623Y-59367D01*
X92660Y-59348D01*
X92679Y-59311D01*
X92679Y-59273D01*
X92679Y-59086D02*
X92660Y-59123D01*
X92641Y-59142D01*
X92604Y-59161D01*
X92491Y-59161D01*
X92454Y-59142D01*
X92435Y-59123D01*
X92416Y-59086D01*
X92416Y-59030D01*
X92435Y-58992D01*
X92454Y-58973D01*
X92491Y-58955D01*
X92604Y-58955D01*
X92641Y-58973D01*
X92660Y-58992D01*
X92679Y-59030D01*
X92679Y-59086D01*
X92416Y-58786D02*
X92679Y-58786D01*
X92454Y-58786D02*
X92435Y-58767D01*
X92416Y-58730D01*
X92416Y-58673D01*
X92435Y-58636D01*
X92473Y-58617D01*
X92679Y-58617D01*
X93696Y-60647D02*
X93959Y-60647D01*
X93546Y-60713D02*
X93828Y-60778D01*
X93828Y-60608D01*
X94659Y-60916D02*
X94265Y-60916D01*
X94659Y-60759D01*
X94265Y-60759D01*
X94621Y-60470D02*
X94640Y-60483D01*
X94659Y-60522D01*
X94659Y-60549D01*
X94640Y-60588D01*
X94603Y-60614D01*
X94565Y-60627D01*
X94490Y-60640D01*
X94434Y-60640D01*
X94359Y-60627D01*
X94321Y-60614D01*
X94284Y-60588D01*
X94265Y-60549D01*
X94265Y-60522D01*
X94284Y-60483D01*
X94303Y-60470D01*
X95165Y-60967D02*
X95559Y-60875D01*
X95165Y-60783D01*
X95521Y-60534D02*
X95540Y-60547D01*
X95559Y-60586D01*
X95559Y-60613D01*
X95540Y-60652D01*
X95503Y-60678D01*
X95465Y-60691D01*
X95390Y-60704D01*
X95334Y-60704D01*
X95259Y-60691D01*
X95221Y-60678D01*
X95184Y-60652D01*
X95165Y-60613D01*
X95165Y-60586D01*
X95184Y-60547D01*
X95203Y-60534D01*
X95521Y-60258D02*
X95540Y-60271D01*
X95559Y-60311D01*
X95559Y-60337D01*
X95540Y-60376D01*
X95503Y-60403D01*
X95465Y-60416D01*
X95390Y-60429D01*
X95334Y-60429D01*
X95259Y-60416D01*
X95221Y-60403D01*
X95184Y-60376D01*
X95165Y-60337D01*
X95165Y-60311D01*
X95184Y-60271D01*
X95203Y-60258D01*
X95884Y-60809D02*
X95865Y-60836D01*
X95865Y-60875D01*
X95884Y-60914D01*
X95921Y-60941D01*
X95959Y-60954D01*
X96034Y-60967D01*
X96090Y-60967D01*
X96165Y-60954D01*
X96203Y-60941D01*
X96240Y-60914D01*
X96259Y-60875D01*
X96259Y-60849D01*
X96240Y-60809D01*
X96221Y-60796D01*
X96090Y-60796D01*
X96090Y-60849D01*
X96259Y-60678D02*
X95865Y-60678D01*
X96259Y-60521D01*
X95865Y-60521D01*
X96259Y-60390D02*
X95865Y-60390D01*
X95865Y-60324D01*
X95884Y-60285D01*
X95921Y-60258D01*
X95959Y-60245D01*
X96034Y-60232D01*
X96090Y-60232D01*
X96165Y-60245D01*
X96203Y-60258D01*
X96240Y-60285D01*
X96259Y-60324D01*
X96259Y-60390D01*
X95559Y-50290D02*
X95165Y-50290D01*
X95165Y-50140D01*
X95184Y-50103D01*
X95203Y-50084D01*
X95240Y-50065D01*
X95296Y-50065D01*
X95334Y-50084D01*
X95353Y-50103D01*
X95371Y-50140D01*
X95371Y-50290D01*
X95559Y-49690D02*
X95559Y-49915D01*
X95559Y-49803D02*
X95165Y-49803D01*
X95221Y-49840D01*
X95259Y-49878D01*
X95278Y-49915D01*
X93878Y-46339D02*
X93878Y-45945D01*
X94291Y-46339D02*
X94160Y-46151D01*
X94066Y-46339D02*
X94066Y-45945D01*
X94216Y-45945D01*
X94253Y-45964D01*
X94272Y-45983D01*
X94291Y-46020D01*
X94291Y-46076D01*
X94272Y-46114D01*
X94253Y-46133D01*
X94216Y-46151D01*
X94066Y-46151D01*
X94984Y-46339D02*
X94853Y-46151D01*
X94760Y-46339D02*
X94760Y-45945D01*
X94909Y-45945D01*
X94947Y-45964D01*
X94966Y-45983D01*
X94984Y-46020D01*
X94984Y-46076D01*
X94966Y-46114D01*
X94947Y-46133D01*
X94909Y-46151D01*
X94760Y-46151D01*
X95303Y-46320D02*
X95266Y-46339D01*
X95191Y-46339D01*
X95153Y-46320D01*
X95134Y-46283D01*
X95134Y-46133D01*
X95153Y-46095D01*
X95191Y-46076D01*
X95266Y-46076D01*
X95303Y-46095D01*
X95322Y-46133D01*
X95322Y-46170D01*
X95134Y-46208D01*
X95659Y-46320D02*
X95622Y-46339D01*
X95547Y-46339D01*
X95509Y-46320D01*
X95491Y-46301D01*
X95472Y-46264D01*
X95472Y-46151D01*
X95491Y-46114D01*
X95509Y-46095D01*
X95547Y-46076D01*
X95622Y-46076D01*
X95659Y-46095D01*
X93308Y-47065D02*
X93478Y-47065D01*
X93386Y-47215D01*
X93426Y-47215D01*
X93452Y-47234D01*
X93465Y-47253D01*
X93478Y-47290D01*
X93478Y-47384D01*
X93465Y-47421D01*
X93452Y-47440D01*
X93426Y-47459D01*
X93347Y-47459D01*
X93321Y-47440D01*
X93308Y-47421D01*
X93183Y-48259D02*
X93183Y-47865D01*
X93340Y-48259D01*
X93340Y-47865D01*
X93629Y-48221D02*
X93616Y-48240D01*
X93577Y-48259D01*
X93550Y-48259D01*
X93511Y-48240D01*
X93485Y-48203D01*
X93472Y-48165D01*
X93459Y-48090D01*
X93459Y-48034D01*
X93472Y-47959D01*
X93485Y-47921D01*
X93511Y-47884D01*
X93550Y-47865D01*
X93577Y-47865D01*
X93616Y-47884D01*
X93629Y-47903D01*
X93132Y-48565D02*
X93224Y-48959D01*
X93316Y-48565D01*
X93565Y-48921D02*
X93552Y-48940D01*
X93513Y-48959D01*
X93486Y-48959D01*
X93447Y-48940D01*
X93421Y-48903D01*
X93408Y-48865D01*
X93395Y-48790D01*
X93395Y-48734D01*
X93408Y-48659D01*
X93421Y-48621D01*
X93447Y-48584D01*
X93486Y-48565D01*
X93513Y-48565D01*
X93552Y-48584D01*
X93565Y-48603D01*
X93841Y-48921D02*
X93828Y-48940D01*
X93788Y-48959D01*
X93762Y-48959D01*
X93723Y-48940D01*
X93696Y-48903D01*
X93683Y-48865D01*
X93670Y-48790D01*
X93670Y-48734D01*
X93683Y-48659D01*
X93696Y-48621D01*
X93723Y-48584D01*
X93762Y-48565D01*
X93788Y-48565D01*
X93828Y-48584D01*
X93841Y-48603D01*
X93290Y-49384D02*
X93263Y-49365D01*
X93224Y-49365D01*
X93185Y-49384D01*
X93158Y-49421D01*
X93145Y-49459D01*
X93132Y-49534D01*
X93132Y-49590D01*
X93145Y-49665D01*
X93158Y-49703D01*
X93185Y-49740D01*
X93224Y-49759D01*
X93250Y-49759D01*
X93290Y-49740D01*
X93303Y-49721D01*
X93303Y-49590D01*
X93250Y-49590D01*
X93421Y-49759D02*
X93421Y-49365D01*
X93578Y-49759D01*
X93578Y-49365D01*
X93709Y-49759D02*
X93709Y-49365D01*
X93775Y-49365D01*
X93814Y-49384D01*
X93841Y-49421D01*
X93854Y-49459D01*
X93867Y-49534D01*
X93867Y-49590D01*
X93854Y-49665D01*
X93841Y-49703D01*
X93814Y-49740D01*
X93775Y-49759D01*
X93709Y-49759D01*
M02*
