G04 (created by PCBNEW-RS274X (2011-07-08 BZR 3044)-stable) date 5/4/2013 3:49:39 PM*
G01*
G70*
G90*
%MOIN*%
G04 Gerber Fmt 3.4, Leading zero omitted, Abs format*
%FSLAX34Y34*%
G04 APERTURE LIST*
%ADD10C,0.006000*%
%ADD11C,0.008000*%
%ADD12C,0.003000*%
%ADD13C,0.010000*%
%ADD14C,0.003500*%
G04 APERTURE END LIST*
G54D10*
G54D11*
X51931Y-30648D02*
X50431Y-30648D01*
G54D12*
X51888Y-29628D02*
X51874Y-29765D01*
X51834Y-29897D01*
X51769Y-30019D01*
X51682Y-30126D01*
X51576Y-30214D01*
X51454Y-30279D01*
X51323Y-30320D01*
X51185Y-30334D01*
X51049Y-30322D01*
X50917Y-30283D01*
X50794Y-30219D01*
X50687Y-30133D01*
X50598Y-30027D01*
X50532Y-29906D01*
X50490Y-29774D01*
X50475Y-29637D01*
X50486Y-29501D01*
X50524Y-29368D01*
X50587Y-29246D01*
X50673Y-29137D01*
X50778Y-29048D01*
X50898Y-28981D01*
X51030Y-28938D01*
X51167Y-28922D01*
X51303Y-28932D01*
X51436Y-28969D01*
X51559Y-29032D01*
X51668Y-29117D01*
X51758Y-29221D01*
X51826Y-29341D01*
X51870Y-29472D01*
X51887Y-29609D01*
X51888Y-29628D01*
G54D13*
X51931Y-30627D02*
X52015Y-30558D01*
X52093Y-30482D01*
X52164Y-30399D01*
X52228Y-30310D01*
X52283Y-30216D01*
X52330Y-30118D01*
X52369Y-30016D01*
X52398Y-29911D01*
X52418Y-29804D01*
X52429Y-29695D01*
X52430Y-29587D01*
X52421Y-29478D01*
X52404Y-29371D01*
X52377Y-29265D01*
X52340Y-29162D01*
X52295Y-29063D01*
X52242Y-28968D01*
X52180Y-28878D01*
X52111Y-28794D01*
X52035Y-28716D01*
X51952Y-28645D01*
X51863Y-28581D01*
X51769Y-28526D01*
X51671Y-28479D01*
X51569Y-28440D01*
X51464Y-28411D01*
X51357Y-28391D01*
X51248Y-28380D01*
X51140Y-28379D01*
X51031Y-28388D01*
X50924Y-28405D01*
X50818Y-28432D01*
X50715Y-28469D01*
X50616Y-28514D01*
X50521Y-28567D01*
X50431Y-28629D01*
X50347Y-28698D01*
X50269Y-28774D01*
X50198Y-28857D01*
X50134Y-28946D01*
X50079Y-29040D01*
X50032Y-29138D01*
X49993Y-29240D01*
X49964Y-29345D01*
X49944Y-29452D01*
X49933Y-29561D01*
X49932Y-29669D01*
X49941Y-29778D01*
X49958Y-29885D01*
X49985Y-29991D01*
X50022Y-30094D01*
X50067Y-30193D01*
X50120Y-30288D01*
X50182Y-30378D01*
X50251Y-30462D01*
X50327Y-30540D01*
X50410Y-30611D01*
X50431Y-30627D01*
G54D10*
X51181Y-29178D02*
X51142Y-29180D01*
X51103Y-29185D01*
X51065Y-29194D01*
X51028Y-29206D01*
X50991Y-29221D01*
X50957Y-29239D01*
X50923Y-29260D01*
X50892Y-29284D01*
X50863Y-29310D01*
X50837Y-29339D01*
X50813Y-29370D01*
X50792Y-29404D01*
X50774Y-29438D01*
X50759Y-29475D01*
X50747Y-29512D01*
X50738Y-29550D01*
X50733Y-29589D01*
X50731Y-29628D01*
X51181Y-30078D02*
X51220Y-30076D01*
X51259Y-30071D01*
X51297Y-30062D01*
X51334Y-30050D01*
X51371Y-30035D01*
X51406Y-30017D01*
X51439Y-29996D01*
X51470Y-29972D01*
X51499Y-29946D01*
X51525Y-29917D01*
X51549Y-29886D01*
X51570Y-29852D01*
X51588Y-29818D01*
X51603Y-29781D01*
X51615Y-29744D01*
X51624Y-29706D01*
X51629Y-29667D01*
X51631Y-29628D01*
X51181Y-28978D02*
X51125Y-28981D01*
X51069Y-28988D01*
X51013Y-29001D01*
X50959Y-29018D01*
X50907Y-29039D01*
X50857Y-29066D01*
X50809Y-29096D01*
X50764Y-29131D01*
X50722Y-29169D01*
X50684Y-29211D01*
X50649Y-29256D01*
X50619Y-29304D01*
X50592Y-29354D01*
X50571Y-29406D01*
X50554Y-29460D01*
X50541Y-29516D01*
X50534Y-29572D01*
X50531Y-29628D01*
X51181Y-30278D02*
X51237Y-30275D01*
X51293Y-30268D01*
X51349Y-30255D01*
X51403Y-30238D01*
X51455Y-30217D01*
X51506Y-30190D01*
X51553Y-30160D01*
X51598Y-30125D01*
X51640Y-30087D01*
X51678Y-30045D01*
X51713Y-30000D01*
X51743Y-29952D01*
X51770Y-29902D01*
X51791Y-29850D01*
X51808Y-29796D01*
X51821Y-29740D01*
X51828Y-29684D01*
X51831Y-29628D01*
X51181Y-28778D02*
X51107Y-28782D01*
X51034Y-28791D01*
X50962Y-28807D01*
X50891Y-28830D01*
X50822Y-28858D01*
X50757Y-28892D01*
X50694Y-28932D01*
X50635Y-28977D01*
X50580Y-29027D01*
X50530Y-29082D01*
X50485Y-29141D01*
X50445Y-29204D01*
X50411Y-29269D01*
X50383Y-29338D01*
X50360Y-29409D01*
X50344Y-29481D01*
X50335Y-29554D01*
X50331Y-29628D01*
X51181Y-30478D02*
X51255Y-30474D01*
X51328Y-30465D01*
X51400Y-30449D01*
X51471Y-30426D01*
X51540Y-30398D01*
X51606Y-30364D01*
X51668Y-30324D01*
X51727Y-30279D01*
X51782Y-30229D01*
X51832Y-30174D01*
X51877Y-30115D01*
X51917Y-30052D01*
X51951Y-29987D01*
X51979Y-29918D01*
X52002Y-29847D01*
X52018Y-29775D01*
X52027Y-29702D01*
X52031Y-29628D01*
G54D11*
X54687Y-30648D02*
X53187Y-30648D01*
G54D12*
X54644Y-29628D02*
X54630Y-29765D01*
X54590Y-29897D01*
X54525Y-30019D01*
X54438Y-30126D01*
X54332Y-30214D01*
X54210Y-30279D01*
X54079Y-30320D01*
X53941Y-30334D01*
X53805Y-30322D01*
X53673Y-30283D01*
X53550Y-30219D01*
X53443Y-30133D01*
X53354Y-30027D01*
X53288Y-29906D01*
X53246Y-29774D01*
X53231Y-29637D01*
X53242Y-29501D01*
X53280Y-29368D01*
X53343Y-29246D01*
X53429Y-29137D01*
X53534Y-29048D01*
X53654Y-28981D01*
X53786Y-28938D01*
X53923Y-28922D01*
X54059Y-28932D01*
X54192Y-28969D01*
X54315Y-29032D01*
X54424Y-29117D01*
X54514Y-29221D01*
X54582Y-29341D01*
X54626Y-29472D01*
X54643Y-29609D01*
X54644Y-29628D01*
G54D13*
X54687Y-30627D02*
X54771Y-30558D01*
X54849Y-30482D01*
X54920Y-30399D01*
X54984Y-30310D01*
X55039Y-30216D01*
X55086Y-30118D01*
X55125Y-30016D01*
X55154Y-29911D01*
X55174Y-29804D01*
X55185Y-29695D01*
X55186Y-29587D01*
X55177Y-29478D01*
X55160Y-29371D01*
X55133Y-29265D01*
X55096Y-29162D01*
X55051Y-29063D01*
X54998Y-28968D01*
X54936Y-28878D01*
X54867Y-28794D01*
X54791Y-28716D01*
X54708Y-28645D01*
X54619Y-28581D01*
X54525Y-28526D01*
X54427Y-28479D01*
X54325Y-28440D01*
X54220Y-28411D01*
X54113Y-28391D01*
X54004Y-28380D01*
X53896Y-28379D01*
X53787Y-28388D01*
X53680Y-28405D01*
X53574Y-28432D01*
X53471Y-28469D01*
X53372Y-28514D01*
X53277Y-28567D01*
X53187Y-28629D01*
X53103Y-28698D01*
X53025Y-28774D01*
X52954Y-28857D01*
X52890Y-28946D01*
X52835Y-29040D01*
X52788Y-29138D01*
X52749Y-29240D01*
X52720Y-29345D01*
X52700Y-29452D01*
X52689Y-29561D01*
X52688Y-29669D01*
X52697Y-29778D01*
X52714Y-29885D01*
X52741Y-29991D01*
X52778Y-30094D01*
X52823Y-30193D01*
X52876Y-30288D01*
X52938Y-30378D01*
X53007Y-30462D01*
X53083Y-30540D01*
X53166Y-30611D01*
X53187Y-30627D01*
G54D10*
X53937Y-29178D02*
X53898Y-29180D01*
X53859Y-29185D01*
X53821Y-29194D01*
X53784Y-29206D01*
X53747Y-29221D01*
X53713Y-29239D01*
X53679Y-29260D01*
X53648Y-29284D01*
X53619Y-29310D01*
X53593Y-29339D01*
X53569Y-29370D01*
X53548Y-29404D01*
X53530Y-29438D01*
X53515Y-29475D01*
X53503Y-29512D01*
X53494Y-29550D01*
X53489Y-29589D01*
X53487Y-29628D01*
X53937Y-30078D02*
X53976Y-30076D01*
X54015Y-30071D01*
X54053Y-30062D01*
X54090Y-30050D01*
X54127Y-30035D01*
X54162Y-30017D01*
X54195Y-29996D01*
X54226Y-29972D01*
X54255Y-29946D01*
X54281Y-29917D01*
X54305Y-29886D01*
X54326Y-29852D01*
X54344Y-29818D01*
X54359Y-29781D01*
X54371Y-29744D01*
X54380Y-29706D01*
X54385Y-29667D01*
X54387Y-29628D01*
X53937Y-28978D02*
X53881Y-28981D01*
X53825Y-28988D01*
X53769Y-29001D01*
X53715Y-29018D01*
X53663Y-29039D01*
X53613Y-29066D01*
X53565Y-29096D01*
X53520Y-29131D01*
X53478Y-29169D01*
X53440Y-29211D01*
X53405Y-29256D01*
X53375Y-29304D01*
X53348Y-29354D01*
X53327Y-29406D01*
X53310Y-29460D01*
X53297Y-29516D01*
X53290Y-29572D01*
X53287Y-29628D01*
X53937Y-30278D02*
X53993Y-30275D01*
X54049Y-30268D01*
X54105Y-30255D01*
X54159Y-30238D01*
X54211Y-30217D01*
X54262Y-30190D01*
X54309Y-30160D01*
X54354Y-30125D01*
X54396Y-30087D01*
X54434Y-30045D01*
X54469Y-30000D01*
X54499Y-29952D01*
X54526Y-29902D01*
X54547Y-29850D01*
X54564Y-29796D01*
X54577Y-29740D01*
X54584Y-29684D01*
X54587Y-29628D01*
X53937Y-28778D02*
X53863Y-28782D01*
X53790Y-28791D01*
X53718Y-28807D01*
X53647Y-28830D01*
X53578Y-28858D01*
X53513Y-28892D01*
X53450Y-28932D01*
X53391Y-28977D01*
X53336Y-29027D01*
X53286Y-29082D01*
X53241Y-29141D01*
X53201Y-29204D01*
X53167Y-29269D01*
X53139Y-29338D01*
X53116Y-29409D01*
X53100Y-29481D01*
X53091Y-29554D01*
X53087Y-29628D01*
X53937Y-30478D02*
X54011Y-30474D01*
X54084Y-30465D01*
X54156Y-30449D01*
X54227Y-30426D01*
X54296Y-30398D01*
X54362Y-30364D01*
X54424Y-30324D01*
X54483Y-30279D01*
X54538Y-30229D01*
X54588Y-30174D01*
X54633Y-30115D01*
X54673Y-30052D01*
X54707Y-29987D01*
X54735Y-29918D01*
X54758Y-29847D01*
X54774Y-29775D01*
X54783Y-29702D01*
X54787Y-29628D01*
G54D11*
X57443Y-30648D02*
X55943Y-30648D01*
G54D12*
X57400Y-29628D02*
X57386Y-29765D01*
X57346Y-29897D01*
X57281Y-30019D01*
X57194Y-30126D01*
X57088Y-30214D01*
X56966Y-30279D01*
X56835Y-30320D01*
X56697Y-30334D01*
X56561Y-30322D01*
X56429Y-30283D01*
X56306Y-30219D01*
X56199Y-30133D01*
X56110Y-30027D01*
X56044Y-29906D01*
X56002Y-29774D01*
X55987Y-29637D01*
X55998Y-29501D01*
X56036Y-29368D01*
X56099Y-29246D01*
X56185Y-29137D01*
X56290Y-29048D01*
X56410Y-28981D01*
X56542Y-28938D01*
X56679Y-28922D01*
X56815Y-28932D01*
X56948Y-28969D01*
X57071Y-29032D01*
X57180Y-29117D01*
X57270Y-29221D01*
X57338Y-29341D01*
X57382Y-29472D01*
X57399Y-29609D01*
X57400Y-29628D01*
G54D13*
X57443Y-30627D02*
X57527Y-30558D01*
X57605Y-30482D01*
X57676Y-30399D01*
X57740Y-30310D01*
X57795Y-30216D01*
X57842Y-30118D01*
X57881Y-30016D01*
X57910Y-29911D01*
X57930Y-29804D01*
X57941Y-29695D01*
X57942Y-29587D01*
X57933Y-29478D01*
X57916Y-29371D01*
X57889Y-29265D01*
X57852Y-29162D01*
X57807Y-29063D01*
X57754Y-28968D01*
X57692Y-28878D01*
X57623Y-28794D01*
X57547Y-28716D01*
X57464Y-28645D01*
X57375Y-28581D01*
X57281Y-28526D01*
X57183Y-28479D01*
X57081Y-28440D01*
X56976Y-28411D01*
X56869Y-28391D01*
X56760Y-28380D01*
X56652Y-28379D01*
X56543Y-28388D01*
X56436Y-28405D01*
X56330Y-28432D01*
X56227Y-28469D01*
X56128Y-28514D01*
X56033Y-28567D01*
X55943Y-28629D01*
X55859Y-28698D01*
X55781Y-28774D01*
X55710Y-28857D01*
X55646Y-28946D01*
X55591Y-29040D01*
X55544Y-29138D01*
X55505Y-29240D01*
X55476Y-29345D01*
X55456Y-29452D01*
X55445Y-29561D01*
X55444Y-29669D01*
X55453Y-29778D01*
X55470Y-29885D01*
X55497Y-29991D01*
X55534Y-30094D01*
X55579Y-30193D01*
X55632Y-30288D01*
X55694Y-30378D01*
X55763Y-30462D01*
X55839Y-30540D01*
X55922Y-30611D01*
X55943Y-30627D01*
G54D10*
X56693Y-29178D02*
X56654Y-29180D01*
X56615Y-29185D01*
X56577Y-29194D01*
X56540Y-29206D01*
X56503Y-29221D01*
X56469Y-29239D01*
X56435Y-29260D01*
X56404Y-29284D01*
X56375Y-29310D01*
X56349Y-29339D01*
X56325Y-29370D01*
X56304Y-29404D01*
X56286Y-29438D01*
X56271Y-29475D01*
X56259Y-29512D01*
X56250Y-29550D01*
X56245Y-29589D01*
X56243Y-29628D01*
X56693Y-30078D02*
X56732Y-30076D01*
X56771Y-30071D01*
X56809Y-30062D01*
X56846Y-30050D01*
X56883Y-30035D01*
X56918Y-30017D01*
X56951Y-29996D01*
X56982Y-29972D01*
X57011Y-29946D01*
X57037Y-29917D01*
X57061Y-29886D01*
X57082Y-29852D01*
X57100Y-29818D01*
X57115Y-29781D01*
X57127Y-29744D01*
X57136Y-29706D01*
X57141Y-29667D01*
X57143Y-29628D01*
X56693Y-28978D02*
X56637Y-28981D01*
X56581Y-28988D01*
X56525Y-29001D01*
X56471Y-29018D01*
X56419Y-29039D01*
X56369Y-29066D01*
X56321Y-29096D01*
X56276Y-29131D01*
X56234Y-29169D01*
X56196Y-29211D01*
X56161Y-29256D01*
X56131Y-29304D01*
X56104Y-29354D01*
X56083Y-29406D01*
X56066Y-29460D01*
X56053Y-29516D01*
X56046Y-29572D01*
X56043Y-29628D01*
X56693Y-30278D02*
X56749Y-30275D01*
X56805Y-30268D01*
X56861Y-30255D01*
X56915Y-30238D01*
X56967Y-30217D01*
X57018Y-30190D01*
X57065Y-30160D01*
X57110Y-30125D01*
X57152Y-30087D01*
X57190Y-30045D01*
X57225Y-30000D01*
X57255Y-29952D01*
X57282Y-29902D01*
X57303Y-29850D01*
X57320Y-29796D01*
X57333Y-29740D01*
X57340Y-29684D01*
X57343Y-29628D01*
X56693Y-28778D02*
X56619Y-28782D01*
X56546Y-28791D01*
X56474Y-28807D01*
X56403Y-28830D01*
X56334Y-28858D01*
X56269Y-28892D01*
X56206Y-28932D01*
X56147Y-28977D01*
X56092Y-29027D01*
X56042Y-29082D01*
X55997Y-29141D01*
X55957Y-29204D01*
X55923Y-29269D01*
X55895Y-29338D01*
X55872Y-29409D01*
X55856Y-29481D01*
X55847Y-29554D01*
X55843Y-29628D01*
X56693Y-30478D02*
X56767Y-30474D01*
X56840Y-30465D01*
X56912Y-30449D01*
X56983Y-30426D01*
X57052Y-30398D01*
X57118Y-30364D01*
X57180Y-30324D01*
X57239Y-30279D01*
X57294Y-30229D01*
X57344Y-30174D01*
X57389Y-30115D01*
X57429Y-30052D01*
X57463Y-29987D01*
X57491Y-29918D01*
X57514Y-29847D01*
X57530Y-29775D01*
X57539Y-29702D01*
X57543Y-29628D01*
G54D14*
X50042Y-28479D02*
X49742Y-28479D01*
X49742Y-28551D01*
X49757Y-28594D01*
X49785Y-28622D01*
X49814Y-28637D01*
X49871Y-28651D01*
X49914Y-28651D01*
X49971Y-28637D01*
X50000Y-28622D01*
X50028Y-28594D01*
X50042Y-28551D01*
X50042Y-28479D01*
X50042Y-28937D02*
X50042Y-28765D01*
X50042Y-28851D02*
X49742Y-28851D01*
X49785Y-28822D01*
X49814Y-28794D01*
X49828Y-28765D01*
X52719Y-28833D02*
X52419Y-28833D01*
X52419Y-28905D01*
X52434Y-28948D01*
X52462Y-28976D01*
X52491Y-28991D01*
X52548Y-29005D01*
X52591Y-29005D01*
X52648Y-28991D01*
X52677Y-28976D01*
X52705Y-28948D01*
X52719Y-28905D01*
X52719Y-28833D01*
X52448Y-29119D02*
X52434Y-29133D01*
X52419Y-29162D01*
X52419Y-29233D01*
X52434Y-29262D01*
X52448Y-29276D01*
X52477Y-29291D01*
X52505Y-29291D01*
X52548Y-29276D01*
X52719Y-29105D01*
X52719Y-29291D01*
X57208Y-27888D02*
X56908Y-27888D01*
X56908Y-27960D01*
X56923Y-28003D01*
X56951Y-28031D01*
X56980Y-28046D01*
X57037Y-28060D01*
X57080Y-28060D01*
X57137Y-28046D01*
X57166Y-28031D01*
X57194Y-28003D01*
X57208Y-27960D01*
X57208Y-27888D01*
X56908Y-28160D02*
X56908Y-28346D01*
X57023Y-28246D01*
X57023Y-28288D01*
X57037Y-28317D01*
X57051Y-28331D01*
X57080Y-28346D01*
X57151Y-28346D01*
X57180Y-28331D01*
X57194Y-28317D01*
X57208Y-28288D01*
X57208Y-28203D01*
X57194Y-28174D01*
X57180Y-28160D01*
M02*
