G04 (created by PCBNEW-RS274X (2011-07-08 BZR 3044)-stable) date 5/4/2013 3:49:39 PM*
G01*
G70*
G90*
%MOIN*%
G04 Gerber Fmt 3.4, Leading zero omitted, Abs format*
%FSLAX34Y34*%
G04 APERTURE LIST*
%ADD10C,0.006000*%
%ADD11C,0.004900*%
%ADD12C,0.003900*%
%ADD13C,0.005000*%
%ADD14C,0.015000*%
%ADD15C,0.004500*%
%ADD16C,0.004300*%
%ADD17C,0.004400*%
%ADD18C,0.010000*%
G04 APERTURE END LIST*
G54D10*
G54D11*
X53826Y-27144D02*
X53807Y-27121D01*
X53779Y-27121D01*
X53751Y-27144D01*
X53732Y-27188D01*
X53723Y-27233D01*
X53714Y-27323D01*
X53714Y-27391D01*
X53723Y-27481D01*
X53732Y-27526D01*
X53751Y-27571D01*
X53779Y-27593D01*
X53798Y-27593D01*
X53826Y-27571D01*
X53835Y-27548D01*
X53835Y-27391D01*
X53798Y-27391D01*
X53920Y-27593D02*
X53920Y-27121D01*
X54032Y-27593D01*
X54032Y-27121D01*
X54126Y-27593D02*
X54126Y-27121D01*
X54173Y-27121D01*
X54201Y-27144D01*
X54220Y-27188D01*
X54229Y-27233D01*
X54238Y-27323D01*
X54238Y-27391D01*
X54229Y-27481D01*
X54220Y-27526D01*
X54201Y-27571D01*
X54173Y-27593D01*
X54126Y-27593D01*
G54D12*
X51980Y-28239D02*
X52160Y-28239D01*
X52070Y-28419D02*
X52070Y-28059D01*
X52283Y-28419D02*
X52328Y-28419D01*
X52351Y-28397D01*
X52362Y-28374D01*
X52385Y-28307D01*
X52396Y-28217D01*
X52396Y-28037D01*
X52385Y-27992D01*
X52373Y-27970D01*
X52351Y-27947D01*
X52306Y-27947D01*
X52283Y-27970D01*
X52272Y-27992D01*
X52261Y-28037D01*
X52261Y-28149D01*
X52272Y-28194D01*
X52283Y-28217D01*
X52306Y-28239D01*
X52351Y-28239D01*
X52373Y-28217D01*
X52385Y-28194D01*
X52396Y-28149D01*
X52463Y-27947D02*
X52542Y-28419D01*
X52621Y-27947D01*
X49955Y-27505D02*
X49946Y-27534D01*
X49918Y-27562D01*
X49899Y-27562D01*
X49871Y-27534D01*
X49852Y-27477D01*
X49843Y-27421D01*
X49834Y-27308D01*
X49834Y-27224D01*
X49843Y-27111D01*
X49852Y-27055D01*
X49871Y-26999D01*
X49899Y-26971D01*
X49918Y-26971D01*
X49946Y-26999D01*
X49955Y-27027D01*
X50068Y-27562D02*
X50049Y-27534D01*
X50040Y-27505D01*
X50031Y-27449D01*
X50031Y-27280D01*
X50040Y-27224D01*
X50049Y-27196D01*
X50068Y-27168D01*
X50096Y-27168D01*
X50115Y-27196D01*
X50124Y-27224D01*
X50134Y-27280D01*
X50134Y-27449D01*
X50124Y-27505D01*
X50115Y-27534D01*
X50096Y-27562D01*
X50068Y-27562D01*
X50302Y-27562D02*
X50302Y-26971D01*
X50302Y-27534D02*
X50284Y-27562D01*
X50246Y-27562D01*
X50227Y-27534D01*
X50218Y-27505D01*
X50209Y-27449D01*
X50209Y-27280D01*
X50218Y-27224D01*
X50227Y-27196D01*
X50246Y-27168D01*
X50284Y-27168D01*
X50302Y-27196D01*
X50471Y-27534D02*
X50452Y-27562D01*
X50415Y-27562D01*
X50396Y-27534D01*
X50387Y-27477D01*
X50387Y-27252D01*
X50396Y-27196D01*
X50415Y-27168D01*
X50452Y-27168D01*
X50471Y-27196D01*
X50480Y-27252D01*
X50480Y-27308D01*
X50387Y-27365D01*
G54D13*
X53600Y-28478D02*
X52700Y-28478D01*
X52700Y-28478D02*
X52700Y-27978D01*
X52700Y-27978D02*
X53600Y-27978D01*
X53600Y-27978D02*
X53600Y-28478D01*
X51946Y-28478D02*
X51046Y-28478D01*
X51046Y-28478D02*
X51046Y-27978D01*
X51046Y-27978D02*
X51946Y-27978D01*
X51946Y-27978D02*
X51946Y-28478D01*
G54D10*
X50587Y-27862D02*
X50587Y-26862D01*
X50587Y-26862D02*
X53587Y-26862D01*
X53587Y-26862D02*
X53587Y-27862D01*
X53587Y-27862D02*
X50587Y-27862D01*
X51587Y-26862D02*
X51587Y-27862D01*
G54D13*
X54518Y-29535D02*
X55718Y-29535D01*
X55718Y-29535D02*
X55718Y-29835D01*
X55718Y-29835D02*
X54518Y-29835D01*
X54518Y-29835D02*
X54518Y-29535D01*
G54D14*
X56215Y-27756D02*
X56197Y-27930D01*
X56147Y-28098D01*
X56064Y-28254D01*
X55953Y-28390D01*
X55818Y-28502D01*
X55663Y-28585D01*
X55495Y-28637D01*
X55321Y-28655D01*
X55147Y-28640D01*
X54978Y-28590D01*
X54823Y-28509D01*
X54686Y-28399D01*
X54573Y-28264D01*
X54488Y-28110D01*
X54435Y-27943D01*
X54416Y-27768D01*
X54430Y-27594D01*
X54479Y-27425D01*
X54559Y-27269D01*
X54668Y-27131D01*
X54802Y-27017D01*
X54955Y-26932D01*
X55122Y-26877D01*
X55297Y-26857D01*
X55471Y-26870D01*
X55640Y-26917D01*
X55797Y-26997D01*
X55935Y-27105D01*
X56050Y-27238D01*
X56137Y-27390D01*
X56192Y-27557D01*
X56214Y-27731D01*
X56215Y-27756D01*
G54D15*
X52609Y-28853D02*
X52549Y-28720D01*
X52506Y-28853D02*
X52506Y-28573D01*
X52574Y-28573D01*
X52592Y-28587D01*
X52600Y-28600D01*
X52609Y-28627D01*
X52609Y-28667D01*
X52600Y-28693D01*
X52592Y-28707D01*
X52574Y-28720D01*
X52506Y-28720D01*
X52780Y-28853D02*
X52677Y-28853D01*
X52729Y-28853D02*
X52729Y-28573D01*
X52712Y-28613D01*
X52694Y-28640D01*
X52677Y-28653D01*
X52991Y-28693D02*
X52973Y-28680D01*
X52965Y-28667D01*
X52956Y-28640D01*
X52956Y-28627D01*
X52965Y-28600D01*
X52973Y-28587D01*
X52991Y-28573D01*
X53025Y-28573D01*
X53042Y-28587D01*
X53051Y-28600D01*
X53059Y-28627D01*
X53059Y-28640D01*
X53051Y-28667D01*
X53042Y-28680D01*
X53025Y-28693D01*
X52991Y-28693D01*
X52973Y-28707D01*
X52965Y-28720D01*
X52956Y-28747D01*
X52956Y-28800D01*
X52965Y-28827D01*
X52973Y-28840D01*
X52991Y-28853D01*
X53025Y-28853D01*
X53042Y-28840D01*
X53051Y-28827D01*
X53059Y-28800D01*
X53059Y-28747D01*
X53051Y-28720D01*
X53042Y-28707D01*
X53025Y-28693D01*
X53127Y-28600D02*
X53136Y-28587D01*
X53153Y-28573D01*
X53196Y-28573D01*
X53213Y-28587D01*
X53222Y-28600D01*
X53230Y-28627D01*
X53230Y-28653D01*
X53222Y-28693D01*
X53119Y-28853D01*
X53230Y-28853D01*
X53341Y-28573D02*
X53358Y-28573D01*
X53375Y-28587D01*
X53384Y-28600D01*
X53393Y-28627D01*
X53401Y-28680D01*
X53401Y-28747D01*
X53393Y-28800D01*
X53384Y-28827D01*
X53375Y-28840D01*
X53358Y-28853D01*
X53341Y-28853D01*
X53324Y-28840D01*
X53315Y-28827D01*
X53307Y-28800D01*
X53298Y-28747D01*
X53298Y-28680D01*
X53307Y-28627D01*
X53315Y-28600D01*
X53324Y-28587D01*
X53341Y-28573D01*
X53581Y-28853D02*
X53521Y-28720D01*
X53478Y-28853D02*
X53478Y-28573D01*
X53546Y-28573D01*
X53564Y-28587D01*
X53572Y-28600D01*
X53581Y-28627D01*
X53581Y-28667D01*
X53572Y-28693D01*
X53564Y-28707D01*
X53546Y-28720D01*
X53478Y-28720D01*
X50601Y-28263D02*
X50541Y-28130D01*
X50498Y-28263D02*
X50498Y-27983D01*
X50566Y-27983D01*
X50584Y-27997D01*
X50592Y-28010D01*
X50601Y-28037D01*
X50601Y-28077D01*
X50592Y-28103D01*
X50584Y-28117D01*
X50566Y-28130D01*
X50498Y-28130D01*
X50669Y-28010D02*
X50678Y-27997D01*
X50695Y-27983D01*
X50738Y-27983D01*
X50755Y-27997D01*
X50764Y-28010D01*
X50772Y-28037D01*
X50772Y-28063D01*
X50764Y-28103D01*
X50661Y-28263D01*
X50772Y-28263D01*
X50399Y-28496D02*
X50381Y-28483D01*
X50373Y-28470D01*
X50364Y-28443D01*
X50364Y-28430D01*
X50373Y-28403D01*
X50381Y-28390D01*
X50399Y-28376D01*
X50433Y-28376D01*
X50450Y-28390D01*
X50459Y-28403D01*
X50467Y-28430D01*
X50467Y-28443D01*
X50459Y-28470D01*
X50450Y-28483D01*
X50433Y-28496D01*
X50399Y-28496D01*
X50381Y-28510D01*
X50373Y-28523D01*
X50364Y-28550D01*
X50364Y-28603D01*
X50373Y-28630D01*
X50381Y-28643D01*
X50399Y-28656D01*
X50433Y-28656D01*
X50450Y-28643D01*
X50459Y-28630D01*
X50467Y-28603D01*
X50467Y-28550D01*
X50459Y-28523D01*
X50450Y-28510D01*
X50433Y-28496D01*
X50535Y-28403D02*
X50544Y-28390D01*
X50561Y-28376D01*
X50604Y-28376D01*
X50621Y-28390D01*
X50630Y-28403D01*
X50638Y-28430D01*
X50638Y-28456D01*
X50630Y-28496D01*
X50527Y-28656D01*
X50638Y-28656D01*
X50818Y-28656D02*
X50758Y-28523D01*
X50715Y-28656D02*
X50715Y-28376D01*
X50783Y-28376D01*
X50801Y-28390D01*
X50809Y-28403D01*
X50818Y-28430D01*
X50818Y-28470D01*
X50809Y-28496D01*
X50801Y-28510D01*
X50783Y-28523D01*
X50715Y-28523D01*
G54D10*
G54D16*
X56007Y-29921D02*
X55990Y-29902D01*
X55973Y-29865D01*
X55948Y-29808D01*
X55931Y-29790D01*
X55914Y-29790D01*
X55923Y-29883D02*
X55906Y-29865D01*
X55889Y-29827D01*
X55881Y-29752D01*
X55881Y-29621D01*
X55889Y-29546D01*
X55906Y-29508D01*
X55923Y-29489D01*
X55957Y-29489D01*
X55973Y-29508D01*
X55990Y-29546D01*
X55999Y-29621D01*
X55999Y-29752D01*
X55990Y-29827D01*
X55973Y-29865D01*
X55957Y-29883D01*
X55923Y-29883D01*
X56167Y-29883D02*
X56066Y-29883D01*
X56116Y-29883D02*
X56116Y-29489D01*
X56099Y-29546D01*
X56083Y-29583D01*
X56066Y-29602D01*
G54D11*
X54509Y-30672D02*
X54509Y-30372D01*
X54575Y-30587D01*
X54640Y-30372D01*
X54640Y-30672D01*
X54734Y-30672D02*
X54734Y-30372D01*
X54800Y-30587D01*
X54865Y-30372D01*
X54865Y-30672D01*
X55025Y-30515D02*
X55053Y-30530D01*
X55062Y-30544D01*
X55071Y-30572D01*
X55071Y-30615D01*
X55062Y-30644D01*
X55053Y-30658D01*
X55034Y-30672D01*
X54959Y-30672D01*
X54959Y-30372D01*
X55025Y-30372D01*
X55043Y-30387D01*
X55053Y-30401D01*
X55062Y-30430D01*
X55062Y-30458D01*
X55053Y-30487D01*
X55043Y-30501D01*
X55025Y-30515D01*
X54959Y-30515D01*
X55128Y-30372D02*
X55240Y-30372D01*
X55184Y-30672D02*
X55184Y-30372D01*
X55287Y-30372D02*
X55409Y-30372D01*
X55343Y-30487D01*
X55372Y-30487D01*
X55390Y-30501D01*
X55400Y-30515D01*
X55409Y-30544D01*
X55409Y-30615D01*
X55400Y-30644D01*
X55390Y-30658D01*
X55372Y-30672D01*
X55315Y-30672D01*
X55297Y-30658D01*
X55287Y-30644D01*
X55503Y-30672D02*
X55541Y-30672D01*
X55560Y-30658D01*
X55569Y-30644D01*
X55588Y-30601D01*
X55597Y-30544D01*
X55597Y-30430D01*
X55588Y-30401D01*
X55578Y-30387D01*
X55560Y-30372D01*
X55522Y-30372D01*
X55503Y-30387D01*
X55494Y-30401D01*
X55485Y-30430D01*
X55485Y-30501D01*
X55494Y-30530D01*
X55503Y-30544D01*
X55522Y-30558D01*
X55560Y-30558D01*
X55578Y-30544D01*
X55588Y-30530D01*
X55597Y-30501D01*
X55719Y-30372D02*
X55738Y-30372D01*
X55757Y-30387D01*
X55766Y-30401D01*
X55776Y-30430D01*
X55785Y-30487D01*
X55785Y-30558D01*
X55776Y-30615D01*
X55766Y-30644D01*
X55757Y-30658D01*
X55738Y-30672D01*
X55719Y-30672D01*
X55701Y-30658D01*
X55691Y-30644D01*
X55682Y-30615D01*
X55673Y-30558D01*
X55673Y-30487D01*
X55682Y-30430D01*
X55691Y-30401D01*
X55701Y-30387D01*
X55719Y-30372D01*
X55954Y-30472D02*
X55954Y-30672D01*
X55907Y-30358D02*
X55861Y-30572D01*
X55982Y-30572D01*
G54D17*
X56361Y-27445D02*
X56361Y-27045D01*
X56420Y-27331D01*
X56479Y-27045D01*
X56479Y-27445D01*
X56538Y-27045D02*
X56639Y-27045D01*
X56588Y-27445D02*
X56588Y-27045D01*
X56656Y-27483D02*
X56791Y-27483D01*
X56833Y-27445D02*
X56833Y-27045D01*
X56833Y-27235D02*
X56934Y-27235D01*
X56934Y-27445D02*
X56934Y-27045D01*
X57043Y-27445D02*
X57027Y-27426D01*
X57018Y-27407D01*
X57010Y-27369D01*
X57010Y-27254D01*
X57018Y-27216D01*
X57027Y-27197D01*
X57043Y-27178D01*
X57069Y-27178D01*
X57086Y-27197D01*
X57094Y-27216D01*
X57102Y-27254D01*
X57102Y-27369D01*
X57094Y-27407D01*
X57086Y-27426D01*
X57069Y-27445D01*
X57043Y-27445D01*
X57203Y-27445D02*
X57187Y-27426D01*
X57178Y-27388D01*
X57178Y-27045D01*
X57339Y-27426D02*
X57322Y-27445D01*
X57288Y-27445D01*
X57271Y-27426D01*
X57263Y-27388D01*
X57263Y-27235D01*
X57271Y-27197D01*
X57288Y-27178D01*
X57322Y-27178D01*
X57339Y-27197D01*
X57347Y-27235D01*
X57347Y-27273D01*
X57263Y-27312D01*
G54D18*
M02*
