G04 (created by PCBNEW-RS274X (2011-07-08 BZR 3044)-stable) date 5/4/2013 3:49:39 PM*
G01*
G70*
G90*
%MOIN*%
G04 Gerber Fmt 3.4, Leading zero omitted, Abs format*
%FSLAX34Y34*%
G04 APERTURE LIST*
%ADD10C,0.006000*%
%ADD11R,0.025000X0.045000*%
%ADD12C,0.066000*%
%ADD13R,0.060000X0.060000*%
%ADD14C,0.060000*%
%ADD15R,0.036000X0.036000*%
%ADD16C,0.160000*%
%ADD17C,0.019700*%
%ADD18C,0.019700*%
G04 APERTURE END LIST*
G54D10*
G54D11*
X53450Y-28228D03*
X52850Y-28228D03*
X51796Y-28228D03*
X51196Y-28228D03*
G54D12*
X51181Y-29028D03*
X51181Y-30028D03*
X53937Y-29028D03*
X53937Y-30028D03*
X56693Y-29028D03*
X56693Y-30028D03*
G54D13*
X51087Y-27362D03*
G54D14*
X52087Y-27362D03*
X53087Y-27362D03*
G54D15*
X54768Y-29285D03*
X55468Y-29285D03*
X55118Y-30085D03*
G54D16*
X55315Y-27756D03*
G54D17*
X52850Y-28150D03*
X55468Y-29285D03*
X53425Y-28150D03*
G54D18*
X51796Y-28228D02*
X51796Y-27653D01*
X51796Y-27653D02*
X52087Y-27362D01*
X54016Y-28111D02*
X54016Y-27520D01*
X54768Y-28863D02*
X54016Y-28111D01*
X54768Y-29285D02*
X54768Y-28863D01*
X53858Y-27362D02*
X53087Y-27362D01*
X54016Y-27520D02*
X53858Y-27362D01*
X53450Y-28150D02*
X53425Y-28150D01*
X55118Y-30085D02*
X56636Y-30085D01*
X56636Y-30085D02*
X56693Y-30028D01*
X51181Y-29028D02*
X51181Y-28243D01*
X51181Y-28243D02*
X51196Y-28228D01*
M02*
