G04 (created by PCBNEW (2013-05-16 BZR 4016)-stable) date 7/3/2013 12:55:40*
%MOIN*%
G04 Gerber Fmt 3.4, Leading zero omitted, Abs format*
%FSLAX34Y34*%
G01*
G70*
G90*
G04 APERTURE LIST*
%ADD10C,0.00590551*%
%ADD11C,0.066*%
%ADD12R,0.025X0.045*%
%ADD13C,0.137795*%
%ADD14C,0.052*%
%ADD15R,0.052X0.052*%
%ADD16R,0.0315X0.0394*%
%ADD17C,0.02*%
%ADD18C,0.01*%
G04 APERTURE END LIST*
G54D10*
G54D11*
X90000Y-62350D03*
X90000Y-61350D03*
X92750Y-62350D03*
X92750Y-61350D03*
X87250Y-62350D03*
X87250Y-61350D03*
G54D12*
X91100Y-61700D03*
X91700Y-61700D03*
X91700Y-61000D03*
X91100Y-61000D03*
G54D13*
X88650Y-63270D03*
G54D14*
X90170Y-63680D03*
X90970Y-63680D03*
X91770Y-63680D03*
G54D15*
X92570Y-63680D03*
G54D16*
X88600Y-60947D03*
X88975Y-61813D03*
X88225Y-61813D03*
G54D17*
X90970Y-63680D02*
X90970Y-62430D01*
X90970Y-62430D02*
X91100Y-61700D01*
X91700Y-61700D02*
X92700Y-62300D01*
X92700Y-62300D02*
X92750Y-62350D01*
X87250Y-61350D02*
X87250Y-61250D01*
X87533Y-60967D02*
X88600Y-60967D01*
X87250Y-61250D02*
X87533Y-60967D01*
X90170Y-63680D02*
X90170Y-63670D01*
X89000Y-62500D02*
X88600Y-62500D01*
X90170Y-63670D02*
X89000Y-62500D01*
X88600Y-63400D02*
X88600Y-62500D01*
G54D18*
X91700Y-61000D02*
X92100Y-61000D01*
X93020Y-63680D02*
X92570Y-63680D01*
X93500Y-63200D02*
X93020Y-63680D01*
X93500Y-61000D02*
X93500Y-63200D01*
X93300Y-60800D02*
X93500Y-61000D01*
X92300Y-60800D02*
X93300Y-60800D01*
X92100Y-61000D02*
X92300Y-60800D01*
X88225Y-61813D02*
X88225Y-61625D01*
X90945Y-60845D02*
X91100Y-61000D01*
X89440Y-60845D02*
X90945Y-60845D01*
X88910Y-61375D02*
X89440Y-60845D01*
X88475Y-61375D02*
X88910Y-61375D01*
X88225Y-61625D02*
X88475Y-61375D01*
G54D10*
G36*
X90756Y-61350D02*
X90725Y-61425D01*
X90724Y-61524D01*
X90724Y-61809D01*
X90625Y-62368D01*
X90626Y-62399D01*
X90620Y-62430D01*
X90620Y-63308D01*
X90537Y-63390D01*
X90535Y-63395D01*
X90526Y-63393D01*
X90456Y-63464D01*
X90456Y-63323D01*
X90433Y-63231D01*
X90242Y-63165D01*
X90039Y-63176D01*
X89906Y-63231D01*
X89883Y-63323D01*
X90170Y-63609D01*
X90456Y-63323D01*
X90456Y-63464D01*
X90240Y-63680D01*
X90526Y-63966D01*
X90535Y-63964D01*
X90537Y-63968D01*
X90648Y-64080D01*
X90445Y-64080D01*
X90456Y-64036D01*
X90170Y-63750D01*
X90099Y-63821D01*
X90099Y-63680D01*
X89813Y-63393D01*
X89721Y-63416D01*
X89655Y-63607D01*
X89666Y-63810D01*
X89721Y-63943D01*
X89813Y-63966D01*
X90099Y-63680D01*
X90099Y-63821D01*
X89883Y-64036D01*
X89894Y-64080D01*
X89591Y-64080D01*
X89591Y-63444D01*
X89586Y-63071D01*
X89452Y-62748D01*
X89382Y-62709D01*
X89382Y-61960D01*
X89382Y-61925D01*
X89320Y-61863D01*
X89025Y-61863D01*
X89025Y-62197D01*
X89087Y-62260D01*
X89182Y-62260D01*
X89273Y-62222D01*
X89344Y-62151D01*
X89382Y-62059D01*
X89382Y-61960D01*
X89382Y-62709D01*
X89317Y-62673D01*
X89246Y-62744D01*
X89246Y-62602D01*
X89171Y-62467D01*
X88824Y-62328D01*
X88451Y-62333D01*
X88128Y-62467D01*
X88053Y-62602D01*
X88650Y-63199D01*
X89246Y-62602D01*
X89246Y-62744D01*
X88720Y-63270D01*
X89317Y-63866D01*
X89452Y-63791D01*
X89591Y-63444D01*
X89591Y-64080D01*
X89153Y-64080D01*
X89171Y-64072D01*
X89246Y-63937D01*
X88650Y-63340D01*
X88579Y-63411D01*
X88579Y-63270D01*
X87982Y-62673D01*
X87847Y-62748D01*
X87708Y-63095D01*
X87713Y-63468D01*
X87847Y-63791D01*
X87982Y-63866D01*
X88579Y-63270D01*
X88579Y-63411D01*
X88053Y-63937D01*
X88128Y-64072D01*
X88147Y-64080D01*
X86269Y-64080D01*
X86269Y-60869D01*
X86910Y-60869D01*
X86758Y-61021D01*
X86670Y-61234D01*
X86669Y-61464D01*
X86758Y-61678D01*
X86921Y-61841D01*
X86941Y-61849D01*
X86921Y-61858D01*
X86758Y-62021D01*
X86670Y-62234D01*
X86669Y-62464D01*
X86758Y-62678D01*
X86921Y-62841D01*
X87134Y-62929D01*
X87364Y-62930D01*
X87578Y-62841D01*
X87741Y-62678D01*
X87829Y-62465D01*
X87830Y-62235D01*
X87741Y-62021D01*
X87578Y-61858D01*
X87558Y-61850D01*
X87578Y-61841D01*
X87741Y-61678D01*
X87829Y-61465D01*
X87830Y-61317D01*
X88108Y-61317D01*
X88059Y-61365D01*
X88017Y-61365D01*
X87926Y-61403D01*
X87855Y-61474D01*
X87817Y-61566D01*
X87817Y-61665D01*
X87817Y-62059D01*
X87855Y-62151D01*
X87925Y-62221D01*
X88017Y-62259D01*
X88117Y-62260D01*
X88432Y-62260D01*
X88523Y-62222D01*
X88594Y-62151D01*
X88600Y-62138D01*
X88605Y-62151D01*
X88676Y-62222D01*
X88767Y-62260D01*
X88862Y-62260D01*
X88925Y-62197D01*
X88925Y-61863D01*
X88917Y-61863D01*
X88917Y-61763D01*
X88925Y-61763D01*
X88925Y-61755D01*
X89025Y-61755D01*
X89025Y-61763D01*
X89320Y-61763D01*
X89382Y-61700D01*
X89382Y-61665D01*
X89382Y-61566D01*
X89344Y-61474D01*
X89289Y-61419D01*
X89420Y-61289D01*
X89419Y-61464D01*
X89508Y-61678D01*
X89671Y-61841D01*
X89691Y-61849D01*
X89671Y-61858D01*
X89508Y-62021D01*
X89420Y-62234D01*
X89419Y-62464D01*
X89508Y-62678D01*
X89671Y-62841D01*
X89884Y-62929D01*
X90114Y-62930D01*
X90328Y-62841D01*
X90491Y-62678D01*
X90579Y-62465D01*
X90580Y-62235D01*
X90491Y-62021D01*
X90328Y-61858D01*
X90308Y-61850D01*
X90328Y-61841D01*
X90491Y-61678D01*
X90579Y-61465D01*
X90580Y-61235D01*
X90542Y-61145D01*
X90724Y-61145D01*
X90724Y-61274D01*
X90756Y-61350D01*
X90756Y-61350D01*
G37*
G54D18*
X90756Y-61350D02*
X90725Y-61425D01*
X90724Y-61524D01*
X90724Y-61809D01*
X90625Y-62368D01*
X90626Y-62399D01*
X90620Y-62430D01*
X90620Y-63308D01*
X90537Y-63390D01*
X90535Y-63395D01*
X90526Y-63393D01*
X90456Y-63464D01*
X90456Y-63323D01*
X90433Y-63231D01*
X90242Y-63165D01*
X90039Y-63176D01*
X89906Y-63231D01*
X89883Y-63323D01*
X90170Y-63609D01*
X90456Y-63323D01*
X90456Y-63464D01*
X90240Y-63680D01*
X90526Y-63966D01*
X90535Y-63964D01*
X90537Y-63968D01*
X90648Y-64080D01*
X90445Y-64080D01*
X90456Y-64036D01*
X90170Y-63750D01*
X90099Y-63821D01*
X90099Y-63680D01*
X89813Y-63393D01*
X89721Y-63416D01*
X89655Y-63607D01*
X89666Y-63810D01*
X89721Y-63943D01*
X89813Y-63966D01*
X90099Y-63680D01*
X90099Y-63821D01*
X89883Y-64036D01*
X89894Y-64080D01*
X89591Y-64080D01*
X89591Y-63444D01*
X89586Y-63071D01*
X89452Y-62748D01*
X89382Y-62709D01*
X89382Y-61960D01*
X89382Y-61925D01*
X89320Y-61863D01*
X89025Y-61863D01*
X89025Y-62197D01*
X89087Y-62260D01*
X89182Y-62260D01*
X89273Y-62222D01*
X89344Y-62151D01*
X89382Y-62059D01*
X89382Y-61960D01*
X89382Y-62709D01*
X89317Y-62673D01*
X89246Y-62744D01*
X89246Y-62602D01*
X89171Y-62467D01*
X88824Y-62328D01*
X88451Y-62333D01*
X88128Y-62467D01*
X88053Y-62602D01*
X88650Y-63199D01*
X89246Y-62602D01*
X89246Y-62744D01*
X88720Y-63270D01*
X89317Y-63866D01*
X89452Y-63791D01*
X89591Y-63444D01*
X89591Y-64080D01*
X89153Y-64080D01*
X89171Y-64072D01*
X89246Y-63937D01*
X88650Y-63340D01*
X88579Y-63411D01*
X88579Y-63270D01*
X87982Y-62673D01*
X87847Y-62748D01*
X87708Y-63095D01*
X87713Y-63468D01*
X87847Y-63791D01*
X87982Y-63866D01*
X88579Y-63270D01*
X88579Y-63411D01*
X88053Y-63937D01*
X88128Y-64072D01*
X88147Y-64080D01*
X86269Y-64080D01*
X86269Y-60869D01*
X86910Y-60869D01*
X86758Y-61021D01*
X86670Y-61234D01*
X86669Y-61464D01*
X86758Y-61678D01*
X86921Y-61841D01*
X86941Y-61849D01*
X86921Y-61858D01*
X86758Y-62021D01*
X86670Y-62234D01*
X86669Y-62464D01*
X86758Y-62678D01*
X86921Y-62841D01*
X87134Y-62929D01*
X87364Y-62930D01*
X87578Y-62841D01*
X87741Y-62678D01*
X87829Y-62465D01*
X87830Y-62235D01*
X87741Y-62021D01*
X87578Y-61858D01*
X87558Y-61850D01*
X87578Y-61841D01*
X87741Y-61678D01*
X87829Y-61465D01*
X87830Y-61317D01*
X88108Y-61317D01*
X88059Y-61365D01*
X88017Y-61365D01*
X87926Y-61403D01*
X87855Y-61474D01*
X87817Y-61566D01*
X87817Y-61665D01*
X87817Y-62059D01*
X87855Y-62151D01*
X87925Y-62221D01*
X88017Y-62259D01*
X88117Y-62260D01*
X88432Y-62260D01*
X88523Y-62222D01*
X88594Y-62151D01*
X88600Y-62138D01*
X88605Y-62151D01*
X88676Y-62222D01*
X88767Y-62260D01*
X88862Y-62260D01*
X88925Y-62197D01*
X88925Y-61863D01*
X88917Y-61863D01*
X88917Y-61763D01*
X88925Y-61763D01*
X88925Y-61755D01*
X89025Y-61755D01*
X89025Y-61763D01*
X89320Y-61763D01*
X89382Y-61700D01*
X89382Y-61665D01*
X89382Y-61566D01*
X89344Y-61474D01*
X89289Y-61419D01*
X89420Y-61289D01*
X89419Y-61464D01*
X89508Y-61678D01*
X89671Y-61841D01*
X89691Y-61849D01*
X89671Y-61858D01*
X89508Y-62021D01*
X89420Y-62234D01*
X89419Y-62464D01*
X89508Y-62678D01*
X89671Y-62841D01*
X89884Y-62929D01*
X90114Y-62930D01*
X90328Y-62841D01*
X90491Y-62678D01*
X90579Y-62465D01*
X90580Y-62235D01*
X90491Y-62021D01*
X90328Y-61858D01*
X90308Y-61850D01*
X90328Y-61841D01*
X90491Y-61678D01*
X90579Y-61465D01*
X90580Y-61235D01*
X90542Y-61145D01*
X90724Y-61145D01*
X90724Y-61274D01*
X90756Y-61350D01*
M02*
