G04 (created by PCBNEW (2013-05-16 BZR 4016)-stable) date 6/30/2013 15:10:24*
%MOIN*%
G04 Gerber Fmt 3.4, Leading zero omitted, Abs format*
%FSLAX34Y34*%
G01*
G70*
G90*
G04 APERTURE LIST*
%ADD10C,0.00590551*%
%ADD11C,0.066*%
%ADD12R,0.0315X0.0394*%
%ADD13R,0.025X0.045*%
%ADD14C,0.137795*%
%ADD15C,0.052*%
%ADD16R,0.052X0.052*%
%ADD17C,0.02*%
%ADD18C,0.01*%
G04 APERTURE END LIST*
G54D10*
G54D11*
X92750Y-62350D03*
X92750Y-61350D03*
X90000Y-62350D03*
X90000Y-61350D03*
X87250Y-62350D03*
X87250Y-61350D03*
G54D12*
X88600Y-60967D03*
X88975Y-61833D03*
X88225Y-61833D03*
G54D13*
X91100Y-61700D03*
X91700Y-61700D03*
X91700Y-61000D03*
X91100Y-61000D03*
G54D14*
X88650Y-63270D03*
G54D15*
X90170Y-63680D03*
X90970Y-63680D03*
X91770Y-63680D03*
G54D16*
X92570Y-63680D03*
G54D17*
X90970Y-63680D02*
X90970Y-62430D01*
X90970Y-62430D02*
X91100Y-61700D01*
X91700Y-61700D02*
X92700Y-62300D01*
X92700Y-62300D02*
X92750Y-62350D01*
X87250Y-61350D02*
X87250Y-61250D01*
X87533Y-60967D02*
X88600Y-60967D01*
X87250Y-61250D02*
X87533Y-60967D01*
X90170Y-63680D02*
X90170Y-63670D01*
X89000Y-62500D02*
X88600Y-62500D01*
X90170Y-63670D02*
X89000Y-62500D01*
X88600Y-63400D02*
X88600Y-62500D01*
X88225Y-61833D02*
X88225Y-62225D01*
X88500Y-62500D02*
X88600Y-62500D01*
X88225Y-62225D02*
X88500Y-62500D01*
G54D18*
X91700Y-61000D02*
X92100Y-61000D01*
X93020Y-63680D02*
X92570Y-63680D01*
X93500Y-63200D02*
X93020Y-63680D01*
X93500Y-61000D02*
X93500Y-63200D01*
X93300Y-60800D02*
X93500Y-61000D01*
X92300Y-60800D02*
X93300Y-60800D01*
X92100Y-61000D02*
X92300Y-60800D01*
X91100Y-61000D02*
X90800Y-61000D01*
X89200Y-61608D02*
X88975Y-61833D01*
X89200Y-61000D02*
X89200Y-61608D01*
X89400Y-60800D02*
X89200Y-61000D01*
X90600Y-60800D02*
X89400Y-60800D01*
X90800Y-61000D02*
X90600Y-60800D01*
G54D10*
G36*
X90756Y-61350D02*
X90725Y-61425D01*
X90724Y-61524D01*
X90724Y-61809D01*
X90625Y-62368D01*
X90626Y-62399D01*
X90620Y-62430D01*
X90620Y-63308D01*
X90537Y-63390D01*
X90535Y-63395D01*
X90526Y-63393D01*
X90456Y-63464D01*
X90456Y-63323D01*
X90433Y-63231D01*
X90242Y-63165D01*
X90039Y-63176D01*
X89906Y-63231D01*
X89883Y-63323D01*
X90170Y-63609D01*
X90456Y-63323D01*
X90456Y-63464D01*
X90240Y-63680D01*
X90526Y-63966D01*
X90535Y-63964D01*
X90537Y-63968D01*
X90648Y-64080D01*
X90445Y-64080D01*
X90456Y-64036D01*
X90170Y-63750D01*
X90099Y-63821D01*
X90099Y-63680D01*
X89813Y-63393D01*
X89721Y-63416D01*
X89655Y-63607D01*
X89666Y-63810D01*
X89721Y-63943D01*
X89813Y-63966D01*
X90099Y-63680D01*
X90099Y-63821D01*
X89883Y-64036D01*
X89894Y-64080D01*
X89591Y-64080D01*
X89591Y-63444D01*
X89586Y-63071D01*
X89452Y-62748D01*
X89317Y-62673D01*
X89246Y-62744D01*
X89246Y-62602D01*
X89171Y-62467D01*
X88824Y-62328D01*
X88451Y-62333D01*
X88175Y-62447D01*
X88175Y-62217D01*
X88175Y-61883D01*
X88175Y-61783D01*
X88175Y-61448D01*
X88112Y-61386D01*
X88017Y-61385D01*
X87926Y-61423D01*
X87855Y-61494D01*
X87817Y-61586D01*
X87817Y-61685D01*
X87817Y-61720D01*
X87880Y-61783D01*
X88175Y-61783D01*
X88175Y-61883D01*
X87880Y-61883D01*
X87817Y-61945D01*
X87817Y-61980D01*
X87817Y-62079D01*
X87855Y-62171D01*
X87926Y-62242D01*
X88017Y-62280D01*
X88112Y-62280D01*
X88175Y-62217D01*
X88175Y-62447D01*
X88128Y-62467D01*
X88053Y-62602D01*
X88650Y-63199D01*
X89246Y-62602D01*
X89246Y-62744D01*
X88720Y-63270D01*
X89317Y-63866D01*
X89452Y-63791D01*
X89591Y-63444D01*
X89591Y-64080D01*
X89153Y-64080D01*
X89171Y-64072D01*
X89246Y-63937D01*
X88650Y-63340D01*
X88579Y-63411D01*
X88579Y-63270D01*
X87982Y-62673D01*
X87847Y-62748D01*
X87708Y-63095D01*
X87713Y-63468D01*
X87847Y-63791D01*
X87982Y-63866D01*
X88579Y-63270D01*
X88579Y-63411D01*
X88053Y-63937D01*
X88128Y-64072D01*
X88147Y-64080D01*
X86269Y-64080D01*
X86269Y-60869D01*
X86910Y-60869D01*
X86758Y-61021D01*
X86670Y-61234D01*
X86669Y-61464D01*
X86758Y-61678D01*
X86921Y-61841D01*
X86941Y-61849D01*
X86921Y-61858D01*
X86758Y-62021D01*
X86670Y-62234D01*
X86669Y-62464D01*
X86758Y-62678D01*
X86921Y-62841D01*
X87134Y-62929D01*
X87364Y-62930D01*
X87578Y-62841D01*
X87741Y-62678D01*
X87829Y-62465D01*
X87830Y-62235D01*
X87741Y-62021D01*
X87578Y-61858D01*
X87558Y-61850D01*
X87578Y-61841D01*
X87741Y-61678D01*
X87829Y-61465D01*
X87830Y-61317D01*
X88241Y-61317D01*
X88300Y-61375D01*
X88333Y-61389D01*
X88275Y-61448D01*
X88275Y-61783D01*
X88282Y-61783D01*
X88282Y-61883D01*
X88275Y-61883D01*
X88275Y-62217D01*
X88337Y-62280D01*
X88432Y-62280D01*
X88523Y-62242D01*
X88594Y-62171D01*
X88599Y-62158D01*
X88605Y-62171D01*
X88675Y-62241D01*
X88767Y-62279D01*
X88867Y-62280D01*
X89182Y-62280D01*
X89273Y-62242D01*
X89344Y-62171D01*
X89382Y-62079D01*
X89382Y-61980D01*
X89382Y-61849D01*
X89412Y-61820D01*
X89477Y-61722D01*
X89493Y-61642D01*
X89508Y-61678D01*
X89671Y-61841D01*
X89691Y-61849D01*
X89671Y-61858D01*
X89508Y-62021D01*
X89420Y-62234D01*
X89419Y-62464D01*
X89508Y-62678D01*
X89671Y-62841D01*
X89884Y-62929D01*
X90114Y-62930D01*
X90328Y-62841D01*
X90491Y-62678D01*
X90579Y-62465D01*
X90580Y-62235D01*
X90491Y-62021D01*
X90328Y-61858D01*
X90308Y-61850D01*
X90328Y-61841D01*
X90491Y-61678D01*
X90579Y-61465D01*
X90580Y-61235D01*
X90558Y-61182D01*
X90587Y-61212D01*
X90587Y-61212D01*
X90685Y-61277D01*
X90729Y-61286D01*
X90756Y-61350D01*
X90756Y-61350D01*
G37*
G54D18*
X90756Y-61350D02*
X90725Y-61425D01*
X90724Y-61524D01*
X90724Y-61809D01*
X90625Y-62368D01*
X90626Y-62399D01*
X90620Y-62430D01*
X90620Y-63308D01*
X90537Y-63390D01*
X90535Y-63395D01*
X90526Y-63393D01*
X90456Y-63464D01*
X90456Y-63323D01*
X90433Y-63231D01*
X90242Y-63165D01*
X90039Y-63176D01*
X89906Y-63231D01*
X89883Y-63323D01*
X90170Y-63609D01*
X90456Y-63323D01*
X90456Y-63464D01*
X90240Y-63680D01*
X90526Y-63966D01*
X90535Y-63964D01*
X90537Y-63968D01*
X90648Y-64080D01*
X90445Y-64080D01*
X90456Y-64036D01*
X90170Y-63750D01*
X90099Y-63821D01*
X90099Y-63680D01*
X89813Y-63393D01*
X89721Y-63416D01*
X89655Y-63607D01*
X89666Y-63810D01*
X89721Y-63943D01*
X89813Y-63966D01*
X90099Y-63680D01*
X90099Y-63821D01*
X89883Y-64036D01*
X89894Y-64080D01*
X89591Y-64080D01*
X89591Y-63444D01*
X89586Y-63071D01*
X89452Y-62748D01*
X89317Y-62673D01*
X89246Y-62744D01*
X89246Y-62602D01*
X89171Y-62467D01*
X88824Y-62328D01*
X88451Y-62333D01*
X88175Y-62447D01*
X88175Y-62217D01*
X88175Y-61883D01*
X88175Y-61783D01*
X88175Y-61448D01*
X88112Y-61386D01*
X88017Y-61385D01*
X87926Y-61423D01*
X87855Y-61494D01*
X87817Y-61586D01*
X87817Y-61685D01*
X87817Y-61720D01*
X87880Y-61783D01*
X88175Y-61783D01*
X88175Y-61883D01*
X87880Y-61883D01*
X87817Y-61945D01*
X87817Y-61980D01*
X87817Y-62079D01*
X87855Y-62171D01*
X87926Y-62242D01*
X88017Y-62280D01*
X88112Y-62280D01*
X88175Y-62217D01*
X88175Y-62447D01*
X88128Y-62467D01*
X88053Y-62602D01*
X88650Y-63199D01*
X89246Y-62602D01*
X89246Y-62744D01*
X88720Y-63270D01*
X89317Y-63866D01*
X89452Y-63791D01*
X89591Y-63444D01*
X89591Y-64080D01*
X89153Y-64080D01*
X89171Y-64072D01*
X89246Y-63937D01*
X88650Y-63340D01*
X88579Y-63411D01*
X88579Y-63270D01*
X87982Y-62673D01*
X87847Y-62748D01*
X87708Y-63095D01*
X87713Y-63468D01*
X87847Y-63791D01*
X87982Y-63866D01*
X88579Y-63270D01*
X88579Y-63411D01*
X88053Y-63937D01*
X88128Y-64072D01*
X88147Y-64080D01*
X86269Y-64080D01*
X86269Y-60869D01*
X86910Y-60869D01*
X86758Y-61021D01*
X86670Y-61234D01*
X86669Y-61464D01*
X86758Y-61678D01*
X86921Y-61841D01*
X86941Y-61849D01*
X86921Y-61858D01*
X86758Y-62021D01*
X86670Y-62234D01*
X86669Y-62464D01*
X86758Y-62678D01*
X86921Y-62841D01*
X87134Y-62929D01*
X87364Y-62930D01*
X87578Y-62841D01*
X87741Y-62678D01*
X87829Y-62465D01*
X87830Y-62235D01*
X87741Y-62021D01*
X87578Y-61858D01*
X87558Y-61850D01*
X87578Y-61841D01*
X87741Y-61678D01*
X87829Y-61465D01*
X87830Y-61317D01*
X88241Y-61317D01*
X88300Y-61375D01*
X88333Y-61389D01*
X88275Y-61448D01*
X88275Y-61783D01*
X88282Y-61783D01*
X88282Y-61883D01*
X88275Y-61883D01*
X88275Y-62217D01*
X88337Y-62280D01*
X88432Y-62280D01*
X88523Y-62242D01*
X88594Y-62171D01*
X88599Y-62158D01*
X88605Y-62171D01*
X88675Y-62241D01*
X88767Y-62279D01*
X88867Y-62280D01*
X89182Y-62280D01*
X89273Y-62242D01*
X89344Y-62171D01*
X89382Y-62079D01*
X89382Y-61980D01*
X89382Y-61849D01*
X89412Y-61820D01*
X89477Y-61722D01*
X89493Y-61642D01*
X89508Y-61678D01*
X89671Y-61841D01*
X89691Y-61849D01*
X89671Y-61858D01*
X89508Y-62021D01*
X89420Y-62234D01*
X89419Y-62464D01*
X89508Y-62678D01*
X89671Y-62841D01*
X89884Y-62929D01*
X90114Y-62930D01*
X90328Y-62841D01*
X90491Y-62678D01*
X90579Y-62465D01*
X90580Y-62235D01*
X90491Y-62021D01*
X90328Y-61858D01*
X90308Y-61850D01*
X90328Y-61841D01*
X90491Y-61678D01*
X90579Y-61465D01*
X90580Y-61235D01*
X90558Y-61182D01*
X90587Y-61212D01*
X90587Y-61212D01*
X90685Y-61277D01*
X90729Y-61286D01*
X90756Y-61350D01*
M02*
